<?xml version="1.0" encoding="UTF-8" standalone="no"?>
<!-- Created with Inkscape (http://www.inkscape.org/) -->

<svg
   xmlns:dc="http://purl.org/dc/elements/1.1/"
   xmlns:cc="http://creativecommons.org/ns#"
   xmlns:rdf="http://www.w3.org/1999/02/22-rdf-syntax-ns#"
   xmlns:svg="http://www.w3.org/2000/svg"
   xmlns="http://www.w3.org/2000/svg"
   xmlns:sodipodi="http://sodipodi.sourceforge.net/DTD/sodipodi-0.dtd"
   xmlns:inkscape="http://www.inkscape.org/namespaces/inkscape"
   width="256"
   height="256"
   id="svg2"
   version="1.1"
   inkscape:version="0.48.4 r9939"
   sodipodi:docname="epa_button.svg"
   inkscape:export-filename="C:\Users\Ryan Cooper\Documents\GitHub\GSCPC-Website-Stuff\img\epa_button.png"
   inkscape:export-xdpi="90"
   inkscape:export-ydpi="90">
  <defs
     id="defs4" />
  <sodipodi:namedview
     id="base"
     pagecolor="#ffffff"
     bordercolor="#666666"
     borderopacity="1.0"
     inkscape:pageopacity="0.0"
     inkscape:pageshadow="2"
     inkscape:zoom="2"
     inkscape:cx="102.41099"
     inkscape:cy="163.35228"
     inkscape:document-units="px"
     inkscape:current-layer="layer1"
     showgrid="false"
     showguides="true"
     inkscape:guide-bbox="true"
     inkscape:window-width="1920"
     inkscape:window-height="976"
     inkscape:window-x="-8"
     inkscape:window-y="-8"
     inkscape:window-maximized="1">
    <sodipodi:guide
       orientation="1,0"
       position="8,128"
       id="guide2985" />
    <sodipodi:guide
       orientation="0,1"
       position="128,248"
       id="guide2987" />
    <sodipodi:guide
       orientation="1,0"
       position="248,128"
       id="guide2989" />
    <sodipodi:guide
       orientation="0,1"
       position="128,8"
       id="guide2993" />
    <sodipodi:guide
       orientation="0,1"
       position="128,128"
       id="guide2995" />
    <sodipodi:guide
       orientation="1,0"
       position="128,128"
       id="guide2997" />
    <sodipodi:guide
       orientation="1,0"
       position="0,128"
       id="guide3788" />
    <sodipodi:guide
       orientation="1,0"
       position="256,128"
       id="guide3790" />
    <sodipodi:guide
       orientation="0,1"
       position="128,256"
       id="guide3792" />
    <sodipodi:guide
       orientation="0,1"
       position="128,0"
       id="guide3794" />
  </sodipodi:namedview>
  <metadata
     id="metadata7">
    <rdf:RDF>
      <cc:Work
         rdf:about="">
        <dc:format>image/svg+xml</dc:format>
        <dc:type
           rdf:resource="http://purl.org/dc/dcmitype/StillImage" />
        <dc:title></dc:title>
      </cc:Work>
    </rdf:RDF>
  </metadata>
  <g
     inkscape:groupmode="layer"
     id="layer1"
     inkscape:label="bg">
    <rect
       style="color:#000000;fill:#ecf0f1;fill-opacity:1;stroke:none;stroke-width:15;marker:none;visibility:visible;display:inline;overflow:visible;enable-background:accumulate"
       id="rect3006"
       width="256"
       height="256"
       x="0"
       y="1.204592e-014" />
  </g>
  <g
     inkscape:groupmode="layer"
     id="layer2"
     inkscape:label="epa"
     sodipodi:insensitive="true">
    <g
       id="g5022"
       transform="matrix(0.26664877,0,0,0.26664873,105.35482,87.489633)">
      <path
         style="fill:#3198fd"
         d="m 57.85281,601.04563 c -69.19524,-4.95276 -136.31641,-24.94218 -194,-57.77534 -126.58406,-72.05087 -209.36463,-198.02821 -225.52891,-343.21499 -3.60647,-32.39315 -4.17673,-64.25167 -1.47672,-82.5 0.48827,-3.3 1.40538,-10.95 2.03803,-17 4.19448,-40.1118 16.88035,-87.7885 33.56538,-126.14717 46.18473,-106.17809 128.88503,-188.85966 234.90222,-234.84901 38.64126,-16.76224 85.66297,-29.25338 126,-33.47142 6.05,-0.63265 13.7,-1.54976 17,-2.03803 18.24833,-2.70001 50.10685,-2.12975 82.5,1.47672 125.68455,13.99302 238.67533,78.6193 313.00911,179.02891 51.86537,70.05942 81.2344,150.65219 88.00567,241.5 2.98354,40.02926 -2.0048,91.46316 -13.14155,135.5 -20.47328,80.95526 -61.75504,152.93863 -121.02946,211.04015 -41.60287,40.77964 -85.87435,70.37515 -139.73681,93.4141 -61.30849,26.22389 -138.43261,39.59368 -202.10696,35.03608 z m 71.72739,-15.51051 c 87.52143,-9.06997 167.69413,-43.13227 236.77261,-100.59557 12.85985,-10.69753 40.68672,-38.5244 51.38425,-51.38425 57.60044,-69.24334 91.51598,-149.03492 100.52468,-236.5 8.56689,-83.17544 -6.57708,-165.74291 -44.11089,-240.5 -9.62911,-19.17857 -13.17218,-25.23336 -26.91772,-46 -41.78261,-63.1248 -99.365,-113.96551 -167.96812,-148.30263 -43.24918,-21.64701 -91.12922,-36.10755 -139.4122,-42.10472 -37.59348,-4.66944 -68.3146,-4.8165 -106,-0.5074 -56.4226,6.45158 -114.11228,25.28993 -163,53.22705 -36.70058,20.97272 -63.1675,41.24649 -93.52377,71.63962 -41.23386,41.28391 -70.09599,83.53036 -92.26278,135.04808 -16.74599,38.91928 -27.96073,80.68041 -32.6282,121.5 -4.3091,37.6854 -4.16204,68.40652 0.5074,106 15.52565,124.99638 85.48273,237.9302 190.40735,307.38032 20.81925,13.78036 26.87425,17.32155 46,26.90249 53.17585,26.63815 108.28808,41.62802 168,45.69399 17.19802,1.17107 53.80263,0.4124 72.22739,-1.49698 z M 73.5298,563.34167 c -0.27862,-0.45081 -0.65742,-12.06216 -0.84178,-25.80301 l -0.33521,-24.98336 13.5,-0.30595 c 15.44379,-0.34999 19.76957,0.55495 23.4263,4.90074 4.46781,5.30968 2.89434,15.07119 -2.8513,17.68909 -3.07008,1.39882 -3.36596,3.8303 -0.57394,4.71646 1.10059,0.34931 2.40403,1.39213 2.89654,2.31738 1.33191,2.50217 4.29806,19.23002 3.69055,20.81316 -0.6621,1.7254 -6.97971,1.81541 -8.36151,0.11912 -0.56004,-0.6875 -1.52195,-4.625 -2.13758,-8.75 -1.43302,-9.60191 -3.72004,-12.00731 -11.39482,-11.98469 -7.77856,0.0229 -7.9852,0.31995 -8.09699,11.63811 l -0.09725,9.84658 -4.15822,0.30301 c -2.28702,0.16666 -4.38618,-0.0658 -4.66479,-0.51664 z M 97.94543,533.5074 c 5.54102,-2.86537 5.82479,-9.49443 0.55425,-12.94782 -1.78097,-1.16694 -4.29803,-1.51961 -9.29463,-1.3023 l -6.85224,0.29802 -0.30147,6.39467 c -0.16581,3.51707 -0.0674,7.00457 0.21861,7.75 0.73969,1.9276 11.83922,1.79124 15.67548,-0.19257 z m -78.8098,25.2979 c -0.62979,-0.81828 0.002,-9.19363 1.8288,-24.25 1.53498,-12.65 2.81281,-23.7875 2.83963,-24.75 0.062,-2.22558 5.01605,-2.31583 17.33714,-0.31583 14.60023,2.36997 19.3194,6.87836 18.32548,17.507 -0.9587,10.25198 -6.43991,14.26027 -19.11387,13.97758 -4.4,-0.0981 -8.51065,-0.12001 -9.13478,-0.0486 -0.62412,0.0714 -1.42478,2.71734 -1.77923,5.87984 -1.5385,13.7268 -1.33873,13.25 -5.55144,13.25 -2.08431,0 -4.22259,-0.5625 -4.75173,-1.25 z m 28.26263,-27.20455 c 2.65092,-2.65091 3.23719,-7.21455 1.37406,-10.69585 -1.99633,-3.73018 -13.68842,-6.65056 -15.41854,-3.85116 -0.33939,0.54914 -0.88485,4.1925 -1.21214,8.09635 -0.70122,8.36417 -0.27629,8.86739 7.50662,8.8899 4.30114,0.0124 5.75634,-0.44557 7.75,-2.43924 z m 92.8013,25.45931 c -7.4825,-3.81584 -12.11102,-13.07361 -13.06026,-26.12256 -0.48948,-6.72872 -0.25711,-8.26663 1.99099,-13.17712 4.08251,-8.91738 12.55534,-13.22274 24.67435,-12.53796 9.33806,0.52765 13.79646,3.54488 18.07239,12.23051 2.56285,5.2059 3.29233,8.12871 3.71346,14.87888 0.79599,12.7588 -2.27723,19.37896 -11.11347,23.94 -6.21439,3.2077 -18.73593,3.61426 -24.27746,0.78825 z m 18.45527,-6.40238 c 6.40941,-3.31443 8.83915,-9.8923 7.26486,-19.66769 -1.98029,-12.29653 -7.48367,-18.93885 -15.68491,-18.93095 -9.98984,0.01 -15.24275,8.57635 -13.20943,21.54266 2.27239,14.49086 11.90349,22.08549 21.62948,17.05598 z m -201.00208,-5.94535 c -6.98503,-2.28636 -12.97311,-4.44512 -13.30685,-4.79722 -0.33374,-0.3521 2.89643,-11.4896 7.17816,-24.75 6.14206,-19.02182 8.14514,-24.10981 9.49175,-24.10981 3.27257,0 6.837,1.95336 6.837,3.74677 0,0.98795 -2.72984,10.27178 -6.06632,20.63074 -3.33647,10.35896 -5.83985,19.42463 -5.56306,20.14592 0.27678,0.72129 4.46913,2.56492 9.31631,4.09696 4.84719,1.53203 9.17548,3.07909 9.61843,3.43791 0.44294,0.35883 0.50666,1.8425 0.14159,3.29706 -0.87667,3.49291 -2.16666,3.36877 -17.64701,-1.69833 z m 243.58394,-20.79791 -6.88388,-20.35912 -3,0.0877 c -1.65,0.0482 -5.16175,0.71055 -7.80389,1.47182 -4.1744,1.20274 -4.92586,1.19125 -5.73469,-0.0877 -2.55861,-4.0458 -1.49303,-4.70873 17.56383,-10.92701 10.18889,-3.32464 19.20339,-6.04481 20.03223,-6.04481 0.82883,0 1.90115,1.0125 2.38293,2.25 1.09464,2.8117 -0.37954,4.08558 -7.33923,6.34198 -2.80565,0.90963 -5.47046,1.99033 -5.92181,2.40157 -0.45134,0.41124 2.1884,10.06868 5.86608,21.461 4.23495,13.11852 6.33751,21.06249 5.73432,21.66568 -0.52381,0.52381 -2.5408,1.21015 -4.4822,1.52519 l -3.52981,0.57281 -6.88388,-20.35911 z m -279.24267,8.08568 c -3.30241,-2.01335 -3.34771,-2.13643 -2.69867,-7.33121 0.50519,-4.04343 0.31441,-5.57042 -0.81288,-6.50598 -2.34185,-1.94356 -17.61124,-9.10761 -19.41189,-9.10761 -0.89839,0 -3.32382,1.6506 -5.38983,3.66801 l -3.75638,3.66801 -4.03578,-1.81989 c -2.21968,-1.00093 -4.03578,-2.16716 -4.03578,-2.59161 0,-0.89662 36.20556,-35.90042 38.40759,-37.13274 2.24088,-1.25406 12.59241,4.11507 12.59241,6.53142 0,2.74183 -3.96425,45.55564 -4.57656,49.4268 -0.59891,3.78638 -1.69076,3.99404 -6.28223,1.1948 z m -1.18691,-24.1948 c 0.77665,-1.9173 3.0457,-17.98529 3.0457,-21.56772 0,-0.65026 -0.55254,-1.18228 -1.22788,-1.18228 -1.80342,0 -16.77212,15.18365 -16.77212,17.01297 0,0.91043 2.60221,2.87288 6.25,4.71343 7.58267,3.82595 7.56975,3.82443 8.7043,1.0236 z m 318.05005,-0.74131 c -6.05239,-12.09521 -11.00435,-22.59535 -11.00435,-23.33363 0,-1.34697 25.9144,-14.67506 28.53339,-14.67506 1.68522,0 3.80722,3.63987 2.94002,5.04303 -0.3405,0.55093 -4.86131,3.01066 -10.04625,5.46606 -5.6729,2.68648 -9.42716,5.05635 -9.42716,5.95088 0,2.32859 4.21061,10.40687 5.72779,10.98907 0.75114,0.28824 5.47896,-1.54172 10.50626,-4.06659 8.58893,-4.31362 9.21976,-4.48231 10.45325,-2.79542 2.6125,3.57282 1.52079,4.8996 -7.78171,9.45726 -5.00192,2.45064 -9.28637,4.76553 -9.521,5.14419 -0.7085,1.14348 5.952,13.81152 7.26171,13.81152 0.66938,0 5.37763,-2.025 10.46279,-4.5 5.08516,-2.475 9.85541,-4.5 10.60055,-4.5 1.43413,0 3.37628,3.9564 2.59344,5.28315 -0.57913,0.98151 -27.91141,14.71685 -29.2854,14.71685 -0.55494,0 -5.96094,-9.89609 -12.01333,-21.99131 z m 52.29534,-8.6323 c -4.86055,-2.39673 -13.09321,-11.6837 -16.01521,-18.06617 -6.21732,-13.58042 -1.55339,-25.4809 12.56287,-32.05547 6.3333,-2.9497 13.65571,-2.76169 17.97714,0.46159 3.82083,2.84989 3.85282,4.88205 0.10734,6.81891 -2.98021,1.54113 -3.44718,1.53611 -7.0209,-0.0754 -9.61992,-4.33797 -19.23853,3.72269 -17.40343,14.58457 0.81986,4.8527 7.43945,15.05062 12.05443,18.57064 6.50205,4.95935 14.43851,4.00233 19.4473,-2.34506 1.72093,-2.18085 2.08391,-3.68227 1.70669,-7.05939 -0.44307,-3.96658 -0.21608,-4.49005 3.01586,-6.95518 3.38462,-2.58157 3.53879,-2.60587 4.88161,-0.76945 1.76672,2.41613 1.78578,9.62692 0.0365,13.79616 -1.74728,4.16438 -8.05361,10.24775 -13.21557,12.74834 -4.96385,2.40462 -13.62455,2.56983 -18.13459,0.34593 z m -434.04969,-1.49144 c -1.7875,-1.14474 -3.24608,-2.59966 -3.24129,-3.23315 0.005,-0.63349 5.1798,-8.76719 11.5,-18.07488 6.32021,-9.3077 11.49129,-17.69829 11.49129,-18.64576 0,-0.96915 -2.15344,-3.10453 -4.92314,-4.88184 -6.76511,-4.34116 -7.35721,-5.20405 -5.44463,-7.93464 0.8664,-1.23697 2.13567,-2.03399 2.8206,-1.77116 3.47312,1.33277 33.54717,22.05373 33.54717,23.11394 0,0.67791 -0.79267,1.94992 -1.7615,2.8267 -1.62721,1.47261 -2.17988,1.33369 -7.25,-1.82243 -3.01867,-1.87911 -6.22014,-3.42672 -7.11438,-3.43914 -1.01808,-0.0142 -6.00735,6.70622 -13.3466,17.97741 -6.4464,9.9 -12.01476,17.99242 -12.37412,17.98315 -0.35937,-0.009 -2.1159,-0.95345 -3.9034,-2.0982 z m -36.94793,-27.21371 -4.74228,-4.48064 5.74962,-20.3453 c 3.16229,-11.18992 5.73633,-20.6828 5.7201,-21.0953 -0.0828,-2.10397 -2.84892,0.43068 -14.45337,13.24386 l -12.67374,13.99385 -2.9512,-2.18191 c -4.43206,-3.27676 -6.36833,-0.27184 17.00378,-26.38834 6.85023,-7.6546 13.0349,-14.06241 13.7437,-14.23957 1.69884,-0.42462 10.30132,6.65894 10.30132,8.48245 0,0.78068 -2.47205,10.04443 -5.49344,20.5861 -3.02139,10.54168 -5.1155,19.54462 -4.65357,20.00655 0.46192,0.46192 6.34275,-5.25603 13.06851,-12.70657 6.72576,-7.45053 12.79143,-13.54642 13.47926,-13.54642 0.68784,0 2.28267,1.09858 3.54407,2.44128 l 2.29347,2.44128 -16.71781,18.80872 c -9.19479,10.3448 -17.11343,18.95539 -17.59698,19.13466 -0.48354,0.17927 -3.0132,-1.69034 -5.62144,-4.1547 z m 517.2227,-21.71681 c -7.68638,-8.77494 -14.49718,-15.95443 -15.13512,-15.95443 -0.63794,0 -3.66677,2.0638 -6.73074,4.58623 -5.60647,4.61556 -6.83264,4.82619 -8.6228,1.48124 -0.82535,-1.54218 0.81388,-3.4101 10.70134,-12.19431 19.92437,-17.70117 19.23393,-17.20903 21.39702,-15.25147 2.78183,2.51753 2.35095,3.65593 -3.13447,8.2813 -2.75,2.31883 -5,4.90772 -5,5.75309 0,0.84536 1.6875,3.4376 3.75,5.76052 2.0625,2.32293 8.42666,9.50039 14.14257,15.94992 l 10.39257,11.72642 -2.82966,2.95353 c -1.55631,1.62444 -3.30797,2.93302 -3.89257,2.90796 -0.5846,-0.0251 -7.35176,-7.22506 -15.03814,-16 z m 39.97523,-15.63835 c -15.14877,-13.74675 -32.5,-30.68425 -32.5,-31.72504 0,-1.87044 4.71161,-5.9184 6.19912,-5.32594 1.76423,0.70268 36.80088,33.64539 36.80088,34.6015 0,0.80636 -5.30061,6.15217 -6.05472,6.10634 -0.2449,-0.0149 -2.24528,-1.66047 -4.44528,-3.65686 z m -606.5082,-10.9935 c -5.58632,-6.50242 -10.39937,-12.40184 -10.69566,-13.10983 -0.73716,-1.76147 1.49988,-4.0527 13.70386,-14.0358 5.775,-4.72407 13.5669,-11.28811 17.31534,-14.58675 4.96042,-4.36519 7.17985,-5.73798 8.15458,-5.04387 0.73658,0.52452 5.70407,6.01944 11.03886,12.21093 9.7548,11.32128 10.53293,13.07968 6.69666,15.13279 -1.64799,0.88198 -2.88205,-0.12956 -9.07,-7.43458 -3.93936,-4.65051 -7.67254,-8.45547 -8.29596,-8.45547 -1.84681,0 -9.83948,7.00574 -9.83948,8.62451 0,0.81983 2.7,4.6982 6,8.6186 3.3,3.9204 6,7.64976 6,8.28746 0,0.6377 -0.84961,1.92834 -1.88803,2.8681 -1.80957,1.63764 -2.13159,1.43308 -7.75,-4.92314 -3.22408,-3.64747 -6.22183,-7.27162 -6.66166,-8.05365 -0.43983,-0.78203 -1.56483,-1.40401 -2.5,-1.38217 -2.09943,0.049 -11.20413,8.28525 -11.19009,10.1227 0.006,0.73567 3.16729,5.12756 7.02595,9.75974 3.85865,4.63219 6.86689,8.86867 6.68497,9.41442 -0.18191,0.54575 -1.28512,1.62594 -2.45156,2.40043 -2.01295,1.33655 -2.63742,0.80685 -12.27778,-10.41442 z M 389.92037,407.0295 c -11.35351,-4.08303 -21.77453,-15.19484 -22.80238,-24.31392 -0.92465,-8.20343 4.58419,-18.70626 12.41712,-23.67376 9.89406,-6.27462 22.1894,-3.19828 33.94861,8.49407 5.24292,5.21311 6.31146,6.9028 7.37743,11.66605 1.8068,8.07366 -0.44778,14.33631 -7.89894,21.94121 -7.90217,8.06521 -13.21158,9.42157 -23.04184,5.88635 z m 16.73018,-9.6475 c 3.34368,-2.08875 6.19499,-7.30333 6.1934,-11.3267 -0.003,-8.27498 -12.58047,-20.01414 -23.13501,-21.5935 -6.95056,-1.04007 -14.86145,6.14658 -14.85101,13.49138 0.0144,10.09907 16.79168,23.37302 26.99488,21.35793 1.375,-0.27156 3.53398,-1.13966 4.79774,-1.92911 z m -663.27206,-10.27704 c -0.83912,-1.62269 -1.52568,-3.15745 -1.52568,-3.41058 0,-0.25312 7.9875,-5.29278 17.75,-11.19924 9.7625,-5.90645 18.40893,-11.34669 19.21429,-12.08942 2.84173,-2.62076 -3.21427,-1.46303 -24.0328,4.59435 l -20.43149,5.94476 -2.27133,-2.69476 c -4.822,-5.72097 -4.78227,-5.79767 12.37166,-23.87953 8.97508,-9.46059 15.2764,-16.85633 14.56419,-17.09373 -0.69044,-0.23015 -9.44741,4.51782 -19.45993,10.55104 -10.01253,6.03322 -18.72589,10.77019 -19.36303,10.52661 -1.69179,-0.64677 -3.80194,-6.24715 -2.73593,-7.26121 2.36371,-2.2485 42.62076,-26.01607 43.32662,-25.57982 1.23192,0.76137 8.06775,12.51977 8.06775,13.87743 0,0.65573 -6.075,7.25472 -13.5,14.66444 -7.72211,7.70621 -13.5,14.27294 -13.5,15.3431 0,1.15014 0.51471,1.67337 1.33607,1.35818 4.70328,-1.80482 35.71679,-10.70128 37.30519,-10.70128 1.32988,0 3.11343,2.0005 5.65096,6.33835 2.03928,3.48609 3.70778,6.64167 3.70778,7.01242 0,1.32876 -41.40447,26.64923 -43.57728,26.64923 -0.75425,0 -2.05792,-1.32765 -2.89704,-2.95034 z m 330.14099,-0.71633 c -0.36667,-0.36666 -0.66667,-7.80579 -0.66667,-16.53138 0,-13.01492 -0.2633,-15.96576 -1.46579,-16.4272 -0.80618,-0.30936 -5.64368,0.80843 -10.75,2.48398 -17.5136,5.74678 -35.30354,9.42124 -56.27602,11.62367 -49.40347,5.1881 -97.68234,-3.44016 -143.00819,-25.55801 -15.3908,-7.51031 -35.83841,-20.40916 -35.23288,-22.22576 0.87301,-2.61901 34.11329,-14.95378 52.73288,-19.56806 15.12553,-3.74839 32.17127,-6.2193 47,-6.813 7.975,-0.3193 15.04209,-0.86534 15.70464,-1.21343 1.74316,-0.91579 0.62558,-2.0908 -7.20464,-7.57491 -41.9292,-29.36622 -74.15205,-72.57038 -93.25023,-125.02923 -5.7021,-15.66253 -13.24977,-45.23115 -13.24977,-51.90708 0,-2.34146 3.90883,-2.04113 19.17801,1.47354 26.43043,6.08375 47.73821,13.27091 69.09504,23.30591 62.98901,29.59681 112.25814,80.35477 141.57461,145.85275 3.3788,7.54881 7.60781,18.01074 9.39781,23.24874 1.78999,5.23799 3.70453,9.3743 4.25453,9.1918 0.64166,-0.21293 1.17917,-19.47346 1.5,-53.74875 l 0.5,-53.41691 7.91317,-0.295 c 5.65526,-0.21083 8.14758,0.0745 8.73469,1 0.45183,0.71225 0.82841,25.35393 0.83683,54.75929 0.013,45.5383 0.22022,53.2472 1.39749,52 0.7602,-0.80536 2.16494,-3.93929 3.12164,-6.96429 3.23741,-10.23633 10.61997,-27.43621 17.73343,-41.3153 22.35985,-43.62637 56.59505,-82.48818 95.63467,-108.55892 25.08478,-16.75168 55.99745,-31.02478 85.62808,-39.5365 12.38376,-3.55737 35.00612,-8.58928 38.61549,-8.58928 2.88476,0 2.95574,0.11391 2.33675,3.75 -6.66469,39.14965 -22.83108,79.71757 -44.53256,111.75 -16.44717,24.27681 -40.85548,48.94742 -63.66968,64.35389 -3.4375,2.32135 -6.25,4.64529 -6.25,5.16432 0,1.3954 3.06338,1.80011 18,2.37802 15.23785,0.58955 32.28018,3.25015 48.5,7.57168 22.82824,6.08224 50.06568,16.72815 49.29097,19.26567 -0.76708,2.51256 -17.63642,12.97758 -34.29097,21.27267 -61.49809,30.63019 -130.87318,35.65494 -199.61084,14.45755 -5.28597,-1.63009 -10.12347,-2.9638 -10.75,-2.9638 -0.80415,0 -1.13916,4.6466 -1.13916,15.8 0,10.95556 -0.36793,16.16793 -1.2,17 -1.26577,1.26577 -14.94857,1.7181 -16.13333,0.53333 z m -25.20105,-78.2777 c 0.9347,-1.51237 -6.03877,-18.25084 -14.76754,-35.44664 -14.52206,-28.60866 -31.1413,-51.16095 -53.8913,-73.13044 -26.25685,-25.35603 -53.51985,-43.01024 -87.08934,-56.39487 -13.41892,-5.35032 -34.46849,-12.08368 -37.77552,-12.08368 -2.72255,0 -2.48856,1.78971 1.96116,15 22.11421,65.65249 65.44746,115.99368 122.7447,142.59522 12.39971,5.75685 38.46154,14.52175 52.85222,17.77482 12.24367,2.76773 15.1098,3.07033 15.96562,1.68559 z m 82.55465,-1.60028 c 6.62865,-1.39956 19.34832,-5.04638 28.26592,-8.10405 42.42617,-14.54712 76.6493,-38.13069 104.24463,-71.83626 15.46542,-18.88983 31.63207,-48.0332 40.78086,-73.51504 6.3073,-17.56753 7.21137,-20.87695 6.02677,-22.06155 -0.66314,-0.66314 -5.4946,0.38136 -14.4179,3.11695 -75.38568,23.11078 -131.45307,69.96074 -166.87947,139.4446 -7.16724,14.05752 -15.20929,33.41881 -14.41496,34.70407 0.77911,1.26062 3.53187,0.96699 16.39415,-1.74872 z m 299.97973,50.95589 c -3.575,-1.94884 -13.16628,-6.92682 -21.31397,-11.06219 -8.14768,-4.13537 -15.05225,-8.13984 -15.3435,-8.89881 -0.29124,-0.75897 0.88777,-3.85713 2.62003,-6.88481 l 3.14957,-5.50487 21.08154,0.63252 c 17.90697,0.53728 21.01409,0.41978 20.63365,-0.78028 -0.24634,-0.77704 -7.05729,-4.80933 -15.13545,-8.96064 -8.07816,-4.15132 -15.17682,-8.03711 -15.77481,-8.6351 -1.26801,-1.26801 1.40722,-7.31706 3.23601,-7.31706 2.29408,0 44.81924,22.55909 44.83276,23.78324 0.0182,1.64817 -4.65164,10.89219 -5.88867,11.65671 -0.51748,0.31982 -10.08854,0.16508 -21.26902,-0.34387 -11.18048,-0.50895 -20.71735,-0.55206 -21.19305,-0.0958 -1.0488,1.00592 3.02037,3.49165 19.64366,11.99973 7.84956,4.01754 12.70394,7.08338 12.71055,8.02749 0.0144,2.0603 -2.81432,5.978 -4.296,5.9498 -0.65632,-0.0125 -4.1183,-1.61722 -7.6933,-3.56605 z m -725.03977,-38.00403 c -3.73041,-8.70269 -4.25105,-7.58027 11.02063,-23.75903 7.71053,-8.1685 14.01914,-15.256 14.01914,-15.75 0,-1.73017 -3.13245,-0.85034 -18.16397,5.10182 -8.33379,3.3 -15.74462,6 -16.46851,6 -1.68087,0 -4.81101,-5.96099 -3.70262,-7.0512 0.45931,-0.45176 8.9351,-4.02439 18.8351,-7.93916 9.9,-3.91478 20.36759,-8.07836 23.2613,-9.25241 3.20019,-1.29838 5.58311,-1.76689 6.08276,-1.19593 0.4518,0.51629 1.80082,3.57698 2.99782,6.80153 l 2.17637,5.86284 -7.77521,8.13716 c -20.20893,21.14971 -22.23647,23.63717 -19.26678,23.63717 0.53694,0 8.29105,-2.8937 17.23135,-6.43044 11.03819,-4.36665 16.63077,-6.11865 17.42563,-5.45898 1.57292,1.3054 2.67967,5.97651 1.6581,6.99808 -0.70884,0.70884 -45.91811,18.89134 -46.97174,18.89134 -0.21487,0 -1.27659,-2.06675 -2.35937,-4.59279 z m 748.21177,-51.81624 c -11.1804,-7.87512 -21.04405,-15.03445 -21.91922,-15.90962 -1.38516,-1.38516 -1.43101,-2.30705 -0.3541,-7.11923 0.68042,-3.04041 1.67373,-5.79785 2.20736,-6.12766 1.4772,-0.91295 53.79459,-5.86717 54.50079,-5.16097 0.33945,0.33945 0.004,2.55428 -0.74483,4.92185 -1.33997,4.23502 -1.44654,4.31316 -6.58745,4.83011 -2.87399,0.28899 -5.72012,1.02012 -6.32473,1.62473 -0.60461,0.60461 -2.21006,5.47367 -3.56767,10.82013 -2.72311,10.72396 -2.67292,10.9508 3.23027,14.59917 2.29736,1.41984 3.38758,2.85101 3.38758,4.44698 0,2.91282 -1.68043,7.49934 -2.72525,7.43822 -0.42611,-0.0249 -9.92235,-6.48859 -21.10275,-14.36371 z m 9.99783,-12.16326 c 0.9184,-2.71024 1.7059,-6.42399 1.75,-8.25278 l 0.0802,-3.32508 -9.25,0.61867 c -12.02572,0.80431 -15.75,1.4101 -15.75,2.56188 0,1.26177 19.21822,14.06054 20.49491,13.64901 0.5528,-0.17819 1.75651,-2.54145 2.67492,-5.2517 z m -763.66983,8.0867 c -0.55,-0.19284 -2.69712,-0.63467 -4.77138,-0.98184 -8.67785,-1.45242 -14.83501,-10.5988 -15.50505,-23.03257 -0.41712,-7.74044 -0.3223,-8.16141 2.92266,-12.9749 3.96838,-5.88659 10.78966,-9.72048 20.58221,-11.5682 18.56073,-3.50216 30.28953,5.98093 30.44385,24.61479 0.078,9.423 -3.31736,15.00765 -11.67791,19.20745 -5.95312,2.99046 -18.97487,5.79397 -21.99438,4.73527 z m 11.5685,-11.10976 c 10.6176,-3.11861 14.93526,-7.48752 14.92776,-15.10499 -0.005,-4.79333 -2.96138,-9.71314 -7.13409,-11.87094 -4.68822,-2.42437 -15.74496,-1.54463 -23.14061,1.84122 -8.95403,4.09928 -11.93974,11.25333 -8.08594,19.37462 3.20415,6.75223 12.37775,9.00722 23.43288,5.76009 z m 748.4315,-31.35757 c -8.66878,-2.162 -13.87589,-6.04803 -17.6483,-13.17078 -3.35158,-6.32818 -3.27244,-17.44343 0.1732,-24.32741 2.98627,-5.9662 6.24403,-8.50702 11.87603,-9.26243 l 4.22778,-0.56706 -0.31436,4.28845 c -0.1901,2.59338 -0.90725,4.56132 -1.81435,4.97877 -6.95312,3.19989 -7.54919,3.72666 -8.85515,7.82558 -1.97418,6.19625 -0.76975,10.90302 3.93537,15.37889 4.59673,4.37277 9.01564,5.79573 18.0219,5.80333 11.00065,0.009 16.75113,-5.29707 17.63195,-16.27022 0.47645,-5.93558 0.33035,-6.61935 -1.63955,-7.67361 -1.18943,-0.63657 -4.28073,-1.02086 -6.86956,-0.85399 -3.81624,0.24599 -4.76335,0.68187 -5.0049,2.3034 -0.85359,5.73017 -1.28945,6.5 -3.6801,6.5 -1.33206,0 -2.71778,-0.4787 -3.07938,-1.06378 -0.79643,-1.28865 0.41822,-16.12208 1.45793,-17.80436 0.5735,-0.92794 3.3731,-0.92184 12.47765,0.0272 9.93121,1.03521 11.90089,1.52747 12.79477,3.19769 1.3625,2.54585 0.43108,20.75644 -1.33714,26.14325 -1.75053,5.33286 -9.24247,12.72533 -14.46981,14.27768 -4.47503,1.32893 -13.11386,1.45907 -17.88398,0.2694 z M -325.95198,202.3053 c 0.29873,-4.6556 0.38428,-4.76731 4.30479,-5.62094 11.81617,-2.57281 14.23687,-3.57804 15.34126,-6.37072 0.67273,-1.70115 0.81045,-4.86633 0.35932,-8.25834 l -0.73149,-5.5 -10.60415,0.26618 -10.60415,0.26618 -0.66816,-4.17842 c -0.36748,-2.29813 -0.31366,-4.50247 0.11961,-4.89854 0.43327,-0.39607 11.13776,-1.47854 23.78776,-2.40549 12.65,-0.92695 23.72397,-1.89005 24.60882,-2.14021 2.89537,-0.8186 3.68671,1.90736 4.415,15.20852 0.797,14.55626 0.0645,18.54102 -4.13341,22.48473 -2.05783,1.93323 -3.6223,2.39705 -8.08533,2.39705 -5.17633,0 -5.74858,-0.24847 -8.85882,-3.84648 -3.18139,-3.68033 -5.44626,-4.14508 -5.44626,-1.11756 0,2.22447 -3.80165,4.09473 -12.94039,6.36617 -11.55384,2.87172 -11.22401,2.95224 -10.8644,-2.65213 z m 41.55479,-10.88658 c 1.78581,-1.96435 2.25,-3.66185 2.25,-8.22805 0,-8.39834 -1.2262,-9.60568 -8.93713,-8.79973 -3.42815,0.35831 -6.70234,0.94154 -7.27596,1.29606 -1.47471,0.91141 -0.15258,12.16127 1.77497,15.10309 3.10571,4.7399 8.21113,5.00323 12.18812,0.62863 z m 352.25,-1.94556 C 29.69786,185.06034 -2.29348,169.43722 -27.79329,142.76395 -47.83811,121.79671 -61.70751,94.24289 -66.6568,65.5553 c -2.17328,-12.59699 -2.15727,-34.25209 0.0362,-49.02459 1.90876,-12.8548 7.58351,-30.75253 13.47634,-42.50329 21.24341,-42.36104 57.58038,-70.26024 104.99704,-80.61577 13.16097,-2.87428 46.66393,-2.60023 60.95667,0.49861 61.48721,13.33121 107.8578,63.07543 116.62139,125.10599 0.81285,5.75353 1.41484,13.17853 1.33775,16.5 -0.0771,3.32148 4.6e-4,6.48905 0.17233,7.03905 0.72761,2.3284 -1.34383,21.66313 -3.1605,29.5 -6.77321,29.21872 -19.83121,52.96784 -40.41256,73.5 -28.03399,27.96698 -62.99458,43.04032 -102.01508,43.98405 -7.7,0.18623 -15.575,0.15644 -17.5,-0.0662 z M 96.91948,39.27009 c 0.78833,-0.66361 4.34108,-3.12092 7.895,-5.46068 12.23747,-8.05667 18.64104,-21.04945 17.84541,-36.20814 -1.01946,-19.4233 -15.23816,-35.28643 -34.67695,-38.68743 -17.59879,-3.07907 -36.3954,6.68371 -44.41321,23.0678 -3.02919,6.19005 -3.21692,7.21558 -3.21692,17.57366 0,10.25617 0.21221,11.44788 3.13821,17.62338 3.7686,7.95387 9.06927,14.06049 15.27815,17.60116 2.521,1.43762 5.25864,3.17169 6.08364,3.85348 2.32663,1.92277 5.5505,2.27926 18.56667,2.05305 7.67345,-0.13336 12.58852,-0.649 13.5,-1.41628 z m 346.42799,104.66793 c -0.78167,-17.18344 -0.54619,-18.22042 4.00534,-17.63845 1.82761,0.23369 2.05331,1.24696 2.61844,11.75573 0.34014,6.325 0.67764,11.63306 0.75,11.79569 0.0724,0.16263 3.16906,0.16263 6.88156,0 l 6.75,-0.29569 0.5,-11 0.5,-11 3,0 3,0 0.28855,9.94399 c 0.15871,5.46919 0.77631,10.53169 1.37245,11.25 1.11836,1.34755 11.27011,1.84528 14.25721,0.69902 1.32034,-0.50666 1.58179,-2.5832 1.58179,-12.56336 l 0,-11.95637 3.25,0.31336 3.25,0.31336 0.2735,16.59997 0.2735,16.59997 -8.2735,0.64404 c -4.55043,0.35422 -16.20974,0.64673 -25.90958,0.65003 l -17.63608,0.006 -0.73318,-16.11728 z m -747.23688,4.15087 c -15.1979,-0.40412 -23.63438,-1.01019 -24.3753,-1.75111 -0.69887,-0.69887 -0.87609,-2.50298 -0.46247,-4.70778 l 0.67062,-3.5747 13.70468,0.13559 c 7.53758,0.0746 19.10469,0.41207 25.70469,0.75 l 12,0.61441 0.31823,3.31532 c 0.32823,3.41947 -1.20968,6.31653 -3.19067,6.01049 -0.62016,-0.0958 -11.58656,-0.4523 -24.36978,-0.79222 z m 10.74222,-26.00991 c -7.975,-4.28849 -18.55,-10.00499 -23.5,-12.70335 l -9,-4.90609 0.32538,-4.45712 c 0.17896,-2.45142 0.85396,-4.9865 1.5,-5.63352 0.99298,-0.99449 47.21841,-12.36177 51.67462,-12.70729 1.16777,-0.0906 1.43448,0.87946 1.20421,4.37948 -0.16269,2.47269 -0.61269,4.79013 -1,5.14989 -0.38732,0.35975 -8.80421,2.30917 -18.70421,4.33205 -21.87295,4.46933 -21.5,4.36731 -21.5,5.88152 0,0.67346 7.85016,5.17959 17.44479,10.01363 9.59464,4.83403 17.88493,9.31949 18.42288,9.96768 1.14187,1.37586 0.0395,7.8992 -1.39337,8.24514 -0.53587,0.12937 -7.4993,-3.27353 -15.4743,-7.56202 z m 735.15032,-9.77368 c -0.50603,-0.9625 -1.23241,-4.06397 -1.61419,-6.89217 l -0.69414,-5.14216 13.829,-9.75111 c 20.191,-14.23707 20.61614,-14.57743 19.54577,-15.6478 -0.60323,-0.60323 -7.31792,0.16145 -18.31432,2.08568 -9.54904,1.67096 -17.66111,2.71398 -18.02681,2.31783 -1.21226,-1.31317 -2.00872,-7.01998 -1.06144,-7.60543 1.03022,-0.63672 46.70836,-8.61244 49.33316,-8.61391 1.24862,-7.1e-4 1.92744,1.60752 2.80459,6.64448 0.63648,3.65497 0.79518,6.96538 0.35265,7.35645 -1.18415,1.04648 -17.72973,12.73751 -26.07525,18.42465 -3.97614,2.70958 -7.22934,5.52208 -7.22934,6.25 0,1.65099 -1.62975,1.78781 19,-1.59512 9.625,-1.57834 17.77799,-2.57984 18.11776,-2.22555 1.06573,1.11127 1.85591,7.0424 1.00805,7.5664 -0.66818,0.41296 -47.80105,8.57776 -49.51674,8.57776 -0.29629,0 -0.95272,-0.7875 -1.45875,-1.75 z M -292.57018,63.69411 c -13.15764,-3.94721 -24.09433,-7.69077 -24.30374,-8.31901 -0.20942,-0.62824 0.35019,-3.6566 1.24356,-6.72969 1.22593,-4.21707 2.15883,-5.70727 3.80374,-6.07606 1.19869,-0.26874 9.37943,-1.63317 18.17943,-3.03206 8.8,-1.39888 17.2375,-2.79036 18.75,-3.09216 5.90902,-1.17909 2.52954,-3.12322 -13.62574,-7.83854 -9.00666,-2.62881 -16.92976,-5.12206 -17.60689,-5.54056 -1.5264,-0.94336 -0.40642,-6.92421 1.42848,-7.62832 1.25493,-0.48157 44.29666,11.87424 47.68945,13.69 0.98462,0.52695 1.6169,1.51373 1.40506,2.19284 -2.39161,7.66701 -3.73063,11.74314 -3.87073,11.78292 -0.0933,0.0265 -9.16963,1.48899 -20.16963,3.25 -14.69493,2.35253 -20,3.56476 -20,4.57006 0,0.90221 5.58518,3.04205 16.39833,6.28265 9.01909,2.70294 16.74843,5.13081 17.17633,5.39526 0.84334,0.52122 -0.5557,6.36153 -1.80721,7.54419 -0.4221,0.39888 -11.5328,-2.5043 -24.69044,-6.45152 z m 731.00841,-7.88042 c -8.34449,-2.20606 -15.61997,-13.48299 -15.56346,-24.12322 0.0413,-7.77464 6.25111,-16.89557 10.41515,-15.29768 0.7989,0.30657 1.75717,2.18121 2.1295,4.16587 0.54495,2.90487 0.25857,4.05382 -1.46871,5.89243 -3.20759,3.41433 -4.08667,7.596 -2.54162,12.09024 2.35082,6.83808 4.36825,8.01502 13.72403,8.00638 7.13551,-0.007 9.00686,-0.40381 14.1876,-3.01149 7.92361,-3.98828 10.87297,-8.23485 10.26351,-14.77767 -0.57095,-6.12935 -4.5435,-10.70325 -9.29607,-10.70325 -3.81239,0 -5.33297,-1.59424 -6.11458,-6.41077 -0.57962,-3.57173 -0.5646,-3.58923 3.08051,-3.58923 5.41733,0 9.76526,2.20836 13.93195,7.0762 6.07812,7.10092 8.19519,17.32911 5.11372,24.70592 -3.17608,7.60329 -10.85465,12.92269 -22.67779,15.71024 -7.13537,1.6823 -9.65935,1.72653 -15.18374,0.26603 z M -254.39719,16.98864 c -2.45844,-1.45079 -2.26249,-2.47937 2.25,-11.81063 2.2,-4.54931 4,-9.04834 4,-9.99783 0,-1.83361 -7.62587,-6.12488 -10.88432,-6.12488 -1.33189,0 -2.94196,2.42557 -5.90823,8.9008 -2.24257,4.89544 -4.44417,9.1176 -4.89243,9.38258 -1.36849,0.80897 -5.31502,-1.12999 -5.31502,-2.61131 0,-0.76581 1.8092,-5.30839 4.02045,-10.09462 2.21125,-4.78624 3.72864,-9.17441 3.37198,-9.7515 -0.80399,-1.30088 -10.89046,-5.82595 -12.98616,-5.82595 -0.97262,0 -3.34106,3.85432 -6.45215,10.5 -2.70349,5.775 -5.12797,10.5 -5.38773,10.5 -1.09063,0 -5.56639,-2.37215 -5.56639,-2.95018 0,-0.90377 13.09617,-29.39915 13.9328,-30.31577 0.38451,-0.42128 9.44443,3.32072 20.13315,8.31555 10.68873,4.99483 21.12155,9.77587 23.18405,10.62453 2.0625,0.84867 3.75,2.09974 3.75,2.78017 0,2.35935 -12.9742,29.04687 -14.23393,29.27873 -0.69634,0.12817 -2.05357,-0.2317 -3.01607,-0.79969 z m 668.15852,-7.40724 -2.05772,-4.65181 7.0746,-9.41213 c 3.89103,-5.17666 7.0746,-10.09838 7.0746,-10.93714 0,-1.28523 -1.9623,-1.52502 -12.47968,-1.52502 l -12.47967,0 -2.09009,-4.09691 c -1.14954,-2.25329 -1.84985,-4.33713 -1.55624,-4.63074 0.29361,-0.29361 8.38906,0.005 17.98989,0.66347 l 17.45605,1.1973 8.52028,-4.06656 c 4.68615,-2.23661 8.98554,-4.06656 9.55419,-4.06656 1.35395,0 4.36123,5.84457 3.77687,7.34026 -0.2492,0.63786 -4.21926,3.11251 -8.82235,5.49923 l -8.36925,4.3395 -9.5,14.09097 c -5.225,7.75003 -10.0701,14.27479 -10.76688,14.49946 -0.73997,0.2386 -2.1227,-1.52622 -3.3246,-4.24332 z m -646.40852,-70.93774 c -11.91444,-5.29542 -11.80163,-21.47096 0.18673,-26.77398 5.51671,-2.44031 9.92886,-1.85016 14.41981,1.92872 8.30587,6.98893 7.46883,18.72779 -1.71064,23.99045 -4.41239,2.52966 -8.51561,2.80164 -12.8959,0.85481 z m 614.39788,-3.85829 c -6.16733,-4.12005 -8.61184,-12.51495 -5.4338,-18.66061 2.75621,-5.32993 7.12568,-8.06987 12.86265,-8.06572 8.97712,0.006 14.67822,5.69898 14.66953,14.64739 -0.0107,11.06058 -12.99716,18.15894 -22.09838,12.07894 z m -51.90435,-44.66441 c -6.8826,-2.09359 -15.82025,-9.84951 -18.0212,-15.63843 -1.76743,-4.6487 -1.17697,-11.0793 1.27767,-13.91494 l 2.25,-2.59924 3.31499,2.79348 c 3.23593,2.72686 3.28135,2.87298 1.90481,6.12791 -1.88809,4.46451 -1.10456,7.71413 2.80187,11.62056 4.22597,4.22598 9.05456,5.26317 12.461,2.67667 3.67012,-2.7867 3.07141,-6.26927 -2.8545,-16.60414 -6.19196,-10.79887 -6.74071,-15.45768 -2.42486,-20.58678 5.32206,-6.32491 11.93608,-7.41973 20.13665,-3.33321 10.98078,5.47195 16.19581,17.51668 10.77775,24.89246 -1.4449,1.96699 -1.52125,1.95048 -4.6256,-1 -2.67715,-2.54447 -3.07368,-3.51757 -2.61141,-6.40858 0.65264,-4.08159 -1.4298,-8.09849 -5.42053,-10.45588 -3.73328,-2.2053 -6.53787,-2.05784 -9.07274,0.47703 -2.89055,2.89055 -2.12402,6.5052 3.43179,16.18289 2.46139,4.2875 4.77319,9.38358 5.13733,11.32462 0.96921,5.16636 -1.96078,10.31197 -7.47638,13.12992 -4.58054,2.34022 -6.76032,2.60125 -10.98664,1.31566 z m -505.49353,-4.39721 c -4.71896,-2.27169 -11.39383,-8.85442 -25.40054,-25.04991 l -4.22174,-4.88147 2.74823,-2.86853 c 1.51153,-1.5777 3.27605,-2.86854 3.92115,-2.86854 1.02548,0 16.62677,16.84727 22.33907,24.12315 3.31652,4.22433 8.50366,6.23333 12.60192,4.88078 5.13022,-1.69312 9.51191,-7.20346 9.51191,-11.962 0,-4.36301 -0.14876,-4.57227 -15.24473,-21.44605 -5.3654,-5.99727 -9.75527,-11.43133 -9.75527,-12.07569 0,-1.60759 4.30236,-5.52107 6.06445,-5.5163 1.87105,0.005 22.76675,23.70085 25.68555,29.12748 1.2375,2.30076 2.24749,5.34992 2.24442,6.77591 -0.0224,10.43852 -10.52812,21.96295 -21.49442,23.57878 -3.03931,0.44782 -5.20086,0.0113 -9,-1.81761 z m 464,-27.80703 c -5.5,-3.8598 -11.45693,-7.99513 -13.23762,-9.18962 -1.78069,-1.19449 -3.24319,-2.64949 -3.25,-3.23332 -0.0107,-0.92118 6.90971,-11.08471 23.96022,-35.18848 2.43161,-3.4375 5.03939,-6.25 5.79506,-6.25 0.75568,0 4.37959,2.10528 8.05315,4.6784 3.67355,2.57311 9.49434,6.64774 12.93508,9.05473 5.53934,3.87506 6.13319,4.60562 5.18459,6.37809 -0.58922,1.10096 -1.69666,2.24172 -2.46097,2.53502 -0.76431,0.29329 -5.4225,-2.25679 -10.35152,-5.66684 -5.0393,-3.48635 -9.46482,-5.88926 -10.11098,-5.48991 -1.76195,1.08894 -7.01701,8.64662 -7.01701,10.09167 0,0.7046 3.58689,3.80883 7.97086,6.8983 4.38397,3.08947 8.22422,6.02716 8.53388,6.5282 0.78641,1.27245 -1.69982,4.99234 -3.3367,4.99234 -0.74297,0 -4.78281,-2.475 -8.97742,-5.5 -4.19461,-3.025 -8.17871,-5.5 -8.85356,-5.5 -1.5279,0 -9.50476,10.99197 -9.02805,12.44049 0.19178,0.58273 4.30394,3.85024 9.13814,7.26114 4.8342,3.4109 9.02217,6.43436 9.30661,6.71879 0.6417,0.64171 -2.52806,5.60215 -3.52681,5.51921 -0.39982,-0.0332 -5.22695,-3.2184 -10.72695,-7.07821 z m -431.84844,-19.91822 c -7.50836,-11.58124 -13.65156,-21.6011 -13.65156,-22.26637 0,-0.66526 2.46274,-2.6826 5.47276,-4.48297 6.46559,-3.86723 4.15486,-4.64546 26.24711,8.8397 8.07917,4.93154 15.04731,8.96644 15.48476,8.96644 1.86777,0 0.29311,-3.08917 -8.23227,-16.15009 -4.9652,-7.60671 -9.28129,-14.4914 -9.59132,-15.29931 -0.82244,-2.14325 5.65426,-5.96955 7.24736,-4.28159 1.37646,1.45844 27.3716,41.54856 27.3716,42.21292 0,1.02943 -11.32018,7.60755 -12.36668,7.18624 -0.62332,-0.25095 -8.54397,-5.00394 -17.60143,-10.56222 -16.05403,-9.85184 -19.81967,-11.60125 -18.7019,-8.68839 0.29918,0.77966 4.62233,7.72353 9.60699,15.43082 4.98466,7.7073 9.06302,14.62237 9.06302,15.36684 0,1.12815 -4.77847,4.78478 -6.25274,4.78478 -0.24428,0 -6.58735,-9.47556 -14.0957,-21.0568 z m 393.54268,-4.09355 c -2.20725,-1.41329 -3.10794,-2.63217 -2.71046,-3.66798 0.32741,-0.85323 4.85251,-9.13622 10.05576,-18.40665 5.20325,-9.27043 9.46046,-17.73079 9.46046,-18.80078 0,-1.37684 -1.77223,-2.84007 -6.06347,-5.00628 -4.8652,-2.45594 -6.00152,-3.47611 -5.75,-5.16226 0.7522,-5.04261 2.82356,-4.50987 20.92478,5.38172 9.56378,5.22622 17.5142,10.14326 17.66759,10.92674 0.1534,0.78349 -0.35679,2.2939 -1.13376,3.35646 -1.37615,1.882 -1.56792,1.84919 -7.41888,-1.26934 -3.30342,-1.7607 -6.64957,-3.20128 -7.43589,-3.20128 -0.81131,0 -5.19953,6.83127 -10.14578,15.79424 -10.66572,19.32707 -12.40437,22.2104 -13.37989,22.18891 -0.42059,-0.009 -2.25229,-0.96934 -4.07046,-2.1335 z M -86.26008,-176.1947 c -1.72793,-3.4375 -6.46019,-12.63526 -10.51613,-20.43947 -10.39337,-19.99829 -10.11055,-18.89258 -5.44165,-21.27448 2.98351,-1.52207 4.0928,-1.69609 4.82201,-0.75644 2.12163,2.73388 22.24866,42.6121 22.24866,44.08186 0,1.49924 -4.69415,4.63853 -6.93594,4.63853 -0.5694,0 -2.44903,-2.8125 -4.17695,-6.25 z m 315.61289,-1.01922 c -4.8185,-1.60508 -5.5,-2.62495 -5.5,-8.23078 0,-3.01082 -0.53384,-5.67679 -1.25,-6.24249 -1.82885,-1.44461 -17.38126,-7.25487 -19.46774,-7.27299 -0.98024,-0.008 -3.36861,1.82831 -5.30748,4.08184 l -3.52523,4.09732 -4.22477,-1.69042 c -2.32363,-0.92973 -4.22478,-2.08943 -4.22478,-2.57711 0,-1.0215 33.6655,-39.00957 35.58821,-40.15765 0.70142,-0.41882 3.78101,0.17601 6.84355,1.32185 l 5.56824,2.08335 0,27.36913 c 0,15.05303 -0.3375,27.55997 -0.75,27.79321 -0.4125,0.23324 -2.1,-0.0256 -3.75,-0.57526 z m -4.3347,-34.72449 c 0.65731,-11.33363 0.5137,-13.00629 -1.11664,-13.00629 -1.37497,0 -15.04866,16.75561 -15.04866,18.44049 0,0.85773 0.1125,1.56159 0.25,1.56414 0.1375,0.002 2.95,1.12265 6.25,2.48912 3.3,1.36647 6.675,2.37186 7.5,2.2342 1.18506,-0.19774 1.63968,-2.65879 2.1653,-11.72166 z m -277.85926,26.24371 c -4.10812,-11.38989 -14.69409,-37.05276 -15.70295,-38.06766 -1.08318,-1.08964 -2.40844,-0.87125 -7.65865,1.2621 -6.73256,2.73569 -8.38217,2.40126 -9.11579,-1.84806 -0.36239,-2.09906 -1.1212,-1.73207 22.88513,-11.06845 7.81758,-3.04036 14.60785,-5.52793 15.08948,-5.52793 1.26771,0 3.12813,4.50225 2.35335,5.69514 -0.36113,0.55603 -3.1189,1.9222 -6.12837,3.03592 -3.00946,1.11372 -5.90592,2.71325 -6.43658,3.55451 -0.70113,1.11152 0.99036,6.54277 6.18885,19.872 3.93453,10.08834 7.44257,19.13238 7.79567,20.09788 0.49028,1.34065 -0.20322,2.1086 -2.93498,3.25 -4.5962,1.92041 -5.56445,1.88137 -6.33516,-0.25545 z m 32.33996,-10.90858 c -3.22347,-10.85536 -11.58925,-47.7953 -10.96373,-48.41147 0.96715,-0.9527 27.59438,-7.92995 30.26301,-7.92995 2.24461,0 3.81258,4.91358 1.93773,6.0723 -0.67813,0.41911 -5.39432,1.72362 -10.4804,2.89891 -9.26998,2.1421 -11.8418,3.58449 -10.96924,6.15204 0.25734,0.75721 0.95745,3.28925 1.5558,5.62675 1.29615,5.06347 1.6341,5.11506 13.69374,2.09041 8.42231,-2.11237 8.64075,-2.11826 9.99272,-0.26934 2.6735,3.65624 1.24819,4.81847 -9.11055,7.42893 -5.57257,1.40432 -10.11247,3.09067 -10.35865,3.84772 -0.76299,2.34641 2.03827,13.30895 3.54898,13.88866 0.79387,0.30464 5.64574,-0.41142 10.78194,-1.59125 5.1362,-1.17982 10.05597,-2.14513 10.93282,-2.14513 2.10858,0 3.71784,4.13119 2.18053,5.5977 -0.63289,0.60373 -7.2257,2.52735 -14.6507,4.2747 -7.425,1.74736 -14.46912,3.43203 -15.6536,3.74373 -1.53662,0.40436 -2.31024,0.0392 -2.7004,-1.27471 z m 185.854,-2.05459 c -4.36722,-1.09627 -4.35202,-1.62595 0.63203,-22.03189 2.65377,-10.86522 4.8347,-20.52501 4.84651,-21.4662 0.0151,-1.20364 -1.51557,-2.16771 -5.16004,-3.25 -2.84983,-0.84631 -5.66233,-1.54563 -6.25,-1.55405 -0.58768,-0.008 -1.6571,-0.38861 -2.37649,-0.84486 -1.97973,-1.25557 -0.44048,-6.13983 1.93494,-6.13983 1.05057,0 10.22679,2.08095 20.39159,4.62434 l 18.48146,4.62434 0,2.81664 c 0,1.54916 -0.36171,3.04019 -0.8038,3.31342 -0.44209,0.27323 -3.65419,-0.22124 -7.13801,-1.09881 -4.27397,-1.07662 -6.83462,-1.27994 -7.87274,-0.62511 -0.96767,0.61039 -3.42099,8.5536 -6.61199,21.40783 -5.2332,21.08082 -5.39186,21.39937 -10.07346,20.22418 z M 22.32447,-206.1947 c -1.05203,-2.82459 -5.41059,-49.21107 -4.69153,-49.93013 0.42888,-0.42888 6.28572,-1.33027 13.01522,-2.00311 18.65696,-1.86538 25.8552,0.93242 31.07012,12.07628 2.18967,4.67914 2.62474,7.02575 2.62919,14.18097 0.005,7.80648 -0.2662,9.01361 -3.02797,13.48468 -4.28406,6.93554 -11.03748,10.23506 -24.62493,12.03101 -12.84133,1.69734 -13.79366,1.70796 -14.3701,0.1603 z m 24.97106,-10.03675 c 5.41953,-2.97069 7.55375,-7.4353 7.55573,-15.80597 0.002,-8.75874 -2.86708,-14.36756 -9.05119,-17.69396 -3.82041,-2.05498 -5.34827,-2.31251 -10.83959,-1.82707 -3.51579,0.31079 -6.64948,0.82223 -6.96377,1.13652 -0.66523,0.66523 2.67977,35.3829 3.54379,36.78092 0.94797,1.53385 11.35157,-0.17671 15.75503,-2.59044 z m 66.55081,9.35241 c -5.89351,-1.79273 -9.1958,-4.29764 -11.05015,-8.38198 -2.20047,-4.84668 -2.48088,-8.55962 -0.69338,-9.18093 0.6875,-0.23897 2.79984,-0.099 4.69409,0.31094 2.76572,0.59861 3.60525,1.36737 4.26229,3.90296 1.16579,4.49891 5.13462,7.28335 10.38143,7.28335 5.49963,0 8.88652,-1.55087 10.33645,-4.7331 1.85988,-4.082 -0.79896,-6.70142 -12.47729,-12.29229 -14.49395,-6.93881 -17.07887,-11.38279 -12.19697,-20.96897 3.28875,-6.45784 9.10674,-9.32334 17.75,-8.74228 10.30507,0.69277 16.74473,4.81686 18.33942,11.74495 0.89798,3.9012 -0.33657,4.93589 -5.12323,4.29386 -3.40286,-0.45642 -4.36378,-1.04205 -4.84305,-2.9516 -0.32884,-1.31021 -1.73301,-3.27508 -3.12038,-4.36639 -7.10732,-5.59062 -19.52328,2.17248 -13.36548,8.3568 1.18236,1.18746 6.75392,4.40902 12.38124,7.15902 8.78921,4.29518 10.49035,5.52982 12.06793,8.75857 3.49725,7.15763 0.16779,15.24545 -7.75785,18.8451 -4.24976,1.93014 -14.71279,2.44407 -19.58507,0.96199 z"
         id="path5030"
         inkscape:connector-curvature="0" />
      <path
         style="fill:#0353b4"
         d="m 65.35281,601.37648 c -8.09503,-0.26386 -11.51188,-0.70019 -10.5,-1.34085 1.06409,-0.67371 0.0452,-0.95415 -3.50613,-0.96502 -2.75337,-0.008 -10.85337,-0.69501 -18,-1.52576 -59.85206,-6.95739 -117.87161,-25.87921 -169.49387,-55.27673 -115.11247,-65.55354 -195.11312,-177.57289 -219.40159,-307.21282 -3.20766,-17.1209 -5.46578,-34.50142 -6.27613,-48.30656 -0.34888,-5.94361 -0.94814,-10.2988 -1.3317,-9.67821 -0.38355,0.6206 -0.93594,-4.75394 -1.22753,-11.94343 -0.6114,-15.07472 0.21695,-40.47961 1.22607,-37.60281 0.37532,1.06996 0.97786,-3.21035 1.33897,-9.5118 2.95977,-51.64869 18.51691,-109.58606 43.09036,-160.47562 22.00561,-45.57179 47.73687,-82.2442 83.04681,-118.35903 49.25977,-50.38264 105.07091,-86.04236 172.09722,-109.95904 34.95595,-12.47317 79.98153,-21.88705 113.89471,-23.81294 6.57645,-0.37347 11.07892,-0.98711 10.00548,-1.36365 -2.83018,-0.99278 23.91904,-1.84475 38.35614,-1.22166 6.77534,0.29242 11.81239,0.84465 11.19343,1.22718 -0.61895,0.38254 3.73759,0.98097 9.6812,1.32985 21.70331,1.27396 50.19719,5.8889 75.30656,12.19686 126.18325,31.69964 233.14586,117.72303 291.42788,234.37735 22.82755,45.69046 38.07809,97.1227 44.06167,148.59738 0.83075,7.14663 1.51734,15.24663 1.52576,18 0.009,3.03529 0.34141,4.49199 0.84361,3.70015 0.47023,-0.7414 1.08303,5.54297 1.41754,14.53707 0.64706,17.3977 -0.16661,46.45484 -1.28154,45.76577 -0.38723,-0.23932 -1.01021,3.93848 -1.38439,9.284 -2.22062,31.72345 -10.91609,72.66975 -22.63982,106.60919 -29.3314,84.91245 -83.17975,158.71429 -155.47071,213.08035 -44.36911,33.36757 -98.61348,59.53965 -153.46473,74.0444 -25.15311,6.65144 -54.47959,11.71787 -75.98551,13.12724 -6.02346,0.39474 -9.63492,1.00494 -8.85925,1.49687 0.77863,0.4938 -1.16012,0.83667 -4.7824,0.84578 -3.35054,0.008 -12.12554,0.17558 -19.5,0.37147 -7.37446,0.19589 -18.80811,0.18015 -25.40811,-0.035 z m 76.5,-16.23812 c 105.75533,-14.5403 199.81106,-64.569 269.94126,-143.58306 58.03047,-65.38157 94.08913,-144.73367 106.33274,-234 1.94111,-14.15235 2.19635,-20.4459 2.21027,-54.5 0.0169,-41.25898 -0.67463,-50.3289 -6.0992,-80 -10.59197,-57.93564 -33.59105,-114.47906 -66.66091,-163.88643 -46.18956,-69.00858 -113.00074,-124.71284 -188.72416,-157.35002 -45.91748,-19.79066 -90.65638,-30.80976 -141.49125,-34.849 -18.71382,-1.48696 -65.02443,-0.61486 -82.50875,1.55377 -34.66648,4.29977 -65.96924,11.62157 -96.71073,22.62088 -122.94322,43.98913 -220.21095,141.25685 -264.20007,264.20007 -11.40552,31.87678 -19.35031,66.78282 -23.26368,102.21073 -2.06153,18.66315 -1.75314,75.20393 0.50999,93.5 4.60172,37.20239 11.48683,66.5623 23.2162,99 22.16448,61.2961 55.64393,114.135 101.42479,160.07352 35.19689,35.3181 71.35796,61.29697 116.0235,83.35369 50.38653,24.88186 96.85912,37.76616 158.5,43.94334 2.2,0.22047 20.2,0.27547 40,0.12223 30.12956,-0.23319 38.52755,-0.62614 51.5,-2.40972 z M 73.51015,551.8053 c -0.35654,-6.1875 -0.65029,-17.4375 -0.65279,-25 l -0.0045,-13.75 10.25,-0.14537 c 5.6375,-0.08 11.825,-0.0538 13.75,0.0581 9.24248,0.53741 14,4.44523 14,11.49958 0,4.79269 -1.90217,7.96858 -6.0607,10.11904 -3.73785,1.93292 -3.74187,3.89354 -0.0112,5.43885 3.46819,1.43657 3.77662,2.12436 5.61873,12.52976 1.95678,11.05311 2.04099,10.6698 -2.26492,10.31037 -3.36483,-0.28088 -3.784,-0.64288 -4.41221,-3.81037 -0.3818,-1.925 -1.20816,-6.05272 -1.83638,-9.17272 -0.62821,-3.12 -1.86188,-6.27 -2.74148,-7 -1.69407,-1.40596 -12.46291,-1.81251 -15.54188,-0.58674 -1.50406,0.59878 -1.75,2.10645 -1.75,10.72808 l 4e-5,10.03142 -3.84721,0 -3.84721,0 -0.64824,-11.25 z m 25.44478,-18.03264 c 2.7801,-1.86763 3.45185,-3.00973 3.69471,-6.28169 0.45719,-6.15949 -2.87105,-8.76148 -11.85636,-9.26919 -8.95918,-0.50624 -9.94047,0.28563 -9.94047,8.02171 0,8.85808 0.81526,9.81181 8.3873,9.81181 4.91861,0 7.06909,-0.50529 9.71482,-2.28264 z M 19.50907,558.3053 c -0.53571,-0.87009 4.94777,-47.80028 5.73373,-49.07201 0.2892,-0.46792 5.52267,-0.24429 11.62994,0.49695 16.89275,2.05027 21.98209,5.64533 21.97852,15.5254 -0.002,5.79346 -2.73434,10.90704 -6.99845,13.09807 -2.7299,1.4027 -5.37025,1.73587 -12,1.51418 -4.675,-0.15632 -9.01665,0.0451 -9.64811,0.44764 -0.63146,0.40252 -1.45125,3.99614 -1.82174,7.98582 -0.96674,10.41024 -1.12777,10.75395 -5.03852,10.75395 -1.85548,0 -3.58139,-0.3375 -3.83537,-0.75 z m 29.01318,-26.65209 c 4.41561,-5.13346 2.36693,-12.43129 -4.26801,-15.20354 -3.68066,-1.53788 -10.98497,-1.87724 -11.80616,-0.54852 -0.28752,0.46521 -0.82801,4.50606 -1.2011,8.97966 -0.66065,7.92181 -0.61598,8.16018 1.71375,9.14521 1.31564,0.55627 4.83083,0.85957 7.81152,0.67401 4.41902,-0.2751 5.84965,-0.83754 7.75,-3.04682 z m 92.81197,25.06909 c -12.39257,-5.64843 -17.85546,-30.99677 -9.22025,-42.78278 4.34573,-5.93139 16.26047,-9.32215 26.20286,-7.45695 4.92186,0.92335 10.77416,6.42479 13.64942,12.83109 1.96172,4.37086 2.35537,6.91445 2.36955,15.31104 0.0158,9.32544 -0.18625,10.37682 -2.73411,14.23025 -3.92712,5.93947 -9.39216,8.46472 -19.24888,8.89443 -5.33948,0.23278 -9.00388,-0.10879 -11.01859,-1.02708 z m 16.80071,-5.03812 c 1.76983,-0.75412 4.22787,-2.46795 5.46231,-3.80853 6.71134,-7.28836 3.20136,-28.57033 -5.7016,-34.57035 -6.25526,-4.21564 -15.26733,-2.06087 -19.86631,4.75 -2.12549,3.14774 -2.32385,4.35549 -1.97096,12 0.32662,7.07541 0.88697,9.40663 3.34341,13.90951 4.46575,8.18613 11.16192,10.94543 18.73315,7.71937 z m -199.64845,-7.58532 c -6.52649,-2.13192 -12.24239,-4.25228 -12.70201,-4.7119 -0.45962,-0.45962 2.56183,-11.3447 6.71433,-24.18907 l 7.55,-23.35339 3.12076,0.62415 c 1.71641,0.34328 3.41835,0.95321 3.78208,1.3554 0.36373,0.40219 -2.27503,9.79899 -5.86391,20.88179 -3.58888,11.08279 -6.27806,20.79466 -5.97596,21.58192 0.3021,0.78726 4.88815,2.71269 10.19122,4.27873 8.4497,2.49528 9.60533,3.1034 9.34588,4.91808 -0.44493,3.11198 -3.08705,2.88546 -16.16239,-1.38571 z m 249.0509,-3.9066 c -0.79317,-2.00033 -3.1212,-9.03696 -5.1734,-15.63696 -5.7167,-18.38521 -7.42547,-22.50201 -9.33302,-22.48527 -0.92298,0.008 -4.37815,0.8668 -7.67815,1.90823 -5.91821,1.86769 -6.01251,1.86704 -6.91737,-0.0474 -0.5565,-1.17736 -0.5565,-2.2723 0,-2.78341 1.19765,-1.09994 34.42426,-12.09215 36.55155,-12.09215 0.89791,0 1.87437,0.9247 2.16992,2.05489 0.57329,2.19227 -0.0932,2.60322 -8.12501,5.0096 -2.31156,0.69256 -4.68997,1.84616 -5.28536,2.56356 -0.80385,0.96858 0.61506,6.39742 5.51187,21.08875 3.62692,10.88141 6.5944,20.27112 6.5944,20.86601 0,0.5949 -1.54649,1.55626 -3.43665,2.13637 -3.36295,1.03212 -3.46758,0.97674 -4.87878,-2.58222 z m -285.06073,-8.77741 c -2.74099,-1.48252 -2.84802,-1.79775 -2.27734,-6.70759 0.32934,-2.83358 0.27362,-5.65808 -0.12384,-6.27668 -0.99693,-1.55158 -18.78036,-10.37528 -20.91052,-10.37528 -0.9503,0 -3.4288,1.66096 -5.50777,3.69103 l -3.77996,3.69103 -3.76221,-1.81164 -3.7622,-1.81165 14.5,-13.97862 c 7.975,-7.68824 16.81808,-15.97567 19.6513,-18.41653 l 5.15129,-4.43792 4.84871,2.29551 c 4.06485,1.92441 4.88662,2.77914 5.08329,5.28715 0.42495,5.41929 -4.21256,49.81889 -5.23459,50.11605 -0.55,0.15992 -2.29427,-0.40927 -3.87616,-1.26486 z m -1.15561,-21.30815 c 0.32245,-0.52173 1.29403,-6.41671 2.15907,-13.09995 1.15638,-8.93418 1.27768,-12.44647 0.45814,-13.26601 -0.81954,-0.81954 -3.49362,1.25328 -10.10005,7.8291 -4.94196,4.91907 -8.98539,9.73444 -8.98539,10.70082 0,1.16036 2.29231,2.93365 6.75,5.22167 7.1926,3.69178 8.78723,4.12076 9.71823,2.61437 z m 318.18724,-3.63214 c -5.86051,-11.8694 -10.64,-22.1069 -10.6211,-22.75 0.0189,-0.64309 5.9814,-3.99146 13.25,-7.44081 11.91725,-5.6554 15.71563,-7.05971 15.71563,-5.81024 0,0.23002 0.27189,1.12674 0.60419,1.99272 0.46391,1.20892 -1.64964,2.66414 -9.10258,6.26733 -5.33873,2.58105 -9.94672,5.3181 -10.23998,6.08233 -0.60204,1.56888 3.40802,10.72036 5.43447,12.40216 1.00112,0.83085 3.68213,-0.0406 10.98173,-3.56969 7.38788,-3.57173 9.84929,-4.36624 10.47441,-3.38097 1.72789,2.72339 0.56781,3.90844 -8.07565,8.24945 -4.90788,2.46488 -9.19792,4.92576 -9.53343,5.46862 -0.93405,1.51133 6.2541,15.06984 7.98939,15.06984 0.82908,0 5.53943,-2.025 10.46745,-4.5 7.9477,-3.99157 12,-5.36996 12,-4.08179 0,0.23002 0.26442,1.10727 0.58759,1.94945 0.447,1.16485 -2.77993,3.2182 -13.48667,8.58179 -7.74085,3.8778 -14.4603,7.05055 -14.93212,7.05055 -0.47182,0 -5.65282,-9.71133 -11.51333,-21.58074 z m 54.85964,-7.6775 c -5.22918,-1.37988 -14.71887,-10.82457 -18.00696,-17.92156 -4.93217,-10.64559 -4.26294,-17.75778 2.36254,-25.10783 7.09643,-7.8725 18.94564,-10.95087 25.87931,-6.72333 4.01991,2.45099 4.13518,4.40166 0.35269,5.96842 -2.40414,0.99583 -3.45178,0.91338 -6.15479,-0.4844 -4.13074,-2.13609 -9.01516,-1.42187 -13.45966,1.96812 -7.093,5.41009 -6.71379,14.9572 1.01087,25.45041 7.93217,10.77509 14.85313,13.43618 22.81285,8.77148 5.07068,-2.97162 7.2115,-7.04991 6.38247,-12.15868 -0.49055,-3.02285 -0.17621,-3.73721 2.47523,-5.6252 2.5013,-1.78108 3.19261,-1.91709 3.91842,-0.77091 1.33648,2.11054 1.08262,9.5474 -0.4512,13.21837 -1.99402,4.77236 -10.04876,11.42122 -15.96443,13.17798 -5.667,1.68292 -5.67754,1.68314 -11.15734,0.23713 z m -437.09271,-3.05485 -2.68912,-2.31309 11.63336,-17.43244 c 6.39835,-9.58785 11.63336,-18.20519 11.63336,-19.14965 0,-0.97977 -2.58144,-3.47023 -6.01118,-5.79932 -5.26341,-3.57431 -5.88101,-4.32533 -4.96482,-6.03726 0.5755,-1.07533 1.35434,-1.95515 1.73075,-1.95515 1.51699,0 33.2029,21.58048 33.22329,22.62756 0.0121,0.62015 -0.55027,1.60246 -1.24966,2.1829 -0.93263,0.77402 -2.732,0.14625 -6.75,-2.35497 -3.01311,-1.87568 -6.27827,-3.42048 -7.25591,-3.4329 -1.21353,-0.0154 -5.49697,5.68581 -13.5,17.96844 -6.44736,9.89506 -12.03488,17.99506 -12.41671,18 -0.38183,0.005 -1.90434,-1.03192 -3.38336,-2.30412 z m -36.1724,-26.28942 c -2.3375,-1.95985 -4.25,-4.21898 -4.25,-5.0203 0,-0.80132 2.475,-10.09226 5.5,-20.64653 3.025,-10.55427 5.5,-19.76133 5.5,-20.46012 0,-2.02097 -3.74537,-1.47217 -5.3228,0.77994 -0.78992,1.12776 -6.29338,7.45209 -12.22991,14.05406 l -10.79371,12.00359 -2.46766,-2.46767 -2.46766,-2.46766 16.2317,-18.0864 c 8.92744,-9.94752 16.67109,-18.0864 17.20813,-18.0864 1.81306,0 8.80571,6.48628 8.82388,8.18491 0.01,0.9267 -2.48863,10.32254 -5.55231,20.87965 -7.5598,26.05016 -6.88049,26.49546 10.42818,6.83591 6.24682,-7.09526 11.91457,-12.90047 12.59502,-12.90047 0.68044,0 2.01421,0.85863 2.96394,1.90806 1.66363,1.8383 1.13001,2.58532 -14.59502,20.43153 -8.97698,10.18791 -16.54678,18.54547 -16.82178,18.57237 -0.275,0.0269 -2.4125,-1.55462 -4.75,-3.51447 z m 516.41728,-22.48035 c -7.608,-8.75443 -14.42925,-15.91714 -15.15834,-15.91714 -0.72908,0 -3.86994,2.0726 -6.97968,4.60578 -5.36462,4.36999 -5.72676,4.51077 -7.07386,2.75 -1.27318,-1.66415 -1.12655,-2.11393 1.42001,-4.35578 1.56189,-1.375 8.33685,-7.36523 15.05548,-13.31162 9.94732,-8.80397 12.48062,-10.59175 13.6424,-9.62756 2.16097,1.79345 1.83823,2.47411 -3.57329,7.53595 -2.75,2.5723 -4.99758,5.40283 -4.99462,6.29007 0.003,0.88724 3.26546,5.25262 7.25,9.70085 3.98454,4.44823 10.34864,11.54842 14.14243,15.7782 l 6.89782,7.69052 -2.32213,2.4718 c -1.27717,1.35948 -2.80619,2.4345 -3.39781,2.38893 -0.59163,-0.0456 -7.30042,-7.24557 -14.90841,-16 z m 30.83654,-24.17092 c -7.1479,-6.73542 -15.19644,-14.30639 -17.88565,-16.82437 l -4.88948,-4.57815 1.78044,-2.71729 c 0.97924,-1.49451 2.35554,-2.58434 3.05844,-2.42185 1.51432,0.35007 36.43243,32.67257 36.43243,33.72426 0,0.75853 -4.31288,5.07393 -5.06445,5.0674 -0.23955,-0.002 -6.28383,-5.51459 -13.43173,-12.25 z m -597.41132,-2.68551 c -5.55088,-6.55085 -10.0925,-12.3873 -10.0925,-12.96988 0,-0.58258 6.58815,-6.57885 14.64033,-13.32503 19.55942,-16.38705 22.5336,-18.77842 23.2504,-18.69432 1.29363,0.15178 19.36874,22.20137 19.48568,23.77032 0.078,1.04689 -0.63472,1.6582 -1.93334,1.6582 -1.31489,0 -4.33087,-2.64205 -8.36023,-7.32369 -3.46682,-4.02802 -6.92893,-7.56375 -7.69357,-7.85718 -1.96143,-0.75267 -11.38927,6.67262 -11.38927,8.97009 0,1.03304 2.75207,5.20534 6.11571,9.27178 3.83347,4.63443 5.89766,7.96178 5.53139,8.91626 -1.1316,2.94891 -3.57038,1.44801 -9.71236,-5.97726 -3.41208,-4.125 -6.88223,-7.5 -7.71145,-7.5 -2.25132,0 -12.22329,8.88751 -12.22329,10.894 0,0.95664 3.14938,5.53435 6.99862,10.17268 3.84924,4.63832 6.99924,8.75499 7,9.14814 7.6e-4,0.39315 -0.857,1.1742 -1.90612,1.73568 -1.66188,0.88941 -3.20711,-0.51286 -12,-10.88979 z m 619.37845,-13.86489 c -12.11224,-4.18804 -22.47095,-15.98552 -22.47095,-25.59205 0,-8.13081 6.39186,-18.10223 14.2966,-22.30295 8.40979,-4.46912 20.21893,-0.72691 30.87117,9.78279 6.30685,6.22246 8.46702,11.54518 7.39818,18.22935 -1.70689,10.67426 -12.91789,21.66501 -22.06595,21.63243 -1.65,-0.006 -5.26307,-0.79318 -8.02905,-1.74957 z m 17.48824,-8.81494 c 8.63721,-7.26772 7.78614,-17.43946 -2.13851,-25.55892 -6.6323,-5.42595 -12.06823,-7.82196 -17.74605,-7.82196 -4.16855,0 -5.59374,0.51689 -8.52748,3.09274 -7.45766,6.54792 -7.00489,15.62133 1.17628,23.57252 9.60684,9.33678 20.83147,12.10448 27.23576,6.71562 z m -663.83612,-11.01011 c -0.65887,-1.44607 -1.0686,-2.74456 -0.91051,-2.88553 0.15809,-0.14098 8.94994,-5.52213 19.53744,-11.95813 16.98024,-10.32206 22.19025,-14.52711 17.99895,-14.52711 -1.0161,0 -37.11024,10.07557 -44.5275,12.42972 -1.56012,0.49516 -2.49055,-0.12906 -4.11845,-2.76306 -1.15665,-1.8715 -2.103,-3.98121 -2.103,-4.68824 0,-0.70704 4.85095,-6.27892 10.7799,-12.38197 20.65601,-21.26257 23.35082,-24.59645 19.88154,-24.59645 -0.7362,0 -9.8487,5.12559 -20.25,11.3902 -18.65755,11.23728 -18.93494,11.36334 -20.66144,9.38922 -0.9625,-1.10054 -1.75,-2.53176 -1.75,-3.18048 0,-0.91343 38.38688,-25.03212 42.0262,-26.4053 0.86498,-0.32637 7.9738,11.20949 7.9738,12.93952 0,0.56431 -6.3,7.4637 -14,15.33198 -7.7,7.86828 -14,14.78091 -14,15.3614 0,2.40471 2.71683,1.95353 20.15959,-3.34788 10.05942,-3.05738 19.17568,-5.42832 20.25836,-5.26876 1.68628,0.24851 8.56491,9.84312 8.57791,11.96486 0.004,0.59741 -34.09708,21.82453 -39.68012,24.70019 -3.16243,1.62888 -3.85679,1.42774 -5.19267,-1.50418 z m 329.5436,-0.0374 c -0.36667,-0.3667 -0.66667,-7.80583 -0.66667,-16.53142 0,-13.01492 -0.2633,-15.96576 -1.46579,-16.4272 -0.80618,-0.30936 -5.64368,0.80843 -10.75,2.48398 -17.5136,5.74678 -35.30354,9.42124 -56.27602,11.62367 -49.40347,5.1881 -97.68234,-3.44016 -143.00819,-25.55801 -15.3908,-7.51031 -35.83841,-20.40916 -35.23288,-22.22576 0.87301,-2.61901 34.11329,-14.95378 52.73288,-19.56806 15.12553,-3.74839 32.17127,-6.2193 47,-6.813 7.975,-0.3193 15.04209,-0.86534 15.70464,-1.21343 1.74316,-0.91579 0.62558,-2.0908 -7.20464,-7.57491 -41.9292,-29.36622 -74.15205,-72.57038 -93.25023,-125.02923 -5.7021,-15.66253 -13.24977,-45.23115 -13.24977,-51.90708 0,-2.34146 3.90883,-2.04113 19.17801,1.47354 26.43043,6.08375 47.73821,13.27091 69.09504,23.30591 62.98901,29.59681 112.25814,80.35477 141.57461,145.85275 3.3788,7.54881 7.60781,18.01074 9.39781,23.24874 1.78999,5.23799 3.70453,9.3743 4.25453,9.1918 0.64166,-0.21293 1.17917,-19.47346 1.5,-53.74875 l 0.5,-53.41691 7.91317,-0.295 c 5.65526,-0.21083 8.14758,0.0745 8.73469,1 0.45183,0.71225 0.82841,25.35393 0.83683,54.75929 0.013,45.5383 0.22022,53.2472 1.39749,52 0.7602,-0.80536 2.16494,-3.93929 3.12164,-6.96429 3.23741,-10.23633 10.61997,-27.43621 17.73343,-41.3153 22.35985,-43.62637 56.59505,-82.48818 95.63467,-108.55892 25.08478,-16.75168 55.99745,-31.02478 85.62808,-39.5365 12.38376,-3.55737 35.00612,-8.58928 38.61549,-8.58928 2.88476,0 2.95574,0.11391 2.33675,3.75 -6.66469,39.14965 -22.83108,79.71757 -44.53256,111.75 -16.44717,24.27681 -40.85548,48.94742 -63.66968,64.35389 -3.4375,2.32135 -6.25,4.64529 -6.25,5.16432 0,1.3954 3.06338,1.80011 18,2.37802 15.23785,0.58955 32.28018,3.25015 48.5,7.57168 22.82824,6.08224 50.06568,16.72815 49.29097,19.26567 -0.76708,2.51256 -17.63642,12.97758 -34.29097,21.27267 -61.49809,30.63019 -130.87318,35.65494 -199.61084,14.45755 -5.28597,-1.63009 -10.12347,-2.9638 -10.75,-2.9638 -0.80415,0 -1.13916,4.6466 -1.13916,15.8 0,10.95556 -0.36793,16.16793 -1.2,17 -1.26577,1.26577 -14.94857,1.7181 -16.13333,0.53333 z m -25.20105,-78.2777 c 0.9347,-1.51237 -6.03877,-18.25084 -14.76754,-35.44664 -14.52206,-28.60866 -31.1413,-51.16095 -53.8913,-73.13044 -26.25685,-25.35607 -53.51985,-43.01028 -87.08934,-56.39491 -13.41892,-5.35032 -34.46849,-12.08368 -37.77552,-12.08368 -2.72255,0 -2.48856,1.78971 1.96116,15 22.11421,65.65249 65.44746,115.99368 122.7447,142.59522 12.39971,5.75685 38.46154,14.52175 52.85222,17.77482 12.24367,2.76773 15.1098,3.07033 15.96562,1.68559 z m 82.55465,-1.60028 c 6.62865,-1.39956 19.34832,-5.04638 28.26592,-8.10405 42.42617,-14.54712 76.6493,-38.13069 104.24463,-71.83626 15.46542,-18.88983 31.63207,-48.0332 40.78086,-73.51504 6.3073,-17.56753 7.21137,-20.87695 6.02677,-22.06155 -0.66314,-0.66314 -5.4946,0.38136 -14.4179,3.11695 -75.38568,23.11078 -131.45307,69.96074 -166.87947,139.4446 -7.16724,14.05752 -15.20929,33.41881 -14.41496,34.70407 0.77911,1.26062 3.53187,0.96699 16.39415,-1.74872 z m 285.4949,42.53172 c -11.54166,-5.99284 -21.13808,-11.35581 -21.32539,-11.91773 -0.1873,-0.56191 0.90269,-3.3059 2.4222,-6.09775 l 2.76275,-5.07609 21.56264,0.30225 c 17.93161,0.25135 21.56263,0.0671 21.56263,-1.0939 0,-0.79044 -6.94149,-5.00144 -16,-9.70627 -8.8,-4.57056 -16.12551,-8.90099 -16.2789,-9.62319 -0.1534,-0.72219 0.39514,-2.20437 1.21898,-3.29373 1.456,-1.92528 2.10273,-1.67309 23.1296,9.01934 11.89745,6.05 21.84207,11.51695 22.09916,12.14877 0.2571,0.63182 -0.6958,3.44432 -2.11754,6.25 l -2.58499,5.10119 -6.23316,-0.0748 c -3.42823,-0.0412 -12.75815,-0.4123 -20.73315,-0.82477 -7.975,-0.41246 -15.0625,-0.55565 -15.75,-0.31819 -3.30041,1.13993 -0.006,3.68989 14.5,11.22495 8.6625,4.49955 16.16529,8.57645 16.67287,9.05978 1.2087,1.15094 -0.95839,5.95241 -2.65143,5.87459 -0.69929,-0.0321 -10.71461,-4.96166 -22.25627,-10.95449 z m -710.41996,-31.47069 c -1.25005,-3.01598 -2.12036,-5.925 -1.93401,-6.4645 0.18634,-0.53951 6.7513,-7.74161 14.5888,-16.00468 7.8375,-8.26307 14.25,-15.45249 14.25,-15.97648 0,-2.4578 -3.14117,-1.71687 -18.55448,4.37656 -9.11624,3.60397 -17.14862,6.55268 -17.84974,6.55268 -1.02578,0 -3.59578,-3.90742 -3.59578,-5.46702 0,-0.43274 45.77522,-18.53298 46.86961,-18.53298 0.40238,0 1.69446,2.67607 2.87129,5.94682 l 2.13969,5.94681 -13.69029,14.65159 c -7.52967,8.05837 -14.05271,15.28686 -14.49566,16.06332 -1.91518,3.35715 3.31702,2.27036 19.0713,-3.96135 9.17533,-3.62936 16.99969,-6.27221 17.38748,-5.87301 0.38778,0.3992 0.99362,1.89535 1.34632,3.32479 0.63308,2.56579 0.34661,2.71576 -22.4439,11.75 -12.69684,5.03306 -23.22076,9.15103 -23.38649,9.15103 -0.16573,0 -1.32409,-2.46761 -2.57414,-5.48358 z m 748.09469,-50.93787 c -11.17055,-7.86431 -20.80802,-14.79667 -21.4166,-15.40525 -0.80868,-0.80868 -0.77897,-2.57011 0.11038,-6.54411 0.95412,-4.2635 1.69185,-5.54549 3.4166,-5.93721 4.06818,-0.92395 50.62501,-5.10003 51.13803,-4.587 0.27912,0.27911 0.0485,2.16967 -0.51242,4.20125 -0.94028,3.40541 -1.30897,3.69492 -4.72289,3.70851 -7.04973,0.0281 -8.40214,1.50208 -11.44579,12.47494 -1.51604,5.46558 -2.53583,10.63248 -2.2662,11.482 0.26963,0.84953 2.29446,2.65966 4.49961,4.02252 2.54794,1.57472 4.0044,3.21203 3.99573,4.49187 -0.019,2.79487 -1.09054,6.52643 -1.85298,6.45257 -0.34835,-0.0337 -9.77291,-6.49579 -20.94347,-14.36009 z m 9.19279,-6.82855 c 1.8907,-2.97741 4.06554,-13.13954 3.26083,-15.23658 -0.52036,-1.35606 -1.59367,-1.55918 -5.88992,-1.11467 -2.88948,0.29896 -8.7411,0.81994 -13.0036,1.15773 -10.63487,0.84278 -10.30766,2.23012 2.52064,10.68743 5.62615,3.70915 10.55649,6.74665 10.95631,6.75 0.39982,0.003 1.3699,-1.00641 2.15574,-2.24391 z m -767.67885,1.82537 c -9.07244,-2.43948 -14.8234,-11.36111 -14.89113,-23.10104 -0.0785,-13.61038 9.68078,-21.74659 27.80413,-23.17999 6.20772,-0.49097 7.82343,-0.23939 12.64808,1.96941 6.50509,2.97812 9.8692,7.86023 11.71851,17.00628 2.87127,14.20035 -4.64814,23.64454 -21.70304,27.25848 -8.096,1.71554 -9.35664,1.71933 -15.57655,0.0469 z m 15.83606,-8.11932 c 11.64427,-3.01642 17.12604,-8.85544 16.18143,-17.236 -0.5991,-5.31526 -3.13371,-9.06811 -7.79242,-11.5378 -8.08242,-4.28468 -26.57767,0.51189 -31.67891,8.21563 -4.5378,6.85285 -1.89743,15.91232 5.78588,19.85212 5.16175,2.64681 9.35862,2.8161 17.50402,0.70605 z M 456.8971,219.0213 c -10.91919,-3.92648 -16.83253,-13.33656 -15.76675,-25.09012 0.96477,-10.63967 7.04022,-18.87588 13.92383,-18.87588 3.29446,0 3.64541,0.51411 2.88592,4.22761 -0.507,2.47893 -1.32739,3.33703 -3.80394,3.97877 -6.05356,1.56864 -9.35964,9.08285 -7.32339,16.64494 2.06166,7.65641 9.35245,12.21161 20.71289,12.94116 9.99953,0.64216 15.18411,-1.8577 18.76785,-9.04932 3.37648,-6.77572 3.52582,-13.95278 0.33679,-16.18646 -2.59998,-1.8211 -11.32442,-2.0988 -12.37805,-0.39399 -0.39523,0.63949 -1.00273,2.55199 -1.35001,4.25 -0.47601,2.32743 -1.17511,3.08729 -2.84043,3.08729 -2.62455,0 -2.60676,0.0993 -1.74759,-9.75 0.78328,-8.97944 -0.62964,-8.39618 15.53859,-6.41442 l 9.5,1.16442 0.31099,9 c 0.43877,12.69772 -1.76594,20.50758 -7.37173,26.11338 -2.4391,2.43909 -5.87076,4.69041 -8.08797,5.30607 -5.92344,1.64477 -15.24108,1.22783 -21.307,-0.95345 z m -782.04429,-16.8951 0,-3.9291 5.75,-1.13658 c 13.58382,-2.68505 14.67401,-3.61067 14.43572,-12.25662 -0.28835,-10.46257 0.19221,-10.08142 -11.68968,-9.27155 l -10.29783,0.7019 -0.70027,-3.18831 c -0.38515,-1.75357 -0.31724,-3.56571 0.1509,-4.02696 1.09689,-1.08077 48.60483,-4.94062 49.61122,-4.03074 0.41803,0.37794 1.01574,6.96015 1.32824,14.62712 0.49988,12.26411 0.3484,14.35903 -1.26006,17.42603 -2.14653,4.09299 -5.42921,5.97872 -10.44338,5.99917 -3.91598,0.016 -8.37466,-2.80241 -9.36382,-5.91896 -1.09916,-3.46315 -3.52209,-3.30804 -5.03906,0.32259 -0.77411,1.8527 -2.21173,3.69339 -3.19472,4.09043 -2.11516,0.85434 -16.99779,4.52068 -18.35061,4.52068 -0.51516,0 -0.93665,-1.7681 -0.93665,-3.9291 z m 41.07569,-9.65421 c 2.11258,-2.25113 2.42431,-3.53056 2.42431,-9.95021 0,-4.20055 -0.49219,-7.859 -1.14515,-8.51184 -1.74815,-1.74782 -16.33258,-0.17625 -17.10762,1.84347 -1.11619,2.90876 1.49677,14.30049 3.85624,16.81203 3.16058,3.36429 8.71771,3.27449 11.97222,-0.19345 z M 62.35281,188.03415 C 16.20883,182.12784 -26.7405,153.03326 -49.06883,112.5553 -57.765,96.79042 -64.02696,78.73814 -66.10055,63.45546 c -0.51492,-3.79509 -1.43222,-9.783 -2.03844,-13.30646 -0.60622,-3.52347 -0.87019,-7.01097 -0.58659,-7.75 0.73719,-1.92109 299.52153,-2.01451 299.68435,-0.0937 0.65827,7.76536 -3.67407,31.27912 -8.33718,45.25 -16.76428,50.22648 -60.88038,88.61526 -113.76878,98.99888 -9.93795,1.95113 -36.27114,2.78924 -46.5,1.47997 z m 382.68824,-29.9296 c -0.30596,-0.79791 -0.58598,-7.99791 -0.62226,-16 -0.0637,-14.03741 0.008,-14.55979 2.03159,-14.84883 1.99384,-0.28476 2.12676,0.25372 2.68776,10.88776 0.3246,6.15303 1.0003,11.59745 1.50155,12.0987 0.50126,0.50126 4.01677,0.77677 7.81225,0.61225 l 6.90087,-0.29913 0.28336,-11.31518 c 0.2765,-11.04111 0.33705,-11.30754 2.5,-11 2.08051,0.29582 2.24735,0.9293 2.71664,10.31518 0.275,5.5 0.90122,10.62263 1.3916,11.38363 0.68292,1.05978 2.6061,1.25396 8.21664,0.82964 4.02876,-0.3047 7.83622,-0.86992 8.461,-1.25606 0.77663,-0.47999 1.02443,-4.38025 0.78337,-12.32964 l -0.35261,-11.62757 2.5,0 2.5,0 0.27465,16.22476 c 0.27367,16.16665 0.2665,16.22654 -2,16.7198 -1.25106,0.27228 -12.34463,0.62114 -24.65239,0.77524 -18.81309,0.23557 -22.46635,0.0491 -22.93402,-1.17055 z m -751.18824,-11.06068 c -11.825,-0.36675 -21.64101,-0.73921 -21.81336,-0.82769 -0.17235,-0.0885 -0.17235,-1.62338 0,-3.41088 l 0.31336,-3.25 7,-0.33162 c 3.85,-0.18239 15.2367,-0.0201 25.30377,0.36054 l 18.30378,0.69216 -0.30378,3.63946 c -0.3621,4.33829 1.98838,4.08303 -28.80377,3.12803 z m 4.5,-30.50646 -23,-12.39823 0.33018,-4.29194 c 0.1816,-2.36057 0.6316,-4.60162 1,-4.98011 0.83917,-0.86216 51.44029,-12.8747 51.97605,-12.33894 0.21578,0.21579 0.0949,2.15314 -0.26874,4.30523 l -0.66108,3.91289 -15.68821,3.26315 c -24.80899,5.16028 -25.6882,5.40143 -25.6882,7.04584 0,0.93493 6.74053,4.96312 17.89295,10.69295 9.84113,5.05613 18.28425,9.58425 18.7625,10.0625 0.92929,0.92929 0.0177,7.28506 -1.03045,7.18472 -0.34375,-0.0329 -10.975,-5.63904 -23.625,-12.45806 z m 744.12435,-5.23211 c -0.28074,-0.9625 -0.79166,-3.775 -1.13539,-6.25 l -0.62497,-4.5 17.04789,-12 c 10.89453,-7.66866 17.05514,-12.63165 17.068,-13.75 0.0256,-2.22224 0.68282,-2.26279 -19.92861,1.22948 -9.5968,1.62602 -17.57961,2.82551 -17.73958,2.66554 -0.15997,-0.15997 -0.56758,-1.67446 -0.90579,-3.36553 -0.55513,-2.77562 -0.3373,-3.13187 2.23958,-3.66284 8.6518,-1.78271 46.55029,-7.75421 46.91268,-7.39182 1.23155,1.23155 2.36116,11.16745 1.40114,12.32421 -0.57426,0.69195 -8.22491,6.29426 -17.00144,12.44958 -8.77653,6.15533 -16.23324,11.63793 -16.57046,12.18357 -1.67613,2.71204 2.18453,2.69686 19.17876,-0.0754 9.86361,-1.60905 18.2395,-2.62882 18.61308,-2.26616 0.37358,0.36267 0.97381,1.85285 1.33384,3.31152 0.57365,2.32414 0.30415,2.72407 -2.17924,3.23385 -4.55365,0.93474 -45.06662,7.614 -46.18273,7.614 -0.55898,0 -1.24603,-0.7875 -1.52676,-1.75 z M -285.64719,64.98801 c -8.8,-2.66947 -19.29523,-5.8639 -23.32272,-7.09873 l -7.32273,-2.24515 0.65262,-3.54441 c 1.58014,-8.58187 0.7562,-8.16824 23.99196,-12.04442 17.1766,-2.86539 21.03909,-3.8063 21.30245,-5.1893 0.25106,-1.31843 -1.28353,-2.15762 -6.98995,-3.82245 -24.59066,-7.17428 -28.30996,-8.54427 -28.56736,-10.52267 -0.14065,-1.08107 0.16198,-2.61072 0.67252,-3.39923 0.77896,-1.20308 3.79536,-0.59703 18.75573,3.76833 26.01149,7.59002 29.82961,8.84564 29.808,9.80262 -0.0107,0.47448 -0.66178,3.23886 -1.44682,6.14305 -1.03832,3.84115 -1.98696,5.40994 -3.48053,5.75581 -1.12924,0.2615 -10.29686,1.76403 -20.37247,3.33895 -17.74042,2.77301 -21.70035,4.00524 -19.60503,6.10056 0.53662,0.53662 8.52529,3.18529 17.7526,5.88593 9.2273,2.70064 16.98028,5.11362 17.22883,5.36217 0.62614,0.62614 -1.60053,6.80117 -2.40493,6.66937 -0.35869,-0.05877 -7.85217,-2.29096 -16.65217,-4.96043 z M 438.4727,54.82184 c -8.13947,-2.15387 -14.61989,-12.342 -14.61989,-22.98452 0,-10.37099 8.9416,-19.94068 10.56189,-11.30379 0.53539,2.85386 0.1845,4.03445 -1.95468,6.57673 -4.82039,5.7287 -2.47041,16.17772 4.42281,19.66573 8.47524,4.28852 28.05134,-2.17598 32.47103,-10.72272 4.27756,-8.2719 -1.35487,-18.99797 -9.97614,-18.99797 -1.84333,0 -2.85136,-0.72844 -3.54966,-2.5651 -1.72878,-4.54702 -1.27501,-5.4352 2.77475,-5.43116 9.43111,0.009 18.25,11.70108 18.25,24.19503 0,4.39192 -2.66803,10.24038 -6.15563,13.49345 -3.2565,3.03752 -12.44829,7.09479 -18.80402,8.30013 -6.24932,1.18516 -8.2133,1.15211 -13.42046,-0.22581 z M -253.89719,16.39302 c -2.00363,-0.80848 -1.49999,-2.88492 2.75,-11.33772 2.2,-4.37558 4,-8.85801 4,-9.96096 0,-1.40014 -1.49896,-2.76493 -4.96676,-4.52219 -8.0458,-4.07712 -8.54291,-3.82322 -13.52328,6.9073 -3.78718,8.1597 -4.65151,9.3516 -6.442,8.88337 -2.82552,-0.73889 -2.66018,-1.74596 1.91109,-11.64047 2.18848,-4.73696 3.7328,-9.25437 3.43183,-10.0387 -0.60878,-1.58645 -11.52193,-6.62835 -14.347,-6.62835 -1.31782,0 -3.10663,2.83103 -6.63453,10.5 -2.65663,5.775 -5.10402,10.5 -5.43866,10.5 -0.33464,0 -1.38163,-0.56538 -2.32665,-1.25639 -1.58031,-1.15556 -1.22631,-2.33934 4.41089,-14.75 3.37101,-7.42149 6.6457,-13.99952 7.27709,-14.61785 0.85394,-0.83628 6.77053,1.49541 23.09903,9.10315 12.07308,5.62506 22.10835,10.69929 22.30061,11.27606 0.19225,0.57676 -2.11025,6.24376 -5.11668,12.59332 -3.00643,6.34957 -5.75952,12.46875 -6.11799,13.59819 -0.64032,2.01746 -1.78783,2.3916 -4.26699,1.39124 z m 668.26502,-7.30441 -1.78872,-3.96668 7.20748,-9.54729 c 4.04617,-5.35969 7.06186,-10.30873 6.87548,-11.28331 -0.28851,-1.50855 -2.01271,-1.80155 -13.15851,-2.23603 l -12.82649,-0.5 -1.36385,-3.25 -1.36386,-3.25 3.20172,0.01 c 1.76095,0.005 9.58068,0.46724 17.37717,1.02623 l 14.17545,1.01633 8.47449,-4.02622 c 4.66097,-2.21454 8.89729,-4.02634 9.41404,-4.02634 0.93066,0 3.26058,4.2735 3.26058,5.9805 0,0.48751 -3.72601,2.69815 -8.28002,4.91254 l -8.28003,4.02615 -9.8953,14.5404 c -5.44242,7.99723 -10.19807,14.54041 -10.56811,14.54041 -0.37003,0 -1.47772,-1.78501 -2.46152,-3.96669 z m -647.01502,-71.20029 c -12.49543,-6.91097 -9.59413,-24.79535 4.29683,-26.48682 10.66807,-1.29902 18.58211,10.8846 13.3759,20.59214 -3.15735,5.88723 -12.22049,8.91021 -17.67273,5.89468 z m 614.79855,-3.79254 c -8.07849,-4.92574 -8.43385,-16.85589 -0.68367,-22.95218 1.95906,-1.541 4.09176,-2.0883 8.13763,-2.0883 5.03556,0 5.79946,0.31668 9.36514,3.88235 3.46821,3.46821 3.88235,4.4125 3.88235,8.85212 0,5.59018 -2.86212,10.87724 -7.03002,12.98622 -3.6683,1.85618 -10.03079,1.53962 -13.67143,-0.68021 z m -54.29855,-45.30433 c -1.925,-0.63934 -6.04841,-3.65402 -9.16312,-6.69929 -6.50457,-6.35954 -8.44168,-11.26257 -6.79948,-17.21015 1.49727,-5.42267 3.05314,-6.22533 6.27543,-3.23746 2.1678,2.0101 2.50478,2.88302 1.69621,4.39386 -3.12895,5.84649 1.01087,13.92961 8.42424,16.44859 4.94682,1.68087 8.82553,0.48968 10.52228,-3.23148 1.12677,-2.47111 0.74528,-3.63354 -4.49617,-13.70022 -6.56702,-12.61254 -7.25391,-16.95171 -3.34575,-21.13541 7.17812,-7.68423 16.11099,-7.15447 25.21878,1.49559 6.6494,6.31523 8.53682,13.02609 5.05974,17.99032 l -1.60784,2.29551 -2.39216,-2.24732 c -1.8948,-1.78007 -2.39216,-3.27119 -2.39216,-7.17179 0,-4.17706 -0.45319,-5.34783 -2.98592,-7.71375 -1.64226,-1.5341 -4.13914,-3.07871 -5.54863,-3.43247 -3.5099,-0.88092 -7.71631,1.34784 -8.90087,4.71613 -0.85657,2.43564 -0.23548,4.23693 4.86432,14.10751 6.73757,13.04045 6.9099,15.93649 1.27344,21.39957 -3.78529,3.66884 -9.99375,4.82821 -15.70234,2.93226 z m -501.8082,-2.99959 c -1.8195,-0.58259 -5.42145,-3.12415 -8.00431,-5.64791 -8.75264,-8.55233 -21.18749,-22.92373 -21.18749,-24.48713 0,-0.85548 1.17484,-2.3252 2.61076,-3.26605 2.94706,-1.93099 2.26609,-2.53343 18.44239,16.31535 3.84734,4.48295 8.16214,8.91545 9.58844,9.85 7.46471,4.89106 19.35841,-2.15657 19.35841,-11.47085 0,-4.44538 -0.6758,-5.43818 -13.08813,-19.22755 -6.09063,-6.76633 -11.317,-12.88168 -11.61415,-13.58967 -0.69328,-1.65177 2.52304,-5.23657 4.60727,-5.1351 1.96105,0.0955 22.6341,23.59542 25.2214,28.67025 4.85686,9.52646 -1.20007,21.74737 -13.56101,27.36169 -4.51773,2.05194 -7.45795,2.20092 -12.37358,0.62697 z m 459.49404,-30.89071 c -8.47312,-5.99676 -12.63423,-9.53796 -12.28304,-10.45315 1.2728,-3.31687 27.22034,-39.32909 28.35915,-39.35926 2.42717,-0.0643 25.17388,16.40288 25.20653,18.24794 0.0644,3.63876 -3.03029,2.7932 -11.68098,-3.19163 -4.8413,-3.34936 -9.35692,-6.08975 -10.03471,-6.08975 -1.78353,0 -8.59639,10.6622 -7.92719,12.40612 0.31071,0.80969 4.20983,4.02621 8.66472,7.14784 7.98067,5.5922 8.85004,6.88259 5.89349,8.74753 -1.11108,0.70085 -3.54374,-0.50562 -9.43358,-4.67855 -4.36503,-3.09262 -8.42359,-5.62294 -9.01901,-5.62294 -1.38664,0 -4.43402,3.3592 -7.93141,8.743 -3.33667,5.13638 -3.35267,5.11015 7.8777,12.91195 4.46737,3.10351 8.27145,5.76222 8.45351,5.90825 0.54317,0.43567 -1.8411,4.44039 -2.6162,4.39427 -0.39315,-0.0234 -6.48119,-4.12362 -13.52898,-9.11162 z m -415.90549,1.37197 c -0.80926,-0.9448 -6.99178,-10.24937 -13.73892,-20.67681 -8.50713,-13.14741 -12.00299,-19.37603 -11.40449,-20.31949 0.47468,-0.74827 2.89398,-2.51156 5.37621,-3.91841 l 4.51316,-2.55792 17.45319,10.62741 c 9.59926,5.84507 18.03084,10.6274 18.73685,10.6274 2.69322,0 0.99358,-3.76409 -7.74399,-17.15009 -4.9652,-7.60671 -9.27667,-14.47936 -9.58105,-15.27255 -0.35024,-0.91272 0.53848,-2.00681 2.42079,-2.98019 l 2.97421,-1.53802 13.60684,20.99396 c 7.48377,11.54668 13.60685,21.14111 13.60685,21.32095 0,1.0016 -10.50552,6.64593 -11.59302,6.22862 -0.71391,-0.27395 -7.80255,-4.53681 -15.75254,-9.47302 -14.04923,-8.72327 -19.97612,-12.12966 -21.10478,-12.12966 -1.10831,0 -0.50954,4.38917 0.80777,5.92126 3.69672,4.29942 17.68243,27.53249 17.25086,28.65715 -0.27243,0.70992 -1.3641,1.75572 -2.42594,2.324 -1.4867,0.79566 -2.26894,0.63824 -3.402,-0.68459 z m 381.20102,-22.88002 c -1.36475,-0.92104 -2.64354,-1.7985 -2.84174,-1.94991 -0.1982,-0.15141 4.20389,-8.51313 9.78243,-18.58159 5.57854,-10.06847 10.0157,-19.2063 9.86037,-20.3063 -0.18152,-1.28543 -2.33581,-3.07186 -6.02958,-5 -5.72819,-2.9901 -7.47765,-5.9009 -4.2833,-7.12669 1.7362,-0.66624 35.53753,17.45766 35.51514,19.04282 -0.008,0.59613 -0.42292,1.72799 -0.92111,2.51524 -0.7513,1.18723 -1.94612,0.87689 -7.00493,-1.81943 -3.35452,-1.78793 -6.81265,-3.10705 -7.68474,-2.93137 -0.87209,0.17569 -6.23607,8.63546 -11.91996,18.7995 -5.68389,10.16403 -10.70714,18.60433 -11.16278,18.75621 -0.45563,0.15187 -1.94504,-0.47744 -3.3098,-1.39848 z m -344.77935,-26.34164 -11.29797,-21.96721 3.29797,-2.0144 c 3.12316,-1.90763 3.367,-1.92165 4.6001,-0.26448 2.14797,2.88668 21.19788,41.1743 21.19788,42.60475 0,1.18155 -3.98402,3.67411 -5.79705,3.62686 -0.38662,-0.0101 -5.78704,-9.90356 -12.00093,-21.98552 z m 321.04798,13.97268 c -1.95162,-0.78446 -2.25,-1.63498 -2.25,-6.41356 0,-4.71055 -0.34764,-5.73695 -2.39811,-7.08048 -3.22986,-2.11628 -17.26822,-7.4748 -19.58265,-7.4748 -1.01935,0 -3.43137,1.89971 -5.36005,4.22158 l -3.50667,4.22157 -3.67361,-1.75181 c -3.2619,-1.5555 -3.5226,-1.94456 -2.32626,-3.47158 4.34095,-5.5408 33.31564,-37.46223 34.37193,-37.86757 0.698,-0.26784 3.45301,0.55584 6.12225,1.83041 l 4.85317,2.3174 -0.0333,6.25 c -0.22379,41.96005 -0.42975,46.25134 -2.21667,46.18661 -0.9625,-0.0349 -2.7625,-0.47036 -4,-0.96777 z m -2.45428,-21.2227 c 0.57234,-0.68962 1.11611,-6.20212 1.20838,-12.25 0.21499,-14.09047 0.29163,-13.50239 -1.7541,-13.45917 -1.96699,0.0416 -15.5782,16.14621 -16.06199,19.00438 -0.32389,1.91354 2.62126,3.88178 9.71802,6.49455 4.63045,1.70477 5.62417,1.73509 6.88969,0.21024 z m -283.68509,-3.7518 c -4.06415,-10.4463 -7.93417,-19.73834 -8.60004,-20.64897 -1.11177,-1.52044 -1.7744,-1.43769 -8.11064,1.01285 -6.42292,2.48407 -6.98637,2.55071 -8.14995,0.96404 -0.6875,-0.93749 -1.25,-2.00177 -1.25,-2.36508 0,-0.36331 8.41355,-3.9183 18.69679,-7.89999 17.52942,-6.78743 18.77838,-7.12783 20.00374,-5.45206 1.66786,2.28093 0.97894,2.90993 -6.25691,5.71269 -3.66601,1.42 -6.06792,2.96987 -6.27586,4.04957 -0.18527,0.96203 1.47848,6.33542 3.69722,11.94088 4.76845,12.04705 11.13502,28.73087 11.13502,29.17969 0,0.35259 -5.95524,2.51558 -6.89922,2.50585 -0.33043,-0.003 -3.92599,-8.55317 -7.99015,-18.99947 z m 39.61826,7.29634 c -0.24168,-0.43488 -3.045,-11.29868 -6.22958,-24.14179 -4.05073,-16.33617 -5.45321,-23.55935 -4.66855,-24.0443 0.61689,-0.38125 7.43236,-2.22572 15.14549,-4.09882 10.44468,-2.53644 14.31298,-3.11654 15.1566,-2.27292 2.41375,2.41375 -0.11475,4.07598 -9.724,6.39255 -10.12338,2.44051 -12.8058,3.94461 -12.00231,6.72997 0.26093,0.90455 0.97479,3.5803 1.58635,5.94613 0.61156,2.36582 1.82805,4.57629 2.7033,4.91216 0.87526,0.33587 5.85386,-0.41692 11.06357,-1.67286 7.88383,-1.90061 9.61786,-2.05357 10.3409,-0.91216 1.75144,2.76485 0.76066,3.66258 -5.85066,5.30126 -3.7125,0.92017 -8.49625,2.13305 -10.63056,2.69527 l -3.88056,1.02223 0.59667,4.6763 c 0.32817,2.57196 1.08308,6.3638 1.67757,8.4263 1.32724,4.60469 2.59099,4.71013 15.80183,1.31843 l 9.31495,-2.39149 0.83057,2.16153 c 0.45682,1.18884 0.54009,2.4388 0.18505,2.77768 -0.35504,0.33888 -6.72052,2.06988 -14.14552,3.84666 -7.425,1.77678 -14.24963,3.43032 -15.16584,3.67453 -0.91622,0.24421 -1.86359,0.0882 -2.10527,-0.34666 z m 184.27111,-3.20962 c -1.375,-0.39577 -2.43518,-1.36342 -2.35594,-2.15032 0.0792,-0.78691 2.31272,-10.36658 4.96332,-21.28817 5.49757,-22.65228 5.72073,-21.35572 -4.05215,-23.5428 -5.95258,-1.33212 -6.89635,-2.04724 -5.95149,-4.50953 0.84076,-2.19098 1.57143,-2.10404 19.26783,2.29273 8.59563,2.13563 16.8915,4.17562 18.43524,4.53331 2.34063,0.54233 2.6937,1.01852 2.12578,2.86703 -0.37458,1.21918 -0.77567,2.32972 -0.89133,2.46787 -0.11566,0.13815 -3.18356,-0.48255 -6.81756,-1.37933 -3.634,-0.89677 -7.26243,-1.3791 -8.06318,-1.07182 -0.93791,0.35991 -2.91719,6.54332 -5.56303,17.37933 -6.95301,28.4759 -5.79432,25.92812 -11.09749,24.4017 z M 22.5011,-210.10595 c -1.23837,-8.87476 -4.78396,-45.03641 -4.44863,-45.37174 0.63908,-0.63909 17.18108,-2.46708 22.27411,-2.46143 7.71009,0.009 12.23688,1.69398 16.58584,6.17528 8.87434,9.14441 9.44864,27.40371 1.13734,36.16072 -5.15568,5.43217 -12.28698,7.78847 -27.8201,9.1922 l -7.12314,0.64372 -0.60542,-4.33875 z m 24.76313,-5.17434 c 6.70445,-3.70996 8.08858,-6.53195 8.08858,-16.49117 0,-7.31196 -0.36105,-9.2539 -2.30041,-12.37283 -3.78004,-6.07919 -8.42515,-8.31849 -17.00318,-8.19682 -4.01698,0.057 -7.80943,0.60943 -8.42767,1.22767 -1.37742,1.37742 1.84027,35.90521 3.54214,38.00928 1.52812,1.88926 11.08904,0.59702 16.10054,-2.17613 z m 71.04992,8.29274 c -9.02254,-1.23057 -14.76618,-5.43807 -15.93603,-11.67393 -0.82228,-4.38313 0.36427,-5.68602 4.37585,-4.80493 2.14231,0.47053 3.09884,1.26857 3.09884,2.58539 0,1.04762 1.2521,3.30611 2.78244,5.01886 5.09065,5.69742 16.56421,5.01537 19.76535,-1.17496 2.58015,-4.98946 0.53481,-7.24488 -12.21226,-13.4666 -14.69777,-7.17383 -16.82933,-10.65803 -12.27542,-20.06515 2.94363,-6.08073 8.82045,-8.81978 17.43907,-8.12796 8.4973,0.68208 14.42996,3.96263 16.36399,9.04871 0.9285,2.44176 1.09898,4.14126 0.47775,4.7625 -1.60039,1.60039 -7.4106,-0.11357 -8.30438,-2.44973 -3.03263,-7.92661 -16.22454,-8.50546 -19.13902,-0.8398 -1.83615,4.82943 0.13186,6.82139 12.67364,12.82791 10.29217,4.92914 11.76171,5.95497 13.09213,9.13911 2.77021,6.63005 0.0525,13.86329 -6.42791,17.10797 -4.71934,2.36292 -9.37098,2.98591 -15.77404,2.11261 z"
         id="path5026"
         inkscape:connector-curvature="0" />
      <path
         style="fill:#04cb36"
         d="m 73.51948,386.38863 c -0.36667,-0.36666 -0.66667,-7.80579 -0.66667,-16.53138 0,-13.01492 -0.2633,-15.96576 -1.46579,-16.4272 -0.80618,-0.30936 -5.64368,0.80843 -10.75,2.48398 -17.5136,5.74678 -35.30354,9.42124 -56.27602,11.62367 -49.40347,5.1881 -97.68234,-3.44016 -143.00819,-25.55801 -15.3908,-7.51031 -35.83841,-20.40916 -35.23288,-22.22576 0.87301,-2.61901 34.11329,-14.95378 52.73288,-19.56806 15.12553,-3.74839 32.17127,-6.2193 47,-6.813 7.975,-0.3193 15.04209,-0.86534 15.70464,-1.21343 1.74316,-0.91579 0.62558,-2.0908 -7.20464,-7.57491 -41.9292,-29.36622 -74.15205,-72.57038 -93.25023,-125.02923 -5.7021,-15.66253 -13.24977,-45.23115 -13.24977,-51.90708 0,-2.34146 3.90883,-2.04113 19.17801,1.47354 26.43043,6.08375 47.73821,13.27091 69.09504,23.30591 62.98901,29.59681 112.25814,80.35477 141.57461,145.85275 3.3788,7.54881 7.60781,18.01074 9.39781,23.24874 1.78999,5.23799 3.70453,9.3743 4.25453,9.1918 0.64166,-0.21293 1.17917,-19.47346 1.5,-53.74875 l 0.5,-53.41691 7.91317,-0.295 c 5.65526,-0.21083 8.14758,0.0745 8.73469,1 0.45183,0.71225 0.82841,25.35393 0.83683,54.75929 0.013,45.5383 0.22022,53.2472 1.39749,52 0.7602,-0.80536 2.16494,-3.93929 3.12164,-6.96429 3.23741,-10.23633 10.61997,-27.43621 17.73343,-41.3153 22.35985,-43.62637 56.59505,-82.48818 95.63467,-108.55892 25.08478,-16.75168 55.99745,-31.02478 85.62808,-39.5365 12.38376,-3.55737 35.00612,-8.58928 38.61549,-8.58928 2.88476,0 2.95574,0.11391 2.33675,3.75 -6.66469,39.14965 -22.83108,79.71757 -44.53256,111.75 -16.44717,24.27681 -40.85548,48.94742 -63.66968,64.35389 -3.4375,2.32135 -6.25,4.64529 -6.25,5.16432 0,1.3954 3.06338,1.80011 18,2.37802 15.23785,0.58955 32.28018,3.25015 48.5,7.57168 22.82824,6.08224 50.06568,16.72815 49.29097,19.26567 -0.76708,2.51256 -17.63642,12.97758 -34.29097,21.27267 -61.49809,30.63019 -130.87318,35.65494 -199.61084,14.45755 -5.28597,-1.63009 -10.12347,-2.9638 -10.75,-2.9638 -0.80415,0 -1.13916,4.6466 -1.13916,15.8 0,10.95556 -0.36793,16.16793 -1.2,17 -1.26577,1.26577 -14.94857,1.7181 -16.13333,0.53333 z m -25.20105,-78.2777 c 0.9347,-1.51237 -6.03877,-18.25084 -14.76754,-35.44664 -14.52206,-28.60866 -31.1413,-51.16095 -53.8913,-73.13044 -26.25685,-25.35603 -53.51985,-43.01024 -87.08934,-56.39487 -13.41892,-5.35032 -34.46849,-12.08368 -37.77552,-12.08368 -2.72255,0 -2.48856,1.78971 1.96116,15 22.11421,65.65249 65.44746,115.99368 122.7447,142.59522 12.39971,5.75685 38.46154,14.52175 52.85222,17.77482 12.24367,2.76773 15.1098,3.07033 15.96562,1.68559 z m 82.55465,-1.60028 c 6.62865,-1.39956 19.34832,-5.04638 28.26592,-8.10405 42.42617,-14.54712 76.6493,-38.13069 104.24463,-71.83626 15.46542,-18.88983 31.63207,-48.0332 40.78086,-73.51504 6.3073,-17.56753 7.21137,-20.87695 6.02677,-22.06155 -0.66314,-0.66314 -5.4946,0.38136 -14.4179,3.11695 -75.38568,23.11078 -131.45307,69.96074 -166.87947,139.4446 -7.16724,14.05752 -15.20929,33.41881 -14.41496,34.70407 0.77911,1.26062 3.53187,0.96699 16.39415,-1.74872 z M -36.86115,89.60455 c -15.2563,-4.76796 -28.68742,-21.59687 -31.34607,-39.27597 -0.59773,-3.97469 -0.80219,-7.68719 -0.45436,-8.25 0.95427,-1.54404 299.21714,-1.41502 299.73203,0.12965 0.21138,0.63412 0.006,4.31775 -0.45565,8.18585 -1.84163,15.41977 -12.78885,31.50461 -25.49374,37.45819 -5.03146,2.35777 -6.9817,2.69761 -15.26825,2.66056 -7.69463,-0.0344 -10.48854,-0.48144 -14.70179,-2.35241 -5.88889,-2.61505 -13.95317,-10.5483 -17.2081,-16.92849 -1.17192,-2.29715 -2.49583,-4.17663 -2.94202,-4.17663 -0.44619,0 -2.23279,2.19379 -3.97021,4.87508 -4.37477,6.75143 -10.25864,11.79491 -18.0545,15.47579 -5.80937,2.74294 -7.66803,3.12596 -15.12338,3.11655 -7.1615,-0.009 -9.43382,-0.44463 -14.43013,-2.76622 C 95.56593,84.10579 89.88745,79.32107 85.41512,72.58321 83.39705,69.54286 81.42229,67.0553 81.02676,67.0553 c -0.39553,0 -1.56633,1.57313 -2.60178,3.49585 -2.46261,4.57279 -12.10391,13.72208 -17.11676,16.24327 -17.37067,8.7365 -38.68725,2.53119 -49.60818,-14.44107 -1.84098,-2.86107 -3.82638,-5.22357 -4.41202,-5.25 -0.58563,-0.0264 -1.81798,1.53142 -2.73855,3.46188 -2.30899,4.84198 -9.22446,12.12903 -14.37515,15.14754 -8.47703,4.96787 -18.82559,6.45756 -27.03547,3.89178 z"
         id="path5024"
         inkscape:connector-curvature="0" />
    </g>
  </g>
</svg>
