<?xml version="1.0" encoding="UTF-8" standalone="no"?>
<!-- Created with Inkscape (http://www.inkscape.org/) -->

<svg
   xmlns:dc="http://purl.org/dc/elements/1.1/"
   xmlns:cc="http://creativecommons.org/ns#"
   xmlns:rdf="http://www.w3.org/1999/02/22-rdf-syntax-ns#"
   xmlns:svg="http://www.w3.org/2000/svg"
   xmlns="http://www.w3.org/2000/svg"
   xmlns:sodipodi="http://sodipodi.sourceforge.net/DTD/sodipodi-0.dtd"
   xmlns:inkscape="http://www.inkscape.org/namespaces/inkscape"
   width="256"
   height="256"
   id="svg2"
   version="1.1"
   inkscape:version="0.48.4 r9939"
   sodipodi:docname="flood-zone_button.svg"
   inkscape:export-filename="C:\Users\Ryan Cooper\Documents\GitHub\GSCPC-Website-Stuff\img\flood-zone_button.png"
   inkscape:export-xdpi="90"
   inkscape:export-ydpi="90">
  <defs
     id="defs4" />
  <sodipodi:namedview
     id="base"
     pagecolor="#ffffff"
     bordercolor="#666666"
     borderopacity="1.0"
     inkscape:pageopacity="0.0"
     inkscape:pageshadow="2"
     inkscape:zoom="1.4142136"
     inkscape:cx="-237.74919"
     inkscape:cy="170.331"
     inkscape:document-units="px"
     inkscape:current-layer="layer2"
     showgrid="false"
     showguides="true"
     inkscape:guide-bbox="true"
     inkscape:window-width="1920"
     inkscape:window-height="976"
     inkscape:window-x="-8"
     inkscape:window-y="-8"
     inkscape:window-maximized="1">
    <sodipodi:guide
       orientation="1,0"
       position="8,128"
       id="guide2985" />
    <sodipodi:guide
       orientation="0,1"
       position="128,248"
       id="guide2987" />
    <sodipodi:guide
       orientation="1,0"
       position="248,128"
       id="guide2989" />
    <sodipodi:guide
       orientation="0,1"
       position="128,8"
       id="guide2993" />
    <sodipodi:guide
       orientation="0,1"
       position="128,128"
       id="guide2995" />
    <sodipodi:guide
       orientation="1,0"
       position="128,128"
       id="guide2997" />
    <sodipodi:guide
       orientation="1,0"
       position="0,128"
       id="guide3788" />
    <sodipodi:guide
       orientation="1,0"
       position="256,128"
       id="guide3790" />
    <sodipodi:guide
       orientation="0,1"
       position="128,256"
       id="guide3792" />
    <sodipodi:guide
       orientation="0,1"
       position="128,0"
       id="guide3794" />
  </sodipodi:namedview>
  <metadata
     id="metadata7">
    <rdf:RDF>
      <cc:Work
         rdf:about="">
        <dc:format>image/svg+xml</dc:format>
        <dc:type
           rdf:resource="http://purl.org/dc/dcmitype/StillImage" />
        <dc:title></dc:title>
      </cc:Work>
    </rdf:RDF>
  </metadata>
  <g
     inkscape:groupmode="layer"
     id="layer1"
     inkscape:label="bg"
     style="display:inline"
     sodipodi:insensitive="true">
    <rect
       style="color:#000000;fill:#2ecc71;fill-opacity:1;stroke:none;stroke-width:15;marker:none;visibility:visible;display:inline;overflow:visible;enable-background:accumulate"
       id="rect3006"
       width="256"
       height="256"
       x="0"
       y="1.204592e-014" />
  </g>
  <g
     inkscape:groupmode="layer"
     id="layer3"
     inkscape:label="flood"
     style="display:inline"
     sodipodi:insensitive="true">
    <path
       style="fill:#2980b9;fill-opacity:1;stroke:none"
       d="m 67.000001,256 c 0,0 12.999998,-47 60.999999,-49.5 48,-2.5 80,-7 94.5,-19.5 14.5,-12.5 17.5,-13.5 25.5,-17 8,-3.5 8,-17.5 8,-17.5 L 256,0 213.1875,0 C 213.1875,0 169,40.999998 128,36.499998 c -40.999999,-4.5 -52.999999,10 -61.999999,30 C 57,86.499999 0,78.813569 0,78.499998 0,65.937181 0,256 0,256 z"
       id="path3793"
       inkscape:connector-curvature="0"
       sodipodi:nodetypes="cssscccssscc" />
  </g>
  <g
     inkscape:groupmode="layer"
     id="layer4"
     inkscape:label="text">
    <g
       style="font-size:56px;font-style:normal;font-variant:normal;font-weight:bold;font-stretch:normal;text-align:start;line-height:125%;letter-spacing:0px;word-spacing:0px;writing-mode:lr-tb;text-anchor:start;fill:#ffffff;fill-opacity:1;stroke:none;font-family:Open Sans;-inkscape-font-specification:Open Sans Bold"
       id="text3796"
       transform="translate(-4.2426407,4.2426407)">
      <path
         d="m 21.371094,106.09336 -8.339844,0 0,-39.976562 22.914062,0 0,6.945313 -14.574218,0 0,10.308594 13.5625,0 0,6.917968 -13.5625,0 z"
         id="path3833"
         inkscape:connector-curvature="0" />
      <path
         d="m 51.449219,106.09336 -8.339844,0 0,-42.546874 8.339844,0 z"
         id="path3835"
         inkscape:connector-curvature="0" />
      <path
         d="m 66.816406,90.753517 c -1.1e-5,3.026054 0.496734,5.313812 1.490235,6.863281 0.993476,1.549486 2.611313,2.324225 4.853515,2.324219 2.223939,6e-6 3.823547,-0.770175 4.798828,-2.310547 0.975238,-1.540354 1.462867,-3.83267 1.462891,-6.876953 -2.4e-5,-3.026023 -0.492211,-5.295552 -1.476563,-6.808594 -0.984396,-1.512997 -2.597675,-2.269506 -4.839843,-2.269531 -2.223974,2.5e-5 -3.828139,0.751977 -4.8125,2.25586 -0.984387,1.503926 -1.476574,3.778013 -1.476563,6.822265 z m 21.136719,0 c -3.2e-5,4.976573 -1.312531,8.868496 -3.9375,11.675783 -2.625026,2.80729 -6.27997,4.21094 -10.964844,4.21094 -2.93491,0 -5.523449,-0.64258 -7.765625,-1.92774 -2.242194,-1.28515 -3.964849,-3.13085 -5.167969,-5.537108 -1.203128,-2.406241 -1.80469,-5.213529 -1.804687,-8.421875 -3e-6,-4.994771 1.303382,-8.87758 3.910156,-11.648437 2.606762,-2.770804 6.270821,-4.156219 10.992188,-4.15625 2.934875,3.1e-5 5.523414,0.638051 7.765625,1.914062 2.24216,1.27607 3.964814,3.108099 5.167968,5.496094 1.203094,2.388042 1.804656,5.186216 1.804688,8.394531 z"
         id="path3837"
         inkscape:connector-curvature="0" />
      <path
         d="m 101.48828,90.753517 c -1e-5,3.026054 0.49673,5.313812 1.49024,6.863281 0.99347,1.549486 2.61131,2.324225 4.85351,2.324219 2.22394,6e-6 3.82355,-0.770175 4.79883,-2.310547 0.97524,-1.540354 1.46287,-3.83267 1.46289,-6.876953 -2e-5,-3.026023 -0.49221,-5.295552 -1.47656,-6.808594 -0.9844,-1.512997 -2.59768,-2.269506 -4.83985,-2.269531 -2.22397,2.5e-5 -3.82813,0.751977 -4.8125,2.25586 -0.98438,1.503926 -1.47657,3.778013 -1.47656,6.822265 z m 21.13672,0 c -3e-5,4.976573 -1.31253,8.868496 -3.9375,11.675783 -2.62503,2.80729 -6.27997,4.21094 -10.96484,4.21094 -2.93491,0 -5.52345,-0.64258 -7.765629,-1.92774 -2.242194,-1.28515 -3.964849,-3.13085 -5.167969,-5.537108 -1.203128,-2.406241 -1.80469,-5.213529 -1.804687,-8.421875 -3e-6,-4.994771 1.303382,-8.87758 3.910156,-11.648437 2.606762,-2.770804 6.270819,-4.156219 10.992189,-4.15625 2.93487,3.1e-5 5.52341,0.638051 7.76562,1.914062 2.24216,1.27607 3.96482,3.108099 5.16797,5.496094 1.2031,2.388042 1.80466,5.186216 1.80469,8.394531 z"
         id="path3839"
         inkscape:connector-curvature="0" />
      <path
         d="m 139.19531,106.64024 c -3.59115,0 -6.41211,-1.39453 -8.46289,-4.1836 -2.05078,-2.789054 -3.07617,-6.653633 -3.07617,-11.593748 0,-5.013 1.04362,-8.918595 3.13086,-11.716797 2.08723,-2.798147 4.96288,-4.197234 8.62695,-4.197265 3.84634,3.1e-5 6.78123,1.494821 8.80469,4.484375 l 0.27344,0 c -0.4193,-2.278617 -0.62893,-4.311167 -0.62891,-6.097657 l 0,-9.789062 8.36719,0 0,42.546874 -6.39844,0 -1.61328,-3.96484 -0.35547,0 c -1.89585,3.00781 -4.78517,4.51172 -8.66797,4.51172 z m 2.92578,-6.644535 c 2.1328,6e-6 3.69595,-0.619785 4.68946,-1.859375 0.99346,-1.239574 1.53578,-3.345041 1.62695,-6.316407 l 0,-0.902343 c -2e-5,-3.281232 -0.50588,-5.632792 -1.51758,-7.054688 -1.01174,-1.421851 -2.65692,-2.132788 -4.93555,-2.132812 -1.85938,2.4e-5 -3.30404,0.788435 -4.33398,2.365234 -1.02996,1.576843 -1.54493,3.869159 -1.54492,6.876953 -1e-5,3.007825 0.51952,5.263682 1.55859,6.767578 1.03905,1.503913 2.52473,2.255866 4.45703,2.25586 z"
         id="path3841"
         inkscape:connector-curvature="0" />
    </g>
    <g
       style="font-size:56px;font-style:normal;font-variant:normal;font-weight:bold;font-stretch:normal;text-align:start;line-height:125%;letter-spacing:0px;word-spacing:0px;writing-mode:lr-tb;text-anchor:start;fill:#ffffff;fill-opacity:1;stroke:none;font-family:Open Sans;-inkscape-font-specification:Open Sans Bold"
       id="text3796-1"
       transform="translate(-1.4142136,2.1213204)">
      <path
         d="m 117.09355,189.31015 -29.749998,0 0,-5.49609 19.167968,-27.48047 -18.648437,0 0,-7 28.710937,0 0,5.46875 -19.140625,27.50781 19.660155,0 z"
         id="path3822"
         inkscape:connector-curvature="0" />
      <path
         d="m 129.50761,173.97031 c -1e-5,3.02605 0.49674,5.31381 1.49024,6.86328 0.99347,1.54948 2.61131,2.32422 4.85351,2.32422 2.22394,0 3.82355,-0.77018 4.79883,-2.31055 0.97524,-1.54036 1.46287,-3.83267 1.46289,-6.87695 -2e-5,-3.02603 -0.49221,-5.29556 -1.47656,-6.8086 -0.9844,-1.51299 -2.59768,-2.2695 -4.83984,-2.26953 -2.22398,3e-5 -3.82814,0.75198 -4.8125,2.25586 -0.98439,1.50393 -1.47658,3.77801 -1.47657,6.82227 z m 21.13672,0 c -3e-5,4.97657 -1.31253,8.86849 -3.9375,11.67578 -2.62502,2.80729 -6.27997,4.21093 -10.96484,4.21094 -2.93491,-1e-5 -5.52345,-0.64258 -7.76563,-1.92774 -2.24219,-1.28515 -3.96485,-3.13085 -5.16796,-5.53711 -1.20313,-2.40624 -1.80469,-5.21353 -1.80469,-8.42187 0,-4.99477 1.30338,-8.87758 3.91015,-11.64844 2.60677,-2.7708 6.27082,-4.15622 10.99219,-4.15625 2.93488,3e-5 5.52342,0.63805 7.76563,1.91406 2.24216,1.27607 3.96481,3.1081 5.16797,5.4961 1.20309,2.38804 1.80465,5.18621 1.80468,8.39453 z"
         id="path3824"
         inkscape:connector-curvature="0" />
      <path
         d="m 185.75371,189.31015 -8.33985,0 0,-17.85547 c -2e-5,-2.20571 -0.39195,-3.86 -1.17578,-4.96289 -0.78387,-1.10284 -2.03257,-1.65427 -3.74609,-1.6543 -2.33335,3e-5 -4.01955,0.77932 -5.05859,2.33789 -1.03908,1.55862 -1.55861,4.1426 -1.5586,7.75196 l 0,14.38281 -8.33984,0 0,-30.57031 6.37109,0 1.1211,3.91015 0.46484,0 c 0.92967,-1.47653 2.21027,-2.59307 3.8418,-3.34961 1.63149,-0.75648 3.4863,-1.13473 5.56445,-1.13476 3.55466,3e-5 6.25258,0.96162 8.09375,2.88476 1.84111,1.92321 2.76169,4.6986 2.76172,8.32618 z"
         id="path3826"
         inkscape:connector-curvature="0" />
      <path
         d="m 207.05449,164.09921 c -1.76825,3e-5 -3.15366,0.56057 -4.15625,1.68164 -1.00262,1.12112 -1.57684,2.71161 -1.72266,4.77149 l 11.70313,0 c -0.0365,-2.05988 -0.57424,-3.65037 -1.61328,-4.77149 -1.03909,-1.12107 -2.44273,-1.68161 -4.21094,-1.68164 z m 1.17578,25.75782 c -4.92189,-1e-5 -8.76824,-1.35808 -11.53906,-4.07422 -2.77084,-2.71614 -4.15625,-6.56249 -4.15625,-11.53907 0,-5.12237 1.28059,-9.08265 3.84179,-11.88086 2.56119,-2.79814 6.10221,-4.19723 10.62305,-4.19726 4.32029,3e-5 7.68357,1.2305 10.08985,3.69141 2.40622,2.46096 3.60934,5.86069 3.60937,10.19921 l 0,4.04688 -19.71484,0 c 0.0911,2.3698 0.79295,4.22006 2.10547,5.55078 1.31248,1.33074 3.15362,1.9961 5.52343,1.99609 1.84113,1e-5 3.58201,-0.1914 5.22266,-0.57421 1.6406,-0.38281 3.35414,-0.99349 5.14062,-1.83204 l 0,6.45313 c -1.45836,0.72917 -3.01695,1.27148 -4.67578,1.62695 -1.65887,0.35547 -3.68231,0.5332 -6.07031,0.53321 z"
         id="path3828"
         inkscape:connector-curvature="0" />
      <path
         d="m 248.86308,180.23203 c -2e-5,3.13542 -1.08921,5.52344 -3.26758,7.16406 -2.1784,1.64062 -5.43686,2.46093 -9.77539,2.46094 -2.22396,-1e-5 -4.1198,-0.1504 -5.6875,-0.45118 -1.56771,-0.30078 -3.03516,-0.74283 -4.40234,-1.32617 l 0,-6.89062 c 1.54948,0.72917 3.29492,1.33985 5.23633,1.83203 1.9414,0.49219 3.65038,0.73828 5.12695,0.73828 3.02603,0 4.53905,-0.87499 4.53906,-2.625 -1e-5,-0.65624 -0.20053,-1.18944 -0.60156,-1.59961 -0.40106,-0.41015 -1.09376,-0.87499 -2.07812,-1.39453 -0.98439,-0.51952 -2.29689,-1.12564 -3.9375,-1.81836 -2.35157,-0.98436 -4.07879,-1.89582 -5.18164,-2.73438 -1.10287,-0.83852 -1.90496,-1.80011 -2.40625,-2.88476 -0.50131,-1.08462 -0.75196,-2.4199 -0.75196,-4.00586 0,-2.71612 1.05273,-4.81703 3.15821,-6.30274 2.10546,-1.48564 5.09048,-2.22848 8.95507,-2.22851 3.68228,3e-5 7.26431,0.80211 10.7461,2.40625 l -2.51563,6.01562 c -1.53127,-0.65622 -2.96226,-1.19398 -4.29297,-1.61328 -1.33074,-0.41924 -2.68881,-0.62888 -4.07421,-0.6289 -2.46095,2e-5 -3.69142,0.66539 -3.69141,1.99609 -10e-6,0.74742 0.39647,1.39455 1.18945,1.94141 0.79296,0.54689 2.52928,1.35809 5.20899,2.43359 2.388,0.96616 4.138,1.86851 5.25,2.70703 1.11195,0.83856 1.93226,1.8047 2.46093,2.89844 0.52862,1.09376 0.79295,2.39714 0.79297,3.91016 z"
         id="path3830"
         inkscape:connector-curvature="0" />
    </g>
  </g>
  <g
     inkscape:groupmode="layer"
     id="layer2"
     inkscape:label="river"
     style="display:inline">
    <path
       style="color:#000000;fill:#498dbf;fill-opacity:0;stroke:none;stroke-width:15;marker:none;visibility:visible;display:inline;overflow:visible;enable-background:accumulate"
       id="path3770"
       d="m -5.689903,260.94349 c 0.4479723,-1.04524 0.8738808,-2.0989 1.2863763,-3.15856 0.3557396,-1.00547 0.7166022,-2.00566 0.9238628,-3.05372 0.4490133,-1.2079 0.7740923,-2.43773 1.0428546,-3.69694 0.1790146,-1.33937 0.5271845,-2.63642 0.8592664,-3.94234 0.2887885,-1.10583 0.6645784,-2.18372 0.9709073,-3.2842 0.4399986,-1.38608 0.854946,-2.78012 1.2581999,-4.17752 0.3547008,-0.91826 0.4930386,-1.89877 0.7649415,-2.83956 0.013005,-0.045 0.4694089,-1.38299 0.4816966,-1.41906 0.3863142,-1.46361 0.823937,-2.90816 1.2743452,-4.35396 0.419189,-1.30542 0.8902381,-2.59098 1.3599994,-3.87853 0.339331,-1.11766 0.627096,-2.25262 0.911411,-3.38586 0.345182,-1.35048 0.912732,-2.62832 1.471034,-3.90078 0.587803,-1.50342 1.217847,-2.99808 1.917752,-4.45349 0.599797,-1.51746 1.398456,-2.93944 2.129343,-4.39395 0.740247,-1.39446 1.495942,-2.77738 2.299522,-4.13615 0.654872,-1.16896 1.357014,-2.30939 2.001892,-3.4837 0.754602,-1.17031 1.462483,-2.36819 2.170361,-3.56696 0.754582,-1.4103 1.492538,-2.8281 2.263192,-4.22958 0.689162,-1.32565 1.457056,-2.60404 2.296347,-3.83933 0.746687,-1.32471 1.650066,-2.54906 2.445589,-3.84258 0.87682,-1.50555 1.83372,-2.96359 2.807212,-4.40807 0.918427,-1.40958 1.899506,-2.77689 2.884723,-4.1402 1.22544,-1.81979 2.460013,-3.63282 3.713296,-5.43359 0.967296,-1.52143 2.011698,-2.99232 3.06634,-4.45397 0.932662,-1.24367 1.871707,-2.47542 2.957913,-3.58945 0.824927,-0.79306 1.641839,-1.607 2.537,-2.32148 0.742231,-0.60443 1.53804,-1.12864 2.342663,-1.64459 1.207105,-0.79261 2.487946,-1.46068 3.747283,-2.1639 1.068223,-0.68169 2.179534,-1.27731 3.297618,-1.869 1.497322,-0.94388 3.114529,-1.6652 4.661257,-2.51612 1.283834,-0.74616 2.612045,-1.40781 3.89908,-2.14872 1.488592,-0.82599 3.01373,-1.58343 4.535064,-2.34681 1.063968,-0.56942 2.156953,-1.03981 3.300407,-1.41789 1.260967,-0.54167 2.597971,-0.85888 3.910195,-1.24507 1.474904,-0.45125 2.991905,-0.74882 4.504647,-1.04223 1.165508,-0.18507 2.267819,-0.59624 3.384707,-0.95836 1.333342,-0.48902 2.694836,-0.87403 4.071599,-1.21585 1.400305,-0.287 2.807953,-0.55408 4.222887,-0.76143 1.200124,-0.13316 2.390489,-0.16839 3.576186,-0.4086 1.370737,-0.28716 2.73726,-0.58694 4.10358,-0.89393 1.0087,-0.23432 2.0069,-0.51441 3.02077,-0.72513 1.509373,-0.29637 3.021223,-0.57278 4.547353,-0.76691 1.45875,-0.20006 2.91216,-0.43273 4.36718,-0.65748 1.48747,-0.31548 3.00684,-0.40267 4.50736,-0.6217 1.87874,-0.3045 3.74156,-0.69587 5.6216,-0.99149 1.85481,-0.13908 3.65004,-0.57789 5.45936,-0.97639 1.99778,-0.42085 3.93741,-1.06876 5.91379,-1.57857 2.16856,-0.60838 4.32594,-1.26488 6.45998,-1.98554 1.55025,-0.55581 3.1554,-0.93232 4.7365,-1.38848 2.36056,-0.61547 4.67407,-1.38933 7.03619,-1.99819 2.16765,-0.65536 4.38291,-1.1507 6.5217,-1.9005 0.21808,-0.0764 3.23547,-1.21785 3.4773,-1.30922 3.94815,-1.56244 7.85701,-3.2234 11.76533,-4.88306 4.0174,-1.63989 8.00972,-3.34619 11.92287,-5.22224 4.10417,-1.93711 8.1317,-4.03089 12.07413,-6.27786 3.61063,-1.91195 7.09081,-4.05276 10.50498,-6.29303 2.78765,-1.87698 5.34809,-4.05605 7.83892,-6.30434 1.84232,-1.54944 3.42955,-3.35859 4.9721,-5.196841 1.54157,-1.947078 2.92115,-4.015749 4.3555,-6.041829 1.63246,-2.32456 3.20765,-4.682255 4.59925,-7.158961 0.9765,-1.668084 1.80513,-3.427265 2.4908,-5.233995 0.52809,-1.690213 1.17091,-3.335787 1.80705,-4.986489 0.63353,-1.569518 1.27941,-3.13722 1.9648,-4.684993 0.67002,-1.885675 1.3223,-3.786689 1.89077,-5.707102 0.61236,-1.982267 1.27902,-3.949424 1.73597,-5.974619 0.29841,-1.616034 0.41539,-3.250113 0.7346,-4.863083 0.1989,-1.156891 0.40615,-2.304677 0.67924,-3.446706 0.3872,-1.382315 0.76992,-2.77043 1.24153,-4.126709 0.5107,-1.4267 0.90423,-2.892 1.33752,-4.34343 0.46886,-1.515173 1.04944,-2.990727 1.43955,-4.529548 0.26712,-1.266573 0.78048,-2.456339 1.20786,-3.671987 0.27564,-0.989375 0.63071,-1.951883 0.98326,-2.915458 0.26648,-1.107645 0.67689,-2.170428 1.00321,-3.260699 0.26162,-0.979178 0.49928,-1.961579 0.78662,-2.933792 0.43587,-1.364777 1.03934,-2.666133 1.4883,-4.02534 0.36051,-0.922408 0.61672,-1.877445 0.9025,-2.823863 0.36182,-1.050043 0.75243,-2.090211 1.02903,-3.166668 0.19214,-1.072342 0.58241,-2.09789 0.96679,-3.113561 0.36966,-0.875937 0.72064,-1.760333 1.14153,-2.6134348 0.41077,-0.9416309 0.82751,-1.8811502 1.25454,-2.8162681 0.44226,-0.9493609 0.87955,-1.9044595 1.2698,-2.8767231 0.4543,-0.9590549 0.9181,-1.9159287 1.28094,-2.913971 0,0 3.12548,0.1081596 3.12548,0.1081596 l 0,0 c -0.35773,1.0010054 -0.80798,1.9666522 -1.26509,2.9252973 -0.38992,0.9798661 -0.86118,1.9280248 -1.29009,2.8912363 -0.42947,0.9369627 -0.83487,1.8842614 -1.24205,2.8303173 -0.44009,0.8321746 -0.75956,1.7198765 -1.13891,2.5798305 -0.38649,1.003262 -0.79802,2.0118 -0.98302,3.075326 -0.26181,1.083208 -0.65505,2.126592 -1.00674,3.183229 -0.29086,0.950245 -0.55695,1.908118 -0.93419,2.829652 -0.44165,1.357533 -1.0451,2.654287 -1.47754,4.016204 -0.28557,0.973125 -0.50239,1.959691 -0.77551,2.935991 -0.33151,1.094998 -0.76477,2.155481 -1.00509,3.276809 -0.33944,0.967994 -0.72292,1.920735 -0.99243,2.912248 -0.41685,1.211205 -0.95251,2.384635 -1.21569,3.645002 -0.39334,1.542576 -0.98517,3.02016 -1.44648,4.542479 -0.43757,1.454816 -0.82338,2.926875 -1.33679,4.357113 -0.469,1.34518 -0.85048,2.722587 -1.22745,4.095847 -0.27241,1.138846 -0.46973,2.286127 -0.68597,3.436183 -0.33982,1.61286 -0.45597,3.250427 -0.76526,4.868359 -0.45325,2.033648 -1.12604,4.005669 -1.74301,5.994155 -0.55935,1.935484 -1.22584,3.843944 -1.87497,5.749511 -0.69276,1.537761 -1.30937,3.111396 -1.95442,4.669483 -0.63916,1.649689 -1.30855,3.285283 -1.8186,4.982435 -0.67176,1.832058 -1.53136,3.600552 -2.52114,5.281551 -1.41658,2.478324 -2.99265,4.850065 -4.63406,7.185897 -1.4104,2.042268 -2.78371,4.11474 -4.31091,6.072573 -1.56421,1.842032 -3.14149,3.687222 -5.00838,5.236512 -2.51628,2.24547 -5.08927,4.43862 -7.87502,6.34702 -3.43012,2.24636 -6.93496,4.37982 -10.55604,6.30642 -3.94101,2.24862 -7.96179,4.35423 -12.06152,6.29994 -3.91559,1.89578 -7.92255,3.59769 -11.95334,5.23271 -3.8937,1.65864 -7.78082,3.33495 -11.7123,4.90192 -1.15932,0.43584 -2.30745,0.90161 -3.47231,1.32242 -2.12636,0.76815 -4.33767,1.2454 -6.49169,1.92571 -2.34806,0.58881 -4.63594,1.37627 -6.97577,1.99552 -1.58651,0.46579 -3.19782,0.83884 -4.76329,1.37132 -2.13291,0.72828 -4.29311,1.37921 -6.45644,2.01048 -1.97808,0.49355 -3.91108,1.14714 -5.89966,1.59159 -1.81986,0.38564 -3.61234,0.88735 -5.48065,0.99227 -1.8748,0.28088 -3.72708,0.68327 -5.59722,0.99261 -1.48938,0.263 -3.01474,0.28371 -4.49432,0.62673 -1.46158,0.21543 -2.91801,0.45987 -4.38131,0.6643 -1.51868,0.17797 -3.02155,0.44395 -4.51962,0.74905 -1.01854,0.18168 -2.0127,0.48004 -3.019273,0.71789 -1.37708,0.29052 -2.74604,0.61269 -4.12589,0.89116 -0.21621,0.05 -1.078694,0.25905 -1.351766,0.29079 -0.731098,0.085 -1.484616,-0.001 -2.212451,0.14307 -1.417506,0.18787 -2.821542,0.46593 -4.22641,0.72722 -1.370043,0.3471 -2.74183,0.68111 -4.063038,1.1955 -1.122272,0.36514 -2.221648,0.80073 -3.391165,0.99783 -1.515413,0.27603 -3.033148,0.57358 -4.512017,1.00678 -1.29709,0.40834 -2.644842,0.67426 -3.889294,1.23673 -0.181351,0.0645 -0.362703,0.12906 -0.544055,0.19359 -0.15883,0.0437 -0.320219,0.079 -0.476491,0.13115 -0.801737,0.26741 -1.522823,0.72439 -2.299971,1.04888 -1.516058,0.75761 -3.036336,1.50711 -4.517757,2.33138 -1.297131,0.73714 -2.618176,1.42399 -3.922054,2.14815 -1.523878,0.88075 -3.168616,1.54283 -4.640979,2.52168 -1.961443,1.11928 0.620593,-0.32519 -1.169083,0.59197 -0.734556,0.37643 -1.403595,0.88572 -2.13194,1.27403 -1.250285,0.70432 -2.531542,1.35685 -3.732602,2.14561 -0.794859,0.51909 -1.590886,1.02393 -2.327126,1.6237 -0.928253,0.6572 -1.714286,1.51426 -2.557949,2.2735 -1.090859,1.0957 -2.039261,2.3026 -2.961822,3.5424 -1.064044,1.4574 -2.122961,2.92189 -3.088354,4.44704 -1.260032,1.79627 -2.510868,3.59831 -3.706769,5.43829 -0.976322,1.36254 -1.948047,2.72891 -2.864539,4.13271 -0.980153,1.43779 -1.952936,2.88333 -2.824324,4.39047 -0.772532,1.30942 -1.683121,2.53101 -2.421265,3.86269 -0.849054,1.22019 -1.62298,2.48474 -2.301031,3.80883 -0.779113,1.39963 -1.531502,2.81301 -2.261271,4.23918 -0.711157,1.19093 -1.393772,2.39891 -2.157797,3.55773 -0.652198,1.17662 -1.358268,2.31983 -2.017291,3.4931 -0.808218,1.34938 -1.561405,2.72512 -2.300412,4.11378 -0.728787,1.45411 -1.547031,2.86604 -2.131309,4.38967 -0.707778,1.44623 -1.338545,2.93919 -1.915835,4.44092 -0.544527,1.25819 -1.10722,2.51675 -1.45235,3.8481 -0.273752,1.14717 -0.581424,2.28941 -0.916993,3.4195 -0.464547,1.28589 -0.950152,2.56188 -1.366312,3.86507 -0.462095,1.44544 -0.89541,2.89263 -1.277857,4.3602 -0.156061,0.46479 -0.34103,0.9202 -0.479099,1.39064 -0.2770608,0.94402 -0.4008296,1.9349 -0.7700322,2.85361 -0.4003894,1.3958 -0.8023701,2.79133 -1.243714,4.17456 -0.3011908,1.09972 -0.6585964,2.17991 -0.9654374,3.27796 -0.3310376,1.3027 -0.7099296,2.58943 -0.8753096,3.92921 -0.2621298,1.2562 -0.5557458,2.49172 -1.0124235,3.69385 -0.2129497,1.06697 -0.5862579,2.08154 -0.9412283,3.10777 -0.4105747,1.06081 -0.8458484,2.11145 -1.259756,3.17047 0,0 -3.148271,-0.12754 -3.148271,-0.12754 z"
       inkscape:connector-curvature="0" />
    <path
       style="fill:none;stroke:#3498df;stroke-width:20;stroke-linecap:butt;stroke-linejoin:miter;stroke-miterlimit:4;stroke-opacity:1;stroke-dasharray:none"
       d="M 0,256 C 0,256 0,128 128,128 256,128 256,0 256,0"
       id="path3790"
       inkscape:connector-curvature="0" />
  </g>
</svg>
