<?xml version="1.0" encoding="UTF-8" standalone="no"?>
<!-- Created with Inkscape (http://www.inkscape.org/) -->

<svg
   xmlns:dc="http://purl.org/dc/elements/1.1/"
   xmlns:cc="http://creativecommons.org/ns#"
   xmlns:rdf="http://www.w3.org/1999/02/22-rdf-syntax-ns#"
   xmlns:svg="http://www.w3.org/2000/svg"
   xmlns="http://www.w3.org/2000/svg"
   xmlns:sodipodi="http://sodipodi.sourceforge.net/DTD/sodipodi-0.dtd"
   xmlns:inkscape="http://www.inkscape.org/namespaces/inkscape"
   width="256"
   height="256"
   id="svg2"
   version="1.1"
   inkscape:version="0.48.4 r9939"
   sodipodi:docname="square_template_256.svg"
   inkscape:export-filename="C:\Users\Ryan Cooper\Documents\GitHub\GSCPC-Website-Stuff\img\question_icon.png"
   inkscape:export-xdpi="90"
   inkscape:export-ydpi="90">
  <defs
     id="defs4" />
  <sodipodi:namedview
     id="base"
     pagecolor="#ffffff"
     bordercolor="#666666"
     borderopacity="1.0"
     inkscape:pageopacity="0.0"
     inkscape:pageshadow="2"
     inkscape:zoom="0.99999999"
     inkscape:cx="-206.21647"
     inkscape:cy="47.196167"
     inkscape:document-units="px"
     inkscape:current-layer="layer1"
     showgrid="false"
     showguides="true"
     inkscape:guide-bbox="true"
     inkscape:window-width="1920"
     inkscape:window-height="1018"
     inkscape:window-x="-8"
     inkscape:window-y="-8"
     inkscape:window-maximized="1">
    <sodipodi:guide
       orientation="1,0"
       position="8,128"
       id="guide2985" />
    <sodipodi:guide
       orientation="0,1"
       position="128,248"
       id="guide2987" />
    <sodipodi:guide
       orientation="1,0"
       position="248,128"
       id="guide2989" />
    <sodipodi:guide
       orientation="0,1"
       position="128,8"
       id="guide2993" />
    <sodipodi:guide
       orientation="0,1"
       position="128,128"
       id="guide2995" />
    <sodipodi:guide
       orientation="1,0"
       position="128,128"
       id="guide2997" />
    <sodipodi:guide
       orientation="1,0"
       position="0,128"
       id="guide3788" />
    <sodipodi:guide
       orientation="1,0"
       position="256,128"
       id="guide3790" />
    <sodipodi:guide
       orientation="0,1"
       position="128,256"
       id="guide3792" />
    <sodipodi:guide
       orientation="0,1"
       position="128,0"
       id="guide3794" />
  </sodipodi:namedview>
  <metadata
     id="metadata7">
    <rdf:RDF>
      <cc:Work
         rdf:about="">
        <dc:format>image/svg+xml</dc:format>
        <dc:type
           rdf:resource="http://purl.org/dc/dcmitype/StillImage" />
        <dc:title></dc:title>
      </cc:Work>
    </rdf:RDF>
  </metadata>
  <g
     inkscape:groupmode="layer"
     id="layer1"
     inkscape:label="bg">
    <rect
       style="color:#000000;fill:#8c6baf;fill-opacity:1;stroke:none;stroke-width:15;marker:none;visibility:visible;display:inline;overflow:visible;enable-background:accumulate"
       id="rect3006"
       width="256"
       height="256"
       x="0"
       y="1.204592e-014" />
    <g
       style="font-size:40px;font-style:normal;font-variant:normal;font-weight:bold;font-stretch:normal;text-align:start;line-height:125%;letter-spacing:0px;word-spacing:0px;writing-mode:lr-tb;text-anchor:start;fill:#ffffff;fill-opacity:1;stroke:none;font-family:Century Gothic;-inkscape-font-specification:Century Gothic Bold"
       id="text3900"
       transform="matrix(2.2946779,0,0,2.2946779,-7.6190477,-0.7196919)">
      <path
         d="m 3.3203125,-0.06529999 5.5273438,0 0,9.88281249 7.7929687,-9.88281249 6.582031,0 L 13.183594,12.7472 l 11.015625,15.917969 -6.484375,0 -8.8671877,-12.753906 0,12.753906 -5.5273438,0 z"
         style="line-height:125%;fill:#ffffff;fill-opacity:1;font-family:Century Gothic;-inkscape-font-specification:Century Gothic Bold"
         id="path3928"
         inkscape:connector-curvature="0" />
      <path
         d="m 28.125,-0.06529999 5.46875,0 0,23.51562499 7.96875,0 0,5.214844 -13.4375,0 z"
         style="line-height:125%;fill:#ffffff;fill-opacity:1;font-family:Century Gothic;-inkscape-font-specification:Century Gothic Bold"
         id="path3930"
         inkscape:connector-curvature="0" />
      <path
         d="m 45.722656,-0.06529999 15.683594,0 0,5.35156249 -10.253906,0 0,5.1953125 10.253906,0 0,5.253906 -10.253906,0 0,7.558594 10.253906,0 0,5.371094 -15.683594,0 z"
         style="line-height:125%;fill:#ffffff;fill-opacity:1;font-family:Century Gothic;-inkscape-font-specification:Century Gothic Bold"
         id="path3932"
         inkscape:connector-curvature="0" />
      <path
         d="m 75.234375,-0.06529999 5.546875,0 11.054687,28.73046899 -5.683593,0 -2.246094,-5.917969 -11.71875,0 -2.34375,5.917969 -5.683594,0 z m 2.8125,7.61718749 -3.828125,9.8632815 7.636719,0 z"
         style="line-height:125%;fill:#ffffff;fill-opacity:1;font-family:Century Gothic;-inkscape-font-specification:Century Gothic Bold"
         id="path3934"
         inkscape:connector-curvature="0" />
      <path
         d="m 96.464844,-0.06529999 5.800786,0 c 3.17707,2.873e-5 5.43943,0.28323157 6.7871,0.84960938 1.34764,0.56643361 2.43163,1.50718781 3.25196,2.82226561 0.82029,1.3151279 1.23045,2.8711159 1.23047,4.6679688 -2e-5,1.8880392 -0.4525,3.4668142 -1.35743,4.7363282 -0.90496,1.269546 -2.26889,2.229831 -4.09179,2.880859 l 6.79687,12.773438 -5.97656,0 -6.46484,-12.167969 -0.50782,0 0,12.167969 -5.468746,0 z m 5.468746,11.23046899 1.71875,0 c 1.74478,1.7e-5 2.94595,-0.227847 3.60352,-0.683594 0.65754,-0.455711 0.98631,-1.2109181 0.98633,-2.265625 -2e-5,-0.6249789 -0.16278,-1.1685982 -0.48828,-1.6308594 -0.32554,-0.462217 -0.76174,-0.7942479 -1.3086,-0.9960937 -0.54689,-0.2017997 -1.54949,-0.302711 -3.00781,-0.3027344 l -1.50391,0 z"
         style="line-height:125%;fill:#ffffff;fill-opacity:1;font-family:Century Gothic;-inkscape-font-specification:Century Gothic Bold"
         id="path3936"
         inkscape:connector-curvature="0" />
    </g>
    <g
       style="font-size:39.99999619px;font-style:normal;font-variant:normal;font-weight:normal;font-stretch:normal;text-align:start;line-height:125%;letter-spacing:0px;word-spacing:0px;writing-mode:lr-tb;text-anchor:start;fill:#ffffff;fill-opacity:1;stroke:none;font-family:Century Gothic;-inkscape-font-specification:Century Gothic"
       id="text3938"
       transform="matrix(1.2731788,0,0,1.2731788,-70.313372,-20.097644)">
      <path
         d="m 131.65234,66.769534 5.72266,0 c 3.19009,2.9e-5 5.35155,0.130237 6.48437,0.390625 1.70571,0.390653 3.09243,1.22724 4.16016,2.509765 1.06769,1.282577 1.60154,2.861351 1.60156,4.736328 -2e-5,1.562519 -0.36786,2.936216 -1.10351,4.121093 -0.7357,1.184912 -1.78713,2.080093 -3.1543,2.685547 -1.3672,0.605482 -3.25522,0.914727 -5.66406,0.927734 L 150.03125,95.5 l -3.55469,0 -10.3125,-13.359374 -1.64062,0 0,13.359374 -2.8711,0 z m 2.8711,2.8125 0,9.765624 4.9414,0.03906 c 1.91405,1.6e-5 3.33007,-0.182275 4.24805,-0.546875 0.91795,-0.364566 1.6341,-0.947248 2.14844,-1.748046 0.5143,-0.800762 0.77146,-1.695944 0.77148,-2.685547 -2e-5,-0.96352 -0.26043,-1.83917 -0.78125,-2.626953 -0.52085,-0.787736 -1.20444,-1.350886 -2.05078,-1.689453 -0.84637,-0.338516 -2.25262,-0.507786 -4.21875,-0.507812 z"
         id="path3943"
         inkscape:connector-curvature="0"
         style="fill:#ffffff;fill-opacity:1" />
      <path
         d="m 173.23437,88.449219 2.30469,1.210938 c -0.75523,1.484379 -1.62763,2.682294 -2.61719,3.593749 -0.9896,0.91146 -2.10288,1.604819 -3.33984,2.080078 -1.237,0.47526 -2.63674,0.71289 -4.19922,0.712891 -3.46355,-10e-7 -6.17188,-1.136067 -8.125,-3.408203 -1.95313,-2.27213 -2.92969,-4.840486 -2.92969,-7.705077 0,-2.695299 0.82682,-5.09764 2.48047,-7.207031 2.09635,-2.682271 4.90234,-4.023415 8.41797,-4.023437 3.61977,2.2e-5 6.5104,1.373718 8.67187,4.121093 1.53644,1.94012 2.31769,4.361993 2.34375,7.265625 l -19.10156,0 c 0.0521,2.473966 0.83984,4.501958 2.36328,6.083984 1.52343,1.582033 3.40494,2.373048 5.64453,2.373046 1.08072,2e-6 2.13215,-0.1888 3.1543,-0.566406 1.02212,-0.377601 1.89126,-0.878903 2.60742,-1.503906 0.71613,-0.624995 1.49087,-1.634109 2.32422,-3.027344 z m 0,-5.722655 c -0.3646,-1.458319 -0.8952,-2.623683 -1.5918,-3.496094 -0.69663,-0.872378 -1.61785,-1.575503 -2.76367,-2.109374 -1.14585,-0.533836 -2.35027,-0.800762 -3.61328,-0.800782 -2.08334,2e-5 -3.8737,0.670592 -5.37109,2.011719 -1.09376,0.976578 -1.92058,2.441421 -2.48047,4.394531 z"
         id="path3945"
         inkscape:connector-curvature="0"
         style="fill:#ffffff;fill-opacity:1" />
      <path
         d="m 181.39843,74.250002 2.71485,0 0,3.90625 c 1.08072,-1.484356 2.32421,-2.597636 3.73047,-3.339844 1.40623,-0.742166 2.97524,-1.113259 4.70703,-1.113281 3.02081,2.2e-5 5.60544,1.08726 7.7539,3.261719 2.14841,2.174495 3.22263,4.791679 3.22266,7.851561 -3e-5,3.125008 -1.06448,5.777999 -3.19336,7.958984 -2.12893,2.18099 -4.69728,3.271483 -7.70508,3.271484 -1.69272,-10e-7 -3.24871,-0.351563 -4.66797,-1.054687 -1.41928,-0.703124 -2.70183,-1.7513 -3.84765,-3.144531 l 0,11.425783 -2.71485,0 z m 10.9375,2.089844 c -2.3698,1.9e-5 -4.36524,0.826841 -5.98633,2.480468 -1.6211,1.653661 -2.43164,3.71095 -2.43164,6.171875 0,1.614592 0.36133,3.066413 1.08399,4.355468 0.72265,1.289067 1.7578,2.311201 3.10547,3.066406 1.34764,0.75521 2.77017,1.132814 4.26757,1.132812 1.47134,2e-6 2.85481,-0.380857 4.1504,-1.142578 1.29555,-0.761715 2.32745,-1.826167 3.0957,-3.193359 0.7682,-1.36718 1.15232,-2.79947 1.15234,-4.296874 -2e-5,-1.510405 -0.38088,-2.942695 -1.14258,-4.296875 -0.76174,-1.35415 -1.78713,-2.405582 -3.07617,-3.154297 -1.28908,-0.748679 -2.69533,-1.123027 -4.21875,-1.123046 z"
         id="path3947"
         inkscape:connector-curvature="0"
         style="fill:#ffffff;fill-opacity:1" />
      <path
         d="m 218.68358,73.703127 c 3.26822,2.2e-5 5.97655,1.184916 8.125,3.554687 1.95311,2.161474 2.92967,4.720065 2.92969,7.675781 -2e-5,2.968757 -1.03192,5.563155 -3.0957,7.783202 -2.06382,2.220053 -4.71681,3.330077 -7.95899,3.330078 -3.25521,-10e-7 -5.91472,-1.110025 -7.97851,-3.330078 -2.0638,-2.220047 -3.0957,-4.814445 -3.0957,-7.783202 0,-2.942695 0.97656,-5.494775 2.92968,-7.65625 2.14843,-2.382791 4.86328,-3.574196 8.14453,-3.574218 z m 0,2.675781 c -2.26563,1.9e-5 -4.21224,0.839862 -5.83984,2.519531 -1.62761,1.679702 -2.44141,3.71095 -2.4414,6.09375 -1e-5,1.536467 0.37108,2.968757 1.11328,4.296874 0.74218,1.32813 1.74478,2.353519 3.00781,3.076172 1.26301,0.722658 2.64973,1.083986 4.16015,1.083984 1.51041,2e-6 2.89712,-0.361326 4.16016,-1.083984 1.263,-0.722653 2.26561,-1.748042 3.00781,-3.076172 0.74217,-1.328117 1.11326,-2.760407 1.11328,-4.296874 -2e-5,-2.3828 -0.81707,-4.414048 -2.45117,-6.09375 -1.63413,-1.679669 -3.57749,-2.519512 -5.83008,-2.519531 z"
         id="path3949"
         inkscape:connector-curvature="0"
         style="fill:#ffffff;fill-opacity:1" />
      <path
         d="m 233.76171,74.250002 2.79297,0 0,3.105468 c 0.83333,-1.223938 1.71223,-2.138651 2.63672,-2.74414 0.92447,-0.605447 1.88801,-0.908181 2.89062,-0.908203 0.7552,2.2e-5 1.56249,0.240907 2.42188,0.722656 l -1.42578,2.304688 c -0.57293,-0.247377 -1.0547,-0.371075 -1.44532,-0.371094 -0.91146,1.9e-5 -1.79037,0.374368 -2.63671,1.123047 -0.84637,0.748715 -1.4909,1.910823 -1.9336,3.486327 -0.33854,1.210951 -0.50782,3.658865 -0.50781,7.34375 l 0,7.187499 -2.79297,0 z"
         id="path3951"
         inkscape:connector-curvature="0"
         style="fill:#ffffff;fill-opacity:1" />
      <path
         d="m 249.21093,66.359378 2.75391,0 0,7.890624 4.33593,0 0,2.34375 -4.33593,0 0,18.906248 -2.75391,0 0,-18.906248 -3.73047,0 0,-2.34375 3.73047,0 z"
         id="path3953"
         inkscape:connector-curvature="0"
         style="fill:#ffffff;fill-opacity:1" />
    </g>
    <g
       style="font-size:57.6241684px;font-style:normal;font-variant:normal;font-weight:normal;font-stretch:normal;text-align:start;line-height:80.00000119%;letter-spacing:0px;word-spacing:0px;writing-mode:lr-tb;text-anchor:start;fill:#4d4d4d;fill-opacity:1;stroke:none;font-family:Century Gothic;-inkscape-font-specification:Century Gothic"
       id="text3955"
       transform="matrix(0.97549911,0,0,0.97549911,-1.2861538,3.1408682)">
      <path
         d="m 27.780171,142.90957 -2.532312,2.61673 c -2.100896,-2.04459 -4.154881,-3.06689 -6.161959,-3.06692 -1.275545,3e-5 -2.36819,0.42208 -3.277938,1.26616 -0.909763,0.84413 -1.364641,1.82892 -1.364635,2.95436 -6e-6,0.99419 0.375151,1.94147 1.125472,2.84182 0.750307,0.91916 2.325966,1.99773 4.726983,3.23573 2.926212,1.51941 4.914544,2.98252 5.965002,4.38934 1.031663,1.42561 1.547504,3.02941 1.547524,4.8114 -2e-5,2.51356 -0.881639,4.64257 -2.644859,6.38705 -1.763255,1.74448 -3.967303,2.61672 -6.612149,2.61672 -1.763248,0 -3.446765,-0.38453 -5.050555,-1.15361 -1.603802,-0.76907 -2.93092,-1.82888 -3.9813577,-3.17945 l 2.4760387,-2.81368 c 2.007086,2.2697 4.136101,3.40455 6.387054,3.40455 1.575648,0 2.916835,-0.50646 4.023562,-1.51939 1.106699,-1.01292 1.660055,-2.20404 1.660071,-3.57337 -1.6e-5,-1.12546 -0.365794,-2.12901 -1.097335,-3.01064 -0.731571,-0.86285 -2.382262,-1.9508 -4.952077,-3.26387 -2.757414,-1.42558 -4.633198,-2.83242 -5.62736,-4.22052 -0.99417,-1.38806 -1.491253,-2.9731 -1.49125,-4.75512 -3e-6,-2.32595 0.792516,-4.25801 2.377559,-5.79618 1.585033,-1.53811 3.587433,-2.30719 6.007207,-2.30722 2.813666,3e-5 5.646101,1.37874 8.497314,4.13611 z"
         id="path4012"
         inkscape:connector-curvature="0"
         style="fill:#4d4d4d;fill-opacity:1" />
      <path
         d="m 64.498697,145.92021 -3.123185,1.94144 c -2.701161,-3.58273 -6.387078,-5.3741 -11.057762,-5.37413 -3.732832,3e-5 -6.832567,1.20053 -9.299213,3.60151 -2.466668,2.40103 -3.699996,5.31788 -3.69999,8.75055 -6e-6,2.2322 0.567418,4.33308 1.702277,6.30264 1.134841,1.96958 2.691743,3.49835 4.670709,4.5863 1.97894,1.08796 4.197055,1.63194 6.654353,1.63193 4.501864,1e-5 8.178402,-1.79137 11.029626,-5.37413 l 3.123185,2.05399 c -1.463146,2.19468 -3.428031,3.89695 -5.89466,5.10683 -2.466685,1.20988 -5.275673,1.81482 -8.426971,1.81482 -4.839545,0 -8.853725,-1.53814 -12.042551,-4.61443 -3.188842,-3.07628 -4.783259,-6.81848 -4.783256,-11.22659 -3e-6,-2.96372 0.745621,-5.71643 2.236875,-8.25815 1.491244,-2.54166 3.540539,-4.5253 6.147891,-5.95093 2.60733,-1.42557 5.524175,-2.13837 8.750545,-2.1384 2.025828,3e-5 3.981334,0.30954 5.866523,0.92852 1.885138,0.61904 3.484245,1.42562 4.797325,2.41976 1.313019,0.9942 2.429111,2.26035 3.348279,3.79847 z"
         id="path4014"
         inkscape:connector-curvature="0"
         style="fill:#4d4d4d;fill-opacity:1" />
      <path
         d="m 86.52981,138.77346 c 4.708201,3e-5 8.609834,1.707 11.704909,5.1209 2.813651,3.11383 4.220481,6.79975 4.220521,11.05776 -4e-5,4.27681 -1.48659,8.01431 -4.459683,11.21252 -2.97315,3.19822 -6.795061,4.79732 -11.465747,4.79732 -4.689481,0 -8.520771,-1.5991 -11.493883,-4.79732 -2.973126,-3.19821 -4.459686,-6.93571 -4.459683,-11.21252 -3e-6,-4.23925 1.406836,-7.91579 4.22052,-11.02962 3.095038,-3.43266 7.00605,-5.14901 11.733046,-5.14904 z m 0,3.85475 c -3.263884,2e-5 -6.068183,1.2099 -8.412903,3.62964 -2.344742,2.41979 -3.517107,5.34601 -3.5171,8.77868 -7e-6,2.21345 0.534591,4.27681 1.603797,6.1901 1.069189,1.91331 2.513543,3.39049 4.333068,4.43155 1.819498,1.04106 3.817209,1.56159 5.993138,1.56159 2.175892,0 4.173603,-0.52053 5.993139,-1.56159 1.819486,-1.04106 3.263841,-2.51824 4.333067,-4.43155 1.069168,-1.91329 1.603767,-3.97665 1.603798,-6.1901 -3.1e-5,-3.43267 -1.177086,-6.35889 -3.531169,-8.77868 -2.354137,-2.41974 -5.153746,-3.62962 -8.398835,-3.62964 z"
         id="path4016"
         inkscape:connector-curvature="0"
         style="fill:#4d4d4d;fill-opacity:1" />
      <path
         d="m 113.17536,128.19403 3.96729,0 0,11.36726 6.24637,0 0,3.37642 -6.24637,0 0,27.23642 -3.96729,0 0,-27.23642 -5.37413,0 0,-3.37642 5.37413,0 z"
         id="path4018"
         inkscape:connector-curvature="0"
         style="fill:#4d4d4d;fill-opacity:1" />
      <path
         d="m 132.75858,128.19403 3.96729,0 0,11.36726 6.24637,0 0,3.37642 -6.24637,0 0,27.23642 -3.96729,0 0,-27.23642 -5.37413,0 0,-3.37642 5.37413,0 z"
         id="path4020"
         inkscape:connector-curvature="0"
         style="fill:#4d4d4d;fill-opacity:1" />
      <path
         d="m 42.101803,192.01955 -3.123185,1.94144 c -2.701161,-3.58273 -6.387079,-5.37411 -11.057763,-5.37413 -3.732832,2e-5 -6.832566,1.20053 -9.299213,3.60151 -2.466667,2.40103 -3.699996,5.31787 -3.699989,8.75054 -7e-6,2.2322 0.567418,4.33308 1.702276,6.30265 1.134842,1.96958 2.691743,3.49834 4.670709,4.58629 1.97894,1.08796 4.197056,1.63194 6.654354,1.63194 4.501864,0 8.178402,-1.79137 11.029626,-5.37413 l 3.123185,2.05399 c -1.463147,2.19467 -3.428031,3.89695 -5.89466,5.10683 -2.466685,1.20988 -5.275673,1.81482 -8.426972,1.81482 -4.839545,0 -8.853724,-1.53815 -12.042551,-4.61444 -3.188842,-3.07628 -4.783259,-6.81847 -4.783256,-11.22658 -3e-6,-2.96372 0.745622,-5.71644 2.236876,-8.25815 1.491244,-2.54167 3.540539,-4.52531 6.147891,-5.95093 2.607329,-1.42557 5.524175,-2.13837 8.750545,-2.1384 2.025827,3e-5 3.981333,0.30953 5.866523,0.92851 1.885138,0.61904 3.484244,1.42563 4.797324,2.41977 1.313019,0.99419 2.429111,2.26035 3.34828,3.79847 z"
         id="path4022"
         inkscape:connector-curvature="0"
         style="fill:#4d4d4d;fill-opacity:1" />
      <path
         d="m 64.132918,184.8728 c 4.708201,3e-5 8.609833,1.70699 11.704909,5.1209 2.813647,3.11383 4.220485,6.79974 4.22052,11.05776 -3.5e-5,4.2768 -1.486594,8.01431 -4.459683,11.21251 -2.973149,3.19822 -6.795061,4.79733 -11.465746,4.79733 -4.689481,0 -8.520772,-1.59911 -11.493884,-4.79733 -2.973126,-3.1982 -4.459685,-6.93571 -4.459682,-11.21251 -3e-6,-4.23926 1.406835,-7.9158 4.22052,-11.02963 3.095038,-3.43266 7.006049,-5.149 11.733046,-5.14903 z m 0,3.85474 c -3.263885,3e-5 -6.068183,1.20991 -8.412904,3.62965 -2.344741,2.41978 -3.517107,5.34601 -3.5171,8.77868 -7e-6,2.21344 0.534592,4.2768 1.603798,6.1901 1.069189,1.91331 2.513543,3.39049 4.333067,4.43154 1.819499,1.04107 3.817209,1.5616 5.993139,1.56159 2.175891,1e-5 4.173602,-0.52052 5.993138,-1.56159 1.819487,-1.04105 3.263841,-2.51823 4.333068,-4.43154 1.069168,-1.9133 1.603766,-3.97666 1.603797,-6.1901 -3.1e-5,-3.43267 -1.177086,-6.3589 -3.531168,-8.77868 -2.354137,-2.41974 -5.153746,-3.62962 -8.398835,-3.62965 z"
         id="path4024"
         inkscape:connector-curvature="0"
         style="fill:#4d4d4d;fill-opacity:1" />
      <path
         d="m 86.839315,185.66063 3.967289,0 0,14.29349 c -8e-6,3.48898 0.18757,5.88998 0.562736,7.20303 0.562727,1.87579 1.636614,3.35766 3.221663,4.44561 1.585027,1.08796 3.47488,1.63194 5.669567,1.63193 2.19465,1e-5 4.05637,-0.5299 5.58515,-1.58973 1.52875,-1.05981 2.58387,-2.45258 3.16539,-4.17831 0.39389,-1.18174 0.59085,-3.68591 0.59088,-7.51253 l 0,-14.29349 4.02356,0 0,15.02505 c -3e-5,4.22053 -0.49242,7.39999 -1.47718,9.53838 -0.98482,2.1384 -2.46669,3.81254 -4.44562,5.02242 -1.97898,1.20988 -4.4597,1.81482 -7.44218,1.81482 -2.982516,0 -5.472621,-0.60494 -7.470322,-1.81482 -1.997721,-1.20988 -3.48897,-2.89809 -4.473751,-5.06463 -0.984793,-2.16652 -1.477186,-5.4257 -1.477182,-9.77754 z"
         id="path4026"
         inkscape:connector-curvature="0"
         style="fill:#4d4d4d;fill-opacity:1" />
      <path
         d="m 122.34796,185.66063 3.93915,0 0,5.48668 c 1.57565,-2.10086 3.32013,-3.67183 5.23345,-4.71292 1.91328,-1.04103 3.9954,-1.56156 6.24637,-1.56159 2.28843,3e-5 4.31897,0.58152 6.09161,1.74448 1.77259,1.16302 3.08095,2.7293 3.92509,4.69885 0.84407,1.9696 1.26612,5.0365 1.26615,9.20073 l 0,15.75661 -3.91101,0 0,-14.603 c -3e-5,-3.52646 -0.15009,-5.88057 -0.45019,-7.06234 -0.46897,-2.02582 -1.35059,-3.5499 -2.64486,-4.57223 -1.29432,-1.02227 -2.98252,-1.53343 -5.06462,-1.53345 -2.38227,2e-5 -4.51598,0.78785 -6.40113,2.36349 -1.88517,1.57568 -3.12788,3.5265 -3.72812,5.85245 -0.37517,1.51941 -0.56275,4.29557 -0.56274,8.3285 l 0,11.22658 -3.93915,0 z"
         id="path4028"
         inkscape:connector-curvature="0"
         style="fill:#4d4d4d;fill-opacity:1" />
      <path
         d="m 160.89538,174.29336 3.96729,0 0,11.36727 6.24637,0 0,3.37642 -6.24637,0 0,27.23642 -3.96729,0 0,-27.23642 -5.37413,0 0,-3.37642 5.37413,0 z"
         id="path4030"
         inkscape:connector-curvature="0"
         style="fill:#4d4d4d;fill-opacity:1" />
      <path
         d="m 173.75389,185.66063 4.16425,0 10.52316,23.57864 10.21366,-23.57864 4.19238,0 -18.26078,41.81129 -4.16425,0 5.90873,-13.50567 z"
         id="path4032"
         inkscape:connector-curvature="0"
         style="fill:#4d4d4d;fill-opacity:1" />
    </g>
    <g
       style="font-size:40px;font-style:normal;font-variant:normal;font-weight:normal;font-stretch:normal;text-align:start;line-height:125%;letter-spacing:0px;word-spacing:0px;writing-mode:lr-tb;text-anchor:start;fill:#d9e7a3;fill-opacity:1;stroke:none;font-family:Century Gothic;-inkscape-font-specification:Century Gothic"
       id="text3955-3"
       transform="matrix(0.61271843,0,0,0.61271843,0.9561313,115.4039)">
      <path
         d="m 11.496094,186.95312 2.890625,0 0,25.95704 11.035156,0 0,2.77343 -13.925781,0 z"
         style="fill:#d9e7a3;fill-opacity:1"
         id="path3981"
         inkscape:connector-curvature="0" />
      <path
         d="m 43.703125,186.23047 c 4.348937,3e-5 7.988256,1.45185 10.917969,4.35547 2.929656,2.90367 4.394498,6.47788 4.394531,10.72265 -3.3e-5,4.20574 -1.46162,7.77345 -4.384766,10.70313 -2.923202,2.92969 -6.487651,4.39453 -10.693359,4.39453 -4.257826,0 -7.851572,-1.45833 -10.78125,-4.375 -2.929691,-2.91666 -4.394533,-6.4453 -4.394531,-10.58594 -2e-6,-2.7604 0.667315,-5.31899 2.001953,-7.67578 1.33463,-2.35675 3.154289,-4.20245 5.458984,-5.53711 2.304676,-1.3346 4.798163,-2.00192 7.480469,-2.00195 z m 0.136719,2.8125 c -2.122411,3e-5 -4.134128,0.55341 -6.035157,1.66015 -1.901051,1.1068 -3.385424,2.59768 -4.453125,4.47266 -1.067714,1.87502 -1.601567,3.96486 -1.601562,6.26953 -5e-6,3.41147 1.181634,6.29233 3.544922,8.64258 2.36327,2.35026 5.211574,3.52539 8.544922,3.52539 2.226543,0 4.287088,-0.54036 6.18164,-1.62109 1.894506,-1.08073 3.372369,-2.55859 4.433594,-4.4336 1.061169,-1.87499 1.591767,-3.95832 1.591797,-6.25 -3e-5,-2.27863 -0.530628,-4.33917 -1.591797,-6.18164 -1.061225,-1.84242 -2.555364,-3.31703 -4.482422,-4.42383 -1.927105,-1.10674 -3.971373,-1.66012 -6.132812,-1.66015 z"
         style="fill:#d9e7a3;fill-opacity:1"
         id="path3983"
         inkscape:connector-curvature="0" />
      <path
         d="m 78.46875,186.23047 c 4.348937,3e-5 7.988256,1.45185 10.917969,4.35547 2.929656,2.90367 4.394498,6.47788 4.394531,10.72265 -3.3e-5,4.20574 -1.46162,7.77345 -4.384766,10.70313 -2.923202,2.92969 -6.487651,4.39453 -10.693359,4.39453 -4.257826,0 -7.851572,-1.45833 -10.78125,-4.375 -2.929691,-2.91666 -4.394533,-6.4453 -4.394531,-10.58594 -2e-6,-2.7604 0.667315,-5.31899 2.001953,-7.67578 1.33463,-2.35675 3.154289,-4.20245 5.458984,-5.53711 2.304676,-1.3346 4.798163,-2.00192 7.480469,-2.00195 z m 0.136719,2.8125 c -2.122411,3e-5 -4.134128,0.55341 -6.035157,1.66015 -1.901051,1.1068 -3.385424,2.59768 -4.453125,4.47266 -1.067714,1.87502 -1.601567,3.96486 -1.601562,6.26953 -5e-6,3.41147 1.181634,6.29233 3.544922,8.64258 2.36327,2.35026 5.211574,3.52539 8.544922,3.52539 2.226543,0 4.287088,-0.54036 6.18164,-1.62109 1.894506,-1.08073 3.372369,-2.55859 4.433594,-4.4336 1.061169,-1.87499 1.591767,-3.95832 1.591797,-6.25 -3e-5,-2.27863 -0.530628,-4.33917 -1.591797,-6.18164 -1.061225,-1.84242 -2.555364,-3.31703 -4.482422,-4.42383 -1.927105,-1.10674 -3.971373,-1.66012 -6.132812,-1.66015 z"
         style="fill:#d9e7a3;fill-opacity:1"
         id="path3985"
         inkscape:connector-curvature="0" />
      <path
         d="m 99.542969,186.95312 2.929691,0 0,10.78125 11.46484,-10.78125 3.88672,0 -13.80859,12.89063 14.88281,15.83984 -3.8086,0 -12.61718,-13.39843 0,13.39843 -2.929691,0 z"
         style="fill:#d9e7a3;fill-opacity:1"
         id="path3987"
         inkscape:connector-curvature="0" />
      <path
         d="m 122.80469,186.95312 2.87109,0 0,28.73047 -2.87109,0 z"
         style="fill:#d9e7a3;fill-opacity:1"
         id="path3989"
         inkscape:connector-curvature="0" />
      <path
         d="m 132.29687,215.68359 0,-28.73047 0.625,0 19.10157,21.99219 0,-21.99219 2.83203,0 0,28.73047 -0.64453,0 -18.94532,-21.71875 0,21.71875 z"
         style="fill:#d9e7a3;fill-opacity:1"
         id="path3991"
         inkscape:connector-curvature="0" />
      <path
         d="m 189.60156,191.77734 -2.22656,2.10938 c -1.60159,-1.5755 -3.35615,-2.77016 -5.26367,-3.58399 -1.90758,-0.81377 -3.7663,-1.22067 -5.57617,-1.2207 -2.25262,3e-5 -4.3978,0.55341 -6.43555,1.66016 -2.03777,1.10679 -3.61655,2.60744 -4.73633,4.50195 -1.1198,1.89455 -1.67969,3.8965 -1.67969,6.00586 0,2.16147 0.57942,4.21551 1.73828,6.16211 1.15885,1.94662 2.76041,3.47657 4.80469,4.58984 2.04426,1.11329 4.28384,1.66993 6.71875,1.66992 2.95571,10e-6 5.45571,-0.83333 7.5,-2.5 2.04425,-1.66666 3.25518,-3.82811 3.63281,-6.48437 l -9.16015,0 0,-2.77344 12.38281,0 c -0.0261,4.44012 -1.34443,7.9655 -3.95508,10.57617 -2.6107,2.61068 -6.10354,3.91602 -10.47851,3.91602 -5.31252,0 -9.51824,-1.80989 -12.61719,-5.42969 -2.38282,-2.78645 -3.57422,-6.0091 -3.57422,-9.66797 0,-2.72133 0.68359,-5.25388 2.05078,-7.59765 1.36718,-2.34373 3.24218,-4.17641 5.625,-5.49805 2.3828,-1.32159 5.07811,-1.98239 8.08594,-1.98242 2.43488,3e-5 4.72654,0.43948 6.875,1.31836 2.14841,0.87893 4.24476,2.28844 6.28906,4.22851 z"
         style="fill:#d9e7a3;fill-opacity:1"
         id="path3993"
         inkscape:connector-curvature="0" />
      <path
         d="m 207.90234,186.95312 14.39453,0 0,2.83204 -11.54296,0 0,8.98437 11.54296,0 0,2.83203 -11.54296,0 0,14.08203 -2.85157,0 z"
         style="fill:#d9e7a3;fill-opacity:1"
         id="path3995"
         inkscape:connector-curvature="0" />
      <path
         d="m 240.96875,186.23047 c 4.34894,3e-5 7.98826,1.45185 10.91797,4.35547 2.92966,2.90367 4.3945,6.47788 4.39453,10.72265 -3e-5,4.20574 -1.46162,7.77345 -4.38477,10.70313 -2.9232,2.92969 -6.48765,4.39453 -10.69336,4.39453 -4.25782,0 -7.85157,-1.45833 -10.78125,-4.375 -2.92969,-2.91666 -4.39453,-6.4453 -4.39453,-10.58594 0,-2.7604 0.66732,-5.31899 2.00196,-7.67578 1.33463,-2.35675 3.15429,-4.20245 5.45898,-5.53711 2.30468,-1.3346 4.79816,-2.00192 7.48047,-2.00195 z m 0.13672,2.8125 c -2.12241,3e-5 -4.13413,0.55341 -6.03516,1.66015 -1.90105,1.1068 -3.38542,2.59768 -4.45312,4.47266 -1.06772,1.87502 -1.60157,3.96486 -1.60157,6.26953 0,3.41147 1.18164,6.29233 3.54493,8.64258 2.36327,2.35026 5.21157,3.52539 8.54492,3.52539 2.22654,0 4.28709,-0.54036 6.18164,-1.62109 1.89451,-1.08073 3.37237,-2.55859 4.43359,-4.4336 1.06117,-1.87499 1.59177,-3.95832 1.5918,-6.25 -3e-5,-2.27863 -0.53063,-4.33917 -1.5918,-6.18164 -1.06122,-1.84242 -2.55536,-3.31703 -4.48242,-4.42383 -1.9271,-1.10674 -3.97137,-1.66012 -6.13281,-1.66015 z"
         style="fill:#d9e7a3;fill-opacity:1"
         id="path3997"
         inkscape:connector-curvature="0" />
      <path
         d="m 262.19922,186.95312 5.72265,0 c 3.1901,3e-5 5.35155,0.13024 6.48438,0.39063 1.70571,0.39065 3.09243,1.22724 4.16016,2.50977 1.06768,1.28257 1.60154,2.86135 1.60156,4.73632 -2e-5,1.56252 -0.36786,2.93622 -1.10352,4.1211 -0.73569,1.18491 -1.78712,2.08009 -3.15429,2.68554 -1.36721,0.60549 -3.25523,0.91473 -5.66407,0.92774 l 10.33203,13.35937 -3.55468,0 -10.3125,-13.35937 -1.64063,0 0,13.35937 -2.87109,0 z m 2.87109,2.8125 0,9.76563 4.94141,0.0391 c 1.91405,2e-5 3.33006,-0.18227 4.24805,-0.54687 0.91795,-0.36457 1.63409,-0.94725 2.14843,-1.74805 0.51431,-0.80076 0.77147,-1.69594 0.77149,-2.68555 -2e-5,-0.96352 -0.26044,-1.83917 -0.78125,-2.62695 -0.52085,-0.78774 -1.20445,-1.35089 -2.05078,-1.68945 -0.84637,-0.33852 -2.25262,-0.50779 -4.21875,-0.50782 z"
         style="fill:#d9e7a3;fill-opacity:1"
         id="path3999"
         inkscape:connector-curvature="0" />
      <path
         d="m 284.71875,186.95312 2.94922,0 5.83984,20.70313 8.24219,-20.70313 0.58594,0 8.14453,20.70313 5.95703,-20.70313 2.92969,0 -8.24219,28.73047 -0.54688,0 -8.51562,-21.73828 -8.69141,21.73828 -0.54687,0 z"
         style="fill:#d9e7a3;fill-opacity:1"
         id="path4001"
         inkscape:connector-curvature="0" />
      <path
         d="m 336.51562,186.95312 13.39844,28.73047 -3.08594,0 -4.51171,-9.45312 -12.38282,0 -4.49218,9.45312 -3.20313,0 13.57422,-28.73047 z m -0.35156,6.09375 -4.9414,10.41016 9.82421,0 z"
         style="fill:#d9e7a3;fill-opacity:1"
         id="path4003"
         inkscape:connector-curvature="0" />
      <path
         d="m 354.54297,186.95312 5.72265,0 c 3.1901,3e-5 5.35155,0.13024 6.48438,0.39063 1.70571,0.39065 3.09243,1.22724 4.16016,2.50977 1.06768,1.28257 1.60154,2.86135 1.60156,4.73632 -2e-5,1.56252 -0.36786,2.93622 -1.10352,4.1211 -0.73569,1.18491 -1.78712,2.08009 -3.15429,2.68554 -1.36721,0.60549 -3.25523,0.91473 -5.66407,0.92774 l 10.33203,13.35937 -3.55468,0 -10.3125,-13.35937 -1.64063,0 0,13.35937 -2.87109,0 z m 2.87109,2.8125 0,9.76563 4.94141,0.0391 c 1.91405,2e-5 3.33006,-0.18227 4.24805,-0.54687 0.91795,-0.36457 1.63409,-0.94725 2.14843,-1.74805 0.51431,-0.80076 0.77147,-1.69594 0.77149,-2.68555 -2e-5,-0.96352 -0.26044,-1.83917 -0.78125,-2.62695 -0.52085,-0.78774 -1.20445,-1.35089 -2.05078,-1.68945 -0.84637,-0.33852 -2.25262,-0.50779 -4.21875,-0.50782 z"
         style="fill:#d9e7a3;fill-opacity:1"
         id="path4005"
         inkscape:connector-curvature="0" />
      <path
         d="m 378.68359,215.68359 0,-28.73047 5.95703,0 c 4.29687,3e-5 7.41535,0.34509 9.35547,1.03516 2.78644,0.97659 4.96417,2.6693 6.53321,5.07813 1.56898,2.40887 2.35348,5.27996 2.35351,8.61328 -3e-5,2.87761 -0.62177,5.41016 -1.86523,7.59765 -1.24352,2.18751 -2.8581,3.80209 -4.84375,4.84375 -1.9857,1.04167 -4.7689,1.5625 -8.34961,1.5625 z m 2.75391,-2.71484 3.32031,0 c 3.97134,0 6.72525,-0.24739 8.26172,-0.74219 2.16144,-0.70312 3.86066,-1.96939 5.09766,-3.79883 1.23695,-1.82941 1.85544,-4.06574 1.85547,-6.70898 -3e-5,-2.77342 -0.6706,-5.14321 -2.01172,-7.10938 -1.34117,-1.96612 -3.20966,-3.31377 -5.60547,-4.04296 -1.79689,-0.54685 -4.75913,-0.82029 -8.88672,-0.82032 l -2.03125,0 z"
         style="fill:#d9e7a3;fill-opacity:1"
         id="path4007"
         inkscape:connector-curvature="0" />
    </g>
  </g>
  <g
     inkscape:groupmode="layer"
     id="layer2"
     inkscape:label="fema" />
</svg>
