<?xml version="1.0" encoding="UTF-8" standalone="no"?>
<!-- Created with Inkscape (http://www.inkscape.org/) -->

<svg
   xmlns:dc="http://purl.org/dc/elements/1.1/"
   xmlns:cc="http://creativecommons.org/ns#"
   xmlns:rdf="http://www.w3.org/1999/02/22-rdf-syntax-ns#"
   xmlns:svg="http://www.w3.org/2000/svg"
   xmlns="http://www.w3.org/2000/svg"
   xmlns:sodipodi="http://sodipodi.sourceforge.net/DTD/sodipodi-0.dtd"
   xmlns:inkscape="http://www.inkscape.org/namespaces/inkscape"
   width="256"
   height="256"
   id="svg2"
   version="1.1"
   inkscape:version="0.48.4 r9939"
   sodipodi:docname="square_template_256.svg"
   inkscape:export-filename="C:\Users\Ryan Cooper\Documents\GitHub\GSCPC-Website-Stuff\img\question_icon.png"
   inkscape:export-xdpi="90"
   inkscape:export-ydpi="90">
  <defs
     id="defs4" />
  <sodipodi:namedview
     id="base"
     pagecolor="#ffffff"
     bordercolor="#666666"
     borderopacity="1.0"
     inkscape:pageopacity="0.0"
     inkscape:pageshadow="2"
     inkscape:zoom="2.83"
     inkscape:cx="71.341811"
     inkscape:cy="135.93771"
     inkscape:document-units="px"
     inkscape:current-layer="layer2"
     showgrid="false"
     showguides="true"
     inkscape:guide-bbox="true"
     inkscape:window-width="1920"
     inkscape:window-height="976"
     inkscape:window-x="-8"
     inkscape:window-y="-8"
     inkscape:window-maximized="1">
    <sodipodi:guide
       orientation="1,0"
       position="8,128"
       id="guide2985" />
    <sodipodi:guide
       orientation="0,1"
       position="128,248"
       id="guide2987" />
    <sodipodi:guide
       orientation="1,0"
       position="248,128"
       id="guide2989" />
    <sodipodi:guide
       orientation="0,1"
       position="128,8"
       id="guide2993" />
    <sodipodi:guide
       orientation="0,1"
       position="128,128"
       id="guide2995" />
    <sodipodi:guide
       orientation="1,0"
       position="128,128"
       id="guide2997" />
    <sodipodi:guide
       orientation="1,0"
       position="0,128"
       id="guide3788" />
    <sodipodi:guide
       orientation="1,0"
       position="256,128"
       id="guide3790" />
    <sodipodi:guide
       orientation="0,1"
       position="128,256"
       id="guide3792" />
    <sodipodi:guide
       orientation="0,1"
       position="128,0"
       id="guide3794" />
  </sodipodi:namedview>
  <metadata
     id="metadata7">
    <rdf:RDF>
      <cc:Work
         rdf:about="">
        <dc:format>image/svg+xml</dc:format>
        <dc:type
           rdf:resource="http://purl.org/dc/dcmitype/StillImage" />
        <dc:title></dc:title>
      </cc:Work>
    </rdf:RDF>
  </metadata>
  <g
     inkscape:groupmode="layer"
     id="layer1"
     inkscape:label="bg"
     sodipodi:insensitive="true">
    <rect
       style="color:#000000;fill:#d10000;fill-opacity:1;stroke:none;stroke-width:15;marker:none;visibility:visible;display:inline;overflow:visible;enable-background:accumulate"
       id="rect3006"
       width="256"
       height="256"
       x="0"
       y="1.204592e-014" />
  </g>
  <g
     inkscape:groupmode="layer"
     id="layer2"
     inkscape:label="fema">
    <g
       style="font-size:40px;font-style:normal;font-variant:normal;font-weight:normal;font-stretch:normal;text-align:center;line-height:125%;letter-spacing:0px;word-spacing:0px;writing-mode:lr-tb;text-anchor:middle;fill:#ffffff;fill-opacity:1;stroke:none;font-family:Century Gothic;-inkscape-font-specification:Century Gothic"
       id="text4199"
       transform="matrix(1.3320358,0,0,1.3320325,-46.847141,-28.625981)">
      <path
         d="m 43.557602,28.218971 2.929687,0 0,10.78125 11.464844,-10.78125 3.886719,0 -13.808594,12.890625 14.882813,15.839844 -3.808594,0 -12.617188,-13.398437 0,13.398437 -2.929687,0 z"
         id="path4718"
         inkscape:connector-curvature="0" />
      <path
         d="m 84.670883,49.898659 2.304688,1.210937 c -0.755231,1.48438 -1.627626,2.682295 -2.617188,3.59375 -0.989603,0.91146 -2.102883,1.604819 -3.339844,2.080078 -1.236995,0.47526 -2.636733,0.71289 -4.199218,0.712891 -3.463552,-1e-6 -6.171882,-1.136067 -8.125,-3.408203 -1.953128,-2.27213 -2.92969,-4.840487 -2.929688,-7.705078 -2e-6,-2.695299 0.82682,-5.097641 2.480469,-7.207031 2.096347,-2.682272 4.902334,-4.023416 8.417969,-4.023438 3.619775,2.2e-5 6.510397,1.373718 8.671875,4.121094 1.536435,1.94012 2.317684,4.361992 2.34375,7.265625 l -19.101563,0 c 0.05208,2.473966 0.839838,4.501959 2.363281,6.083984 1.523429,1.582034 3.404938,2.373049 5.644532,2.373047 1.080715,2e-6 2.132146,-0.1888 3.154297,-0.566406 1.022118,-0.377602 1.891258,-0.878903 2.607421,-1.503906 0.716127,-0.624996 1.490866,-1.634109 2.324219,-3.027344 z m 0,-5.722656 C 84.306279,42.717683 83.775681,41.55232 83.079086,40.679909 82.382453,39.80753 81.46123,39.104406 80.315414,38.570534 79.169566,38.036698 77.96514,37.769772 76.702133,37.769753 c -2.083344,1.9e-5 -3.873707,0.670591 -5.371094,2.011718 -1.093756,0.976579 -1.920578,2.441421 -2.480468,4.394532 z"
         id="path4720"
         inkscape:connector-curvature="0" />
      <path
         d="m 92.795883,35.69944 2.734375,0 0,3.808594 c 1.093743,-1.458315 2.30468,-2.548808 3.632813,-3.271485 1.328109,-0.722634 2.773429,-1.083962 4.335939,-1.083984 1.58852,2.2e-5 2.99803,0.403667 4.22851,1.210938 1.23045,0.807311 2.13866,1.894549 2.72461,3.261718 0.58592,1.367204 0.87889,3.496108 0.87891,6.386719 l 0,10.9375 -2.71484,0 0,-10.136719 c -2e-5,-2.447904 -0.10419,-4.082017 -0.3125,-4.902343 -0.32554,-1.406234 -0.93752,-2.464176 -1.83594,-3.173829 -0.89846,-0.709616 -2.07033,-1.064433 -3.51563,-1.064453 -1.65365,2e-5 -3.134773,0.546894 -4.443356,1.640625 -1.308601,1.093767 -2.171231,2.447932 -2.587891,4.0625 -0.260422,1.0547 -0.390631,2.981782 -0.390625,5.78125 l 0,7.792969 -2.734375,0 z"
         id="path4722"
         inkscape:connector-curvature="0" />
      <path
         d="m 119.5537,27.808815 2.7539,0 0,7.890625 4.33594,0 0,2.34375 -4.33594,0 0,18.90625 -2.7539,0 0,-18.90625 -3.73047,0 0,-2.34375 3.73047,0 z"
         id="path4724"
         inkscape:connector-curvature="0" />
      <path
         d="m 130.41307,35.69944 2.75391,0 0,9.921875 c -1e-5,2.421884 0.1302,4.088549 0.39062,5 0.39062,1.302088 1.13606,2.330733 2.23633,3.085938 1.10025,0.75521 2.4121,1.132814 3.93555,1.132812 1.52342,2e-6 2.81574,-0.367836 3.87695,-1.103516 1.06118,-0.735673 1.7936,-1.702469 2.19727,-2.90039 0.27341,-0.820306 0.41013,-2.558585 0.41015,-5.214844 l 0,-9.921875 2.79297,0 0,10.429688 c -2e-5,2.929695 -0.34182,5.136724 -1.02539,6.621093 -0.68361,1.484378 -1.71226,2.646486 -3.08594,3.486328 -1.37371,0.839844 -3.09571,1.259765 -5.16601,1.259766 -2.07033,-1e-6 -3.79884,-0.419922 -5.18555,-1.259766 -1.38672,-0.839842 -2.42188,-2.011716 -3.10547,-3.515625 -0.6836,-1.5039 -1.02539,-3.766268 -1.02539,-6.787109 z"
         id="path4726"
         inkscape:connector-curvature="0" />
      <path
         d="m 175.68651,40.113503 -2.16797,1.347656 c -1.87502,-2.486961 -4.43361,-3.73045 -7.67578,-3.730469 -2.59116,1.9e-5 -4.74285,0.833352 -6.45508,2.5 -1.71225,1.666682 -2.56836,3.691419 -2.56836,6.074219 0,1.549488 0.39388,3.00782 1.18164,4.375 0.78775,1.367192 1.86848,2.428389 3.24219,3.183594 1.37369,0.75521 2.9134,1.132814 4.61914,1.132812 3.12498,2e-6 5.67706,-1.243486 7.65625,-3.730469 l 2.16797,1.425782 c -1.01565,1.52344 -2.37958,2.705079 -4.0918,3.544921 -1.71226,0.839844 -3.66212,1.259765 -5.84961,1.259766 -3.35938,-1e-6 -6.14584,-1.067708 -8.35937,-3.203125 -2.21355,-2.135412 -3.32032,-4.733066 -3.32032,-7.792969 0,-2.057279 0.51758,-3.968084 1.55274,-5.732422 1.03515,-1.764305 2.45768,-3.141256 4.26758,-4.130859 1.80988,-0.989562 3.83462,-1.484353 6.07422,-1.484375 1.40623,2.2e-5 2.76365,0.214865 4.07226,0.644531 1.30858,0.429708 2.4186,0.989604 3.33008,1.679688 0.91144,0.690123 1.68617,1.569028 2.32422,2.636719 z"
         id="path4728"
         inkscape:connector-curvature="0" />
      <path
         d="m 180.90135,27.496315 2.75391,0 0,16.757813 9.82422,-8.554688 4.02343,0 -11.66015,10.136719 12.34375,11.113281 -3.86719,0 -10.66406,-9.550781 0,9.550781 -2.75391,0 z"
         id="path4730"
         inkscape:connector-curvature="0" />
      <path
         d="m 198.71385,35.69944 2.89063,0 7.30468,16.367188 7.08985,-16.367188 2.91015,0 -12.67578,29.023438 -2.89062,0 4.10156,-9.375 z"
         id="path4732"
         inkscape:connector-curvature="0" />
      <path
         d="m 80.041977,101.59788 2.441406,-1.46485 c 1.718745,3.16407 3.704421,4.7461 5.957031,4.7461 0.963532,0 1.868479,-0.22461 2.714844,-0.67383 0.846342,-0.44922 1.490872,-1.05143 1.933594,-1.80664 0.442694,-0.7552 0.664048,-1.55598 0.664062,-2.402345 -1.4e-5,-0.963534 -0.325534,-1.907543 -0.976562,-2.832031 -0.89845,-1.276031 -2.539073,-2.812488 -4.921875,-4.609375 -2.395839,-1.80988 -3.886723,-3.118472 -4.472656,-3.925781 -1.015628,-1.354147 -1.52344,-2.81899 -1.523438,-4.394532 -2e-6,-1.249976 0.299477,-2.389298 0.898438,-3.417968 0.598954,-1.028619 1.442052,-1.839165 2.529297,-2.431641 1.087232,-0.592419 2.268872,-0.888643 3.544921,-0.888672 1.354156,2.9e-5 2.620431,0.335316 3.798829,1.005859 1.178371,0.670601 2.425114,1.904324 3.740234,3.701172 l -2.34375,1.777344 c -1.080743,-1.432267 -2.001966,-2.376277 -2.763672,-2.832031 -0.76173,-0.455703 -1.591807,-0.683568 -2.490234,-0.683594 -1.158863,2.6e-5 -2.106127,0.351589 -2.841797,1.054688 -0.735683,0.703149 -1.103521,1.569034 -1.103516,2.597656 -5e-6,0.625022 0.130203,1.23049 0.390625,1.816406 0.260411,0.585958 0.735671,1.223978 1.425781,1.914063 0.377597,0.364602 1.614575,1.321632 3.710938,2.871093 2.486966,1.835952 4.192693,3.470065 5.117187,4.902344 0.924463,1.432302 1.386702,2.871102 1.386719,4.316406 -1.7e-5,2.083339 -0.791032,3.893229 -2.373047,5.429689 -1.582044,1.53646 -3.505871,2.30469 -5.771484,2.30469 -1.744799,0 -3.326829,-0.4655 -4.746094,-1.39649 -1.419274,-0.93099 -2.727866,-2.49023 -3.925781,-4.67773 z"
         id="path4734"
         inkscape:connector-curvature="0" />
      <path
         d="m 104.8662,77.808815 2.7539,0 0,7.890625 4.33594,0 0,2.34375 -4.33594,0 0,18.90625 -2.7539,0 0,-18.90625 -3.73047,0 0,-2.34375 3.73047,0 z"
         id="path4736"
         inkscape:connector-curvature="0" />
      <path
         d="m 137.24901,85.69944 0,21.25 -2.69531,0 0,-3.65234 c -1.14586,1.39323 -2.43166,2.4414 -3.85743,3.14453 -1.42579,0.70312 -2.98504,1.05468 -4.67773,1.05469 -3.00782,-1e-5 -5.57618,-1.0905 -7.70508,-3.27149 -2.12891,-2.18098 -3.19336,-4.833976 -3.19336,-7.958984 0,-3.059882 1.07422,-5.677067 3.22266,-7.851562 2.14843,-2.174459 4.73306,-3.261697 7.7539,-3.261719 1.74478,2.2e-5 3.32356,0.371115 4.73633,1.113281 1.41274,0.742208 2.65298,1.855488 3.72071,3.339844 l 0,-3.90625 z m -10.9375,2.089844 c -1.52345,1.9e-5 -2.9297,0.374367 -4.21875,1.123047 -1.28907,0.748715 -2.31446,1.800146 -3.07617,3.154297 -0.76173,1.35418 -1.14259,2.78647 -1.14258,4.296875 -1e-5,1.497404 0.38411,2.929695 1.15234,4.296877 0.76822,1.36719 1.80012,2.43164 3.09571,3.19336 1.29556,0.76172 2.68553,1.14258 4.16992,1.14258 1.49738,0 2.91665,-0.37761 4.25781,-1.13282 1.34113,-0.7552 2.37303,-1.77734 3.0957,-3.0664 0.72264,-1.289059 1.08397,-2.74088 1.08399,-4.355472 -2e-5,-2.460925 -0.81057,-4.518215 -2.43164,-6.171875 -1.62112,-1.653628 -3.61656,-2.48045 -5.98633,-2.480469 z"
         id="path4738"
         inkscape:connector-curvature="0" />
      <path
         d="m 145.8037,77.808815 2.7539,0 0,7.890625 4.33594,0 0,2.34375 -4.33594,0 0,18.90625 -2.7539,0 0,-18.90625 -3.73047,0 0,-2.34375 3.73047,0 z"
         id="path4740"
         inkscape:connector-curvature="0" />
      <path
         d="m 174.90526,99.898659 2.30469,1.210941 c -0.75524,1.48438 -1.62763,2.68229 -2.61719,3.59375 -0.9896,0.91146 -2.10288,1.60481 -3.33985,2.08007 -1.23699,0.47526 -2.63673,0.71289 -4.19921,0.7129 -3.46356,-1e-5 -6.17189,-1.13607 -8.125,-3.40821 -1.95313,-2.27213 -2.92969,-4.840485 -2.92969,-7.705076 0,-2.695299 0.82682,-5.097641 2.48047,-7.207031 2.09634,-2.682272 4.90233,-4.023416 8.41797,-4.023438 3.61977,2.2e-5 6.51039,1.373718 8.67187,4.121094 1.53644,1.94012 2.31769,4.361992 2.34375,7.265625 l -19.10156,0 c 0.0521,2.473966 0.83984,4.501956 2.36328,6.083986 1.52343,1.58203 3.40494,2.37305 5.64453,2.37305 1.08072,0 2.13215,-0.1888 3.1543,-0.56641 1.02212,-0.3776 1.89126,-0.8789 2.60742,-1.50391 0.71613,-0.62499 1.49086,-1.63411 2.32422,-3.027341 z m 0,-5.722656 c -0.36461,-1.45832 -0.8952,-2.623683 -1.5918,-3.496094 -0.69663,-0.872379 -1.61785,-1.575503 -2.76367,-2.109375 -1.14585,-0.533836 -2.35028,-0.800762 -3.61328,-0.800781 -2.08335,1.9e-5 -3.87371,0.670591 -5.3711,2.011718 -1.09375,0.976579 -1.92057,2.441421 -2.48046,4.394532 z"
         id="path4742"
         inkscape:connector-curvature="0" />
      <path
         d="m 84.221664,156.94944 0,-28.73047 5.957032,0 c 4.296861,3e-5 7.415347,0.34508 9.355468,1.03516 2.786436,0.97659 4.964166,2.66929 6.533206,5.07812 1.56898,2.40888 2.35349,5.27997 2.35351,8.61328 -2e-5,2.87762 -0.62177,5.41017 -1.86523,7.59766 -1.24352,2.1875 -2.8581,3.80209 -4.84375,4.84375 -1.985697,1.04167 -4.768898,1.5625 -8.349611,1.5625 z m 2.753907,-2.71484 3.320312,0 c 3.971341,0 6.725244,-0.2474 8.261719,-0.74219 2.161438,-0.70312 3.860658,-1.9694 5.097658,-3.79883 1.23695,-1.82942 1.85544,-4.06574 1.85547,-6.70898 -3e-5,-2.77342 -0.6706,-5.14321 -2.01172,-7.10938 -1.34117,-1.96612 -3.20966,-3.31378 -5.605471,-4.04297 -1.79689,-0.54685 -4.759127,-0.82028 -8.886718,-0.82031 l -2.03125,0 z"
         id="path4744"
         inkscape:connector-curvature="0" />
      <path
         d="m 134.70995,135.69944 0,21.25 -2.69532,0 0,-3.65234 c -1.14585,1.39323 -2.43166,2.4414 -3.85742,3.14453 -1.4258,0.70312 -2.98504,1.05468 -4.67773,1.05469 -3.00783,-1e-5 -5.57618,-1.0905 -7.70508,-3.27149 -2.12891,-2.18098 -3.19336,-4.83398 -3.19336,-7.95898 0,-3.05989 1.07422,-5.67707 3.22266,-7.85157 2.14843,-2.17445 4.73306,-3.26169 7.7539,-3.26171 1.74478,2e-5 3.32355,0.37111 4.73633,1.11328 1.41274,0.7422 2.65297,1.85548 3.7207,3.33984 l 0,-3.90625 z m -10.9375,2.08984 c -1.52345,2e-5 -2.9297,0.37437 -4.21875,1.12305 -1.28907,0.74872 -2.31446,1.80015 -3.07618,3.1543 -0.76172,1.35418 -1.14258,2.78647 -1.14257,4.29687 -1e-5,1.49741 0.38411,2.9297 1.15234,4.29688 0.76822,1.36719 1.80012,2.43164 3.0957,3.19336 1.29557,0.76172 2.68554,1.14258 4.16992,1.14258 1.49739,0 2.91665,-0.37761 4.25782,-1.13282 1.34112,-0.7552 2.37302,-1.77734 3.0957,-3.0664 0.72263,-1.28906 1.08396,-2.74088 1.08398,-4.35547 -2e-5,-2.46093 -0.81056,-4.51822 -2.43164,-6.17188 -1.62111,-1.65362 -3.61655,-2.48045 -5.98632,-2.48047 z"
         id="path4746"
         inkscape:connector-curvature="0" />
      <path
         d="m 143.26463,127.80882 2.75391,0 0,7.89062 4.33594,0 0,2.34375 -4.33594,0 0,18.90625 -2.75391,0 0,-18.90625 -3.73047,0 0,-2.34375 3.73047,0 z"
         id="path4748"
         inkscape:connector-curvature="0" />
      <path
         d="m 175.64745,135.69944 0,21.25 -2.69532,0 0,-3.65234 c -1.14585,1.39323 -2.43166,2.4414 -3.85742,3.14453 -1.4258,0.70312 -2.98504,1.05468 -4.67773,1.05469 -3.00783,-1e-5 -5.57618,-1.0905 -7.70508,-3.27149 -2.12891,-2.18098 -3.19336,-4.83398 -3.19336,-7.95898 0,-3.05989 1.07422,-5.67707 3.22266,-7.85157 2.14843,-2.17445 4.73306,-3.26169 7.7539,-3.26171 1.74478,2e-5 3.32355,0.37111 4.73633,1.11328 1.41274,0.7422 2.65297,1.85548 3.7207,3.33984 l 0,-3.90625 z m -10.9375,2.08984 c -1.52345,2e-5 -2.9297,0.37437 -4.21875,1.12305 -1.28907,0.74872 -2.31446,1.80015 -3.07618,3.1543 -0.76172,1.35418 -1.14258,2.78647 -1.14257,4.29687 -1e-5,1.49741 0.38411,2.9297 1.15234,4.29688 0.76822,1.36719 1.80012,2.43164 3.0957,3.19336 1.29557,0.76172 2.68554,1.14258 4.16992,1.14258 1.49739,0 2.91665,-0.37761 4.25782,-1.13282 1.34112,-0.7552 2.37302,-1.77734 3.0957,-3.0664 0.72263,-1.28906 1.08396,-2.74088 1.08398,-4.35547 -2e-5,-2.46093 -0.81056,-4.51822 -2.43164,-6.17188 -1.62111,-1.65362 -3.61655,-2.48045 -5.98632,-2.48047 z"
         id="path4750"
         inkscape:connector-curvature="0" />
      <path
         d="m 92.737289,183.551 -2.265625,1.73828 c -1.250026,-1.62758 -2.750676,-2.8613 -4.501953,-3.70117 -1.751324,-0.83982 -3.67515,-1.25974 -5.771484,-1.25976 -2.291682,2e-5 -4.414076,0.55015 -6.367188,1.65039 -1.953134,1.10028 -3.466804,2.57814 -4.541015,4.43359 -1.074225,1.85549 -1.611334,3.94207 -1.611328,6.25977 -6e-6,3.50261 1.201165,6.42579 3.603515,8.76953 2.402333,2.34375 5.432929,3.51562 9.091797,3.51562 4.023416,0 7.389298,-1.57551 10.097656,-4.72656 l 2.265625,1.71875 c -1.43232,1.82292 -3.219428,3.23242 -5.361328,4.22852 -2.14195,0.99609 -4.534525,1.49414 -7.177734,1.49414 -5.026054,0 -8.990894,-1.67318 -11.894531,-5.01953 -2.4349,-2.82552 -3.652346,-6.23697 -3.652344,-10.23438 -2e-6,-4.20571 1.474606,-7.74412 4.423828,-10.61523 2.949209,-2.87107 6.643867,-4.30662 11.083984,-4.30664 2.682272,2e-5 5.104144,0.53062 7.265625,1.59179 2.161432,1.06123 3.932263,2.54886 5.3125,4.46289 z"
         id="path4752"
         inkscape:connector-curvature="0" />
      <path
         d="m 115.92088,199.89866 2.30469,1.21094 c -0.75523,1.48438 -1.62763,2.68229 -2.61719,3.59375 -0.9896,0.91146 -2.10288,1.60481 -3.33984,2.08007 -1.237,0.47526 -2.63673,0.71289 -4.19922,0.7129 -3.46355,-1e-5 -6.17188,-1.13607 -8.124999,-3.40821 -1.953128,-2.27213 -2.92969,-4.84049 -2.929688,-7.70508 -2e-6,-2.6953 0.82682,-5.09764 2.480469,-7.20703 2.096348,-2.68227 4.902338,-4.02341 8.417968,-4.02343 3.61978,2e-5 6.5104,1.37371 8.67188,4.12109 1.53643,1.94012 2.31768,4.36199 2.34375,7.26562 l -19.101567,0 c 0.05208,2.47397 0.839837,4.50196 2.363277,6.08399 1.52343,1.58203 3.40494,2.37305 5.64454,2.37305 1.08071,0 2.13214,-0.1888 3.15429,-0.56641 1.02212,-0.3776 1.89126,-0.8789 2.60742,-1.50391 0.71613,-0.62499 1.49087,-1.63411 2.32422,-3.02734 z m 0,-5.72266 c -0.3646,-1.45832 -0.8952,-2.62368 -1.59179,-3.49609 -0.69664,-0.87238 -1.61786,-1.5755 -2.76368,-2.10938 -1.14584,-0.53383 -2.35027,-0.80076 -3.61328,-0.80078 -2.08334,2e-5 -3.8737,0.67059 -5.37109,2.01172 -1.09376,0.97658 -1.92058,2.44142 -2.48047,4.39453 z"
         id="path4754"
         inkscape:connector-curvature="0" />
      <path
         d="m 124.04588,185.69944 2.73438,0 0,3.80859 c 1.09374,-1.45831 2.30468,-2.5488 3.63281,-3.27148 1.32811,-0.72264 2.77343,-1.08396 4.33594,-1.08398 1.58852,2e-5 2.99803,0.40366 4.22851,1.21093 1.23045,0.80731 2.13866,1.89455 2.72461,3.26172 0.58592,1.3672 0.87889,3.49611 0.87891,6.38672 l 0,10.9375 -2.71484,0 0,-10.13672 c -2e-5,-2.4479 -0.10419,-4.08202 -0.3125,-4.90234 -0.32554,-1.40624 -0.93752,-2.46418 -1.83594,-3.17383 -0.89846,-0.70962 -2.07033,-1.06443 -3.51563,-1.06445 -1.65365,2e-5 -3.13477,0.54689 -4.44336,1.64062 -1.3086,1.09377 -2.17123,2.44793 -2.58789,4.0625 -0.26042,1.0547 -0.39063,2.98178 -0.39062,5.78125 l 0,7.79297 -2.73438,0 z"
         id="path4756"
         inkscape:connector-curvature="0" />
      <path
         d="m 150.8037,177.80882 2.7539,0 0,7.89062 4.33594,0 0,2.34375 -4.33594,0 0,18.90625 -2.7539,0 0,-18.90625 -3.73047,0 0,-2.34375 3.73047,0 z"
         id="path4758"
         inkscape:connector-curvature="0" />
      <path
         d="m 179.90526,199.89866 2.30469,1.21094 c -0.75524,1.48438 -1.62763,2.68229 -2.61719,3.59375 -0.9896,0.91146 -2.10288,1.60481 -3.33985,2.08007 -1.23699,0.47526 -2.63673,0.71289 -4.19921,0.7129 -3.46356,-1e-5 -6.17189,-1.13607 -8.125,-3.40821 -1.95313,-2.27213 -2.92969,-4.84049 -2.92969,-7.70508 0,-2.6953 0.82682,-5.09764 2.48047,-7.20703 2.09634,-2.68227 4.90233,-4.02341 8.41797,-4.02343 3.61977,2e-5 6.51039,1.37371 8.67187,4.12109 1.53644,1.94012 2.31769,4.36199 2.34375,7.26562 l -19.10156,0 c 0.0521,2.47397 0.83984,4.50196 2.36328,6.08399 1.52343,1.58203 3.40494,2.37305 5.64453,2.37305 1.08072,0 2.13215,-0.1888 3.1543,-0.56641 1.02212,-0.3776 1.89126,-0.8789 2.60742,-1.50391 0.71613,-0.62499 1.49086,-1.63411 2.32422,-3.02734 z m 0,-5.72266 c -0.36461,-1.45832 -0.8952,-2.62368 -1.5918,-3.49609 -0.69663,-0.87238 -1.61785,-1.5755 -2.76367,-2.10938 -1.14585,-0.53383 -2.35028,-0.80076 -3.61328,-0.80078 -2.08335,2e-5 -3.87371,0.67059 -5.3711,2.01172 -1.09375,0.97658 -1.92057,2.44142 -2.48046,4.39453 z"
         id="path4760"
         inkscape:connector-curvature="0" />
      <path
         d="m 186.9951,185.69944 2.79297,0 0,3.10547 c 0.83333,-1.22394 1.71223,-2.13865 2.63672,-2.74414 0.92447,-0.60545 1.88801,-0.90818 2.89062,-0.9082 0.7552,2e-5 1.56249,0.2409 2.42188,0.72265 l -1.42578,2.30469 c -0.57293,-0.24738 -1.0547,-0.37108 -1.44531,-0.37109 -0.91147,1e-5 -1.79038,0.37436 -2.63672,1.12304 -0.84636,0.74872 -1.49089,1.91083 -1.9336,3.48633 -0.33854,1.21095 -0.50781,3.65887 -0.50781,7.34375 l 0,7.1875 -2.79297,0 z"
         id="path4762"
         inkscape:connector-curvature="0" />
    </g>
  </g>
</svg>
