<?xml version="1.0" encoding="UTF-8" standalone="no"?>
<!-- Created with Inkscape (http://www.inkscape.org/) -->

<svg
   xmlns:dc="http://purl.org/dc/elements/1.1/"
   xmlns:cc="http://creativecommons.org/ns#"
   xmlns:rdf="http://www.w3.org/1999/02/22-rdf-syntax-ns#"
   xmlns:svg="http://www.w3.org/2000/svg"
   xmlns="http://www.w3.org/2000/svg"
   xmlns:sodipodi="http://sodipodi.sourceforge.net/DTD/sodipodi-0.dtd"
   xmlns:inkscape="http://www.inkscape.org/namespaces/inkscape"
   width="256"
   height="256"
   id="svg2"
   version="1.1"
   inkscape:version="0.48.4 r9939"
   sodipodi:docname="square_template_256.svg"
   inkscape:export-filename="C:\Users\Ryan Cooper\Documents\GitHub\GSCPC-Website-Stuff\img\question_icon.png"
   inkscape:export-xdpi="90"
   inkscape:export-ydpi="90">
  <defs
     id="defs4">
    <filter
       id="filter3191"
       style="color-interpolation-filters:sRGB;"
       inkscape:label="Drop Shadow">
      <feFlood
         id="feFlood3193"
         flood-opacity="1"
         flood-color="rgb(0,0,0)"
         result="flood" />
      <feComposite
         id="feComposite3195"
         in2="SourceGraphic"
         in="flood"
         operator="in"
         result="composite1" />
      <feGaussianBlur
         id="feGaussianBlur3197"
         in="composite"
         stdDeviation="6"
         result="blur" />
      <feOffset
         id="feOffset3199"
         dx="2.3"
         dy="2.3"
         result="offset" />
      <feComposite
         id="feComposite3201"
         in2="offset"
         in="SourceGraphic"
         operator="over"
         result="composite2" />
    </filter>
    <filter
       id="filter4165"
       inkscape:label="Ink paint"
       inkscape:menu="Textures"
       inkscape:menu-tooltip="Ink paint on paper with some turbulent color shift"
       height="1.3"
       y="-0.15"
       width="1.3"
       x="-0.15"
       color-interpolation-filters="sRGB">
      <feTurbulence
         id="feTurbulence4167"
         type="fractalNoise"
         baseFrequency="0.07"
         numOctaves="4"
         result="result0" />
      <feDisplacementMap
         id="feDisplacementMap4169"
         in2="result0"
         in="SourceGraphic"
         xChannelSelector="R"
         yChannelSelector="G"
         scale="10"
         result="result2" />
      <feBlend
         id="feBlend4171"
         in2="result2"
         result="result5"
         in="result2"
         mode="multiply" />
      <feGaussianBlur
         id="feGaussianBlur4173"
         stdDeviation="10"
         in="result2"
         result="result4" />
      <feComposite
         id="feComposite4175"
         in2="result4"
         operator="arithmetic"
         in="result0"
         k3="0.5"
         k1="2"
         result="result6" />
      <feComposite
         id="feComposite4177"
         in2="result5"
         operator="in"
         in="result6"
         result="result7" />
    </filter>
  </defs>
  <sodipodi:namedview
     id="base"
     pagecolor="#ffffff"
     bordercolor="#666666"
     borderopacity="1.0"
     inkscape:pageopacity="0.0"
     inkscape:pageshadow="2"
     inkscape:zoom="2.8284271"
     inkscape:cx="114.40788"
     inkscape:cy="135.93771"
     inkscape:document-units="px"
     inkscape:current-layer="layer3"
     showgrid="false"
     showguides="true"
     inkscape:guide-bbox="true"
     inkscape:window-width="1920"
     inkscape:window-height="1058"
     inkscape:window-x="1912"
     inkscape:window-y="-8"
     inkscape:window-maximized="1">
    <sodipodi:guide
       orientation="1,0"
       position="8,128"
       id="guide2985" />
    <sodipodi:guide
       orientation="0,1"
       position="128,248"
       id="guide2987" />
    <sodipodi:guide
       orientation="1,0"
       position="248,128"
       id="guide2989" />
    <sodipodi:guide
       orientation="0,1"
       position="128,8"
       id="guide2993" />
    <sodipodi:guide
       orientation="0,1"
       position="128,128"
       id="guide2995" />
    <sodipodi:guide
       orientation="1,0"
       position="128,128"
       id="guide2997" />
    <sodipodi:guide
       orientation="1,0"
       position="0,128"
       id="guide3788" />
    <sodipodi:guide
       orientation="1,0"
       position="256,128"
       id="guide3790" />
    <sodipodi:guide
       orientation="0,1"
       position="128,256"
       id="guide3792" />
    <sodipodi:guide
       orientation="0,1"
       position="128,0"
       id="guide3794" />
  </sodipodi:namedview>
  <metadata
     id="metadata7">
    <rdf:RDF>
      <cc:Work
         rdf:about="">
        <dc:format>image/svg+xml</dc:format>
        <dc:type
           rdf:resource="http://purl.org/dc/dcmitype/StillImage" />
        <dc:title></dc:title>
      </cc:Work>
    </rdf:RDF>
  </metadata>
  <g
     inkscape:groupmode="layer"
     id="layer3"
     inkscape:label="bg-lower">
    <rect
       style="color:#000000;fill:#6c5353;fill-opacity:1;fill-rule:nonzero;stroke:#000000;stroke-width:0.50000000000000000;stroke-linecap:butt;stroke-linejoin:miter;stroke-miterlimit:4;stroke-opacity:1;stroke-dasharray:none;stroke-dashoffset:0;marker:none;visibility:visible;display:inline;overflow:visible;enable-background:accumulate"
       id="rect4180"
       width="256"
       height="256"
       x="0.25"
       y="-0.25" />
  </g>
  <g
     inkscape:groupmode="layer"
     id="layer1"
     inkscape:label="bg-upper">
    <rect
       style="color:#000000;fill:#445500;fill-opacity:1;stroke:none;stroke-width:15;marker:none;visibility:visible;display:inline;overflow:visible;enable-background:accumulate;filter:url(#filter4165)"
       id="rect3006"
       width="256"
       height="256"
       x="0"
       y="1.204592e-014" />
  </g>
  <g
     inkscape:groupmode="layer"
     id="layer2"
     inkscape:label="text"
     sodipodi:insensitive="true">
    <g
       style="font-size:48.65041351px;font-style:normal;font-variant:normal;font-weight:bold;font-stretch:normal;text-align:center;line-height:125%;letter-spacing:0px;word-spacing:0px;writing-mode:lr-tb;text-anchor:middle;fill:#ffffff;fill-opacity:1;stroke:#000000;stroke-width:0.5;stroke-miterlimit:4;stroke-opacity:1;stroke-dasharray:none;filter:url(#filter3191);font-family:Myriad Pro;-inkscape-font-specification:Myriad Pro Bold"
       id="text3002"
       transform="matrix(0.9902286,0,0,0.9902286,0.55113203,6.0176858)">
      <path
         d="m 29.206552,79.70816 7.346118,0 0,-10.702953 2.773038,-3.454135 8.075865,14.157088 8.611012,0 -11.38405,-18.827467 10.848902,-13.962489 -9.14616,0 -7.394767,10.897552 c -0.390224,0.581792 -0.777395,1.169643 -1.161514,1.763555 -0.384142,0.593952 -0.759151,1.206128 -1.125026,1.836529 l -0.0973,0 0,-14.497636 -7.346118,0 z"
         style="fill:#ffffff;stroke:#000000;stroke-width:0.5;stroke-miterlimit:4;stroke-opacity:1;stroke-dasharray:none"
         id="path3011"
         inkscape:connector-curvature="0" />
      <path
         d="m 79.816397,70.172802 c 0.05268,-0.276686 0.105383,-0.671966 0.158111,-1.18584 0.05268,-0.513852 0.08106,-1.091567 0.08514,-1.733147 0.03849,-3.069989 -0.768284,-5.784239 -2.420327,-8.142759 -1.652086,-2.358479 -4.380526,-3.601074 -8.185327,-3.727789 -4.119025,0.152055 -7.15558,1.514248 -9.109674,4.086582 -1.954102,2.572375 -2.923042,5.442709 -2.906823,8.611012 0.02432,3.761244 1.131105,6.710635 3.320348,8.84818 2.189233,2.137551 5.314978,3.226089 9.377246,3.265617 1.611508,10e-4 3.143975,-0.122638 4.597405,-0.370955 1.453391,-0.248317 2.791259,-0.627379 4.013608,-1.137188 l -0.972996,-5.010928 c -0.98822,0.340554 -2.015946,0.595965 -3.083181,0.766234 -1.067273,0.170279 -2.228785,0.255416 -3.48454,0.255411 -1.778772,0.003 -3.305157,-0.367908 -4.579162,-1.112863 -1.274026,-0.744943 -1.985528,-1.882131 -2.134509,-3.411567 z M 64.443064,65.113224 c 0.08107,-1.052036 0.47838,-2.098005 1.191919,-3.137912 0.71352,-1.039871 1.840572,-1.599342 3.381161,-1.678417 1.664213,0.0882 2.787211,0.665914 3.368997,1.73315 0.581754,1.067271 0.853382,2.094996 0.814885,3.083179 z"
         style="fill:#ffffff;stroke:#000000;stroke-width:0.5;stroke-miterlimit:4;stroke-opacity:1;stroke-dasharray:none"
         id="path3013"
         inkscape:connector-curvature="0" />
      <path
         d="m 84.455178,79.70816 7.394768,0 0,-13.71924 c -0.002,-0.344589 0.01418,-0.677029 0.04865,-0.997321 0.03445,-0.320262 0.09932,-0.604052 0.194599,-0.85137 0.264522,-0.711487 0.708451,-1.343933 1.331788,-1.897342 0.623313,-0.553374 1.444278,-0.845273 2.462896,-0.875696 1.326704,0.02333 2.285509,0.499691 2.876418,1.429087 0.590875,0.929429 0.880746,2.172025 0.869616,3.72779 l 0,13.184092 7.394767,0 0,-14.059788 c -0.0507,-3.492631 -0.86153,-6.079176 -2.43249,-7.759642 -1.571,-1.680422 -3.59808,-2.515576 -6.081223,-2.505463 -1.990602,0.06286 -3.591989,0.508819 -4.804167,1.337868 -1.212202,0.829095 -2.059518,1.664249 -2.54195,2.505465 l -0.14595,0 -0.340548,-3.308186 -6.421772,0 c 0.05067,1.067279 0.09527,2.228791 0.133787,3.484543 0.03851,1.255791 0.05878,2.624065 0.06081,4.104824 z"
         style="fill:#ffffff;stroke:#000000;stroke-width:0.5;stroke-miterlimit:4;stroke-opacity:1;stroke-dasharray:none"
         id="path3015"
         inkscape:connector-curvature="0" />
      <path
         d="m 113.98293,51.491284 0,4.42713 -3.16224,0 0,5.448777 3.16224,0 0,9.729957 c -1e-5,1.674369 0.17027,3.09332 0.51082,4.256856 0.34054,1.163544 0.85136,2.095998 1.53247,2.797363 0.61622,0.617245 1.40272,1.109823 2.35951,1.477736 0.95677,0.367914 2.03518,0.556432 3.23521,0.565555 1.03481,-0.0051 1.96929,-0.06791 2.80345,-0.188517 0.83412,-0.120612 1.48887,-0.268588 1.96423,-0.44393 l -0.0487,-5.594725 c -0.32536,0.07197 -0.64766,0.122643 -0.96691,0.15203 -0.31928,0.0294 -0.72672,0.04359 -1.22233,0.04257 -1.07943,0.0051 -1.83958,-0.333448 -2.28046,-1.015564 -0.4409,-0.682104 -0.65374,-1.738208 -0.63852,-3.168318 l 0,-8.611012 5.30282,0 0,-5.448777 -5.30282,0 0,-6.421771 z"
         style="fill:#ffffff;stroke:#000000;stroke-width:0.5;stroke-miterlimit:4;stroke-opacity:1;stroke-dasharray:none"
         id="path3017"
         inkscape:connector-curvature="0" />
      <path
         d="m 153.25266,55.918414 -7.39477,0 0,14.157089 c -2e-5,0.632456 -0.0973,1.167603 -0.2919,1.605443 -0.21793,0.618265 -0.63348,1.193953 -1.24665,1.727066 -0.61321,0.533126 -1.43012,0.816917 -2.45073,0.851372 -1.30545,-0.0152 -2.25818,-0.507777 -2.85818,-1.477737 -0.60002,-0.969947 -0.89598,-2.326059 -0.88786,-4.068338 l 0,-12.794895 -7.39477,0 0,13.962489 c 0.0446,3.6457 0.8311,6.291029 2.35952,7.935997 1.52841,1.644971 3.53115,2.453773 6.00825,2.426408 2.12537,-0.07095 3.78555,-0.537174 4.98052,-1.398681 1.19494,-0.861506 2.01591,-1.692605 2.4629,-2.493302 l 0.14594,0 0.34055,3.356835 6.42178,0 c -0.0507,-0.996306 -0.0953,-2.129439 -0.13379,-3.399404 -0.0385,-1.269958 -0.0588,-2.682827 -0.0608,-4.238612 z"
         style="fill:#ffffff;stroke:#000000;stroke-width:0.5;stroke-miterlimit:4;stroke-opacity:1;stroke-dasharray:none"
         id="path3019"
         inkscape:connector-curvature="0" />
      <path
         d="m 176.11994,73.626937 c -0.55646,0.245282 -1.18282,0.435827 -1.8791,0.571635 -0.69632,0.135819 -1.4808,0.20474 -2.35344,0.206762 -1.84667,-0.0071 -3.3832,-0.576698 -4.60956,-1.708825 -1.22639,-1.132114 -1.86289,-2.784178 -1.90951,-4.956196 0.001,-1.980438 0.57061,-3.577771 1.70883,-4.792005 1.13819,-1.2142 2.69295,-1.838538 4.66429,-1.873016 0.96893,0.0061 1.79192,0.07907 2.46898,0.218923 0.67703,0.139887 1.23244,0.310161 1.66626,0.510824 l 1.16759,-5.497426 c -0.79463,-0.293902 -1.68654,-0.520934 -2.67574,-0.681097 -0.98923,-0.160115 -1.97844,-0.241198 -2.96763,-0.243249 -4.44134,0.09226 -7.81844,1.330797 -10.13132,3.715627 -2.3129,2.384871 -3.47644,5.362641 -3.49062,8.933317 0.0446,3.763272 1.1838,6.72077 3.41764,8.872504 2.23383,2.15174 5.29471,3.248387 9.18265,3.289943 1.42806,-0.0071 2.7193,-0.11453 3.87374,-0.322305 1.1544,-0.207775 2.06861,-0.473322 2.74263,-0.79664 z"
         style="fill:#ffffff;stroke:#000000;stroke-width:0.5;stroke-miterlimit:4;stroke-opacity:1;stroke-dasharray:none"
         id="path3021"
         inkscape:connector-curvature="0" />
      <path
         d="m 188.48563,45.166812 -7.39476,0 0,34.541348 7.39476,0 0,-7.443417 1.8487,-2.33519 5.78932,9.778607 9.09751,0 -9.72996,-14.157088 8.51372,-9.632658 -8.90291,0 -4.81633,7.151519 c -0.59192,0.883821 -1.1595,1.840599 -1.70275,2.870338 l -0.0973,0 z"
         style="fill:#ffffff;stroke:#000000;stroke-width:0.5;stroke-miterlimit:4;stroke-opacity:1;stroke-dasharray:none"
         id="path3023"
         inkscape:connector-curvature="0" />
      <path
         d="m 204.83078,55.918414 8.75696,21.795105 c 0.11857,0.287847 0.19763,0.527041 0.23717,0.717585 0.0395,0.190547 0.0578,0.356766 0.0547,0.49866 -0.001,0.147977 -0.0355,0.314196 -0.10338,0.498659 -0.0679,0.184464 -0.16319,0.375009 -0.28582,0.571636 -0.35576,0.597986 -0.81185,1.165567 -1.36828,1.702743 -0.55644,0.537172 -1.12199,0.958803 -1.69666,1.264894 -0.56556,0.317233 -1.12503,0.582779 -1.67842,0.796639 -0.55339,0.213853 -1.06421,0.369938 -1.53246,0.468256 l 1.60544,6.227172 c 0.94664,-0.08109 2.04531,-0.368938 3.29602,-0.863533 1.2507,-0.494616 2.51965,-1.293282 3.80685,-2.396002 1.30644,-1.100708 2.60984,-2.815612 3.91023,-5.144715 1.30035,-2.329109 2.78619,-5.819728 4.45753,-10.471867 l 5.54608,-15.665232 -7.88127,0 -2.96763,11.675949 c -0.17333,0.72165 -0.34969,1.479775 -0.52907,2.274378 -0.17941,0.794623 -0.3436,1.528423 -0.49258,2.201403 l -0.1946,0 c -0.15204,-0.652711 -0.33448,-1.378403 -0.54731,-2.177079 -0.21286,-0.798656 -0.41962,-1.548673 -0.62028,-2.250052 l -3.55144,-11.724599 z"
         style="fill:#ffffff;stroke:#000000;stroke-width:0.5;stroke-miterlimit:4;stroke-opacity:1;stroke-dasharray:none"
         id="path3025"
         inkscape:connector-curvature="0" />
      <path
         d="m 37.307254,121.74236 -12.211097,0 0,5.78932 5.059578,0 0,6.90827 c -0.302057,0.12467 -0.768283,0.22805 -1.398682,0.31015 -0.630442,0.0821 -1.364242,0.12467 -2.201402,0.1277 -3.09232,-0.0223 -5.579538,-0.96285 -7.461663,-2.82169 -1.882149,-1.85881 -2.849062,-4.50212 -2.900742,-7.92991 0.0679,-3.57067 1.11184,-6.23222 3.13183,-7.98465 2.019964,-1.75238 4.608536,-2.62605 7.765722,-2.621 1.778736,0.007 3.268634,0.13888 4.4697,0.39528 1.201016,0.25645 2.240904,0.59497 3.119667,1.01556 l 1.556793,-5.98392 c -0.81694,-0.3841 -2.004805,-0.73479 -3.563597,-1.05206 -1.558845,-0.3172 -3.403481,-0.48545 -5.533913,-0.50474 -5.481224,0.0325 -9.940784,1.52439 -13.378691,4.47578 -3.437922,2.95145 -5.2217461,7.16776 -5.351477,12.64895 0.00709,2.42642 0.4064277,4.66431 1.198002,6.71367 0.791569,2.04938 1.93281,3.80077 3.423728,5.25417 1.50104,1.43822 3.351758,2.52675 5.552156,3.26562 2.200375,0.73887 4.793001,1.10982 7.777885,1.11287 2.207462,-0.0284 4.287238,-0.2392 6.239335,-0.63245 1.952045,-0.39325 3.521,-0.79867 4.706868,-1.21625 z"
         style="fill:#ffffff;stroke:#000000;stroke-width:0.5;stroke-miterlimit:4;stroke-opacity:1;stroke-dasharray:none"
         id="path3027"
         inkscape:connector-curvature="0" />
      <path
         d="m 63.85298,130.98582 c 0.05268,-0.27669 0.105384,-0.67197 0.158111,-1.18584 0.05268,-0.51385 0.08106,-1.09157 0.08514,-1.73315 0.03849,-3.06999 -0.768284,-5.78424 -2.420327,-8.14276 -1.652086,-2.35848 -4.380526,-3.60107 -8.185326,-3.72779 -4.119026,0.15206 -7.155581,1.51425 -9.109674,4.08659 -1.954103,2.57237 -2.923043,5.4427 -2.906824,8.61101 0.02432,3.76124 1.131106,6.71063 3.320348,8.84818 2.189233,2.13755 5.314979,3.22609 9.377247,3.26562 1.611508,0.001 3.143974,-0.12264 4.597404,-0.37096 1.453392,-0.24832 2.79126,-0.62738 4.013608,-1.13719 l -0.972996,-5.01093 c -0.98822,0.34056 -2.015946,0.59597 -3.083181,0.76624 -1.067273,0.17028 -2.228785,0.25541 -3.48454,0.25541 -1.778771,0.003 -3.305157,-0.36791 -4.579162,-1.11286 -1.274026,-0.74495 -1.985528,-1.88214 -2.134509,-3.41157 z m -15.373332,-5.05958 c 0.08107,-1.05203 0.47838,-2.098 1.191919,-3.13791 0.713519,-1.03987 1.840571,-1.59934 3.381161,-1.67842 1.664212,0.0882 2.78721,0.66592 3.368997,1.73315 0.581753,1.06727 0.853381,2.095 0.814884,3.08318 z"
         style="fill:#ffffff;stroke:#000000;stroke-width:0.5;stroke-miterlimit:4;stroke-opacity:1;stroke-dasharray:none"
         id="path3029"
         inkscape:connector-curvature="0" />
      <path
         d="m 79.875813,116.14763 c -3.894021,0.0436 -6.979226,1.18485 -9.255623,3.42373 -2.276408,2.23892 -3.439947,5.31399 -3.490621,9.22522 0.07804,3.87374 1.259825,6.87787 3.545354,9.01237 2.285518,2.13451 5.20653,3.21697 8.763042,3.24737 3.31121,0.0152 6.199788,-1.01252 8.665743,-3.08318 2.465911,-2.07065 3.76121,-5.27545 3.885902,-9.61441 -0.05172,-3.65885 -1.16458,-6.59405 -3.338592,-8.80561 -2.174058,-2.21152 -5.099123,-3.34668 -8.775205,-3.40549 z m -0.243249,5.30283 c 1.665225,0.077 2.871333,0.82301 3.618327,2.23789 0.746959,1.41491 1.11386,3.03657 1.100703,4.86498 -0.01421,2.19432 -0.435839,3.93557 -1.264895,5.22377 -0.829091,1.28821 -1.980468,1.94701 -3.454135,1.9764 -1.586198,-0.0426 -2.792307,-0.72366 -3.618329,-2.04329 -0.826042,-1.31962 -1.241592,-3.02236 -1.246649,-5.10823 -0.01623,-1.83044 0.356755,-3.4602 1.118945,-4.8893 0.762169,-1.42907 2.010845,-2.18315 3.746033,-2.26222 z"
         style="fill:#ffffff;stroke:#000000;stroke-width:0.5;stroke-miterlimit:4;stroke-opacity:1;stroke-dasharray:none"
         id="path3031"
         inkscape:connector-curvature="0" />
      <path
         d="m 119.04761,123.8343 c 0.002,-1.75239 0.0223,-3.18553 0.0608,-4.29943 0.0385,-1.11385 0.0831,-2.04833 0.13378,-2.80344 l -6.42177,0 -0.24325,2.87034 -0.0973,0 c -0.60003,-1.01453 -1.43113,-1.83144 -2.4933,-2.45074 -1.0622,-0.61924 -2.40412,-0.93749 -4.02577,-0.95475 -3.02542,0.0426 -5.56129,1.1737 -7.607611,3.39333 -2.046335,2.21966 -3.110547,5.27243 -3.192642,9.15832 0.05169,3.46225 0.994278,6.24339 2.82777,8.34344 1.833482,2.10005 4.247723,3.17845 7.242733,3.23521 1.37131,-0.006 2.60579,-0.27366 3.70347,-0.80272 1.09764,-0.52907 2.00374,-1.28314 2.71831,-2.26222 l 0.0973,0 0,1.50814 c -0.0385,2.19837 -0.63043,3.79773 -1.77571,4.79809 -1.14532,1.00036 -2.61292,1.49293 -4.40281,1.47774 -1.42808,-0.0203 -2.74365,-0.21082 -3.94671,-0.57164 -1.20308,-0.36082 -2.190261,-0.77029 -2.961558,-1.2284 l -1.459494,5.64337 c 1.095629,0.58582 2.394983,1.03177 3.898062,1.33787 1.50307,0.30608 3.05783,0.46013 4.6643,0.46217 1.77266,0.0182 3.49365,-0.18853 5.16296,-0.62028 1.66928,-0.43178 3.15918,-1.19801 4.4697,-2.2987 1.34393,-1.20308 2.2926,-2.71325 2.84601,-4.53052 0.55337,-1.81727 0.82094,-3.87475 0.80272,-6.17244 z m -7.39476,6.08122 c 0.002,0.32333 -0.0142,0.66185 -0.0486,1.01557 -0.0345,0.35373 -0.0994,0.68009 -0.1946,0.97907 -0.25543,0.86861 -0.72977,1.57606 -1.42301,2.12235 -0.69328,0.5463 -1.53248,0.82807 -2.51763,0.84529 -1.5416,-0.0416 -2.72744,-0.6517 -3.55751,-1.83045 -0.8301,-1.17873 -1.2497,-2.67674 -1.25882,-4.49402 0.0324,-2.17605 0.50271,-3.84433 1.41085,-5.00485 0.90812,-1.16048 2.05949,-1.7463 3.45413,-1.75747 1.0267,0.0142 1.8801,0.31421 2.5602,0.90002 0.68006,0.58584 1.15643,1.37235 1.42909,2.35951 0.0486,0.22097 0.0851,0.448 0.10946,0.6811 0.0243,0.23313 0.0365,0.46016 0.0365,0.6811 z"
         style="fill:#ffffff;stroke:#000000;stroke-width:0.5;stroke-miterlimit:4;stroke-opacity:1;stroke-dasharray:none"
         id="path3033"
         inkscape:connector-curvature="0" />
      <path
         d="m 125.02886,140.52118 7.39477,0 0,-12.06515 c -1e-5,-0.29391 0.0122,-0.58176 0.0365,-0.86353 0.0243,-0.28175 0.0608,-0.54527 0.10946,-0.79056 0.25338,-1.15643 0.8169,-2.06659 1.69058,-2.73047 0.87366,-0.66385 1.99666,-1.00237 3.369,-1.01557 0.40844,0.002 0.77128,0.0223 1.08854,0.0608 0.31722,0.0385 0.61925,0.0831 0.9061,0.13378 l 0,-6.95692 c -0.25644,-0.0486 -0.49766,-0.0851 -0.72366,-0.10946 -0.22604,-0.0243 -0.50375,-0.0365 -0.83313,-0.0365 -1.21322,-0.0121 -2.42338,0.37706 -3.63049,1.1676 -1.20714,0.79058 -2.13756,2.05547 -2.79128,3.79468 l -0.1946,0 -0.2919,-4.37848 -6.32447,0 c 0.072,1.0014 0.12263,2.1244 0.15203,3.369 0.0294,1.24464 0.0436,2.73251 0.0426,4.46362 z"
         style="fill:#ffffff;stroke:#000000;stroke-width:0.5;stroke-miterlimit:4;stroke-opacity:1;stroke-dasharray:none"
         id="path3035"
         inkscape:connector-curvature="0" />
      <path
         d="m 163.35829,126.46139 c 0.0618,-2.8987 -0.68213,-5.32308 -2.23181,-7.27315 -1.54972,-1.95002 -4.27613,-2.96355 -8.17924,-3.04061 -2.17608,0.0314 -4.05112,0.27267 -5.62514,0.72367 -1.57403,0.45105 -2.78013,0.92335 -3.61832,1.41692 l 1.36219,4.76768 c 0.80272,-0.50066 1.78787,-0.9223 2.95547,-1.26489 1.16759,-0.34256 2.37167,-0.52094 3.61225,-0.53515 1.77672,0.0477 2.95445,0.4024 3.53319,1.06422 0.57871,0.66185 0.84426,1.34498 0.79664,2.04937 l 0,0.2919 c -4.26396,-0.007 -7.64309,0.73685 -10.1374,2.23181 -2.49432,1.49498 -3.76934,3.78354 -3.82509,6.8657 0.0193,1.96424 0.69833,3.65481 2.03721,5.07174 1.33888,1.41692 3.22203,2.15883 5.64946,2.22572 1.42097,-0.003 2.71424,-0.25237 3.87982,-0.74799 1.16555,-0.49561 2.1426,-1.21928 2.93115,-2.17099 l 0.14595,0 0.43785,2.38384 6.66502,0 c -0.14395,-0.674 -0.2453,-1.51524 -0.30406,-2.52371 -0.0588,-1.00847 -0.0872,-2.08079 -0.0851,-3.21697 z m -7.15152,5.40013 c -1e-5,0.44596 -0.0487,0.86759 -0.14595,1.26489 -0.26049,0.77333 -0.73686,1.41592 -1.42909,1.92775 -0.69226,0.51184 -1.497,0.77738 -2.41424,0.79664 -0.8453,0.001 -1.53856,-0.2321 -2.07978,-0.69934 -0.54124,-0.46724 -0.82098,-1.17469 -0.83921,-2.12235 0.0446,-1.39057 0.70947,-2.36761 1.99464,-2.93115 1.28516,-0.56352 2.92303,-0.83514 4.91363,-0.81488 z"
         style="fill:#ffffff;stroke:#000000;stroke-width:0.5;stroke-miterlimit:4;stroke-opacity:1;stroke-dasharray:none"
         id="path3037"
         inkscape:connector-curvature="0" />
      <path
         d="m 169.21333,150.15384 7.39477,0 0,-11.8219 0.0973,0 c 0.54628,0.79461 1.35103,1.44327 2.41424,1.94599 1.06319,0.50271 2.31795,0.76218 3.76428,0.77839 2.76998,0.0101 5.23287,-1.03178 7.38868,-3.12574 2.15577,-2.09397 3.29296,-5.3008 3.41157,-9.6205 -0.0862,-3.82507 -1.08147,-6.79271 -2.98588,-8.90291 -1.90446,-2.11016 -4.20113,-3.18046 -6.89003,-3.21089 -1.73215,0.005 -3.26664,0.33551 -4.60348,0.99124 -1.33687,0.65578 -2.44568,1.60648 -3.32643,2.8521 l -0.0973,0 -0.34055,-3.30819 -6.42177,0 c 0.0507,1.11694 0.0953,2.33724 0.13379,3.6609 0.0385,1.3237 0.0588,2.76292 0.0608,4.31767 z m 7.39477,-23.10865 c -1e-5,-0.22195 0.0121,-0.44696 0.0365,-0.67502 0.0243,-0.22803 0.0608,-0.44087 0.10947,-0.63853 0.26655,-1.11386 0.80372,-2.01185 1.61152,-2.69398 0.80778,-0.68209 1.74631,-1.03278 2.81561,-1.05205 1.6561,0.0406 2.90478,0.67706 3.74603,1.9095 0.84122,1.23248 1.26285,2.81765 1.26489,4.75552 -0.0122,2.04634 -0.46219,3.67003 -1.35003,4.87106 -0.88787,1.20105 -2.1406,1.81525 -3.75819,1.84261 -1.08653,-0.0213 -2.01493,-0.35575 -2.7852,-1.0034 -0.7703,-0.64765 -1.28518,-1.48077 -1.54463,-2.49938 -0.0487,-0.24122 -0.0851,-0.48852 -0.10947,-0.74192 -0.0243,-0.25337 -0.0365,-0.525 -0.0365,-0.81488 z"
         style="fill:#ffffff;stroke:#000000;stroke-width:0.5;stroke-miterlimit:4;stroke-opacity:1;stroke-dasharray:none"
         id="path3039"
         inkscape:connector-curvature="0" />
      <path
         d="m 198.28955,140.52118 7.39476,0 0,-14.10844 c -0.002,-0.27364 0.0142,-0.55338 0.0486,-0.83921 0.0345,-0.2858 0.0993,-0.54121 0.1946,-0.76623 0.26655,-0.70541 0.70643,-1.31353 1.31963,-1.82437 0.61318,-0.51081 1.40576,-0.77838 2.37776,-0.80272 1.37332,0.0243 2.36051,0.51084 2.96155,1.45949 0.60101,0.94869 0.89494,2.21358 0.88178,3.79468 l 0,13.0868 7.39477,0 0,-13.86519 c -0.0517,-3.58588 -0.84836,-6.22918 -2.38992,-7.92992 -1.54162,-1.70069 -3.51801,-2.54395 -5.9292,-2.52979 -0.68618,0.002 -1.35714,0.0831 -2.01288,0.24325 -0.65577,0.16017 -1.26592,0.3872 -1.83045,0.6811 -1.16761,0.58382 -2.1406,1.41087 -2.91899,2.48114 l -0.0973,0 0,-13.62194 -7.39476,0 z"
         style="fill:#ffffff;stroke:#000000;stroke-width:0.5;stroke-miterlimit:4;stroke-opacity:1;stroke-dasharray:none"
         id="path3041"
         inkscape:connector-curvature="0" />
      <path
         d="m 224.11991,116.73143 8.75696,21.79511 c 0.11858,0.28784 0.19763,0.52704 0.23717,0.71758 0.0395,0.19055 0.0578,0.35677 0.0547,0.49866 -0.001,0.14798 -0.0355,0.3142 -0.10338,0.49866 -0.0679,0.18446 -0.16319,0.37501 -0.28582,0.57164 -0.35576,0.59798 -0.81185,1.16556 -1.36827,1.70274 -0.55644,0.53717 -1.12199,0.9588 -1.69666,1.26489 -0.56556,0.31724 -1.12504,0.58278 -1.67842,0.79664 -0.5534,0.21385 -1.06422,0.36994 -1.53247,0.46826 l 1.60544,6.22717 c 0.94664,-0.0811 2.04532,-0.36894 3.29603,-0.86353 1.25069,-0.49462 2.51964,-1.29329 3.80684,-2.39601 1.30644,-1.1007 2.60985,-2.81561 3.91023,-5.14471 1.30035,-2.32911 2.78619,-5.81973 4.45754,-10.47187 l 5.54607,-15.66523 -7.88126,0 -2.96764,11.67595 c -0.17333,0.72165 -0.34969,1.47977 -0.52907,2.27438 -0.17941,0.79462 -0.3436,1.52842 -0.49258,2.2014 l -0.1946,0 c -0.15204,-0.65271 -0.33448,-1.3784 -0.54731,-2.17708 -0.21285,-0.79865 -0.41961,-1.54867 -0.62028,-2.25005 l -3.55143,-11.7246 z"
         style="fill:#ffffff;stroke:#000000;stroke-width:0.5;stroke-miterlimit:4;stroke-opacity:1;stroke-dasharray:none"
         id="path3043"
         inkscape:connector-curvature="0" />
      <path
         d="m 44.521843,201.33419 0,-9.8759 c 0.001,-2.66559 -0.02535,-5.17916 -0.07906,-7.54072 -0.05373,-2.36152 -0.140892,-4.63184 -0.261492,-6.81097 l 0.194599,0 c 0.79663,1.945 1.69665,3.91734 2.700063,5.91703 1.003388,1.99973 2.000708,3.88693 2.991962,5.66162 l 7.00557,12.64894 7.783966,0 0,-32.78995 -6.81097,0 0,9.53536 c -0.0031,2.47203 0.0395,4.83763 0.127706,7.09678 0.08815,2.25919 0.240184,4.46667 0.456091,6.62246 l -0.0973,0 c -0.76119,-1.86997 -1.598371,-3.77339 -2.511546,-5.71027 -0.913218,-1.93686 -1.85986,-3.77946 -2.83993,-5.52783 l -6.81097,-12.0165 -8.659663,0 0,32.78995 z"
         style="fill:#ffffff;stroke:#000000;stroke-width:0.5;stroke-miterlimit:4;stroke-opacity:1;stroke-dasharray:none"
         id="path3045"
         inkscape:connector-curvature="0" />
      <path
         d="m 92.026511,191.79884 c 0.05268,-0.27669 0.105383,-0.67197 0.158111,-1.18584 0.05268,-0.51386 0.08106,-1.09157 0.08514,-1.73315 0.03849,-3.06999 -0.768284,-5.78424 -2.420327,-8.14276 -1.652087,-2.35848 -4.380526,-3.60107 -8.185327,-3.72779 -4.119026,0.15206 -7.155581,1.51425 -9.109674,4.08658 -1.954102,2.57238 -2.923043,5.44271 -2.906823,8.61102 0.02432,3.76124 1.131105,6.71063 3.320348,8.84817 2.189232,2.13756 5.314978,3.22609 9.377246,3.26562 1.611508,10e-4 3.143975,-0.12264 4.597404,-0.37095 1.453392,-0.24832 2.79126,-0.62738 4.013608,-1.13719 l -0.972995,-5.01093 c -0.988221,0.34055 -2.015947,0.59597 -3.083182,0.76623 -1.067272,0.17028 -2.228785,0.25542 -3.48454,0.25542 -1.778771,0.003 -3.305157,-0.36791 -4.579161,-1.11287 -1.274026,-0.74494 -1.985529,-1.88213 -2.134509,-3.41156 z m -15.373333,-5.05958 c 0.08107,-1.05204 0.47838,-2.09801 1.191919,-3.13791 0.713519,-1.03987 1.840572,-1.59935 3.381161,-1.67842 1.664213,0.0882 2.787211,0.66591 3.368997,1.73315 0.581753,1.06727 0.853381,2.095 0.814885,3.08318 z"
         style="fill:#ffffff;stroke:#000000;stroke-width:0.5;stroke-miterlimit:4;stroke-opacity:1;stroke-dasharray:none"
         id="path3047"
         inkscape:connector-curvature="0" />
      <path
         d="m 97.686939,173.11732 0,4.42713 -3.162236,0 0,5.44877 3.162236,0 0,9.72996 c -4e-6,1.67437 0.17027,3.09332 0.510822,4.25686 0.340543,1.16354 0.851366,2.096 1.532469,2.79736 0.61622,0.61725 1.40273,1.10982 2.35951,1.47774 0.95677,0.36791 2.03518,0.55643 3.23522,0.56555 1.0348,-0.005 1.96928,-0.0679 2.80344,-0.18852 0.83412,-0.12061 1.48887,-0.26858 1.96423,-0.44393 l -0.0486,-5.59472 c -0.32536,0.072 -0.64766,0.12264 -0.96691,0.15203 -0.31928,0.0294 -0.72672,0.0436 -1.22233,0.0426 -1.07943,0.005 -1.83958,-0.33345 -2.28045,-1.01557 -0.4409,-0.6821 -0.65375,-1.7382 -0.63853,-3.16831 l 0,-8.61102 5.30282,0 0,-5.44877 -5.30282,0 0,-6.42177 z"
         style="fill:#ffffff;stroke:#000000;stroke-width:0.5;stroke-miterlimit:4;stroke-opacity:1;stroke-dasharray:none"
         id="path3049"
         inkscape:connector-curvature="0" />
      <path
         d="m 112.09663,177.54445 6.95692,23.78974 6.95692,0 2.38384,-8.36776 c 0.29086,-1.08042 0.56046,-2.21558 0.8088,-3.40548 0.2483,-1.18988 0.48141,-2.51964 0.69934,-3.98929 l 0.0973,0 c 0.23816,1.46255 0.47938,2.78217 0.72366,3.95888 0.24425,1.17673 0.52196,2.33824 0.83313,3.48454 l 2.23789,8.31911 6.90827,0 7.29747,-23.78974 -7.24882,0 -1.99464,9.43806 c -0.59193,2.73251 -1.06221,5.44067 -1.41084,8.12451 l -0.0973,0 c -0.22199,-1.35813 -0.48349,-2.70411 -0.78448,-4.03793 -0.30105,-1.33381 -0.62335,-2.67978 -0.96692,-4.03793 l -2.38383,-9.48671 -5.83798,0 -2.52979,9.82726 c -0.27772,1.17368 -0.57367,2.41425 -0.88786,3.7217 -0.31421,1.30748 -0.58583,2.64534 -0.81488,4.01361 l -0.14595,0 c -0.19765,-1.36421 -0.41049,-2.69803 -0.63853,-4.00144 -0.22806,-1.3034 -0.45306,-2.56424 -0.67501,-3.78252 l -1.946,-9.77861 z"
         style="fill:#ffffff;stroke:#000000;stroke-width:0.5;stroke-miterlimit:4;stroke-opacity:1;stroke-dasharray:none"
         id="path3051"
         inkscape:connector-curvature="0" />
      <path
         d="m 162.87608,176.96065 c -3.89402,0.0436 -6.97923,1.18485 -9.25562,3.42373 -2.27641,2.23892 -3.43995,5.31399 -3.49062,9.22522 0.078,3.87374 1.25982,6.87786 3.54535,9.01237 2.28552,2.13451 5.20653,3.21697 8.76304,3.24737 3.31121,0.0152 6.19979,-1.01252 8.66575,-3.08318 2.46591,-2.07065 3.7612,-5.27545 3.8859,-9.61441 -0.0517,-3.65886 -1.16458,-6.59406 -3.33859,-8.80561 -2.17406,-2.21152 -5.09913,-3.34668 -8.77521,-3.40549 z m -0.24325,5.30283 c 1.66523,0.0771 2.87133,0.82301 3.61833,2.23789 0.74696,1.41491 1.11386,3.03657 1.1007,4.86498 -0.0142,2.19431 -0.43584,3.93557 -1.26489,5.22377 -0.82909,1.28821 -1.98047,1.94701 -3.45414,1.9764 -1.5862,-0.0426 -2.79231,-0.72366 -3.61833,-2.0433 -0.82604,-1.31961 -1.24159,-3.02235 -1.24665,-5.10822 -0.0162,-1.83044 0.35676,-3.4602 1.11895,-4.88931 0.76217,-1.42907 2.01084,-2.18314 3.74603,-2.26221 z"
         style="fill:#ffffff;stroke:#000000;stroke-width:0.5;stroke-miterlimit:4;stroke-opacity:1;stroke-dasharray:none"
         id="path3053"
         inkscape:connector-curvature="0" />
      <path
         d="m 179.52303,201.33419 7.39477,0 0,-12.06514 c -1e-5,-0.29392 0.0121,-0.58176 0.0365,-0.86354 0.0243,-0.28175 0.0608,-0.54527 0.10947,-0.79056 0.25337,-1.15643 0.8169,-2.06658 1.69058,-2.73047 0.87365,-0.66385 1.99665,-1.00237 3.36899,-1.01556 0.40844,0.002 0.77129,0.0223 1.08854,0.0608 0.31722,0.0385 0.61926,0.0831 0.9061,0.13379 l 0,-6.95692 c -0.25644,-0.0486 -0.49766,-0.0851 -0.72366,-0.10946 -0.22604,-0.0243 -0.50375,-0.0365 -0.83313,-0.0365 -1.21322,-0.0121 -2.42338,0.37706 -3.63049,1.1676 -1.20713,0.79058 -2.13756,2.05547 -2.79128,3.79468 l -0.1946,0 -0.2919,-4.37848 -6.32447,0 c 0.072,1.0014 0.12263,2.12439 0.15203,3.369 0.0294,1.24464 0.0436,2.73251 0.0426,4.46361 z"
         style="fill:#ffffff;stroke:#000000;stroke-width:0.5;stroke-miterlimit:4;stroke-opacity:1;stroke-dasharray:none"
         id="path3055"
         inkscape:connector-curvature="0" />
      <path
         d="m 205.44677,166.79285 -7.39477,0 0,34.54134 7.39477,0 0,-7.44341 1.84869,-2.33519 5.78933,9.7786 9.09751,0 -9.72996,-14.15708 8.51371,-9.63266 -8.90291,0 -4.81633,7.15152 c -0.59191,0.88382 -1.15949,1.8406 -1.70274,2.87033 l -0.0973,0 z"
         style="fill:#ffffff;stroke:#000000;stroke-width:0.5;stroke-miterlimit:4;stroke-opacity:1;stroke-dasharray:none"
         id="path3057"
         inkscape:connector-curvature="0" />
    </g>
  </g>
</svg>
