<?xml version="1.0" encoding="UTF-8" standalone="no"?>
<!-- Created with Inkscape (http://www.inkscape.org/) -->

<svg
   xmlns:dc="http://purl.org/dc/elements/1.1/"
   xmlns:cc="http://creativecommons.org/ns#"
   xmlns:rdf="http://www.w3.org/1999/02/22-rdf-syntax-ns#"
   xmlns:svg="http://www.w3.org/2000/svg"
   xmlns="http://www.w3.org/2000/svg"
   xmlns:sodipodi="http://sodipodi.sourceforge.net/DTD/sodipodi-0.dtd"
   xmlns:inkscape="http://www.inkscape.org/namespaces/inkscape"
   width="1000"
   height="800"
   id="svg2"
   version="1.1"
   inkscape:version="0.48.4 r9939"
   sodipodi:docname="logo-big.svg"
   inkscape:export-filename="C:\Users\Ryan Cooper\Documents\GitHub\GSCPC-Website-Stuff\img\logo-big_gis.png"
   inkscape:export-xdpi="90"
   inkscape:export-ydpi="90">
  <defs
     id="defs4">
    <clipPath
       id="SVG_CP_1-2">
      <path
         id="path4033-7"
         d="M 0,667.50236 0,0 l 620.24882,0 0,667.50236 -620.24882,0 z"
         inkscape:connector-curvature="0" />
    </clipPath>
    <clipPath
       id="SVG_CP_1-2-2">
      <path
         id="path4033-7-3"
         d="M 0,667.50236 0,0 l 620.24882,0 0,667.50236 -620.24882,0 z"
         inkscape:connector-curvature="0" />
    </clipPath>
    <clipPath
       id="SVG_CP_1-2-2-5">
      <path
         id="path4033-7-3-7"
         d="M 0,667.50236 0,0 l 620.24882,0 0,667.50236 -620.24882,0 z"
         inkscape:connector-curvature="0" />
    </clipPath>
    <clipPath
       id="SVG_CP_1-1">
      <path
         id="path4033-2"
         d="M 0,667.50236 0,0 l 620.24882,0 0,667.50236 -620.24882,0 z"
         inkscape:connector-curvature="0" />
    </clipPath>
    <clipPath
       id="SVG_CP_1-1-1">
      <path
         id="path4033-2-1"
         d="M 0,667.50236 0,0 l 620.24882,0 0,667.50236 -620.24882,0 z"
         inkscape:connector-curvature="0" />
    </clipPath>
    <clipPath
       id="SVG_CP_1-1-1-7">
      <path
         id="path4033-2-1-7"
         d="M 0,667.50236 0,0 l 620.24882,0 0,667.50236 -620.24882,0 z"
         inkscape:connector-curvature="0" />
    </clipPath>
    <clipPath
       id="SVG_CP_1-1-1-7-6">
      <path
         id="path4033-2-1-7-5"
         d="M 0,667.50236 0,0 l 620.24882,0 0,667.50236 -620.24882,0 z"
         inkscape:connector-curvature="0" />
    </clipPath>
  </defs>
  <sodipodi:namedview
     id="base"
     pagecolor="#ffffff"
     bordercolor="#666666"
     borderopacity="1.0"
     inkscape:pageopacity="0.0"
     inkscape:pageshadow="2"
     inkscape:zoom="0.62478378"
     inkscape:cx="81.589153"
     inkscape:cy="419.7293"
     inkscape:document-units="in"
     inkscape:current-layer="layer2"
     showgrid="false"
     units="px"
     showguides="true"
     inkscape:guide-bbox="true"
     inkscape:window-width="1920"
     inkscape:window-height="976"
     inkscape:window-x="-8"
     inkscape:window-y="-8"
     inkscape:window-maximized="1">
    <sodipodi:guide
       orientation="1,0"
       position="134.84665,212.07337"
       id="guide2985" />
    <sodipodi:guide
       orientation="1,0"
       position="90,226.47836"
       id="guide2987" />
    <sodipodi:guide
       orientation="1,0"
       position="180.0623,188.4652"
       id="guide2989" />
    <sodipodi:guide
       orientation="1,0"
       position="44.815505,134.04638"
       id="guide2991" />
    <sodipodi:guide
       orientation="1,0"
       position="974.73722,822.68462"
       id="guide2993" />
    <sodipodi:guide
       orientation="0,1"
       position="590.60432,78.427133"
       id="guide2995" />
    <sodipodi:guide
       orientation="0,1"
       position="701.04253,238.48251"
       id="guide2997" />
    <sodipodi:guide
       orientation="0,1"
       position="134.84665,44.815505"
       id="guide2999" />
    <sodipodi:guide
       orientation="1,0"
       position="11.203876,134.84665"
       id="guide4086" />
    <sodipodi:guide
       orientation="1,0"
       position="22.407752,100.83488"
       id="guide4088" />
    <sodipodi:guide
       orientation="1,0"
       position="33.21149,110.83835"
       id="guide4090" />
    <sodipodi:guide
       orientation="0,1"
       position="304.10521,1030.7566"
       id="guide3814" />
  </sodipodi:namedview>
  <metadata
     id="metadata7">
    <rdf:RDF>
      <cc:Work
         rdf:about="">
        <dc:format>image/svg+xml</dc:format>
        <dc:type
           rdf:resource="http://purl.org/dc/dcmitype/StillImage" />
        <dc:title></dc:title>
      </cc:Work>
    </rdf:RDF>
  </metadata>
  <g
     inkscape:groupmode="layer"
     id="layer4"
     inkscape:label="BG"
     style="display:none"
     transform="translate(0,620)"
     sodipodi:insensitive="true">
    <rect
       style="color:#000000;fill:#6c6753;fill-opacity:1;stroke:#228dff;stroke-width:1.24982762;stroke-linecap:butt;stroke-linejoin:miter;stroke-miterlimit:4;stroke-opacity:1;stroke-dasharray:none;stroke-dashoffset:0;marker:none;visibility:visible;display:inline;overflow:visible;enable-background:accumulate"
       id="rect4816"
       width="998.75018"
       height="798.75018"
       x="0.62491381"
       y="-619.37506" />
  </g>
  <g
     inkscape:groupmode="layer"
     id="layer3"
     inkscape:label="SCOTT"
     transform="translate(0,620)"
     sodipodi:insensitive="true">
    <g
       id="Layers"
       transform="matrix(1.0994901,0,0,1.0994901,-84.054182,-585.72818)"
       style="fill:none;stroke:#e74c3c;stroke-width:8.10411549;stroke-miterlimit:4;stroke-opacity:1;stroke-dasharray:none">
      <g
         id="ScottCounty_general4"
         style="fill:none;stroke:#e74c3c;stroke-width:8.10411549;stroke-miterlimit:4;stroke-opacity:1;stroke-dasharray:none">
        <clipPath
           id="SVG_CP_1">
          <path
             id="path4033"
             d="M 0,667.50236 0,0 l 620.24882,0 0,667.50236 -620.24882,0 z"
             inkscape:connector-curvature="0" />
        </clipPath>
        <path
           id="path4035"
           d="m 524.70758,482.43617 -170.66198,82.56619 -89.2915,43.44326 -11.52149,5.76043 -11.28145,5.04038 -5.28068,2.40018 -5.04065,1.68013 -4.32056,1.4401 -3.60046,0.48004 -2.40031,-0.24002 -1.20015,-1.20009 -0.48006,-1.68012 0.24003,-2.16017 0.48006,-1.92014 0.72009,-1.92014 1.92025,-3.12024 0.48006,-1.68012 0,-2.40018 -0.48006,-2.88022 -1.68022,-6.48049 -0.48006,-3.60027 0,-3.84028 0.24003,-7.44056 -0.48006,-3.12024 -0.72009,-2.40018 -0.7201,-2.16016 -0.96012,-2.40018 -0.24003,-2.88021 -0.48006,-6.96052 -0.7201,-3.36026 -1.20015,-2.64019 -2.64034,-5.52042 -1.20015,-2.6402 -0.96013,-3.36025 -1.20015,-6.48048 -0.96013,-3.12024 -1.20015,-3.12023 -2.40031,-2.6402 -3.1204,-2.40018 -3.36043,-1.68013 -3.60047,-1.4401 -3.84049,-0.96008 -3.8405,-0.24001 -3.36043,0.48003 -3.36043,1.44011 -5.76075,3.60027 -2.88037,1.20009 -2.64034,0.24002 -9.12117,-1.44011 -4.56059,-0.24002 -4.56059,0.24002 -5.04064,-0.24002 -5.04065,-0.72005 -4.80062,-1.44011 -4.56059,-2.16016 -4.32056,-3.12024 -4.32055,-3.36025 -3.60047,-3.84029 -3.1204,-4.56034 -2.16028,-5.28039 -1.68021,-5.52042 -1.20016,-5.76043 -0.96012,-6.24047 -0.72009,-6.24047 -0.48007,-6.24046 -0.24003,-6.48049 -0.48006,-12.96097 -1.44018,-45.12338 -1.20016,-32.16242 -1.20015,-32.16241 -1.92025,-38.64289 -0.48006,-12.72096 -0.24003,-12.72095 0.24003,-6.24047 0.48006,-6.00045 0.48006,-6.24047 1.20016,-5.76043 1.92024,-5.52041 2.64034,-5.2804 3.12041,-5.04038 3.84049,-4.80036 4.08053,-4.56034 4.32055,-4.80036 8.88115,-8.88067 9.3612,-8.88066 42.7255,-39.84299 28.08362,-26.642 32.88424,-31.20234 42.48547,-40.80305 9.3612,-9.12069 9.36121,-8.40063 4.56059,-3.60027 4.56058,-3.60027 4.32056,-2.88021 4.08053,-2.16017 4.08052,-1.20009 3.60046,0 2.88038,1.68013 2.88037,2.88022 2.40031,3.84028 2.4003,4.56035 2.16028,5.04037 2.16028,5.2804 10.32133,28.80216 2.40031,5.76043 2.16028,5.76043 2.64034,5.52042 2.88037,5.28039 3.1204,5.2804 3.60046,4.80036 3.8405,4.56034 4.08052,4.56034 4.56059,4.08031 8.88115,8.40063 23.28299,20.40153 4.56059,4.0803 4.32056,4.32033 4.08052,4.32032 4.08053,4.56034 3.36043,4.80036 3.36043,5.2804 2.64034,5.76043 2.64034,5.76043 2.16028,6.00045 2.16028,6.00045 4.08053,12.48094 5.76074,18.7214 7.68099,24.96187 3.36043,12.48094 3.36043,12.48094 1.20016,6.24046 1.20015,6.24047 0.72009,6.24047 0.24004,6.24047 -0.24004,5.76043 -2.16027,17.52131 -0.24003,5.52042 0.24003,5.76043 0.96012,5.28039 1.44019,5.04038 1.68021,5.04038 2.16028,5.04038 6.9609,15.60117 2.16028,5.04038 1.68021,5.52041 1.44019,5.76043 1.20015,6.00045 0.72009,6.24047 1.44019,12.48094 0.96012,6.96052 1.68022,7.20054 2.16028,7.20054 2.88037,6.7205 3.36043,5.76043 3.60047,4.32033 3.84049,3.60027 3.1204,2.40018 2.40031,1.20009 1.20016,0.48003 z"
           stroke-miterlimit="10"
           clip-path="url(#SVG_CP_1)"
           inkscape:connector-curvature="0"
           style="fill:none;stroke:#e74c3c;stroke-width:8.17628956;stroke-linecap:round;stroke-linejoin:round;stroke-miterlimit:4;stroke-opacity:1;stroke-dasharray:none"
           transform="matrix(0.99117278,0,0,0.99117278,0.8804898,0.34864957)" />
      </g>
    </g>
    <g
       id="Layers-3"
       transform="matrix(1.0994901,0,0,1.0994901,-43.957408,-585.59247)"
       style="fill:none;stroke:#f39c12;stroke-width:8.10411549;stroke-miterlimit:4;stroke-opacity:1;stroke-dasharray:none">
      <g
         id="ScottCounty_general4-3"
         style="fill:none;stroke:#f39c12;stroke-width:8.10411549;stroke-miterlimit:4;stroke-opacity:1;stroke-dasharray:none">
        <clipPath
           id="clipPath4719">
          <path
             id="path4721"
             d="M 0,667.50236 0,0 l 620.24882,0 0,667.50236 -620.24882,0 z"
             inkscape:connector-curvature="0" />
        </clipPath>
        <path
           id="path4035-4"
           d="m 524.70758,482.43617 -170.66198,82.56619 -89.2915,43.44326 -11.52149,5.76043 -11.28145,5.04038 -5.28068,2.40018 -5.04065,1.68013 -4.32056,1.4401 -3.60046,0.48004 -2.40031,-0.24002 -1.20015,-1.20009 -0.48006,-1.68012 0.24003,-2.16017 0.48006,-1.92014 0.72009,-1.92014 1.92025,-3.12024 0.48006,-1.68012 0,-2.40018 -0.48006,-2.88022 -1.68022,-6.48049 -0.48006,-3.60027 0,-3.84028 0.24003,-7.44056 -0.48006,-3.12024 -0.72009,-2.40018 -0.7201,-2.16016 -0.96012,-2.40018 -0.24003,-2.88021 -0.48006,-6.96052 -0.7201,-3.36026 -1.20015,-2.64019 -2.64034,-5.52042 -1.20015,-2.6402 -0.96013,-3.36025 -1.20015,-6.48048 -0.96013,-3.12024 -1.20015,-3.12023 -2.40031,-2.6402 -3.1204,-2.40018 -3.36043,-1.68013 -3.60047,-1.4401 -3.84049,-0.96008 -3.8405,-0.24001 -3.36043,0.48003 -3.36043,1.44011 -5.76075,3.60027 -2.88037,1.20009 -2.64034,0.24002 -9.12117,-1.44011 -4.56059,-0.24002 -4.56059,0.24002 -5.04064,-0.24002 -5.04065,-0.72005 -4.80062,-1.44011 -4.56059,-2.16016 -4.32056,-3.12024 -4.32055,-3.36025 -3.60047,-3.84029 -3.1204,-4.56034 -2.16028,-5.28039 -1.68021,-5.52042 -1.20016,-5.76043 -0.96012,-6.24047 -0.72009,-6.24047 -0.48007,-6.24046 -0.24003,-6.48049 -0.48006,-12.96097 -1.44018,-45.12338 -1.20016,-32.16242 -1.20015,-32.16241 -1.92025,-38.64289 -0.48006,-12.72096 -0.24003,-12.72095 0.24003,-6.24047 0.48006,-6.00045 0.48006,-6.24047 1.20016,-5.76043 1.92024,-5.52041 2.64034,-5.2804 3.12041,-5.04038 3.84049,-4.80036 4.08053,-4.56034 4.32055,-4.80036 8.88115,-8.88067 9.3612,-8.88066 42.7255,-39.84299 28.08362,-26.642 32.88424,-31.20234 42.48547,-40.80305 9.3612,-9.12069 9.36121,-8.40063 4.56059,-3.60027 4.56058,-3.60027 4.32056,-2.88021 4.08053,-2.16017 4.08052,-1.20009 3.60046,0 2.88038,1.68013 2.88037,2.88022 2.40031,3.84028 2.4003,4.56035 2.16028,5.04037 2.16028,5.2804 10.32133,28.80216 2.40031,5.76043 2.16028,5.76043 2.64034,5.52042 2.88037,5.28039 3.1204,5.2804 3.60046,4.80036 3.8405,4.56034 4.08052,4.56034 4.56059,4.08031 8.88115,8.40063 23.28299,20.40153 4.56059,4.0803 4.32056,4.32033 4.08052,4.32032 4.08053,4.56034 3.36043,4.80036 3.36043,5.2804 2.64034,5.76043 2.64034,5.76043 2.16028,6.00045 2.16028,6.00045 4.08053,12.48094 5.76074,18.7214 7.68099,24.96187 3.36043,12.48094 3.36043,12.48094 1.20016,6.24046 1.20015,6.24047 0.72009,6.24047 0.24004,6.24047 -0.24004,5.76043 -2.16027,17.52131 -0.24003,5.52042 0.24003,5.76043 0.96012,5.28039 1.44019,5.04038 1.68021,5.04038 2.16028,5.04038 6.9609,15.60117 2.16028,5.04038 1.68021,5.52041 1.44019,5.76043 1.20015,6.00045 0.72009,6.24047 1.44019,12.48094 0.96012,6.96052 1.68022,7.20054 2.16028,7.20054 2.88037,6.7205 3.36043,5.76043 3.60047,4.32033 3.84049,3.60027 3.1204,2.40018 2.40031,1.20009 1.20016,0.48003 z"
           stroke-miterlimit="10"
           clip-path="url(#SVG_CP_1-1)"
           inkscape:connector-curvature="0"
           style="fill:none;stroke:#f39c12;stroke-width:8.17628956;stroke-linecap:round;stroke-linejoin:round;stroke-miterlimit:4;stroke-opacity:1;stroke-dasharray:none"
           transform="matrix(0.99117278,0,0,0.99117278,0.8804898,0.34864957)" />
      </g>
    </g>
    <g
       id="Layers-3-3"
       transform="matrix(1.0994901,0,0,1.0994901,-3.860633,-585.59247)"
       style="fill:none;stroke:#2ecc71;stroke-width:8.10411549;stroke-miterlimit:4;stroke-opacity:1;stroke-dasharray:none">
      <g
         id="ScottCounty_general4-3-8"
         style="fill:none;stroke:#2ecc71;stroke-width:8.10411549;stroke-miterlimit:4;stroke-opacity:1;stroke-dasharray:none">
        <clipPath
           id="clipPath4719-7">
          <path
             id="path4721-4"
             d="M 0,667.50236 0,0 l 620.24882,0 0,667.50236 -620.24882,0 z"
             inkscape:connector-curvature="0" />
        </clipPath>
        <path
           id="path4035-4-2"
           d="m 524.70758,482.43617 -170.66198,82.56619 -89.2915,43.44326 -11.52149,5.76043 -11.28145,5.04038 -5.28068,2.40018 -5.04065,1.68013 -4.32056,1.4401 -3.60046,0.48004 -2.40031,-0.24002 -1.20015,-1.20009 -0.48006,-1.68012 0.24003,-2.16017 0.48006,-1.92014 0.72009,-1.92014 1.92025,-3.12024 0.48006,-1.68012 0,-2.40018 -0.48006,-2.88022 -1.68022,-6.48049 -0.48006,-3.60027 0,-3.84028 0.24003,-7.44056 -0.48006,-3.12024 -0.72009,-2.40018 -0.7201,-2.16016 -0.96012,-2.40018 -0.24003,-2.88021 -0.48006,-6.96052 -0.7201,-3.36026 -1.20015,-2.64019 -2.64034,-5.52042 -1.20015,-2.6402 -0.96013,-3.36025 -1.20015,-6.48048 -0.96013,-3.12024 -1.20015,-3.12023 -2.40031,-2.6402 -3.1204,-2.40018 -3.36043,-1.68013 -3.60047,-1.4401 -3.84049,-0.96008 -3.8405,-0.24001 -3.36043,0.48003 -3.36043,1.44011 -5.76075,3.60027 -2.88037,1.20009 -2.64034,0.24002 -9.12117,-1.44011 -4.56059,-0.24002 -4.56059,0.24002 -5.04064,-0.24002 -5.04065,-0.72005 -4.80062,-1.44011 -4.56059,-2.16016 -4.32056,-3.12024 -4.32055,-3.36025 -3.60047,-3.84029 -3.1204,-4.56034 -2.16028,-5.28039 -1.68021,-5.52042 -1.20016,-5.76043 -0.96012,-6.24047 -0.72009,-6.24047 -0.48007,-6.24046 -0.24003,-6.48049 -0.48006,-12.96097 -1.44018,-45.12338 -1.20016,-32.16242 -1.20015,-32.16241 -1.92025,-38.64289 -0.48006,-12.72096 -0.24003,-12.72095 0.24003,-6.24047 0.48006,-6.00045 0.48006,-6.24047 1.20016,-5.76043 1.92024,-5.52041 2.64034,-5.2804 3.12041,-5.04038 3.84049,-4.80036 4.08053,-4.56034 4.32055,-4.80036 8.88115,-8.88067 9.3612,-8.88066 42.7255,-39.84299 28.08362,-26.642 32.88424,-31.20234 42.48547,-40.80305 9.3612,-9.12069 9.36121,-8.40063 4.56059,-3.60027 4.56058,-3.60027 4.32056,-2.88021 4.08053,-2.16017 4.08052,-1.20009 3.60046,0 2.88038,1.68013 2.88037,2.88022 2.40031,3.84028 2.4003,4.56035 2.16028,5.04037 2.16028,5.2804 10.32133,28.80216 2.40031,5.76043 2.16028,5.76043 2.64034,5.52042 2.88037,5.28039 3.1204,5.2804 3.60046,4.80036 3.8405,4.56034 4.08052,4.56034 4.56059,4.08031 8.88115,8.40063 23.28299,20.40153 4.56059,4.0803 4.32056,4.32033 4.08052,4.32032 4.08053,4.56034 3.36043,4.80036 3.36043,5.2804 2.64034,5.76043 2.64034,5.76043 2.16028,6.00045 2.16028,6.00045 4.08053,12.48094 5.76074,18.7214 7.68099,24.96187 3.36043,12.48094 3.36043,12.48094 1.20016,6.24046 1.20015,6.24047 0.72009,6.24047 0.24004,6.24047 -0.24004,5.76043 -2.16027,17.52131 -0.24003,5.52042 0.24003,5.76043 0.96012,5.28039 1.44019,5.04038 1.68021,5.04038 2.16028,5.04038 6.9609,15.60117 2.16028,5.04038 1.68021,5.52041 1.44019,5.76043 1.20015,6.00045 0.72009,6.24047 1.44019,12.48094 0.96012,6.96052 1.68022,7.20054 2.16028,7.20054 2.88037,6.7205 3.36043,5.76043 3.60047,4.32033 3.84049,3.60027 3.1204,2.40018 2.40031,1.20009 1.20016,0.48003 z"
           stroke-miterlimit="10"
           clip-path="url(#SVG_CP_1-1-1)"
           inkscape:connector-curvature="0"
           style="fill:none;stroke:#2ecc71;stroke-width:8.17628956;stroke-linecap:round;stroke-linejoin:round;stroke-miterlimit:4;stroke-opacity:1;stroke-dasharray:none"
           transform="matrix(0.99117278,0,0,0.99117278,0.8804898,0.34864957)" />
      </g>
    </g>
    <g
       id="Layers-3-3-9"
       transform="matrix(1.0997736,0,0,1.0994901,36.207575,-585.59275)"
       style="fill:none;stroke:#3498db;stroke-width:8.10307026;stroke-miterlimit:4;stroke-opacity:1;stroke-dasharray:none">
      <g
         id="ScottCounty_general4-3-8-3"
         style="fill:none;stroke:#3498db;stroke-width:8.10307026;stroke-miterlimit:4;stroke-opacity:1;stroke-dasharray:none">
        <clipPath
           id="clipPath4719-7-1">
          <path
             id="path4721-4-9"
             d="M 0,667.50236 0,0 l 620.24882,0 0,667.50236 -620.24882,0 z"
             inkscape:connector-curvature="0" />
        </clipPath>
        <path
           id="path4035-4-2-8"
           d="m 524.70758,482.43617 -170.66198,82.56619 -89.2915,43.44326 -11.52149,5.76043 -11.28145,5.04038 -5.28068,2.40018 -5.04065,1.68013 -4.32056,1.4401 -3.60046,0.48004 -2.40031,-0.24002 -1.20015,-1.20009 -0.48006,-1.68012 0.24003,-2.16017 0.48006,-1.92014 0.72009,-1.92014 1.92025,-3.12024 0.48006,-1.68012 0,-2.40018 -0.48006,-2.88022 -1.68022,-6.48049 -0.48006,-3.60027 0,-3.84028 0.24003,-7.44056 -0.48006,-3.12024 -0.72009,-2.40018 -0.7201,-2.16016 -0.96012,-2.40018 -0.24003,-2.88021 -0.48006,-6.96052 -0.7201,-3.36026 -1.20015,-2.64019 -2.64034,-5.52042 -1.20015,-2.6402 -0.96013,-3.36025 -1.20015,-6.48048 -0.96013,-3.12024 -1.20015,-3.12023 -2.40031,-2.6402 -3.1204,-2.40018 -3.36043,-1.68013 -3.60047,-1.4401 -3.84049,-0.96008 -3.8405,-0.24001 -3.36043,0.48003 -3.36043,1.44011 -5.76075,3.60027 -2.88037,1.20009 -2.64034,0.24002 -9.12117,-1.44011 -4.56059,-0.24002 -4.56059,0.24002 -5.04064,-0.24002 -5.04065,-0.72005 -4.80062,-1.44011 -4.56059,-2.16016 -4.32056,-3.12024 -4.32055,-3.36025 -3.60047,-3.84029 -3.1204,-4.56034 -2.16028,-5.28039 -1.68021,-5.52042 -1.20016,-5.76043 -0.96012,-6.24047 -0.72009,-6.24047 -0.48007,-6.24046 -0.24003,-6.48049 -0.48006,-12.96097 -1.44018,-45.12338 -1.20016,-32.16242 -1.20015,-32.16241 -1.92025,-38.64289 -0.48006,-12.72096 -0.24003,-12.72095 0.24003,-6.24047 0.48006,-6.00045 0.48006,-6.24047 1.20016,-5.76043 1.92024,-5.52041 2.64034,-5.2804 3.12041,-5.04038 3.84049,-4.80036 4.08053,-4.56034 4.32055,-4.80036 8.88115,-8.88067 9.3612,-8.88066 42.7255,-39.84299 28.08362,-26.642 32.88424,-31.20234 42.48547,-40.80305 9.3612,-9.12069 9.36121,-8.40063 4.56059,-3.60027 4.56058,-3.60027 4.32056,-2.88021 4.08053,-2.16017 4.08052,-1.20009 3.60046,0 2.88038,1.68013 2.88037,2.88022 2.40031,3.84028 2.4003,4.56035 2.16028,5.04037 2.16028,5.2804 10.32133,28.80216 2.40031,5.76043 2.16028,5.76043 2.64034,5.52042 2.88037,5.28039 3.1204,5.2804 3.60046,4.80036 3.8405,4.56034 4.08052,4.56034 4.56059,4.08031 8.88115,8.40063 23.28299,20.40153 4.56059,4.0803 4.32056,4.32033 4.08052,4.32032 4.08053,4.56034 3.36043,4.80036 3.36043,5.2804 2.64034,5.76043 2.64034,5.76043 2.16028,6.00045 2.16028,6.00045 4.08053,12.48094 5.76074,18.7214 7.68099,24.96187 3.36043,12.48094 3.36043,12.48094 1.20016,6.24046 1.20015,6.24047 0.72009,6.24047 0.24004,6.24047 -0.24004,5.76043 -2.16027,17.52131 -0.24003,5.52042 0.24003,5.76043 0.96012,5.28039 1.44019,5.04038 1.68021,5.04038 2.16028,5.04038 6.9609,15.60117 2.16028,5.04038 1.68021,5.52041 1.44019,5.76043 1.20015,6.00045 0.72009,6.24047 1.44019,12.48094 0.96012,6.96052 1.68022,7.20054 2.16028,7.20054 2.88037,6.7205 3.36043,5.76043 3.60047,4.32033 3.84049,3.60027 3.1204,2.40018 2.40031,1.20009 1.20016,0.48003 z"
           stroke-miterlimit="10"
           clip-path="url(#SVG_CP_1-1-1-7)"
           inkscape:connector-curvature="0"
           style="fill:none;stroke:#3498db;stroke-width:8.17523479;stroke-linecap:round;stroke-linejoin:round;stroke-miterlimit:4;stroke-opacity:1;stroke-dasharray:none"
           transform="matrix(0.99117278,0,0,0.99117278,0.8804898,0.34864957)" />
      </g>
    </g>
    <g
       id="Layers-3-3-9-0"
       transform="matrix(1.0997736,0,0,1.0994901,76.304349,-585.59275)"
       style="fill:none;stroke:#9b59b6;stroke-width:8.10307026;stroke-miterlimit:4;stroke-opacity:1;stroke-dasharray:none">
      <g
         id="ScottCounty_general4-3-8-3-2"
         style="fill:none;stroke:#9b59b6;stroke-width:8.10307026;stroke-miterlimit:4;stroke-opacity:1;stroke-dasharray:none">
        <clipPath
           id="clipPath4719-7-1-8">
          <path
             id="path4721-4-9-6"
             d="M 0,667.50236 0,0 l 620.24882,0 0,667.50236 -620.24882,0 z"
             inkscape:connector-curvature="0" />
        </clipPath>
        <path
           id="path4035-4-2-8-0"
           d="m 524.70758,482.43617 -170.66198,82.56619 -89.2915,43.44326 -11.52149,5.76043 -11.28145,5.04038 -5.28068,2.40018 -5.04065,1.68013 -4.32056,1.4401 -3.60046,0.48004 -2.40031,-0.24002 -1.20015,-1.20009 -0.48006,-1.68012 0.24003,-2.16017 0.48006,-1.92014 0.72009,-1.92014 1.92025,-3.12024 0.48006,-1.68012 0,-2.40018 -0.48006,-2.88022 -1.68022,-6.48049 -0.48006,-3.60027 0,-3.84028 0.24003,-7.44056 -0.48006,-3.12024 -0.72009,-2.40018 -0.7201,-2.16016 -0.96012,-2.40018 -0.24003,-2.88021 -0.48006,-6.96052 -0.7201,-3.36026 -1.20015,-2.64019 -2.64034,-5.52042 -1.20015,-2.6402 -0.96013,-3.36025 -1.20015,-6.48048 -0.96013,-3.12024 -1.20015,-3.12023 -2.40031,-2.6402 -3.1204,-2.40018 -3.36043,-1.68013 -3.60047,-1.4401 -3.84049,-0.96008 -3.8405,-0.24001 -3.36043,0.48003 -3.36043,1.44011 -5.76075,3.60027 -2.88037,1.20009 -2.64034,0.24002 -9.12117,-1.44011 -4.56059,-0.24002 -4.56059,0.24002 -5.04064,-0.24002 -5.04065,-0.72005 -4.80062,-1.44011 -4.56059,-2.16016 -4.32056,-3.12024 -4.32055,-3.36025 -3.60047,-3.84029 -3.1204,-4.56034 -2.16028,-5.28039 -1.68021,-5.52042 -1.20016,-5.76043 -0.96012,-6.24047 -0.72009,-6.24047 -0.48007,-6.24046 -0.24003,-6.48049 -0.48006,-12.96097 -1.44018,-45.12338 -1.20016,-32.16242 -1.20015,-32.16241 -1.92025,-38.64289 -0.48006,-12.72096 -0.24003,-12.72095 0.24003,-6.24047 0.48006,-6.00045 0.48006,-6.24047 1.20016,-5.76043 1.92024,-5.52041 2.64034,-5.2804 3.12041,-5.04038 3.84049,-4.80036 4.08053,-4.56034 4.32055,-4.80036 8.88115,-8.88067 9.3612,-8.88066 42.7255,-39.84299 28.08362,-26.642 32.88424,-31.20234 42.48547,-40.80305 9.3612,-9.12069 9.36121,-8.40063 4.56059,-3.60027 4.56058,-3.60027 4.32056,-2.88021 4.08053,-2.16017 4.08052,-1.20009 3.60046,0 2.88038,1.68013 2.88037,2.88022 2.40031,3.84028 2.4003,4.56035 2.16028,5.04037 2.16028,5.2804 10.32133,28.80216 2.40031,5.76043 2.16028,5.76043 2.64034,5.52042 2.88037,5.28039 3.1204,5.2804 3.60046,4.80036 3.8405,4.56034 4.08052,4.56034 4.56059,4.08031 8.88115,8.40063 23.28299,20.40153 4.56059,4.0803 4.32056,4.32033 4.08052,4.32032 4.08053,4.56034 3.36043,4.80036 3.36043,5.2804 2.64034,5.76043 2.64034,5.76043 2.16028,6.00045 2.16028,6.00045 4.08053,12.48094 5.76074,18.7214 7.68099,24.96187 3.36043,12.48094 3.36043,12.48094 1.20016,6.24046 1.20015,6.24047 0.72009,6.24047 0.24004,6.24047 -0.24004,5.76043 -2.16027,17.52131 -0.24003,5.52042 0.24003,5.76043 0.96012,5.28039 1.44019,5.04038 1.68021,5.04038 2.16028,5.04038 6.9609,15.60117 2.16028,5.04038 1.68021,5.52041 1.44019,5.76043 1.20015,6.00045 0.72009,6.24047 1.44019,12.48094 0.96012,6.96052 1.68022,7.20054 2.16028,7.20054 2.88037,6.7205 3.36043,5.76043 3.60047,4.32033 3.84049,3.60027 3.1204,2.40018 2.40031,1.20009 1.20016,0.48003 z"
           stroke-miterlimit="10"
           clip-path="url(#SVG_CP_1-1-1-7-6)"
           inkscape:connector-curvature="0"
           style="fill:none;stroke:#9b59b6;stroke-width:8.17523479;stroke-linecap:round;stroke-linejoin:round;stroke-miterlimit:4;stroke-opacity:1;stroke-dasharray:none"
           transform="matrix(0.99117278,0,0,0.99117278,0.8804898,0.34864957)" />
      </g>
    </g>
  </g>
  <g
     inkscape:label="Layer 1"
     inkscape:groupmode="layer"
     id="layer1"
     transform="translate(0,-252.3598)"
     style="stroke:#34495e;stroke-width:1.25;stroke-miterlimit:4;stroke-opacity:1;stroke-dasharray:none"
     sodipodi:insensitive="true">
    <g
       transform="matrix(4.7433009,0,0,4.7433009,1073.2405,926.25203)"
       style="font-size:40px;font-style:normal;font-variant:normal;font-weight:normal;font-stretch:normal;line-height:125%;letter-spacing:0px;word-spacing:0px;fill:#ffffff;fill-opacity:1;stroke:#34495e;stroke-width:0.93926096;stroke-miterlimit:4;stroke-opacity:1;stroke-dasharray:none;font-family:Orbitron;-inkscape-font-specification:Orbitron"
       id="flowRoot4004">
      <path
         d="m -184.60547,-56.059409 c -4e-5,-1.562478 -0.16931,-2.799456 -0.50781,-3.710938 -0.33858,-0.911433 -0.89847,-1.601536 -1.67969,-2.070312 -0.78128,-0.468723 -1.80993,-0.768202 -3.08594,-0.898438 -1.27607,-0.130181 -2.85159,-0.195285 -4.72656,-0.195312 l -10.03906,0 c -1.66668,2.7e-5 -3.06968,0.04886 -4.20899,0.146484 -1.13933,0.09768 -2.08008,0.296251 -2.82226,0.595703 -0.7422,0.299506 -1.31511,0.729193 -1.71875,1.289063 -0.40365,0.55992 -0.69662,1.302107 -0.87891,2.226562 -0.1823,0.924502 -0.28646,2.060568 -0.3125,3.408203 -0.026,1.347675 -0.0391,2.959002 -0.0391,4.833985 -10e-6,1.875013 0.0163,3.486339 0.0488,4.833984 0.0325,1.347665 0.13997,2.483732 0.32226,3.408203 0.18229,0.924485 0.472,1.666672 0.86914,2.226563 0.39713,0.559899 0.96679,0.989587 1.70899,1.289062 0.74218,0.299482 1.68293,0.49805 2.82226,0.595703 1.13931,0.09766 2.54231,0.146487 4.20899,0.146485 l 10.05859,0 c 1.45831,2e-6 2.71482,-0.03906 3.76953,-0.117188 1.05466,-0.07812 1.9531,-0.221351 2.69532,-0.429687 0.74215,-0.20833 1.34111,-0.494788 1.79687,-0.859375 0.4557,-0.364579 0.81051,-0.823563 1.06445,-1.376953 0.25387,-0.55338 0.4264,-1.217442 0.51758,-1.992188 0.0911,-0.774731 0.13668,-1.682934 0.13672,-2.724609 l 0,-1.875 -15.03906,0 0,-3.125 18.78906,0 0,5 c -4e-5,1.250008 -0.0782,2.379565 -0.23437,3.388672 -0.15629,1.00912 -0.43299,1.907556 -0.83008,2.695312 -0.39718,0.787764 -0.92777,1.468101 -1.5918,2.041016 -0.6641,0.572918 -1.50394,1.044922 -2.51953,1.416015 -1.01566,0.371094 -2.2266,0.644531 -3.63281,0.820313 -1.40628,0.17578 -3.04691,0.263671 -4.92188,0.263672 l -10.05859,0 c -2.29168,-10e-7 -4.22202,-0.139975 -5.79102,-0.419922 -1.56902,-0.279948 -2.86133,-0.703125 -3.87695,-1.269531 -1.01563,-0.566405 -1.80013,-1.279295 -2.35352,-2.138672 -0.55338,-0.859371 -0.95703,-1.868485 -1.21093,-3.027344 -0.25391,-1.158847 -0.4004,-2.467439 -0.43946,-3.925781 -0.0391,-1.458322 -0.0586,-3.072904 -0.0586,-4.84375 0,-1.770817 0.0195,-3.385399 0.0586,-4.84375 0.0391,-1.458312 0.18555,-2.766905 0.43946,-3.925782 0.2539,-1.158829 0.65755,-2.167942 1.21093,-3.027343 0.55339,-0.859348 1.33789,-1.572238 2.35352,-2.138672 1.01562,-0.566377 2.30793,-0.989554 3.87695,-1.269531 1.569,-0.279918 3.49934,-0.419892 5.79102,-0.419922 l 10.03906,0 c 1.87497,3e-5 3.5156,0.08792 4.92188,0.263672 1.40621,0.175811 2.61715,0.442738 3.63281,0.800781 1.01559,0.358102 1.85869,0.810575 2.5293,1.357422 0.67053,0.546902 1.20438,1.191433 1.60156,1.933593 0.39709,0.742213 0.67379,1.582056 0.83008,2.519532 0.15621,0.937522 0.23433,1.979188 0.23437,3.125 z"
         style="fill:#ffffff;fill-opacity:1;stroke:#34495e;stroke-width:0.93926096;stroke-miterlimit:4;stroke-opacity:1;stroke-dasharray:none;font-family:Michroma;-inkscape-font-specification:Michroma"
         id="path4855"
         inkscape:connector-curvature="0" />
      <path
         d="m -155.71875,-52.309409 c 2.05727,1.7e-5 3.82159,0.08465 5.29297,0.253906 1.47132,0.169287 2.71156,0.419938 3.7207,0.751953 1.00908,0.332047 1.81312,0.745458 2.41211,1.240234 0.59892,0.494806 1.06116,1.057957 1.38672,1.689454 0.32549,0.631522 0.53707,1.337902 0.63477,2.11914 0.0976,0.78126 0.14644,1.627614 0.14648,2.539063 -4e-5,0.911465 -0.0814,1.767584 -0.24414,2.568359 -0.1628,0.800786 -0.45251,1.533207 -0.86914,2.197266 -0.4167,0.664065 -0.98311,1.256512 -1.69922,1.777343 -0.71618,0.520835 -1.62764,0.963543 -2.73437,1.328125 -1.10681,0.364584 -2.43818,0.641276 -3.99415,0.830079 -1.55601,0.188801 -3.37567,0.283202 -5.45898,0.283203 l -5,0 c -1.87501,-10e-7 -3.51564,-0.07162 -4.92187,-0.214844 -1.40626,-0.14323 -2.6172,-0.361328 -3.63282,-0.654297 -1.01563,-0.292968 -1.85547,-0.664062 -2.51953,-1.113281 -0.66407,-0.449217 -1.19466,-0.97656 -1.5918,-1.582031 -0.39713,-0.605466 -0.67383,-1.295569 -0.83007,-2.070313 -0.15626,-0.774734 -0.23438,-1.630853 -0.23438,-2.568359 l 3.75,0 c -1e-5,1.171881 0.16927,2.089849 0.50781,2.753906 0.33854,0.664066 0.89843,1.162113 1.67969,1.494141 0.78124,0.332034 1.80663,0.540367 3.07617,0.625 1.26952,0.08464 2.84179,0.126955 4.7168,0.126953 l 5,0 c 2.18748,2e-6 4.00388,-0.104164 5.44922,-0.3125 1.44528,-0.208331 2.59763,-0.540362 3.45703,-0.996094 0.85934,-0.455725 1.46481,-1.051428 1.81641,-1.787109 0.35153,-0.735671 0.52731,-1.630853 0.52734,-2.685547 -3e-5,-1.054679 -0.12048,-1.933584 -0.36133,-2.636719 -0.24092,-0.703113 -0.71618,-1.263009 -1.42578,-1.679688 -0.70966,-0.416653 -1.70901,-0.712877 -2.99805,-0.888671 -1.28909,-0.175768 -2.97528,-0.263659 -5.05859,-0.263672 l -5.15625,0 c -2.29168,1.3e-5 -4.25457,-0.08462 -5.88867,-0.253907 -1.63413,-0.169256 -3.00457,-0.413397 -4.11133,-0.732421 -1.10678,-0.318996 -1.99219,-0.716131 -2.65625,-1.191407 -0.66407,-0.475244 -1.16862,-1.018863 -1.51367,-1.630859 -0.34506,-0.611961 -0.56967,-1.292299 -0.67383,-2.041016 -0.10417,-0.748677 -0.15625,-1.559223 -0.15625,-2.43164 0,-0.911436 0.0814,-1.757789 0.24414,-2.539063 0.16276,-0.781224 0.46549,-1.487604 0.9082,-2.11914 0.44271,-0.631484 1.04818,-1.194634 1.81641,-1.689454 0.76822,-0.494762 1.75455,-0.908173 2.95898,-1.240234 1.20442,-0.332001 2.65299,-0.582652 4.34571,-0.751953 1.69269,-0.16924 3.68488,-0.253876 5.97656,-0.253906 l 3.75,0 c 1.87498,3e-5 3.5156,0.06839 4.92188,0.205078 1.40622,0.136749 2.61715,0.351592 3.63281,0.644531 1.01559,0.292998 1.85869,0.657581 2.52929,1.09375 0.67054,0.436226 1.2044,0.957059 1.60157,1.5625 0.3971,0.605495 0.67379,1.292344 0.83008,2.060547 0.15621,0.768253 0.23433,1.621117 0.23437,2.558594 l -3.75,0 c -3e-5,-1.171852 -0.1693,-2.08982 -0.50781,-2.753907 -0.33858,-0.664036 -0.89847,-1.162083 -1.67969,-1.49414 -0.78128,-0.332004 -1.80992,-0.540338 -3.08594,-0.625 -1.27607,-0.08461 -2.85158,-0.126926 -4.72656,-0.126953 l -3.75,0 c -2.50002,2.7e-5 -4.55731,0.08792 -6.17187,0.263672 -1.6146,0.175808 -2.89064,0.472032 -3.82813,0.888671 -0.93751,0.416693 -1.58855,0.976588 -1.95312,1.679688 -0.36459,0.703149 -0.54689,1.582054 -0.54688,2.636719 -1e-5,0.651063 0.0456,1.230489 0.13672,1.738281 0.0911,0.507832 0.27668,0.953795 0.55664,1.337891 0.27994,0.384133 0.67382,0.706398 1.18164,0.966796 0.5078,0.260435 1.17838,0.475278 2.01172,0.644532 0.83332,0.169288 1.8522,0.28973 3.05664,0.361328 1.20441,0.07163 2.63996,0.107439 4.30664,0.107422 z"
         style="fill:#ffffff;fill-opacity:1;stroke:#34495e;stroke-width:0.93926096;stroke-miterlimit:4;stroke-opacity:1;stroke-dasharray:none;font-family:Michroma;-inkscape-font-specification:Michroma"
         id="path4857"
         inkscape:connector-curvature="0" />
      <path
         d="m -104.64453,-56.059409 c -4e-5,-1.562478 -0.16931,-2.799456 -0.50781,-3.710938 -0.33858,-0.911433 -0.89847,-1.601536 -1.67969,-2.070312 -0.78128,-0.468723 -1.80667,-0.768202 -3.07617,-0.898438 -1.26956,-0.130181 -2.84183,-0.195285 -4.7168,-0.195312 l -8.76953,0 c -1.66668,2.7e-5 -3.06968,0.04886 -4.20899,0.146484 -1.13933,0.09768 -2.08008,0.296251 -2.82226,0.595703 -0.7422,0.299506 -1.31511,0.729193 -1.71875,1.289063 -0.40365,0.55992 -0.69662,1.302107 -0.87891,2.226562 -0.1823,0.924502 -0.28646,2.060568 -0.3125,3.408203 -0.026,1.347675 -0.0391,2.959002 -0.0391,4.833985 -10e-6,1.875013 0.0163,3.486339 0.0488,4.833984 0.0325,1.347665 0.13997,2.483732 0.32226,3.408203 0.18229,0.924485 0.472,1.666672 0.86914,2.226563 0.39713,0.559899 0.96679,0.989587 1.70899,1.289062 0.74218,0.299482 1.68293,0.49805 2.82226,0.595703 1.13931,0.09766 2.54231,0.146487 4.20899,0.146485 l 8.76953,0 c 1.45831,2e-6 2.71482,-0.03906 3.76953,-0.117188 1.05466,-0.07812 1.9531,-0.221351 2.69531,-0.429687 0.74216,-0.20833 1.34112,-0.494788 1.79688,-0.859375 0.45569,-0.364579 0.81051,-0.823563 1.06445,-1.376953 0.25387,-0.55338 0.4264,-1.217442 0.51758,-1.992188 0.0911,-0.774731 0.13668,-1.682934 0.13672,-2.724609 l 3.75,0 c -4e-5,1.250008 -0.0782,2.379565 -0.23438,3.388672 -0.15628,1.00912 -0.43298,1.907556 -0.83007,2.695312 -0.39718,0.787764 -0.92778,1.468101 -1.5918,2.041016 -0.6641,0.572918 -1.50394,1.044922 -2.51953,1.416015 -1.01566,0.371094 -2.2266,0.644531 -3.63282,0.820313 -1.40627,0.17578 -3.0469,0.263671 -4.92187,0.263672 l -8.76953,0 c -2.29168,-10e-7 -4.22202,-0.139975 -5.79102,-0.419922 -1.56902,-0.279948 -2.86133,-0.703125 -3.87695,-1.269531 -1.01563,-0.566405 -1.80013,-1.279295 -2.35352,-2.138672 -0.55338,-0.859371 -0.95703,-1.868485 -1.21093,-3.027344 -0.25391,-1.158847 -0.4004,-2.467439 -0.43946,-3.925781 -0.0391,-1.458322 -0.0586,-3.072904 -0.0586,-4.84375 0,-1.770817 0.0195,-3.385399 0.0586,-4.84375 0.0391,-1.458312 0.18555,-2.766905 0.43946,-3.925782 0.2539,-1.158829 0.65755,-2.167942 1.21093,-3.027343 0.55339,-0.859348 1.33789,-1.572238 2.35352,-2.138672 1.01562,-0.566377 2.30793,-0.989554 3.87695,-1.269531 1.569,-0.279918 3.49934,-0.419892 5.79102,-0.419922 l 8.76953,0 c 1.87497,3e-5 3.5156,0.08792 4.92187,0.263672 1.40622,0.175811 2.61716,0.442738 3.63282,0.800781 1.01559,0.358102 1.85543,0.810575 2.51953,1.357422 0.66402,0.546902 1.19462,1.191433 1.5918,1.933593 0.39709,0.742213 0.67379,1.582056 0.83007,2.519532 0.15622,0.937522 0.23434,1.979188 0.23438,3.125 z"
         style="fill:#ffffff;fill-opacity:1;stroke:#34495e;stroke-width:0.93926096;stroke-miterlimit:4;stroke-opacity:1;stroke-dasharray:none;font-family:Michroma;-inkscape-font-specification:Michroma"
         id="path4859"
         inkscape:connector-curvature="0" />
      <path
         d="m -94.625,-65.434409 22.539063,0 c 1.861951,3e-5 3.434215,0.08141 4.716796,0.24414 1.28252,0.16279 2.340462,0.406931 3.173829,0.732422 0.833298,0.32555 1.474573,0.729195 1.923828,1.210938 0.449182,0.481798 0.777958,1.048204 0.986328,1.699218 0.208296,0.651068 0.328738,1.380233 0.361328,2.1875 0.03251,0.807315 0.04879,1.699241 0.04883,2.675782 -3.8e-5,1.015645 -0.02282,1.953144 -0.06836,2.8125 -0.04561,0.859392 -0.19535,1.637386 -0.449219,2.333984 -0.253943,0.69663 -0.657589,1.308609 -1.210938,1.835938 -0.55342,0.527357 -1.34118,0.96681 -2.363281,1.318359 -1.022168,0.351575 -2.317739,0.618502 -3.886719,0.800781 -1.569038,0.182304 -3.499375,0.27345 -5.791015,0.273438 l -16.230469,0 0,11.875 -3.75,0 z m 3.75,15 16.230469,0 c 1.666641,1.5e-5 3.069634,-0.02928 4.208984,-0.08789 1.139294,-0.05858 2.080048,-0.166 2.822266,-0.322266 0.742156,-0.156234 1.315072,-0.377588 1.71875,-0.664062 0.403613,-0.286442 0.699836,-0.664046 0.888672,-1.132813 0.188768,-0.468732 0.299445,-1.031882 0.332031,-1.689453 0.03252,-0.657532 0.04879,-1.442037 0.04883,-2.353515 -3.4e-5,-0.846332 -0.01631,-1.575498 -0.04883,-2.1875 -0.03259,-0.611955 -0.143263,-1.126278 -0.332031,-1.542969 -0.188836,-0.416641 -0.485059,-0.748672 -0.888672,-0.996094 -0.403678,-0.247369 -0.976594,-0.439427 -1.71875,-0.576172 -0.742218,-0.136692 -1.682972,-0.224582 -2.822266,-0.263672 -1.13935,-0.03903 -2.542343,-0.05857 -4.208984,-0.05859 l -16.230469,0 z"
         style="fill:#ffffff;fill-opacity:1;stroke:#34495e;stroke-width:0.93926096;stroke-miterlimit:4;stroke-opacity:1;stroke-dasharray:none;font-family:Michroma;-inkscape-font-specification:Michroma"
         id="path4861"
         inkscape:connector-curvature="0" />
      <path
         d="m -24.644531,-56.059409 c -3.5e-5,-1.562478 -0.169306,-2.799456 -0.507813,-3.710938 -0.338576,-0.911433 -0.898471,-1.601536 -1.679687,-2.070312 -0.781282,-0.468723 -1.806672,-0.768202 -3.076172,-0.898438 -1.26956,-0.130181 -2.841824,-0.195285 -4.716797,-0.195312 l -8.769531,0 c -1.666681,2.7e-5 -3.069675,0.04886 -4.208985,0.146484 -1.139333,0.09768 -2.080088,0.296251 -2.822265,0.595703 -0.742196,0.299506 -1.315112,0.729193 -1.71875,1.289063 -0.403653,0.55992 -0.696622,1.302107 -0.878906,2.226562 -0.182299,0.924502 -0.286465,2.060568 -0.3125,3.408203 -0.02605,1.347675 -0.03907,2.959002 -0.03906,4.833985 -6e-6,1.875013 0.01627,3.486339 0.04883,4.833984 0.03255,1.347665 0.139968,2.483732 0.322266,3.408203 0.182285,0.924485 0.471998,1.666672 0.86914,2.226563 0.397128,0.559899 0.966789,0.989587 1.708985,1.289062 0.742177,0.299482 1.682932,0.49805 2.822265,0.595703 1.13931,0.09766 2.542304,0.146487 4.208985,0.146485 l 8.769531,0 c 1.458307,2e-6 2.714816,-0.03906 3.769531,-0.117188 1.054658,-0.07812 1.953095,-0.221351 2.695313,-0.429687 0.742155,-0.20833 1.341113,-0.494788 1.796875,-0.859375 0.455695,-0.364579 0.810513,-0.823563 1.064453,-1.376953 0.253872,-0.55338 0.426397,-1.217442 0.517578,-1.992188 0.09111,-0.774731 0.136684,-1.682934 0.136719,-2.724609 l 3.75,0 c -3.9e-5,1.250008 -0.07816,2.379565 -0.234375,3.388672 -0.156289,1.00912 -0.432981,1.907556 -0.830078,2.695312 -0.397173,0.787764 -0.927771,1.468101 -1.591797,2.041016 -0.664098,0.572918 -1.503941,1.044922 -2.519531,1.416015 -1.015658,0.371094 -2.226594,0.644531 -3.632813,0.820313 -1.406279,0.17578 -3.046902,0.263671 -4.921875,0.263672 l -8.769531,0 c -2.291681,-10e-7 -4.222017,-0.139975 -5.791016,-0.419922 -1.569019,-0.279948 -2.861336,-0.703125 -3.876953,-1.269531 -1.015631,-0.566405 -1.800135,-1.279295 -2.353516,-2.138672 -0.553389,-0.859371 -0.957034,-1.868485 -1.210937,-3.027344 -0.253909,-1.158847 -0.400393,-2.467439 -0.439453,-3.925781 -0.03907,-1.458322 -0.0586,-3.072904 -0.05859,-4.84375 -2e-6,-1.770817 0.01953,-3.385399 0.05859,-4.84375 0.03906,-1.458312 0.185544,-2.766905 0.439453,-3.925782 0.253903,-1.158829 0.657548,-2.167942 1.210937,-3.027343 0.553381,-0.859348 1.337885,-1.572238 2.353516,-2.138672 1.015617,-0.566377 2.307934,-0.989554 3.876953,-1.269531 1.568999,-0.279918 3.499335,-0.419892 5.791016,-0.419922 l 8.769531,0 c 1.874973,3e-5 3.515596,0.08792 4.921875,0.263672 1.406219,0.175811 2.617155,0.442738 3.632813,0.800781 1.01559,0.358102 1.855433,0.810575 2.519531,1.357422 0.664026,0.546902 1.194624,1.191433 1.591797,1.933593 0.397097,0.742213 0.673789,1.582056 0.830078,2.519532 0.156211,0.937522 0.234336,1.979188 0.234375,3.125 z"
         style="fill:#ffffff;fill-opacity:1;stroke:#34495e;stroke-width:0.93926096;stroke-miterlimit:4;stroke-opacity:1;stroke-dasharray:none;font-family:Michroma;-inkscape-font-specification:Michroma"
         id="path4863"
         inkscape:connector-curvature="0" />
    </g>
  </g>
  <g
     inkscape:groupmode="layer"
     id="layer2"
     inkscape:label="gis">
    <text
       xml:space="preserve"
       style="font-size:217.46426392px;font-style:normal;font-variant:normal;font-weight:bold;font-stretch:normal;text-align:start;line-height:125%;letter-spacing:0px;word-spacing:0px;writing-mode:lr-tb;text-anchor:start;fill:#ffffff;fill-opacity:1;stroke:none;font-family:Open Sans;-inkscape-font-specification:Open Sans Bold"
       x="634.62335"
       y="721.57288"
       id="text3810"
       sodipodi:linespacing="125%"><tspan
         sodipodi:role="line"
         id="tspan3812"
         x="634.62335"
         y="721.57288">GIS</tspan></text>
  </g>
</svg>
