<?xml version="1.0" encoding="UTF-8" standalone="no"?>
<!-- Created with Inkscape (http://www.inkscape.org/) -->

<svg
   xmlns:dc="http://purl.org/dc/elements/1.1/"
   xmlns:cc="http://creativecommons.org/ns#"
   xmlns:rdf="http://www.w3.org/1999/02/22-rdf-syntax-ns#"
   xmlns:svg="http://www.w3.org/2000/svg"
   xmlns="http://www.w3.org/2000/svg"
   xmlns:sodipodi="http://sodipodi.sourceforge.net/DTD/sodipodi-0.dtd"
   xmlns:inkscape="http://www.inkscape.org/namespaces/inkscape"
   width="256"
   height="256"
   id="svg2"
   version="1.1"
   inkscape:version="0.48.4 r9939"
   sodipodi:docname="nrcs-fake_button.svg"
   inkscape:export-filename="C:\Users\Ryan Cooper\Documents\GitHub\GSCPC-Website-Stuff\img\nrcs-fake_button.png"
   inkscape:export-xdpi="90"
   inkscape:export-ydpi="90">
  <defs
     id="defs4" />
  <sodipodi:namedview
     id="base"
     pagecolor="#ffffff"
     bordercolor="#666666"
     borderopacity="1.0"
     inkscape:pageopacity="0.0"
     inkscape:pageshadow="2"
     inkscape:zoom="2"
     inkscape:cx="-54.491037"
     inkscape:cy="132.25727"
     inkscape:document-units="px"
     inkscape:current-layer="layer2"
     showgrid="false"
     showguides="true"
     inkscape:guide-bbox="true"
     inkscape:window-width="1920"
     inkscape:window-height="976"
     inkscape:window-x="-8"
     inkscape:window-y="-8"
     inkscape:window-maximized="1">
    <sodipodi:guide
       orientation="1,0"
       position="8,128"
       id="guide2985" />
    <sodipodi:guide
       orientation="0,1"
       position="128,248"
       id="guide2987" />
    <sodipodi:guide
       orientation="1,0"
       position="248,128"
       id="guide2989" />
    <sodipodi:guide
       orientation="0,1"
       position="128,8"
       id="guide2993" />
    <sodipodi:guide
       orientation="0,1"
       position="128,128"
       id="guide2995" />
    <sodipodi:guide
       orientation="1,0"
       position="128,128"
       id="guide2997" />
    <sodipodi:guide
       orientation="1,0"
       position="0,128"
       id="guide3788" />
    <sodipodi:guide
       orientation="1,0"
       position="256,128"
       id="guide3790" />
    <sodipodi:guide
       orientation="0,1"
       position="128,256"
       id="guide3792" />
    <sodipodi:guide
       orientation="0,1"
       position="128,0"
       id="guide3794" />
  </sodipodi:namedview>
  <metadata
     id="metadata7">
    <rdf:RDF>
      <cc:Work
         rdf:about="">
        <dc:format>image/svg+xml</dc:format>
        <dc:type
           rdf:resource="http://purl.org/dc/dcmitype/StillImage" />
        <dc:title></dc:title>
      </cc:Work>
    </rdf:RDF>
  </metadata>
  <g
     inkscape:groupmode="layer"
     id="layer1"
     inkscape:label="bg"
     sodipodi:insensitive="true">
    <rect
       style="color:#000000;fill:#ecf0f1;fill-opacity:1;stroke:none;stroke-width:15;marker:none;visibility:visible;display:inline;overflow:visible;enable-background:accumulate"
       id="rect3006"
       width="256"
       height="256"
       x="0"
       y="1.204592e-014" />
  </g>
  <g
     inkscape:groupmode="layer"
     id="layer2"
     inkscape:label="fema">
    <path
       style="fill:#2980b9;fill-opacity:1"
       d="m 161.5,246.06961 c -16.48557,-3.98768 -27.30276,-23.19114 -23.48165,-41.68632 3.28794,-15.91448 14.207,-25.96896 29.42045,-27.0909 8.71801,-0.64292 13.9738,0.68162 14.39781,3.62848 0.29723,2.06577 0.034,2.26346 -2.25069,1.69005 -11.93307,-2.99501 -20.35675,-0.9204 -28.26981,6.96237 -6.60497,6.5797 -8.76545,13.10371 -8.10686,24.48041 1.21017,20.90504 17.22317,32.85395 36.6286,27.33231 2.03335,-0.57858 2.29384,-0.35482 2,1.71796 -0.24391,1.72048 -1.17206,2.56061 -3.33785,3.02128 -4.06251,0.86412 -13.3229,0.83381 -17,-0.0556 z m 33.91271,-0.0124 C 191.37387,245.09167 190,244.18877 190,242.5 c 0,-2.23332 1.3838,-2.47926 5.56612,-0.98927 5.41953,1.93076 10.17966,1.78777 15.11756,-0.45411 5.45711,-2.47761 7.70244,-6.68639 7.07129,-13.25486 -0.57788,-6.01411 -2.59285,-8.3438 -13.25497,-15.3252 -14.94833,-9.78795 -18.16772,-16.00381 -13.5532,-26.16789 2.28211,-5.02663 7.75043,-8.2175 15.4308,-9.0042 6.02405,-0.61703 13.6224,1.15396 13.6224,3.17506 0,2.27184 -1.70543,2.68901 -5.8799,1.43831 -5.66529,-1.69736 -12.35753,-0.43261 -16.07226,3.03747 -2.46019,2.29816 -3.04784,3.65585 -3.04784,7.04161 0,6.27837 2.46812,9.37897 13.29613,16.70339 5.4109,3.66011 10.70801,7.76079 11.77136,9.11262 5.58693,7.10263 4.75893,16.95212 -1.96336,23.35511 -5.53349,5.27066 -13.71862,7.03425 -22.69142,4.88918 z M 35.666667,245.33333 C 35.3,244.96667 35,229.66667 35,211.33333 L 35,178 l 4.338582,0 4.338583,0 14.661564,29.94107 c 8.06386,16.46759 15.111498,30.21915 15.661417,30.55902 C 74.657831,238.90656 75,229.20149 75,210.1408 75,194.20333 75.273145,180.45177 75.606989,179.58179 75.940833,178.7118 77.071818,178 78.120291,178 c 1.842629,0 1.897517,1.12747 1.643011,33.75 L 79.5,245.5 l -4,0 -4,0 -15.343016,-30.40851 c -10.961433,-21.7246 -15.597656,-30.00628 -16.234688,-29 -0.490419,0.77468 -0.898561,14.57101 -0.906983,30.65851 -0.01241,23.70068 -0.268274,29.25 -1.348646,29.25 -0.733334,0 -1.633334,-0.3 -2,-0.66667 z m 59.034569,0.0346 C 94.315556,244.98222 94,229.66667 94,211.33333 L 94,178 l 11.68428,0 c 13.34396,0 19.04526,1.86256 22.35362,7.30271 5.53073,9.09457 2.44484,19.33439 -7.63357,25.33021 -1.85399,1.10297 -1.8474,1.19549 0.24928,3.5 2.18761,2.40447 13.34639,27.97337 13.34639,30.58155 0,0.89491 -0.81062,1.30581 -2.18007,1.10508 -1.73707,-0.25462 -3.05656,-2.45315 -6.49354,-10.81955 -7.23466,-17.6108 -8.01706,-18.97281 -11.80907,-20.55721 -3.70337,-1.54737 -11.23569,-1.90876 -13.24015,-0.63525 -0.856682,0.54428 -1.305831,5.4017 -1.500005,16.22208 -0.233379,13.00514 -0.521838,15.49211 -1.825929,15.74234 -0.85182,0.16345 -1.86432,-0.0184 -2.25,-0.40406 z m 22.808984,-37.80772 c 9.07248,-3.79073 10.20709,-19.55552 1.72285,-23.93811 -3.27096,-1.68964 -15.1397,-3.10387 -18.11738,-2.15879 C 99.099765,182.10311 99,182.76819 99,195.56739 L 99,209 l 7.53212,0 c 4.29308,0 9.01399,-0.61917 10.9781,-1.43982 z m -2.97449,-50.60882 C 89.659624,153.06011 67.218397,135.45951 57.404071,112.14314 55.08854,106.64202 52.014916,93.045746 52.007006,88.269052 51.998734,83.273331 53.163752,82.712073 62.541668,83.19388 L 68.5,83.5 69.716948,91 c 3.243799,19.99139 14.318271,35.2398 31.663342,43.59717 9.26065,4.46206 16.16543,5.7489 27.61526,5.14665 20.65606,-1.08649 37.67584,-12.26394 47.09926,-30.93164 3.11651,-6.17377 5.8661,-16.229914 5.89041,-21.543128 0.0177,-3.874623 1.71405,-4.529466 10.55645,-4.075172 L 198.5,83.5 l 0.298,4.583763 c 0.47125,7.248538 -2.37824,18.461147 -7.22192,28.417887 -9.3711,19.26342 -28.94413,34.76258 -49.80299,39.43715 -6.96527,1.56095 -20.5121,2.06456 -27.23736,1.01256 z m -1.4311,-28.47051 C 92.220969,122.61964 77.981219,103.15981 79.197791,82.144251 79.507706,76.790667 80.405235,72.798448 82.157328,68.980207 85.261918,62.214541 113.67771,12.159548 115.78181,9.75 c 2.22503,-2.5480266 17.21219,-2.5480266 19.43453,0 3.53876,4.057365 33.99393,59.21086 35.45068,64.200235 2.04103,6.990498 1.32847,18.422489 -1.63869,26.290225 -4.38079,11.61616 -15.11298,22.363 -26.76412,26.80067 -7.54676,2.8744 -21.57917,3.56723 -29.15958,1.43972 z m 24.49754,-18.87612 C 148.0934,104.71967 154.24001,95.302252 154.314,84 154.34482,79.290699 153.75918,76.283069 152.18819,73.082703 147.61686,63.770125 126.52906,29 125.45239,29 c -1.49623,0 -25.897791,41.60996 -27.991133,47.73097 -4.143497,12.115744 2.999253,26.84972 15.936573,32.87376 3.84166,1.7888 6.83155,2.37573 12.10217,2.37573 5.27062,0 8.26051,-0.58693 12.10217,-2.37573 z"
       id="path5504"
       inkscape:connector-curvature="0" />
    <path
       style="fill:#27ae60;fill-opacity:1"
       d="M 114.53573,156.95139 C 89.659624,153.06011 67.218397,135.45951 57.404071,112.14314 55.08854,106.64202 52.014916,93.045746 52.007006,88.269052 51.998734,83.273331 53.163752,82.712073 62.541668,83.19388 L 68.5,83.5 69.716948,91 c 3.243799,19.99139 14.318271,35.2398 31.663342,43.59717 9.26065,4.46206 16.16543,5.7489 27.61526,5.14665 20.65606,-1.08649 37.67584,-12.26394 47.09926,-30.93164 3.11651,-6.17377 5.8661,-16.229914 5.89041,-21.543128 0.0177,-3.874623 1.71405,-4.529466 10.55645,-4.075172 L 198.5,83.5 l 0.298,4.583763 c 0.47125,7.248538 -2.37824,18.461147 -7.22192,28.417887 -9.3711,19.26342 -28.94413,34.76258 -49.80299,39.43715 -6.96527,1.56095 -20.5121,2.06456 -27.23736,1.01256 z"
       id="path5504-7"
       inkscape:connector-curvature="0"
       sodipodi:nodetypes="cssscsssssscssscc" />
  </g>
</svg>
