<?xml version="1.0" encoding="UTF-8" standalone="no"?>
<!-- Created with Inkscape (http://www.inkscape.org/) -->

<svg
   xmlns:dc="http://purl.org/dc/elements/1.1/"
   xmlns:cc="http://creativecommons.org/ns#"
   xmlns:rdf="http://www.w3.org/1999/02/22-rdf-syntax-ns#"
   xmlns:svg="http://www.w3.org/2000/svg"
   xmlns="http://www.w3.org/2000/svg"
   xmlns:sodipodi="http://sodipodi.sourceforge.net/DTD/sodipodi-0.dtd"
   xmlns:inkscape="http://www.inkscape.org/namespaces/inkscape"
   width="256"
   height="256"
   id="svg2"
   version="1.1"
   inkscape:version="0.48.4 r9939"
   sodipodi:docname="school-info_button.svg"
   inkscape:export-filename="C:\Users\Ryan Cooper\Documents\GitHub\GSCPC-Website-Stuff\img\school-info_button.png"
   inkscape:export-xdpi="90"
   inkscape:export-ydpi="90">
  <defs
     id="defs4" />
  <sodipodi:namedview
     id="base"
     pagecolor="#ffffff"
     bordercolor="#666666"
     borderopacity="1.0"
     inkscape:pageopacity="0.0"
     inkscape:pageshadow="2"
     inkscape:zoom="2"
     inkscape:cx="64.422274"
     inkscape:cy="73.791814"
     inkscape:document-units="px"
     inkscape:current-layer="svg2"
     showgrid="false"
     showguides="true"
     inkscape:guide-bbox="true"
     inkscape:window-width="1920"
     inkscape:window-height="976"
     inkscape:window-x="-8"
     inkscape:window-y="-8"
     inkscape:window-maximized="1">
    <sodipodi:guide
       orientation="1,0"
       position="8,128"
       id="guide2985" />
    <sodipodi:guide
       orientation="0,1"
       position="128,248"
       id="guide2987" />
    <sodipodi:guide
       orientation="1,0"
       position="248,128"
       id="guide2989" />
    <sodipodi:guide
       orientation="0,1"
       position="128,8"
       id="guide2993" />
    <sodipodi:guide
       orientation="0,1"
       position="128,128"
       id="guide2995" />
    <sodipodi:guide
       orientation="1,0"
       position="128,128"
       id="guide2997" />
    <sodipodi:guide
       orientation="1,0"
       position="0,128"
       id="guide3788" />
    <sodipodi:guide
       orientation="1,0"
       position="256,128"
       id="guide3790" />
    <sodipodi:guide
       orientation="0,1"
       position="128,256"
       id="guide3792" />
    <sodipodi:guide
       orientation="0,1"
       position="128,0"
       id="guide3794" />
    <sodipodi:guide
       orientation="1,0"
       position="64,240.41631"
       id="guide5045" />
    <sodipodi:guide
       orientation="1,0"
       position="192,195.86858"
       id="guide5047" />
  </sodipodi:namedview>
  <metadata
     id="metadata7">
    <rdf:RDF>
      <cc:Work
         rdf:about="">
        <dc:format>image/svg+xml</dc:format>
        <dc:type
           rdf:resource="http://purl.org/dc/dcmitype/StillImage" />
        <dc:title></dc:title>
      </cc:Work>
    </rdf:RDF>
  </metadata>
  <g
     inkscape:groupmode="layer"
     id="layer1"
     inkscape:label="bg"
     sodipodi:insensitive="true">
    <rect
       style="color:#000000;fill:#2ecc71;fill-opacity:1;stroke:none;stroke-width:15;marker:none;visibility:visible;display:inline;overflow:visible;enable-background:accumulate"
       id="rect3006"
       width="256"
       height="256"
       x="0"
       y="1.204592e-014" />
  </g>
  <g
     inkscape:groupmode="layer"
     id="layer2"
     inkscape:label="text">
    <g
       style="font-size:40px;font-style:normal;font-variant:normal;font-weight:normal;font-stretch:normal;line-height:125%;letter-spacing:0px;word-spacing:0px;fill:#ffffff;fill-opacity:1;stroke:none;font-family:Open Sans;-inkscape-font-specification:Open Sans"
       id="text4961"
       transform="matrix(0.78613327,0,0,0.78613327,-1.4432916,47.75236)">
      <path
         d="m 20.449219,211.65431 c -2.1e-5,2.57813 -0.927754,4.60938 -2.783203,6.09375 -1.855485,1.48438 -4.436863,2.22656 -7.744141,2.22656 -3.0468819,0 -5.7421917,-0.57291 -8.0859375,-1.71875 l 0,-5.625 c 1.9270796,0.85939 3.5579373,1.46485 4.8925781,1.81641 1.3346274,0.35157 2.5553293,0.52735 3.6621094,0.52734 1.328113,1e-5 2.346992,-0.2539 3.056641,-0.76171 0.709621,-0.50781 1.064438,-1.26302 1.064453,-2.26563 -1.5e-5,-0.55989 -0.156265,-1.05793 -0.46875,-1.49414 -0.312514,-0.43619 -0.771498,-0.85611 -1.376953,-1.25977 -0.605481,-0.40363 -1.839204,-1.04816 -3.7011722,-1.93359 -1.7447989,-0.8203 -3.0533914,-1.60806 -3.9257813,-2.36328 -0.8724,-0.75519 -1.5690139,-1.6341 -2.0898437,-2.63672 -0.5208358,-1.00258 -0.7812522,-2.17446 -0.78125,-3.51562 -2.2e-6,-2.52602 0.8561167,-4.5117 2.5683593,-5.95704 1.7122332,-1.44528 4.0787673,-2.16794 7.0996099,-2.16796 1.484361,2e-5 2.900375,0.17581 4.248046,0.52734 1.347639,0.35159 2.757143,0.84638 4.228516,1.48437 l -1.953125,4.70704 c -1.523454,-0.62498 -2.783219,-1.06118 -3.779297,-1.3086 -0.996107,-0.24737 -1.975924,-0.37107 -2.939453,-0.37109 -1.145844,2e-5 -2.0247492,0.26695 -2.6367187,0.80078 -0.6119876,0.53388 -0.9179769,1.23049 -0.9179688,2.08984 -8.1e-6,0.53388 0.1236897,0.99937 0.3710938,1.39649 0.2473871,0.39715 0.6412669,0.78127 1.1816406,1.15234 0.5403541,0.37111 1.8196501,1.03843 3.8378911,2.00195 2.669254,1.27606 4.498679,2.55536 5.488281,3.8379 0.989563,1.28256 1.484354,2.85482 1.484375,4.71679 z"
         style="font-weight:bold;-inkscape-font-specification:Open Sans Bold;fill:#ffffff;fill-opacity:1"
         id="path5010"
         inkscape:connector-curvature="0" />
      <path
         d="m 34.023437,219.97462 c -6.79688,0 -10.195314,-3.73046 -10.195312,-11.1914 -2e-6,-3.71092 0.924476,-6.54621 2.773437,-8.50586 1.848952,-1.95962 4.498689,-2.93943 7.949219,-2.93945 2.526027,2e-5 4.79165,0.49481 6.796875,1.48437 l -1.757812,4.60938 c -0.937517,-0.37759 -1.809912,-0.68684 -2.617188,-0.92774 -0.807306,-0.24087 -1.614596,-0.36131 -2.421875,-0.36133 -3.098968,2e-5 -4.648445,2.20054 -4.648437,6.60157 -8e-6,4.27084 1.549469,6.40625 4.648437,6.40625 1.14582,0 2.207017,-0.15299 3.183594,-0.45899 0.976546,-0.30598 1.953107,-0.7845 2.929687,-1.43555 l 0,5.09766 c -0.963559,0.61198 -1.936865,1.03516 -2.919921,1.26953 -0.983088,0.23438 -2.223321,0.35156 -3.720704,0.35156 z"
         style="font-weight:bold;-inkscape-font-specification:Open Sans Bold;fill:#ffffff;fill-opacity:1"
         id="path5012"
         inkscape:connector-curvature="0" />
      <path
         d="m 65.859375,219.584 -5.957031,0 0,-12.75391 c -1.8e-5,-3.15102 -1.171891,-4.72654 -3.515625,-4.72656 -1.666679,2e-5 -2.871105,0.56642 -3.613282,1.69922 -0.742196,1.13283 -1.11329,2.96876 -1.113281,5.50781 l 0,10.27344 -5.957031,0 0,-30.39063 5.957031,0 0,6.19141 c -9e-6,0.4818 -0.04558,1.61461 -0.136719,3.39844 l -0.136718,1.75781 0.3125,0 c 1.328114,-2.13539 3.437487,-3.2031 6.328125,-3.20312 2.565086,2e-5 4.511699,0.69012 5.839843,2.07031 1.328103,1.38023 1.992165,3.35939 1.992188,5.9375 z"
         style="font-weight:bold;-inkscape-font-specification:Open Sans Bold;fill:#ffffff;fill-opacity:1"
         id="path5014"
         inkscape:connector-curvature="0" />
      <path
         d="m 76.777344,208.62697 c -8e-6,2.16147 0.354809,3.79558 1.064453,4.90234 0.709626,1.10678 1.865223,1.66016 3.466797,1.66016 1.588527,0 2.731104,-0.55013 3.427734,-1.65039 0.696598,-1.10026 1.044905,-2.73762 1.044922,-4.91211 -1.7e-5,-2.16145 -0.351579,-3.78254 -1.054688,-4.86328 -0.70314,-1.08072 -1.855482,-1.62108 -3.457031,-1.6211 -1.588552,2e-5 -2.734384,0.53713 -3.4375,1.61133 -0.703133,1.07424 -1.054695,2.69858 -1.054687,4.87305 z m 15.097656,0 c -2.3e-5,3.55469 -0.937522,6.33464 -2.8125,8.33984 -1.875018,2.00521 -4.485693,3.00781 -7.832031,3.00781 -2.096365,0 -3.945321,-0.45898 -5.546875,-1.37695 -1.601568,-0.91797 -2.832035,-2.23632 -3.691407,-3.95508 -0.859377,-1.71874 -1.289064,-3.72395 -1.289062,-6.01562 -2e-6,-3.5677 0.930987,-6.34113 2.792969,-8.32031 1.861972,-1.97915 4.479157,-2.96873 7.851562,-2.96875 2.09634,2e-5 3.945296,0.45575 5.546875,1.36718 1.601543,0.91148 2.832011,2.22007 3.691406,3.92578 0.859353,1.70575 1.28904,3.70444 1.289063,5.9961 z"
         style="font-weight:bold;-inkscape-font-specification:Open Sans Bold;fill:#ffffff;fill-opacity:1"
         id="path5016"
         inkscape:connector-curvature="0" />
      <path
         d="m 101.54297,208.62697 c -1e-5,2.16147 0.35481,3.79558 1.06445,4.90234 0.70963,1.10678 1.86523,1.66016 3.4668,1.66016 1.58853,0 2.7311,-0.55013 3.42773,-1.65039 0.6966,-1.10026 1.04491,-2.73762 1.04493,-4.91211 -2e-5,-2.16145 -0.35158,-3.78254 -1.05469,-4.86328 -0.70314,-1.08072 -1.85549,-1.62108 -3.45703,-1.6211 -1.58856,2e-5 -2.73439,0.53713 -3.4375,1.61133 -0.70314,1.07424 -1.0547,2.69858 -1.05469,4.87305 z m 15.09766,0 c -3e-5,3.55469 -0.93753,6.33464 -2.8125,8.33984 -1.87502,2.00521 -4.4857,3.00781 -7.83204,3.00781 -2.09636,0 -3.94532,-0.45898 -5.54687,-1.37695 -1.601569,-0.91797 -2.832036,-2.23632 -3.691408,-3.95508 -0.859377,-1.71874 -1.289064,-3.72395 -1.289062,-6.01562 -2e-6,-3.5677 0.930987,-6.34113 2.792969,-8.32031 1.861971,-1.97915 4.479161,-2.96873 7.851561,-2.96875 2.09634,2e-5 3.9453,0.45575 5.54688,1.36718 1.60154,0.91148 2.83201,2.22007 3.6914,3.92578 0.85935,1.70575 1.28904,3.70444 1.28907,5.9961 z"
         style="font-weight:bold;-inkscape-font-specification:Open Sans Bold;fill:#ffffff;fill-opacity:1"
         id="path5018"
         inkscape:connector-curvature="0" />
      <path
         d="m 127.51953,219.584 -5.95703,0 0,-30.39063 5.95703,0 z"
         style="font-weight:bold;-inkscape-font-specification:Open Sans Bold;fill:#ffffff;fill-opacity:1"
         id="path5020"
         inkscape:connector-curvature="0" />
      <path
         d="m 171.01562,219.584 -7.36328,0 -2.24609,-2.20703 c -2.487,1.73177 -5.29949,2.59765 -8.4375,2.59765 -3.17709,0 -5.69662,-0.72916 -7.55859,-2.1875 -1.86199,-1.45833 -2.79297,-3.43098 -2.79297,-5.91796 0,-1.78385 0.39388,-3.30403 1.18164,-4.56055 0.78775,-1.2565 2.13867,-2.43163 4.05273,-3.52539 -0.97657,-1.11978 -1.6862,-2.19074 -2.1289,-3.21289 -0.44272,-1.02212 -0.66407,-2.13865 -0.66407,-3.34961 0,-1.97914 0.75846,-3.57419 2.27539,-4.78516 1.51692,-1.21091 3.54492,-1.81638 6.08399,-1.8164 2.42186,2e-5 4.35871,0.56318 5.81055,1.68945 1.4518,1.12633 2.17771,2.63349 2.17773,4.52148 -2e-5,1.5495 -0.44924,2.96552 -1.34766,4.24805 -0.89845,1.28257 -2.35027,2.50327 -4.35547,3.66211 l 5.54688,5.41016 c 0.92446,-1.52343 1.72524,-3.48306 2.40234,-5.87891 l 6.21094,0 c -0.46878,1.75783 -1.11331,3.47332 -1.93359,5.14648 -0.82034,1.67319 -1.75133,3.15431 -2.79297,4.44336 z m -22.1289,-8.28125 c -1e-5,1.1198 0.41991,2.01172 1.25976,2.67578 0.83984,0.66407 1.91731,0.9961 3.23243,0.99609 1.64061,1e-5 3.11847,-0.39713 4.43359,-1.1914 l -6.48438,-6.44531 c -0.75521,0.57292 -1.35092,1.17188 -1.7871,1.79687 -0.43621,0.62501 -0.65431,1.34767 -0.6543,2.16797 z m 7.01172,-13.84766 c -2e-5,-0.69008 -0.23439,-1.2337 -0.70313,-1.63086 -0.46876,-0.39711 -1.07423,-0.59567 -1.8164,-0.5957 -0.87241,3e-5 -1.55926,0.20836 -2.06055,0.625 -0.50131,0.41669 -0.75196,1.00914 -0.75195,1.77734 -1e-5,1.14586 0.61848,2.40888 1.85546,3.78907 1.11978,-0.62498 1.97916,-1.24022 2.57813,-1.84571 0.59894,-0.60544 0.89842,-1.31182 0.89844,-2.11914 z"
         style="font-weight:bold;-inkscape-font-specification:Open Sans Bold;fill:#ffffff;fill-opacity:1"
         id="path5022"
         inkscape:connector-curvature="0" />
      <path
         d="m 208.69141,205.03322 c -3e-5,4.70053 -1.33792,8.30079 -4.01368,10.80078 -2.6758,2.5 -6.53973,3.75 -11.59179,3.75 l -8.08594,0 0,-28.55469 8.96484,0 c 4.66144,3e-5 8.28123,1.2305 10.85938,3.69141 2.5781,2.46096 3.86716,5.89845 3.86719,10.3125 z m -6.28907,0.15625 c -2e-5,-6.13279 -2.70835,-9.1992 -8.125,-9.19922 l -3.22265,0 0,18.59375 2.59765,0 c 5.83332,0 8.74998,-3.1315 8.75,-9.39453 z"
         style="font-weight:bold;-inkscape-font-specification:Open Sans Bold;fill:#ffffff;fill-opacity:1"
         id="path5024"
         inkscape:connector-curvature="0" />
      <path
         d="m 213.88672,192.10353 c 0,-1.94007 1.08072,-2.91012 3.24219,-2.91016 2.16145,4e-5 3.24217,0.97009 3.24218,2.91016 -1e-5,0.92451 -0.27019,1.64391 -0.81054,2.1582 -0.54038,0.51435 -1.35092,0.77151 -2.43164,0.77149 -2.16147,2e-5 -3.24219,-0.97654 -3.24219,-2.92969 z m 6.21094,27.48047 -5.95704,0 0,-21.83594 5.95704,0 z"
         style="font-weight:bold;-inkscape-font-specification:Open Sans Bold;fill:#ffffff;fill-opacity:1"
         id="path5026"
         inkscape:connector-curvature="0" />
      <path
         d="m 241.5625,213.09962 c -2e-5,2.23959 -0.77801,3.94532 -2.33398,5.11719 -1.55601,1.17188 -3.88348,1.75781 -6.98243,1.75781 -1.58855,0 -2.94271,-0.10742 -4.0625,-0.32226 -1.11979,-0.21484 -2.16797,-0.5306 -3.14453,-0.94727 l 0,-4.92187 c 1.10677,0.52084 2.35351,0.95703 3.74024,1.30859 1.38671,0.35157 2.60741,0.52735 3.66211,0.52735 2.16144,0 3.24217,-0.625 3.24218,-1.875 -1e-5,-0.46875 -0.14324,-0.84961 -0.42968,-1.14258 -0.28647,-0.29296 -0.78127,-0.62499 -1.48438,-0.9961 -0.70313,-0.37108 -1.64063,-0.80402 -2.8125,-1.29882 -1.67969,-0.70312 -2.91342,-1.35416 -3.70117,-1.95313 -0.78776,-0.59895 -1.36068,-1.28579 -1.71875,-2.06055 C 225.17903,205.51826 225,204.56448 225,203.43166 c 0,-1.94009 0.75195,-3.44074 2.25586,-4.50196 1.5039,-1.06117 3.63606,-1.59177 6.39648,-1.59179 2.6302,2e-5 5.18879,0.57293 7.67578,1.71875 l -1.79687,4.29687 c -1.09377,-0.46873 -2.1159,-0.85285 -3.06641,-1.15234 -0.95053,-0.29946 -1.92058,-0.4492 -2.91015,-0.44922 -1.75782,2e-5 -2.63673,0.47528 -2.63672,1.42578 -1e-5,0.53387 0.28319,0.99611 0.84961,1.38672 0.5664,0.39064 1.80663,0.97006 3.7207,1.73828 1.70572,0.69012 2.95572,1.33465 3.75,1.93359 0.79426,0.59897 1.38019,1.28908 1.75781,2.07032 0.37759,0.78125 0.56639,1.71224 0.56641,2.79296 z"
         style="font-weight:bold;-inkscape-font-specification:Open Sans Bold;fill:#ffffff;fill-opacity:1"
         id="path5028"
         inkscape:connector-curvature="0" />
      <path
         d="m 255.44922,215.22853 c 1.04165,1e-5 2.29165,-0.22786 3.75,-0.68359 l 0,4.43359 c -1.48439,0.66406 -3.30731,0.99609 -5.46875,0.99609 -2.38282,0 -4.11785,-0.60221 -5.20508,-1.80664 -1.08724,-1.20442 -1.63086,-3.01106 -1.63086,-5.41992 l 0,-10.52734 -2.85156,0 0,-2.51953 3.28125,-1.99219 1.71875,-4.60938 3.80859,0 0,4.64844 6.11328,0 0,4.47266 -6.11328,0 0,10.52734 c -1e-5,0.84636 0.23762,1.47136 0.71289,1.875 0.47525,0.40365 1.10351,0.60548 1.88477,0.60547 z"
         style="font-weight:bold;-inkscape-font-specification:Open Sans Bold;fill:#ffffff;fill-opacity:1"
         id="path5030"
         inkscape:connector-curvature="0" />
      <path
         d="m 275.78125,197.33791 c 0.80728,2e-5 1.47785,0.0586 2.01172,0.17578 l -0.44922,5.58593 c -0.48179,-0.13019 -1.06772,-0.19529 -1.75781,-0.19531 -1.90106,2e-5 -3.38218,0.4883 -4.44336,1.46485 -1.06121,0.97657 -1.59181,2.34376 -1.5918,4.10156 l 0,11.11328 -5.95703,0 0,-21.83594 4.51172,0 0.8789,3.67188 0.29297,0 c 0.67708,-1.22394 1.59179,-2.21027 2.74414,-2.95899 1.15234,-0.74867 2.40559,-1.12302 3.75977,-1.12304 z"
         style="font-weight:bold;-inkscape-font-specification:Open Sans Bold;fill:#ffffff;fill-opacity:1"
         id="path5032"
         inkscape:connector-curvature="0" />
      <path
         d="m 281.54297,192.10353 c 0,-1.94007 1.08072,-2.91012 3.24219,-2.91016 2.16145,4e-5 3.24217,0.97009 3.24218,2.91016 -10e-6,0.92451 -0.27019,1.64391 -0.81054,2.1582 -0.54038,0.51435 -1.35092,0.77151 -2.43164,0.77149 -2.16147,2e-5 -3.24219,-0.97654 -3.24219,-2.92969 z m 6.21094,27.48047 -5.95704,0 0,-21.83594 5.95704,0 z"
         style="font-weight:bold;-inkscape-font-specification:Open Sans Bold;fill:#ffffff;fill-opacity:1"
         id="path5034"
         inkscape:connector-curvature="0" />
      <path
         d="m 302.85156,219.97462 c -6.79688,0 -10.19531,-3.73046 -10.19531,-11.1914 0,-3.71092 0.92448,-6.54621 2.77344,-8.50586 1.84895,-1.95962 4.49869,-2.93943 7.94922,-2.93945 2.52602,2e-5 4.79165,0.49481 6.79687,1.48437 l -1.75781,4.60938 c -0.93752,-0.37759 -1.80991,-0.68684 -2.61719,-0.92774 -0.8073,-0.24087 -1.6146,-0.36131 -2.42187,-0.36133 -3.09897,2e-5 -4.64845,2.20054 -4.64844,6.60157 -1e-5,4.27084 1.54947,6.40625 4.64844,6.40625 1.14582,0 2.20701,-0.15299 3.18359,-0.45899 0.97655,-0.30598 1.95311,-0.7845 2.92969,-1.43555 l 0,5.09766 c -0.96356,0.61198 -1.93687,1.03516 -2.91992,1.26953 -0.98309,0.23438 -2.22333,0.35156 -3.72071,0.35156 z"
         style="font-weight:bold;-inkscape-font-specification:Open Sans Bold;fill:#ffffff;fill-opacity:1"
         id="path5036"
         inkscape:connector-curvature="0" />
      <path
         d="m 323.73047,215.22853 c 1.04165,1e-5 2.29165,-0.22786 3.75,-0.68359 l 0,4.43359 c -1.48439,0.66406 -3.30731,0.99609 -5.46875,0.99609 -2.38282,0 -4.11785,-0.60221 -5.20508,-1.80664 -1.08724,-1.20442 -1.63086,-3.01106 -1.63086,-5.41992 l 0,-10.52734 -2.85156,0 0,-2.51953 3.28125,-1.99219 1.71875,-4.60938 3.80859,0 0,4.64844 6.11328,0 0,4.47266 -6.11328,0 0,10.52734 c -1e-5,0.84636 0.23762,1.47136 0.71289,1.875 0.47525,0.40365 1.10351,0.60548 1.88477,0.60547 z"
         style="font-weight:bold;-inkscape-font-specification:Open Sans Bold;fill:#ffffff;fill-opacity:1"
         id="path5038"
         inkscape:connector-curvature="0" />
    </g>
    <g
       style="font-size:40px;font-style:normal;font-variant:normal;font-weight:normal;font-stretch:normal;line-height:125%;letter-spacing:0px;word-spacing:0px;fill:#ffffff;fill-opacity:1;stroke:none;font-family:Open Sans;-inkscape-font-specification:Open Sans"
       id="text4961-2"
       transform="matrix(1.0871931,0,0,1.0871931,-3.9071001,-22.746106)">
      <path
         d="m 3.59375,256 0,-28.55469 6.0546875,0 0,28.55469 z"
         style="font-weight:bold;-inkscape-font-specification:Open Sans Bold;fill:#ffffff;fill-opacity:1"
         id="path4987"
         inkscape:connector-curvature="0" />
      <path
         d="m 36.5625,256 -5.957031,0 0,-12.75391 c -1.8e-5,-1.5755 -0.279965,-2.75714 -0.839844,-3.54492 -0.559912,-0.78774 -1.451838,-1.18162 -2.675781,-1.18164 -1.666679,2e-5 -2.871105,0.55666 -3.613282,1.66992 -0.742196,1.1133 -1.11329,2.959 -1.113281,5.53711 l 0,10.27344 -5.957031,0 0,-21.83594 4.550781,0 0.800781,2.79297 0.332032,0 c 0.664053,-1.05467 1.578765,-1.85219 2.74414,-2.39258 1.165352,-0.54034 2.490221,-0.81052 3.97461,-0.81054 2.539044,2e-5 4.466126,0.68687 5.78125,2.06054 1.315081,1.37372 1.972633,3.35614 1.972656,5.94727 z"
         style="font-weight:bold;-inkscape-font-specification:Open Sans Bold;fill:#ffffff;fill-opacity:1"
         id="path4989"
         inkscape:connector-curvature="0" />
      <path
         d="m 54.804687,238.63672 -5.15625,0 0,17.36328 -5.957031,0 0,-17.36328 -3.28125,0 0,-2.8711 3.28125,-1.60156 0,-1.60156 c -4e-6,-2.48695 0.611975,-4.30336 1.835938,-5.44922 1.223951,-1.1458 3.183584,-1.71872 5.878906,-1.71875 2.057278,3e-5 3.886703,0.30602 5.488281,0.91797 l -1.523437,4.375 c -1.197931,-0.37758 -2.304701,-0.56638 -3.320313,-0.56641 -0.846366,3e-5 -1.458344,0.25068 -1.835937,0.75196 -0.377615,0.50132 -0.566417,1.1426 -0.566407,1.92382 l 0,1.36719 5.15625,0 z"
         style="font-weight:bold;-inkscape-font-specification:Open Sans Bold;fill:#ffffff;fill-opacity:1"
         id="path4991"
         inkscape:connector-curvature="0" />
      <path
         d="m 62.949219,245.04297 c -8e-6,2.16147 0.354809,3.79558 1.064453,4.90234 0.709626,1.10678 1.865223,1.66016 3.466797,1.66016 1.588527,0 2.731104,-0.55013 3.427734,-1.65039 0.696598,-1.10026 1.044905,-2.73762 1.044922,-4.91211 -1.7e-5,-2.16145 -0.351579,-3.78254 -1.054688,-4.86328 -0.70314,-1.08071 -1.855482,-1.62108 -3.457031,-1.6211 -1.588552,2e-5 -2.734384,0.53713 -3.4375,1.61133 -0.703133,1.07424 -1.054695,2.69858 -1.054687,4.87305 z m 15.097656,0 c -2.3e-5,3.55469 -0.937522,6.33464 -2.8125,8.33984 -1.875018,2.00521 -4.485693,3.00781 -7.832031,3.00781 -2.096365,0 -3.945321,-0.45898 -5.546875,-1.37695 -1.601568,-0.91796 -2.832035,-2.23632 -3.691407,-3.95508 -0.859377,-1.71874 -1.289064,-3.72395 -1.289062,-6.01562 -2e-6,-3.5677 0.930987,-6.34113 2.792969,-8.32031 1.861972,-1.97915 4.479157,-2.96873 7.851562,-2.96875 2.09634,2e-5 3.945296,0.45575 5.546875,1.36718 1.601543,0.91148 2.832011,2.22007 3.691406,3.92578 0.859353,1.70575 1.28904,3.70445 1.289063,5.9961 z"
         style="font-weight:bold;-inkscape-font-specification:Open Sans Bold;fill:#ffffff;fill-opacity:1"
         id="path4993"
         inkscape:connector-curvature="0" />
      <path
         d="m 95.15625,233.75391 c 0.807276,2e-5 1.477848,0.0586 2.011719,0.17578 l -0.449219,5.58593 c -0.481787,-0.13019 -1.067724,-0.19529 -1.757813,-0.19531 -1.901054,2e-5 -3.382173,0.4883 -4.443359,1.46485 -1.061207,0.97657 -1.591806,2.34376 -1.591797,4.10156 l 0,11.11328 -5.957031,0 0,-21.83594 4.511719,0 0.878906,3.67188 0.292969,0 c 0.677074,-1.22394 1.591786,-2.21027 2.74414,-2.95899 1.152331,-0.74867 2.405585,-1.12302 3.759766,-1.12304 z"
         style="font-weight:bold;-inkscape-font-specification:Open Sans Bold;fill:#ffffff;fill-opacity:1"
         id="path4995"
         inkscape:connector-curvature="0" />
      <path
         d="m 120.72266,256 -5.95703,0 0,-12.75391 c -2e-5,-1.5755 -0.26369,-2.75714 -0.79102,-3.54492 -0.52736,-0.78774 -1.35744,-1.18162 -2.49023,-1.18164 -1.52345,2e-5 -2.63022,0.55991 -3.32032,1.67969 -0.69011,1.11981 -1.03516,2.96225 -1.03515,5.52734 l 0,10.27344 -5.95703,0 0,-21.83594 4.55078,0 0.80078,2.79297 0.33203,0 c 0.58593,-1.00258 1.43228,-1.78709 2.53906,-2.35351 1.10676,-0.56639 2.37629,-0.84959 3.8086,-0.84961 3.26821,2e-5 5.48175,1.06773 6.64062,3.20312 l 0.52734,0 c 0.58592,-1.0156 1.44855,-1.80336 2.58789,-2.36328 1.1393,-0.55987 2.42511,-0.83982 3.85743,-0.83984 2.47392,2e-5 4.34567,0.63478 5.61523,1.90429 1.2695,1.26955 1.90426,3.30406 1.9043,6.10352 l 0,14.23828 -5.97657,0 0,-12.75391 c -3e-5,-1.5755 -0.2637,-2.75714 -0.79101,-3.54492 -0.52737,-0.78774 -1.35745,-1.18162 -2.49023,-1.18164 -1.45836,2e-5 -2.54886,0.52085 -3.27149,1.5625 -0.72268,1.04168 -1.08401,2.69533 -1.08398,4.96094 z"
         style="font-weight:bold;-inkscape-font-specification:Open Sans Bold;fill:#ffffff;fill-opacity:1"
         id="path4997"
         inkscape:connector-curvature="0" />
      <path
         d="m 154.33594,256 -1.15235,-2.96875 -0.15625,0 c -1.00262,1.26302 -2.03452,2.13867 -3.0957,2.62695 -1.06121,0.48828 -2.44467,0.73242 -4.15039,0.73242 -2.09636,0 -3.74675,-0.59895 -4.95117,-1.79687 -1.20443,-1.19791 -1.80664,-2.90364 -1.80664,-5.11719 0,-2.3177 0.81054,-4.02668 2.43164,-5.12695 1.62109,-1.10025 4.06575,-1.70897 7.33398,-1.82617 l 3.78906,-0.11719 0,-0.95703 c -1e-5,-2.21353 -1.13282,-3.3203 -3.39843,-3.32031 -1.7448,1e-5 -3.79558,0.52736 -6.15235,1.58203 l -1.97265,-4.02344 c 2.51301,-1.31508 5.29947,-1.97263 8.35937,-1.97266 2.92967,3e-5 5.17577,0.63805 6.73828,1.91407 1.56248,1.27606 2.34373,3.21616 2.34375,5.82031 l 0,14.55078 z m -1.75782,-10.11719 -2.30468,0.0781 c -1.73178,0.0521 -3.02085,0.36459 -3.86719,0.9375 -0.84636,0.57292 -1.26954,1.44532 -1.26953,2.61718 -1e-5,1.6797 0.96353,2.51954 2.89062,2.51954 1.3802,0 2.48371,-0.39713 3.31055,-1.19141 0.82681,-0.79426 1.24022,-1.84895 1.24023,-3.16406 z"
         style="font-weight:bold;-inkscape-font-specification:Open Sans Bold;fill:#ffffff;fill-opacity:1"
         id="path4999"
         inkscape:connector-curvature="0" />
      <path
         d="m 173.80859,251.64453 c 1.04166,1e-5 2.29166,-0.22786 3.75,-0.68359 l 0,4.43359 c -1.48439,0.66406 -3.3073,0.99609 -5.46875,0.99609 -2.38282,0 -4.11784,-0.60221 -5.20507,-1.80664 -1.08725,-1.20442 -1.63087,-3.01106 -1.63086,-5.41992 l 0,-10.52734 -2.85157,0 0,-2.51953 3.28125,-1.99219 1.71875,-4.60938 3.8086,0 0,4.64844 6.11328,0 0,4.47266 -6.11328,0 0,10.52734 c -1e-5,0.84636 0.23762,1.47136 0.71289,1.875 0.47525,0.40365 1.1035,0.60548 1.88476,0.60547 z"
         style="font-weight:bold;-inkscape-font-specification:Open Sans Bold;fill:#ffffff;fill-opacity:1"
         id="path5001"
         inkscape:connector-curvature="0" />
      <path
         d="m 181.69922,228.51953 c 0,-1.94007 1.08072,-2.91012 3.24219,-2.91016 2.16145,4e-5 3.24217,0.97009 3.24218,2.91016 -1e-5,0.92451 -0.27019,1.64391 -0.81054,2.1582 -0.54038,0.51435 -1.35092,0.77151 -2.43164,0.77149 -2.16147,2e-5 -3.24219,-0.97654 -3.24219,-2.92969 z M 187.91016,256 l -5.95704,0 0,-21.83594 5.95704,0 z"
         style="font-weight:bold;-inkscape-font-specification:Open Sans Bold;fill:#ffffff;fill-opacity:1"
         id="path5003"
         inkscape:connector-curvature="0" />
      <path
         d="m 198.88672,245.04297 c -1e-5,2.16147 0.35481,3.79558 1.06445,4.90234 0.70963,1.10678 1.86523,1.66016 3.4668,1.66016 1.58853,0 2.7311,-0.55013 3.42773,-1.65039 0.6966,-1.10026 1.04491,-2.73762 1.04492,-4.91211 -1e-5,-2.16145 -0.35157,-3.78254 -1.05468,-4.86328 -0.70314,-1.08071 -1.85549,-1.62108 -3.45703,-1.6211 -1.58856,2e-5 -2.73439,0.53713 -3.4375,1.61133 -0.70314,1.07424 -1.0547,2.69858 -1.05469,4.87305 z m 15.09765,0 c -2e-5,3.55469 -0.93752,6.33464 -2.8125,8.33984 -1.87501,2.00521 -4.48569,3.00781 -7.83203,3.00781 -2.09636,0 -3.94532,-0.45898 -5.54687,-1.37695 -1.60157,-0.91796 -2.83204,-2.23632 -3.69141,-3.95508 -0.85937,-1.71874 -1.28906,-3.72395 -1.28906,-6.01562 0,-3.5677 0.93099,-6.34113 2.79297,-8.32031 1.86197,-1.97915 4.47916,-2.96873 7.85156,-2.96875 2.09634,2e-5 3.9453,0.45575 5.54688,1.36718 1.60154,0.91148 2.83201,2.22007 3.6914,3.92578 0.85935,1.70575 1.28904,3.70445 1.28906,5.9961 z"
         style="font-weight:bold;-inkscape-font-specification:Open Sans Bold;fill:#ffffff;fill-opacity:1"
         id="path5005"
         inkscape:connector-curvature="0" />
      <path
         d="m 239.0625,256 -5.95703,0 0,-12.75391 c -2e-5,-1.5755 -0.27997,-2.75714 -0.83985,-3.54492 -0.55991,-0.78774 -1.45183,-1.18162 -2.67578,-1.18164 -1.66668,2e-5 -2.8711,0.55666 -3.61328,1.66992 -0.74219,1.1133 -1.11329,2.959 -1.11328,5.53711 l 0,10.27344 -5.95703,0 0,-21.83594 4.55078,0 0.80078,2.79297 0.33203,0 c 0.66406,-1.05467 1.57877,-1.85219 2.74414,-2.39258 1.16536,-0.54034 2.49022,-0.81052 3.97461,-0.81054 2.53905,2e-5 4.46613,0.68687 5.78125,2.06054 1.31509,1.37372 1.97264,3.35614 1.97266,5.94727 z"
         style="font-weight:bold;-inkscape-font-specification:Open Sans Bold;fill:#ffffff;fill-opacity:1"
         id="path5007"
         inkscape:connector-curvature="0" />
    </g>
  </g>
  <g
     inkscape:groupmode="layer"
     id="layer10"
     inkscape:label="school">
    <rect
       style="color:#000000;fill:#e74c3c;fill-opacity:1;fill-rule:nonzero;stroke:none;stroke-width:4.75000000000000000;marker:none;visibility:visible;display:inline;overflow:visible;enable-background:accumulate"
       id="rect5041"
       width="128"
       height="75.660431"
       x="64"
       y="112.82127" />
    <path
       style="color:#000000;fill:#934b1b;fill-opacity:1;fill-rule:nonzero;stroke:none;stroke-width:4.75000000000000000;marker:none;visibility:visible;display:inline;overflow:visible;enable-background:accumulate"
       d="m 64,56 64,0 c 24.66667,0 39.33333,0 64,0 l 10,57.15076 -148,0 C 64,56.094603 53.906862,113.09887 64,56 z"
       id="rect5043"
       inkscape:connector-curvature="0"
       sodipodi:nodetypes="cccccc" />
    <path
       style="color:#000000;fill:#e74c3c;fill-opacity:1;fill-rule:nonzero;stroke:#ecf0f1;stroke-width:3.98076892;stroke-opacity:1;marker:none;visibility:visible;display:inline;overflow:visible;enable-background:accumulate"
       inkscape:transform-center-x="-0.0094491195"
       inkscape:transform-center-y="-5.3404321"
       d="m 155.14276,111.21646 -27.13345,0.0116 -27.13344,-0.006 13.55256,-16.044752 13.55254,-16.044756 13.58089,16.033588 z"
       id="path5052"
       inkscape:connector-curvature="0"
       sodipodi:nodetypes="ccccccc" />
    <path
       style="color:#000000;fill:#934b1b;fill-opacity:1;fill-rule:nonzero;stroke:none;stroke-width:3.98076892;marker:none;visibility:visible;display:inline;overflow:visible;enable-background:accumulate"
       inkscape:transform-center-x="-0.0094491195"
       inkscape:transform-center-y="-4.5168575"
       d="m 155.11977,42.939023 -27.13345,0.0098 -27.13344,-0.0051 13.55256,-13.570341 13.55254,-13.570343 13.58089,13.560898 z"
       id="path5052-0"
       inkscape:connector-curvature="0"
       sodipodi:nodetypes="ccccccc" />
    <rect
       style="color:#000000;fill:#e74c3c;fill-opacity:1;fill-rule:nonzero;stroke:#ecf0f1;stroke-width:4.1329999;stroke-linecap:butt;stroke-linejoin:miter;stroke-miterlimit:10;stroke-opacity:1;stroke-dasharray:none;stroke-dashoffset:0;marker:none;visibility:visible;display:inline;overflow:visible;enable-background:accumulate"
       id="rect5055"
       width="31.867376"
       height="19.355707"
       x="112.06631"
       y="45.0844" />
  </g>
  <rect
     style="color:#000000;fill:#ffffff;fill-opacity:1;fill-rule:nonzero;stroke:none;stroke-width:4.1329999;marker:none;visibility:visible;display:inline;overflow:visible;enable-background:accumulate"
     id="rect5077"
     width="36"
     height="12"
     x="110"
     y="176.48199" />
  <rect
     style="color:#000000;fill:#3498db;fill-opacity:1;fill-rule:nonzero;stroke:none;stroke-width:4.1329999;marker:none;visibility:visible;display:inline;overflow:visible;enable-background:accumulate"
     id="rect5079"
     width="36"
     height="48"
     x="110"
     y="128.75" />
  <path
     style="color:#000000;fill:#34495e;fill-opacity:1;fill-rule:nonzero;stroke:#ecf0f1;stroke-width:4.1329999;stroke-opacity:1;marker:none;visibility:visible;display:inline;overflow:visible;enable-background:accumulate"
     d="m 74.066498,131.5 27.000002,0 0,39 -27.000002,0 z"
     id="rect5081" />
  <path
     style="color:#000000;fill:#34495e;fill-opacity:1;fill-rule:nonzero;stroke:#ecf0f1;stroke-width:4.1329999;stroke-opacity:1;marker:none;visibility:visible;display:inline;overflow:visible;enable-background:accumulate"
     d="m 155.6609,131.4995 27,0 0,39 -27,0 z"
     id="rect5081-1" />
</svg>
