<?xml version="1.0" encoding="UTF-8" standalone="no"?>
<!-- Created with Inkscape (http://www.inkscape.org/) -->

<svg
   xmlns:dc="http://purl.org/dc/elements/1.1/"
   xmlns:cc="http://creativecommons.org/ns#"
   xmlns:rdf="http://www.w3.org/1999/02/22-rdf-syntax-ns#"
   xmlns:svg="http://www.w3.org/2000/svg"
   xmlns="http://www.w3.org/2000/svg"
   xmlns:sodipodi="http://sodipodi.sourceforge.net/DTD/sodipodi-0.dtd"
   xmlns:inkscape="http://www.inkscape.org/namespaces/inkscape"
   width="980"
   height="256"
   id="svg2"
   version="1.1"
   inkscape:version="0.48.4 r9939"
   sodipodi:docname="skinny-logo.svg"
   inkscape:export-filename="C:\Users\Ryan Cooper\Documents\GitHub\GSCPC-Website-Stuff\img\skinny-logo.png"
   inkscape:export-xdpi="90"
   inkscape:export-ydpi="90">
  <defs
     id="defs4" />
  <sodipodi:namedview
     id="base"
     pagecolor="#ffffff"
     bordercolor="#666666"
     borderopacity="1.0"
     inkscape:pageopacity="0.0"
     inkscape:pageshadow="2"
     inkscape:zoom="0.35"
     inkscape:cx="-70.714286"
     inkscape:cy="520"
     inkscape:document-units="px"
     inkscape:current-layer="layer1"
     showgrid="false"
     showguides="true"
     inkscape:guide-bbox="true"
     inkscape:window-width="1920"
     inkscape:window-height="1018"
     inkscape:window-x="-8"
     inkscape:window-y="-8"
     inkscape:window-maximized="1">
    <sodipodi:guide
       orientation="1,0"
       position="100,128"
       id="guide2989" />
    <sodipodi:guide
       orientation="1,0"
       position="882.85714,-74.285714"
       id="guide2991" />
    <sodipodi:guide
       orientation="0,1"
       position="490,128"
       id="guide2993" />
  </sodipodi:namedview>
  <metadata
     id="metadata7">
    <rdf:RDF>
      <cc:Work
         rdf:about="">
        <dc:format>image/svg+xml</dc:format>
        <dc:type
           rdf:resource="http://purl.org/dc/dcmitype/StillImage" />
        <dc:title></dc:title>
      </cc:Work>
    </rdf:RDF>
  </metadata>
  <g
     inkscape:label="Layer 1"
     inkscape:groupmode="layer"
     id="layer1"
     transform="translate(0,-796.36218)">
    <g
       style="font-size:157.72512817000000000px;font-style:normal;font-variant:normal;font-weight:normal;font-stretch:normal;text-align:start;line-height:125%;letter-spacing:0px;word-spacing:0px;writing-mode:lr-tb;text-anchor:start;fill:#ffffff;fill-opacity:1;stroke:none;font-family:Goudy Old Style;-inkscape-font-specification:Goudy Old Style"
       id="text2985"
       transform="matrix(0.91838948,0,0,0.91838948,8.1610516,34.630423)"
       inkscape:export-filename="C:\Users\Ryan Cooper\Documents\GitHub\GSCPC-Website-Stuff\img\skinny-logo_white.png"
       inkscape:export-xdpi="90"
       inkscape:export-ydpi="90">
      <path
         d="m 180.63389,885.37236 -21.641,0 c -2.25914,9e-5 -3.6839,0.30815 -4.27428,0.92417 -0.5905,0.61621 -0.88572,2.13082 -0.88567,4.54384 l 0,75.47394 0.077,3.00355 c 0.25666,6.00712 3.61961,9.57544 10.08886,10.70498 1.79693,0.30806 2.69543,0.8985 2.6955,1.77132 -7e-5,1.12955 -0.71887,1.69432 -2.1564,1.69432 -0.61618,0 -1.87408,-0.15403 -3.7737,-0.46209 -0.97557,-0.15403 -3.286,-0.23104 -6.93128,-0.23104 l -5.62204,-0.077 -6.00711,0.077 c -2.15643,0 -3.9791,0.077 -5.46801,0.23104 -2.92657,0.30806 -4.64655,0.46209 -5.15995,0.46209 -1.54031,0 -2.31045,-0.56477 -2.31043,-1.69432 -2e-5,-0.82148 0.84713,-1.33491 2.54147,-1.54028 3.95336,-0.51343 6.62319,-1.60446 8.00948,-3.2731 1.38622,-1.66864 2.07935,-4.65935 2.07939,-8.97216 l 0,-76.3211 -0.077,-2.00237 c -4e-5,-1.84824 -0.26959,-3.02913 -0.80865,-3.54265 -0.53914,-0.51333 -1.7842,-0.77005 -3.73519,-0.77014 l -20.40877,0 c -4.15878,9e-5 -7.17516,0.83441 -9.04917,2.50296 -1.87402,1.66873 -3.32445,4.81348 -4.3513,9.43424 -0.46209,2.00246 -1.15522,2.97797 -2.07938,2.92654 C 100.46208,900.18484 100,899.49171 100,898.15672 c 0,-1.07812 0.30806,-3.05481 0.92417,-5.9301 0.77014,-3.69659 1.15521,-6.75148 1.15521,-9.16469 0,-2.36167 0.26955,-3.91479 0.80865,-4.65936 0.5391,-0.74437 1.68148,-1.1166 3.42714,-1.11671 l 82.8673,0 c 2.82376,1.1e-4 4.53091,0.30817 5.12145,0.92417 0.59034,0.61622 0.88556,2.43889 0.88566,5.46801 -1e-4,3.02933 0.12826,5.23707 0.38507,6.62323 0.25662,1.74574 0.41065,3.00364 0.46209,3.77369 0.0512,1.54038 -0.48786,2.36186 -1.6173,2.46446 -0.92427,0.0514 -1.54038,-0.74438 -1.84834,-2.38744 -0.66755,-3.64525 -1.74575,-6.01985 -3.2346,-7.12382 -1.48903,-1.10377 -4.3899,-1.65571 -8.70261,-1.6558 z"
         id="path2996"
         inkscape:connector-curvature="0"
         style="fill:#ffffff;fill-opacity:1" />
      <path
         d="m 221.06636,930.04061 c 6.62319,-8.16345 13.83685,-12.2452 21.641,-12.24526 7.23928,6e-5 13.10519,2.49018 17.59775,7.47038 4.49242,4.9803 6.73867,11.50083 6.73874,19.56161 l 0,24.41351 c -7e-5,3.90206 0.64171,6.57188 1.92536,8.00948 1.28349,1.4376 4.00466,2.49012 8.1635,3.15758 1.38618,0.20537 2.0793,0.77014 2.07939,1.69431 -9e-5,0.92417 -0.69321,1.38626 -2.07939,1.38626 -0.61619,0 -1.87409,-0.077 -3.77369,-0.23105 -3.79945,-0.25671 -7.05971,-0.38507 -9.78081,-0.38507 -4.51823,0 -7.85551,0.15403 -10.01185,0.46209 -1.23228,0.15403 -2.0281,0.23104 -2.38744,0.23104 -1.38631,0 -2.10511,-0.46208 -2.1564,-1.38625 -0.0514,-0.61612 0.46203,-1.12954 1.54029,-1.54029 2.61842,-0.97551 4.23572,-1.86117 4.85189,-2.65699 0.61606,-0.79581 0.92411,-2.34893 0.92417,-4.65936 l 0.077,-2.38744 0,-25.64574 c -6e-5,-6.52049 -1.6687,-11.69327 -5.00593,-15.51836 -3.33733,-3.82499 -7.80415,-5.7375 -13.40047,-5.73756 -4.31284,6e-5 -8.21489,1.36064 -11.70616,4.08175 -3.49134,2.72122 -5.237,5.77612 -5.23697,9.16469 l 0,29.80451 c -3e-5,5.23698 0.59042,8.6256 1.77133,10.16588 1.18085,1.54028 4.05605,2.61848 8.62559,3.23459 1.74562,0.25672 2.61845,0.8985 2.61848,1.92536 -3e-5,0.87283 -0.56481,1.30924 -1.69431,1.30924 -0.56481,0 -1.97673,-0.12836 -4.23578,-0.38507 -1.84837,-0.20537 -5.75042,-0.30806 -11.70616,-0.30806 -2.05373,0 -5.00594,0.15403 -8.85664,0.46209 -1.69432,0.15402 -2.87521,0.23104 -3.54265,0.23104 -1.23224,0 -1.87402,-0.41074 -1.92536,-1.23223 -0.0513,-0.92417 0.53909,-1.56595 1.77133,-1.92535 3.02921,-0.92417 4.89039,-1.9767 5.58353,-3.15759 0.69311,-1.18087 1.03968,-3.97906 1.03969,-8.39455 l 0,-80.24882 c -1e-5,-6.31506 -1.72,-9.36996 -5.15995,-9.16469 l -3.92773,0.23104 c -0.41074,1.1e-4 -0.77014,-0.0769 -1.0782,-0.23104 -0.3594,-0.20527 -0.5391,-0.539 -0.5391,-1.00118 0,-0.7187 0.59044,-1.23213 1.77133,-1.54029 3.23459,-0.77003 6.82858,-2.10495 10.78199,-4.00474 l 6.00711,-2.84952 c 0.61609,-0.30795 1.15519,-0.46198 1.6173,-0.46209 0.8728,1.1e-4 1.30922,0.56488 1.30924,1.69431 -2e-5,0.30817 -0.0514,0.92428 -0.15403,1.84834 -0.0514,0.87294 -0.077,2.18218 -0.077,3.92773 z"
         id="path2998"
         inkscape:connector-curvature="0"
         style="fill:#ffffff;fill-opacity:1" />
      <path
         d="m 297.46447,944.13421 -0.077,1.69431 c -1e-5,8.77965 2.42593,16.16017 7.27785,22.14159 4.85186,5.98145 10.82046,8.97216 17.9058,8.97216 5.59632,0 11.68044,-2.51579 18.25237,-7.5474 0.41069,-0.30804 0.79576,-0.48774 1.15522,-0.53909 0.71873,-0.0513 1.07813,0.35941 1.0782,1.23222 -7e-5,1.5403 -1.79706,3.72237 -5.391,6.54621 -6.67462,5.23697 -13.73425,7.85545 -21.17891,7.85545 -8.36891,0 -15.39003,-3.18325 -21.06339,-9.54976 -5.67339,-6.3665 -8.51008,-14.24761 -8.51007,-23.64337 -1e-5,-8.93361 2.92653,-16.75054 8.77962,-23.45083 5.85306,-6.70017 12.70732,-10.05029 20.5628,-10.05035 8.5742,6e-5 15.42846,3.56838 20.56279,10.70497 1.23217,1.74571 2.49007,4.10748 3.7737,7.08531 1.28351,2.97793 1.9253,5.05731 1.92536,6.23815 -6e-5,1.69435 -1.6687,2.54151 -5.00593,2.54147 l -5.69905,-0.077 -5.23697,-0.15403 z m 0.30805,-4.15877 26.10782,0 c 4.05604,4e-5 6.08408,-0.82144 6.08413,-2.46445 -5e-5,-4.00469 -1.73287,-7.72704 -5.19846,-11.16707 -3.46568,-3.4399 -7.22654,-5.15989 -11.28259,-5.15995 -4.21013,6e-5 -7.71428,1.68154 -10.51244,5.04443 -2.7982,3.36301 -4.53102,7.94535 -5.19846,13.74704 z"
         id="path3000"
         inkscape:connector-curvature="0"
         style="fill:#ffffff;fill-opacity:1" />
      <path
         d="m 427.00239,875.20648 c 5.49363,1.1e-4 10.14015,0.79592 13.93957,2.38744 l 5.31398,2.23341 c 0.46203,0.20548 0.92411,0.30816 1.38626,0.30806 0.61605,10e-5 1.23217,-0.25661 1.84834,-0.77014 l 1.0782,-0.92417 c 0.15397,-0.20527 0.43635,-0.30795 0.84716,-0.30806 1.2835,-0.0512 1.92529,1.20666 1.92535,3.7737 -6e-5,0.87293 0.33366,3.46573 1.00119,7.77843 l 1.23223,7.93247 c 0.25664,1.6944 0.385,2.74692 0.38507,3.15758 -7e-5,1.59171 -0.53917,2.38752 -1.6173,2.38744 -0.82155,8e-5 -1.64304,-1.23214 -2.46446,-3.69668 -1.8484,-5.54494 -5.60926,-10.11444 -11.28258,-13.70853 -5.67343,-3.5939 -12.00143,-5.39089 -18.98401,-5.391 -5.54505,1.1e-4 -10.17873,1.63024 -13.90106,4.89041 -3.72238,3.26036 -5.58355,7.32927 -5.58354,12.20675 -1e-5,4.31288 1.20654,8.03523 3.61967,11.16706 2.10504,2.6699 4.40263,4.62093 6.89278,5.85308 2.49009,1.2323 8.61272,3.46571 18.36789,6.70024 18.99678,6.21254 28.49519,16.40408 28.49526,30.57465 -7e-5,9.60113 -3.49138,17.45657 -10.47393,23.56635 -6.98268,6.1098 -15.94199,9.16469 -26.87797,9.16469 -3.95343,0 -8.30472,-0.56477 -13.05391,-1.69431 -4.74923,-1.12954 -8.2277,-2.43878 -10.43543,-3.92773 -0.92418,-0.61611 -1.54029,-1.27073 -1.84834,-1.96386 -0.30806,-0.69312 -0.77015,-2.47728 -1.38625,-5.35249 -0.1027,-0.41073 -0.74448,-2.74682 -1.92536,-7.00829 -1.33492,-4.62083 -2.00237,-7.90677 -2.00237,-9.85782 0,-1.54026 0.51342,-2.28473 1.54029,-2.23341 0.92416,0.0514 1.74564,1.30927 2.46445,3.77369 1.84833,6.36653 5.75038,11.70618 11.70616,16.01896 5.95574,4.3128 12.42493,6.4692 19.40759,6.4692 7.08526,0 13.07953,-2.07938 17.98282,-6.23816 4.90317,-4.15875 7.35479,-9.21601 7.35486,-15.1718 -7e-5,-5.69902 -2.25915,-10.49957 -6.77725,-14.40166 -2.31049,-2.00233 -8.98505,-4.85185 -20.0237,-8.54858 -11.39813,-3.85066 -19.47178,-8.11211 -24.22098,-12.78436 -4.74922,-4.67213 -7.12382,-10.73057 -7.12381,-18.17535 -10e-6,-8.31745 3.09339,-15.0947 9.28021,-20.33176 6.18679,-5.23686 14.15775,-7.85534 23.91292,-7.85545 z"
         id="path3002"
         inkscape:connector-curvature="0"
         style="fill:#ffffff;fill-opacity:1" />
      <path
         d="m 497.70145,936.27876 0,28.1872 c -3e-5,5.90444 0.79578,9.80649 2.38744,11.70617 1.59159,1.89968 5.23693,3.31161 10.93602,4.23578 1.48889,0.25671 2.25903,0.79581 2.31043,1.6173 0.0513,1.02685 -0.56482,1.51461 -1.84835,1.46327 -0.71884,-0.0513 -2.1051,-0.15403 -4.15876,-0.30806 -1.69436,-0.15403 -4.74925,-0.23104 -9.1647,-0.23104 l -6.16113,-0.077 -5.46801,0.15403 c -2.15642,0 -3.56835,0.0257 -4.23579,0.077 -2.72118,0.25671 -4.26146,0.38507 -4.62085,0.38507 -1.69432,0 -2.54148,-0.61612 -2.54147,-1.84834 -10e-6,-0.82149 0.74446,-1.30924 2.23341,-1.46327 3.18324,-0.30806 5.40382,-1.82267 6.66173,-4.54384 1.25788,-2.72116 1.88683,-7.29067 1.88685,-13.70853 l 0,-65.46209 c -2e-5,-5.49359 -0.59046,-9.33147 -1.77133,-11.51363 -1.1809,-2.18197 -3.43998,-3.6324 -6.77725,-4.3513 l -3.77369,-0.77015 c -1.33492,-0.30795 -2.00238,-0.84705 -2.00237,-1.6173 -1e-5,-1.07809 0.69312,-1.61719 2.07938,-1.61729 0.77013,10e-5 1.6943,0.0771 2.77251,0.23104 2.61847,0.30816 6.72589,0.46219 12.32228,0.46208 l 2.84952,-0.077 5.77607,-0.15403 c 1.54025,1.1e-4 2.87516,-0.0256 4.00474,-0.077 2.05368,-0.20527 3.2859,-0.30795 3.69668,-0.30806 1.23219,-0.0512 1.8483,0.43652 1.84834,1.46327 -4e-5,0.7189 -0.61615,1.33502 -1.84834,1.84834 -3.23463,1.38636 -5.2755,2.96515 -6.12263,4.73638 -0.84719,1.77142 -1.27076,5.27556 -1.27073,10.51244 l 0,30.03555 c -3e-5,1.07825 0.23101,1.61735 0.69313,1.61729 l 1.23222,-0.84715 1.15522,-0.92417 33.11611,-29.65048 c 5.08287,-4.51808 7.62434,-8.13774 7.62441,-10.859 -7e-5,-2.36167 -1.84841,-3.87629 -5.54502,-4.54384 -2.36184,-0.3593 -3.54272,-1.02676 -3.54266,-2.00237 -6e-5,-1.0781 0.79575,-1.6172 2.38744,-1.6173 0.46202,1e-4 1.15515,0.0514 2.07939,0.15403 2.15632,0.20547 4.56943,0.30816 7.23933,0.30805 l 7.08531,0.23105 5.77607,-0.077 c 3.2345,1.1e-4 5.36523,-0.0769 6.39218,-0.23104 1.18079,-0.20527 1.9766,-0.30795 2.38744,-0.30806 1.38616,1.1e-4 2.13063,0.51354 2.23341,1.54029 0.0512,0.82159 -1.18098,1.54038 -3.69668,2.15639 -4.62095,1.18099 -13.47757,7.65018 -26.56991,19.40759 l -26.41587,23.79739 c -1.12959,1.02692 -1.72003,1.8484 -1.77133,2.46446 -0.0514,0.7702 0.56473,1.84839 1.84834,3.2346 l 40.20142,41.89573 c 4.26137,4.46684 8.90789,7.21367 13.93958,8.24053 l 3.38862,0.69312 c 1.18078,0.25672 1.77123,0.77015 1.77133,1.54029 -10e-5,1.28357 -0.79592,1.87401 -2.38744,1.77132 -0.46219,0 -1.0783,-0.0513 -1.84834,-0.15402 -0.97561,-0.15403 -3.18335,-0.23105 -6.62322,-0.23105 -3.08066,0 -5.31407,0.0514 -6.70024,0.15403 -1.54037,0.10269 -2.72126,0.15403 -3.54266,0.15403 -1.74573,0 -3.26035,-0.69313 -4.54384,-2.07938 l -1.30924,-1.46327 -41.27962,-42.58887 -1.54028,-1.69431 c -0.61615,-0.56473 -1.23227,-0.84711 -1.84835,-0.84716 -0.9242,5e-5 -1.38628,0.59049 -1.38625,1.77133 z"
         id="path3004"
         inkscape:connector-curvature="0"
         style="fill:#ffffff;fill-opacity:1" />
      <path
         d="m 600.36141,899.77402 0,57.60664 c -3e-5,7.18801 0.43638,11.93721 1.30924,14.24763 1.02682,2.61849 2.29756,4.46683 3.8122,5.54502 1.51458,1.0782 3.88918,1.84835 7.12382,2.31043 2.56709,0.3594 3.85066,1.00118 3.85071,1.92535 -5e-5,1.23223 -0.79586,1.84834 -2.38744,1.84834 -0.77019,0 -1.7457,-0.077 -2.92654,-0.23104 -1.59167,-0.20537 -4.31283,-0.30806 -8.16351,-0.30805 l -11.16706,-0.15403 -9.08768,0.5391 c -1.48895,0.15402 -2.72118,0.23104 -3.69668,0.23104 -1.38627,0 -2.07939,-0.5391 -2.07938,-1.6173 -10e-6,-0.92417 0.7958,-1.51461 2.38744,-1.77133 3.90204,-0.66745 6.41783,-2.0152 7.54739,-4.04324 1.12952,-2.02804 1.69429,-6.30232 1.69431,-12.82287 l 0,-65.92418 c -2e-5,-6.36641 -0.73165,-10.65353 -2.1949,-12.86137 -1.46329,-2.20764 -4.58236,-3.69658 -9.35723,-4.46683 -1.59163,-0.30795 -2.41312,-0.92406 -2.46446,-1.84834 -0.0513,-1.12943 0.69313,-1.6942 2.23342,-1.69431 0.41073,1.1e-4 0.87282,0.0258 1.38625,0.077 3.74801,0.41085 8.72826,0.61622 14.94076,0.61612 3.79934,10e-5 7.05961,-0.0769 9.78081,-0.23105 l 5.15995,-0.38507 c 0.97547,-0.0512 1.61726,-0.0769 1.92536,-0.077 1.38621,1.1e-4 2.07934,0.48786 2.07938,1.46327 -4e-5,0.92427 -0.6675,1.6174 -2.00237,2.07938 l -4.00474,1.54029 c -3.7994,1.4377 -5.69908,7.57316 -5.69905,18.4064 z"
         id="path3006"
         inkscape:connector-curvature="0"
         style="fill:#ffffff;fill-opacity:1" />
      <path
         d="m 720.19555,906.78231 0,64.53792 c -10e-5,5.80174 -0.12845,9.33156 -0.38507,10.58946 -0.25681,1.25789 -0.97561,1.86117 -2.1564,1.80983 -0.77024,-0.0513 -1.36068,-0.28239 -1.77132,-0.69313 l -1.69432,-2.00237 -64.92299,-74.24171 -0.77014,-0.84715 c -0.30808,-0.30798 -0.66748,-0.46201 -1.0782,-0.46209 -0.97554,8e-5 -1.46329,1.15529 -1.46327,3.46564 l 0,52.21564 -0.077,3.2346 0.23104,5.46801 c 0.35937,3.38863 1.2322,5.72473 2.61848,7.00829 1.38623,1.28358 4.1074,2.23342 8.16351,2.84953 1.69428,0.20537 2.54143,0.87283 2.54147,2.00237 -4e-5,1.02686 -0.53914,1.54028 -1.6173,1.54028 -0.71883,0 -1.48898,-0.0513 -2.31042,-0.15402 -0.56481,-0.10269 -2.79822,-0.25672 -6.70024,-0.46209 l -7.85545,-0.38507 -3.69669,0.15403 c -2.00238,0 -3.90206,0.12836 -5.69905,0.38507 -1.33492,0.20537 -2.28476,0.30806 -2.84952,0.30806 -1.33492,0 -2.05372,-0.48776 -2.1564,-1.46327 -0.0513,-0.77014 0.66745,-1.41193 2.1564,-1.92536 4.31278,-1.48894 7.22648,-3.47847 8.74111,-5.9686 1.51459,-2.49012 2.2719,-6.50769 2.27192,-12.05273 l 0,-52.36967 c -2e-5,-8.88222 -1.41195,-15.87768 -4.23578,-20.98637 -2.82387,-5.10852 -6.90562,-8.02222 -12.24526,-8.74112 -1.38626,-0.20527 -2.07939,-0.79571 -2.07939,-1.77133 0,-0.9754 0.56477,-1.46316 1.69431,-1.46327 0.25672,1.1e-4 0.66746,0.0258 1.23223,0.077 l 3.15759,0.077 5.15995,0.15403 1.23223,-0.077 c 1.23221,-0.0512 2.18205,-0.0769 2.84952,-0.077 1.28356,1.1e-4 2.56712,0.74458 3.85071,2.23341 l 70.85309,80.24882 c 1.12945,1.2836 1.84825,1.89971 2.1564,1.84835 0.51333,-0.0513 0.79572,-0.53908 0.84715,-1.46327 l 0,-38.12204 0.077,-10.39692 -0.92417,-17.71328 c -0.51352,-4.36404 -1.78426,-7.45744 -3.81221,-9.28021 -2.02813,-1.82257 -5.6863,-3.17032 -10.97452,-4.04325 -1.48902,-0.25661 -2.23349,-0.89839 -2.23342,-1.92535 -7e-5,-0.97541 0.7444,-1.46317 2.23342,-1.46327 0.66737,10e-5 1.74557,0.0771 3.23459,0.23104 3.54257,0.41085 8.29178,0.61622 14.24763,0.61611 3.18316,1.1e-4 5.72463,-0.15392 7.62441,-0.46208 1.64287,-0.30795 2.90077,-0.46198 3.7737,-0.46209 1.3348,1.1e-4 2.0536,0.53921 2.1564,1.6173 0.0512,0.66756 -0.4622,1.15532 -1.54029,1.46327 -3.13201,0.77025 -5.19856,2.05382 -6.19964,3.85071 -1.00129,1.7971 -1.50188,5.16005 -1.50178,10.08887 l 0,8.31753 z"
         id="path3008"
         inkscape:connector-curvature="0"
         style="fill:#ffffff;fill-opacity:1" />
      <path
         d="m 836.94909,906.78231 0,64.53792 c -10e-5,5.80174 -0.12845,9.33156 -0.38507,10.58946 -0.25681,1.25789 -0.97561,1.86117 -2.1564,1.80983 -0.77024,-0.0513 -1.36068,-0.28239 -1.77132,-0.69313 l -1.69432,-2.00237 -64.92299,-74.24171 -0.77014,-0.84715 c -0.30808,-0.30798 -0.66748,-0.46201 -1.0782,-0.46209 -0.97554,8e-5 -1.46329,1.15529 -1.46327,3.46564 l 0,52.21564 -0.077,3.2346 0.23104,5.46801 c 0.35937,3.38863 1.2322,5.72473 2.61848,7.00829 1.38623,1.28358 4.1074,2.23342 8.16351,2.84953 1.69428,0.20537 2.54143,0.87283 2.54147,2.00237 -4e-5,1.02686 -0.53914,1.54028 -1.6173,1.54028 -0.71883,0 -1.48898,-0.0513 -2.31042,-0.15402 -0.56481,-0.10269 -2.79822,-0.25672 -6.70024,-0.46209 l -7.85545,-0.38507 -3.69669,0.15403 c -2.00238,0 -3.90206,0.12836 -5.69905,0.38507 -1.33492,0.20537 -2.28476,0.30806 -2.84952,0.30806 -1.33492,0 -2.05372,-0.48776 -2.1564,-1.46327 -0.0513,-0.77014 0.66745,-1.41193 2.1564,-1.92536 4.31278,-1.48894 7.22648,-3.47847 8.74111,-5.9686 1.51459,-2.49012 2.2719,-6.50769 2.27192,-12.05273 l 0,-52.36967 c -2e-5,-8.88222 -1.41195,-15.87768 -4.23578,-20.98637 -2.82387,-5.10852 -6.90562,-8.02222 -12.24526,-8.74112 -1.38626,-0.20527 -2.07939,-0.79571 -2.07939,-1.77133 0,-0.9754 0.56477,-1.46316 1.69431,-1.46327 0.25672,1.1e-4 0.66746,0.0258 1.23223,0.077 l 3.15759,0.077 5.15995,0.15403 1.23223,-0.077 c 1.23221,-0.0512 2.18205,-0.0769 2.84952,-0.077 1.28356,1.1e-4 2.56712,0.74458 3.85071,2.23341 l 70.85309,80.24882 c 1.12945,1.2836 1.84825,1.89971 2.1564,1.84835 0.51333,-0.0513 0.79572,-0.53908 0.84715,-1.46327 l 0,-38.12204 0.077,-10.39692 -0.92417,-17.71328 c -0.51352,-4.36404 -1.78426,-7.45744 -3.81221,-9.28021 -2.02813,-1.82257 -5.6863,-3.17032 -10.97452,-4.04325 -1.48902,-0.25661 -2.23349,-0.89839 -2.23342,-1.92535 -7e-5,-0.97541 0.7444,-1.46317 2.23342,-1.46327 0.66737,10e-5 1.74557,0.0771 3.23459,0.23104 3.54257,0.41085 8.29178,0.61622 14.24763,0.61611 3.18316,1.1e-4 5.72463,-0.15392 7.62441,-0.46208 1.64287,-0.30795 2.90077,-0.46198 3.7737,-0.46209 1.3348,1.1e-4 2.0536,0.53921 2.1564,1.6173 0.0512,0.66756 -0.4622,1.15532 -1.54029,1.46327 -3.13201,0.77025 -5.19856,2.05382 -6.19964,3.85071 -1.00129,1.7971 -1.50188,5.16005 -1.50178,10.08887 l 0,8.31753 z"
         id="path3010"
         inkscape:connector-curvature="0"
         style="fill:#ffffff;fill-opacity:1" />
      <path
         d="m 907.49416,966.62236 c -5e-5,5.95578 0.4877,9.60112 1.46327,10.93602 0.97546,1.33492 3.77364,2.23342 8.39455,2.6955 1.59156,0.15403 2.38738,0.69313 2.38744,1.6173 -6e-5,1.23223 -0.89856,1.84834 -2.6955,1.84834 -0.56483,0 -1.89974,-0.12836 -4.00474,-0.38507 -1.28362,-0.15403 -3.15764,-0.30806 -5.62203,-0.46209 l -6.08413,-0.30805 -6.00711,0.15403 c -3.7994,-10e-6 -6.34087,0.077 -7.62441,0.23104 -1.48897,0.20537 -2.46448,0.30805 -2.92654,0.30805 -1.18091,0 -1.77135,-0.43641 -1.77132,-1.30924 -3e-5,-1.02685 0.84712,-1.66864 2.54147,-1.92535 4.31276,-0.61611 7.04676,-1.75849 8.20201,-3.42714 1.15517,-1.66863 1.73278,-5.24979 1.73282,-10.74348 l 0.077,-3.31161 0,-22.95024 c -5e-5,-3.28589 -0.23109,-5.699 -0.69313,-7.23934 -0.46213,-1.54023 -1.59167,-3.7223 -3.38863,-6.54621 l -21.48697,-34.1173 -2.61848,-4.23578 c -1.48895,-2.41301 -3.59401,-4.37687 -6.31517,-5.89159 -2.72117,-1.51451 -5.41667,-2.27181 -8.08649,-2.27192 -1.48894,1.1e-4 -2.23341,-0.46198 -2.23341,-1.38625 0,-1.12944 0.79581,-1.69421 2.38744,-1.69431 1.28357,10e-5 2.59281,0.0771 3.92772,0.23104 3.33728,0.3595 6.82859,0.5392 10.47394,0.5391 7.54737,10e-5 12.37359,-0.10258 14.47867,-0.30806 2.25906,-0.20526 3.61964,-0.30795 4.08176,-0.30806 1.4889,1.1e-4 2.23337,0.51354 2.23341,1.54029 -4e-5,0.77024 -0.59048,1.33501 -1.77133,1.69431 -3.44,1.02696 -5.15998,2.77261 -5.15995,5.23697 -3e-5,1.33501 1.10384,3.79946 3.31161,7.39336 l 2.1564,3.69669 16.09597,25.41469 1.00119,1.54028 c 0.46203,0.71886 0.92412,1.07826 1.38625,1.0782 0.56472,6e-5 1.10382,-0.35934 1.6173,-1.0782 l 0.77014,-1.15521 11.16706,-16.94313 3.7737,-6.00711 c 3.59393,-5.69896 5.39092,-9.524 5.391,-11.47512 -8e-5,-3.43987 -3.23467,-5.92999 -9.70379,-7.47038 -1.28364,-0.30795 -1.89975,-0.89839 -1.84835,-1.77132 0.0513,-0.87273 0.64173,-1.30914 1.77133,-1.30925 0.77008,1.1e-4 2.13066,0.15414 4.08175,0.46209 1.48888,0.25682 5.08287,0.38518 10.782,0.38507 5.23688,1.1e-4 8.57416,-0.0769 10.01184,-0.23104 1.95094,-0.20527 3.31152,-0.33362 4.08176,-0.38507 1.38616,-0.10258 2.07929,0.3595 2.07938,1.38625 -9e-5,0.82159 -0.64188,1.4377 -1.92535,1.84834 -4.5696,1.48905 -8.36897,4.36424 -11.39811,8.6256 l -5.00592,7.47038 -18.71446,27.87915 -1.84834,2.61848 c -1.95108,2.77256 -2.92659,5.31403 -2.92654,7.62441 z"
         id="path3012"
         inkscape:connector-curvature="0"
         style="fill:#ffffff;fill-opacity:1" />
    </g>
    <g
       style="font-size:40px;font-style:normal;font-variant:normal;font-weight:normal;font-stretch:normal;line-height:125%;letter-spacing:0px;word-spacing:0px;fill:#ffffff;fill-opacity:1;stroke:none;font-family:Open Sans;-inkscape-font-specification:Open Sans"
       id="text3782"
       transform="matrix(1.9282073,0,0,1.9282073,-757.2167,-937.39269)">
      <path
         d="m 713.30359,1009.5051 -3.55469,-9.082 -11.44531,0 -3.51563,9.082 -3.35937,0 11.28906,-28.67185 2.79297,0 11.23047,28.67185 z m -4.58984,-12.07029 -3.32032,-8.84765 c -0.4297,-1.11977 -0.87241,-2.49347 -1.32812,-4.1211 -0.28647,1.25003 -0.69663,2.62372 -1.23047,4.1211 l -3.35938,8.84765 z"
         id="path3787"
         inkscape:connector-curvature="0"
         style="fill:#ffffff;fill-opacity:1" />
      <path
         d="m 729.94421,987.70825 c 0.95051,2e-5 1.80337,0.0781 2.5586,0.23438 l -0.44922,3.00781 c -0.88543,-0.19529 -1.66668,-0.29295 -2.34375,-0.29297 -1.73178,2e-5 -3.2129,0.70314 -4.44336,2.10938 -1.23048,1.40626 -1.84571,3.15756 -1.8457,5.2539 l 0,11.48435 -3.24219,0 0,-21.40622 2.67578,0 0.37109,3.96484 0.15625,0 c 0.79427,-1.39321 1.7513,-2.46743 2.8711,-3.22266 1.11978,-0.75518 2.35025,-1.13279 3.6914,-1.13281 z"
         id="path3789"
         inkscape:connector-curvature="0"
         style="fill:#ffffff;fill-opacity:1" />
      <path
         d="m 745.0614,1009.8958 c -3.09897,0 -5.49805,-0.9538 -7.19726,-2.8614 -1.69923,-1.9075 -2.54883,-4.6061 -2.54883,-8.09568 0,-3.58071 0.86262,-6.34764 2.58789,-8.30078 1.72525,-1.9531 4.18293,-2.92967 7.37305,-2.92969 1.02863,2e-5 2.05727,0.1107 3.08593,0.33203 1.02863,0.22138 1.83592,0.4818 2.42188,0.78125 l -0.9961,2.75391 c -0.71616,-0.28644 -1.49741,-0.52407 -2.34375,-0.71289 -0.84636,-0.18878 -1.59506,-0.28319 -2.24609,-0.2832 -4.34897,10e-6 -6.52344,2.77345 -6.52344,8.32031 0,2.63024 0.5306,4.64844 1.5918,6.05464 1.06119,1.4063 2.63345,2.1094 4.7168,2.1094 1.78384,0 3.61326,-0.3841 5.48828,-1.1523 l 0,2.8711 c -1.43231,0.7422 -3.23569,1.1133 -5.41016,1.1133 z"
         id="path3791"
         inkscape:connector-curvature="0"
         style="fill:#ffffff;fill-opacity:1" />
      <path
         d="m 770.21765,1009.5051 0,-13.84763 c -2e-5,-1.74478 -0.39715,-3.04686 -1.1914,-3.90625 -0.79429,-0.85936 -2.03778,-1.28904 -3.73047,-1.28906 -2.25262,2e-5 -3.8965,0.612 -4.93164,1.83594 -1.03517,1.22397 -1.55275,3.22918 -1.55274,6.01562 l 0,11.19138 -3.24219,0 0,-30.3906 3.24219,0 0,9.19922 c -1e-5,1.10679 -0.0521,2.02476 -0.15625,2.75391 l 0.19531,0 c 0.63802,-1.02863 1.54622,-1.83918 2.72461,-2.43164 1.17838,-0.59243 2.52278,-0.88865 4.03321,-0.88868 2.61717,3e-5 4.58006,0.62177 5.88867,1.86524 1.30857,1.24351 1.96287,3.21942 1.96289,5.92773 l 0,13.96482 z"
         id="path3793"
         inkscape:connector-curvature="0"
         style="fill:#ffffff;fill-opacity:1" />
      <path
         d="m 783.34265,1009.5051 -3.24219,0 0,-21.40622 3.24219,0 z m -3.51562,-27.207 c -1e-5,-0.74216 0.18228,-1.28578 0.54687,-1.63086 0.36458,-0.34503 0.82031,-0.51755 1.36719,-0.51758 0.52083,3e-5 0.97004,0.17581 1.34766,0.52734 0.37759,0.35159 0.56639,0.89196 0.5664,1.6211 -1e-5,0.72919 -0.18881,1.27281 -0.5664,1.63086 -0.37762,0.35809 -0.82683,0.53713 -1.34766,0.5371 -0.54688,3e-5 -1.00261,-0.17901 -1.36719,-0.5371 -0.36459,-0.35805 -0.54688,-0.90167 -0.54687,-1.63086 z"
         id="path3795"
         inkscape:connector-curvature="0"
         style="fill:#ffffff;fill-opacity:1" />
      <path
         d="m 794.94421,1009.5051 -8.125,-21.40622 3.47657,0 4.60937,12.69532 c 1.04166,2.9687 1.65364,4.8958 1.83594,5.7812 l 0.15625,0 c 0.14322,-0.6901 0.59569,-2.1191 1.35742,-4.2871 0.76171,-2.1679 2.47069,-6.89774 5.12695,-14.18942 l 3.47657,0 -8.125,21.40622 z"
         id="path3797"
         inkscape:connector-curvature="0"
         style="fill:#ffffff;fill-opacity:1" />
      <path
         d="m 819.37781,1009.8958 c -3.16407,0 -5.66082,-0.9636 -7.49024,-2.8907 -1.82943,-1.9271 -2.74414,-4.6028 -2.74414,-8.02732 0,-3.4505 0.84961,-6.19139 2.54883,-8.22265 1.69921,-2.03123 3.98111,-3.04686 6.8457,-3.04688 2.68228,2e-5 4.80467,0.88218 6.36719,2.64649 1.56248,1.76434 2.34373,4.09181 2.34375,6.98242 l 0,2.05078 -14.74609,0 c 0.0651,2.51306 0.69986,4.42056 1.90429,5.72266 1.20442,1.3021 2.90038,1.9531 5.0879,1.9531 2.30467,0 4.58331,-0.4817 6.83593,-1.4453 l 0,2.8906 c -1.14585,0.4948 -2.22983,0.8496 -3.25195,1.0645 -1.02215,0.2148 -2.25587,0.3223 -3.70117,0.3223 z m -0.87891,-19.4727 c -1.71876,10e-6 -3.0892,0.55991 -4.11133,1.67968 -1.02214,1.11981 -1.62435,2.66929 -1.80664,4.64844 l 11.19141,0 c -2e-5,-2.04426 -0.45575,-3.61001 -1.36719,-4.69726 -0.91147,-1.08723 -2.21355,-1.63085 -3.90625,-1.63086 z"
         id="path3799"
         inkscape:connector-curvature="0"
         style="fill:#ffffff;fill-opacity:1" />
      <path
         d="m 846.56531,1003.6653 c -2e-5,1.9922 -0.74221,3.5286 -2.22656,4.6094 -1.48439,1.0807 -3.56772,1.6211 -6.25,1.6211 -2.83855,0 -5.05209,-0.4493 -6.64063,-1.3477 l 0,-3.0078 c 1.02864,0.5208 2.13216,0.931 3.31055,1.2305 1.17838,0.2994 2.31444,0.4492 3.4082,0.4492 1.6927,0 2.99478,-0.2702 3.90625,-0.8106 0.91144,-0.5403 1.36717,-1.3639 1.36719,-2.4707 -2e-5,-0.8333 -0.36134,-1.5462 -1.08399,-2.1387 -0.72267,-0.5924 -2.13217,-1.2923 -4.22851,-2.09956 -1.9922,-0.74218 -3.40821,-1.38996 -4.24805,-1.94336 -0.83985,-0.55337 -1.46485,-1.18163 -1.875,-1.88477 -0.41016,-0.70311 -0.61524,-1.54295 -0.61523,-2.51953 -1e-5,-1.74477 0.70963,-3.12172 2.1289,-4.13086 1.41927,-1.00909 3.36588,-1.51365 5.83985,-1.51367 2.30467,2e-5 4.55727,0.46877 6.75781,1.40625 l -1.15234,2.63672 c -2.14846,-0.8854 -4.09507,-1.32811 -5.83985,-1.32812 -1.53647,10e-6 -2.69532,0.2409 -3.47656,0.72265 -0.78126,0.48179 -1.17188,1.14585 -1.17188,1.99219 0,0.57293 0.14648,1.06121 0.43946,1.46484 0.29296,0.40366 0.76496,0.78778 1.41601,1.15235 0.65104,0.36459 1.90104,0.89194 3.75,1.58203 2.53905,0.92449 4.25454,1.85548 5.14649,2.79294 0.89191,0.9375 1.33787,2.1159 1.33789,3.5352 z"
         id="path3801"
         inkscape:connector-curvature="0"
         style="fill:#ffffff;fill-opacity:1" />
    </g>
  </g>
</svg>
