<?xml version="1.0" encoding="UTF-8" standalone="no"?>
<!-- Created with Inkscape (http://www.inkscape.org/) -->

<svg
   xmlns:dc="http://purl.org/dc/elements/1.1/"
   xmlns:cc="http://creativecommons.org/ns#"
   xmlns:rdf="http://www.w3.org/1999/02/22-rdf-syntax-ns#"
   xmlns:svg="http://www.w3.org/2000/svg"
   xmlns="http://www.w3.org/2000/svg"
   xmlns:sodipodi="http://sodipodi.sourceforge.net/DTD/sodipodi-0.dtd"
   xmlns:inkscape="http://www.inkscape.org/namespaces/inkscape"
   width="256"
   height="256"
   id="svg2"
   version="1.1"
   inkscape:version="0.48.4 r9939"
   sodipodi:docname="street-owner_button.svg"
   inkscape:export-filename="C:\Users\Ryan Cooper\Documents\GitHub\GSCPC-Website-Stuff\img\street-owner_button.png"
   inkscape:export-xdpi="90"
   inkscape:export-ydpi="90">
  <defs
     id="defs4" />
  <sodipodi:namedview
     id="base"
     pagecolor="#ffffff"
     bordercolor="#666666"
     borderopacity="1.0"
     inkscape:pageopacity="0.0"
     inkscape:pageshadow="2"
     inkscape:zoom="2"
     inkscape:cx="61.37587"
     inkscape:cy="133.05727"
     inkscape:document-units="px"
     inkscape:current-layer="layer1"
     showgrid="false"
     showguides="false"
     inkscape:guide-bbox="true"
     inkscape:window-width="1920"
     inkscape:window-height="976"
     inkscape:window-x="-8"
     inkscape:window-y="-8"
     inkscape:window-maximized="1"
     inkscape:snap-to-guides="true">
    <sodipodi:guide
       orientation="1,0"
       position="8,128"
       id="guide2985" />
    <sodipodi:guide
       orientation="0,1"
       position="128,248"
       id="guide2987" />
    <sodipodi:guide
       orientation="1,0"
       position="248,128"
       id="guide2989" />
    <sodipodi:guide
       orientation="0,1"
       position="128,8"
       id="guide2993" />
    <sodipodi:guide
       orientation="0,1"
       position="128,128"
       id="guide2995" />
    <sodipodi:guide
       orientation="1,0"
       position="128,128"
       id="guide2997" />
    <sodipodi:guide
       orientation="1,0"
       position="0,128"
       id="guide3788" />
    <sodipodi:guide
       orientation="1,0"
       position="256,128"
       id="guide3790" />
    <sodipodi:guide
       orientation="0,1"
       position="128,256"
       id="guide3792" />
    <sodipodi:guide
       orientation="0,1"
       position="128,0"
       id="guide3794" />
  </sodipodi:namedview>
  <metadata
     id="metadata7">
    <rdf:RDF>
      <cc:Work
         rdf:about="">
        <dc:format>image/svg+xml</dc:format>
        <dc:type
           rdf:resource="http://purl.org/dc/dcmitype/StillImage" />
        <dc:title></dc:title>
      </cc:Work>
    </rdf:RDF>
  </metadata>
  <g
     inkscape:groupmode="layer"
     id="layer1"
     inkscape:label="bg">
    <rect
       style="color:#000000;fill:#95a5a6;fill-opacity:1;stroke:none;stroke-width:15;marker:none;visibility:visible;display:inline;overflow:visible;enable-background:accumulate"
       id="rect3006"
       width="256"
       height="256"
       x="0"
       y="1.204592e-014" />
    <path
       style="fill:none;stroke:#2c3e50;stroke-width:128;stroke-linecap:butt;stroke-linejoin:miter;stroke-miterlimit:4;stroke-opacity:1;stroke-dasharray:none"
       d="m 0,128 256,0"
       id="path5628"
       inkscape:connector-curvature="0" />
    <path
       style="fill:none;stroke:#f1c40f;stroke-width:16;stroke-linecap:butt;stroke-linejoin:miter;stroke-miterlimit:4;stroke-opacity:1;stroke-dasharray:32,16;stroke-dashoffset:0"
       d="m 0,128 256,0"
       id="path5628-7"
       inkscape:connector-curvature="0" />
  </g>
  <g
     inkscape:groupmode="layer"
     id="layer2"
     inkscape:label="fema"
     sodipodi:insensitive="true">
    <g
       style="font-size:40px;font-style:normal;font-variant:normal;font-weight:normal;font-stretch:normal;line-height:125%;letter-spacing:0px;word-spacing:0px;fill:#ffffff;fill-opacity:1;stroke:none;font-family:Open Sans;-inkscape-font-specification:Open Sans"
       id="text5630"
       transform="matrix(2.1483692,0,0,2.1483692,-3.9442715,-0.8198914)">
      <path
         d="m 20.449219,21.442585 c -2.1e-5,2.57813 -0.927754,4.609378 -2.783203,6.09375 -1.855485,1.484375 -4.436863,2.226562 -7.744141,2.226562 -3.0468819,0 -5.7421917,-0.572916 -8.0859375,-1.71875 l 0,-5.625 c 1.9270796,0.859382 3.5579373,1.46485 4.8925781,1.816407 1.3346274,0.351567 2.5553293,0.527348 3.6621094,0.527343 1.328113,5e-6 2.346992,-0.253901 3.056641,-0.761718 0.709621,-0.507807 1.064438,-1.263014 1.064453,-2.265625 -1.5e-5,-0.559888 -0.156265,-1.057934 -0.46875,-1.494141 -0.312514,-0.436188 -0.771498,-0.85611 -1.376953,-1.259766 C 12.060535,18.578012 10.826812,17.933482 8.9648438,17.048054 7.2200449,16.227754 5.9114524,15.439995 5.0390625,14.684772 4.1666625,13.92958 3.4700486,13.050674 2.9492188,12.048054 2.428383,11.045468 2.1679666,9.8735941 2.1679688,8.5324287 2.1679666,6.0064104 3.0240855,4.0207353 4.7363281,2.5753975 6.4485613,1.1301132 8.8150954,0.40745771 11.835938,0.40742874 c 1.484361,2.897e-5 2.900375,0.17581004 4.248046,0.52734375 C 17.431623,1.2863631 18.841127,1.7811542 20.3125,2.4191475 L 18.359375,7.1261787 C 16.835921,6.5012016 15.576156,6.0650041 14.580078,5.817585 13.583971,5.570213 12.604154,5.4465152 11.640625,5.4464912 10.494781,5.4465152 9.6158758,5.713442 9.0039063,6.2472725 8.3919187,6.7811492 8.0859294,7.4777631 8.0859375,8.3371162 c -8.1e-6,0.5338747 0.1236897,0.999369 0.3710938,1.3964844 0.2473871,0.3971544 0.6412669,0.7812684 1.1816406,1.1523434 0.5403541,0.371112 1.8196501,1.038429 3.8378911,2.001953 2.669254,1.276057 4.498679,2.555353 5.488281,3.837891 0.989563,1.282564 1.484354,2.854828 1.484375,4.716797 z"
         style="font-weight:bold;fill:#ffffff;fill-opacity:1;-inkscape-font-specification:Open Sans Bold"
         id="path5656"
         inkscape:connector-curvature="0" />
      <path
         d="m 34.355469,25.016804 c 1.041653,4e-6 2.291652,-0.22786 3.75,-0.683594 l 0,4.433594 c -1.48439,0.664062 -3.307305,0.996093 -5.46875,0.996093 -2.382821,0 -4.117845,-0.602213 -5.205078,-1.80664 -1.087244,-1.204425 -1.630864,-3.011063 -1.63086,-5.419922 l 0,-10.527344 -2.851562,0 0,-2.519531 3.28125,-1.9921875 1.71875,-4.609375 3.808593,0 0,4.6484375 6.113282,0 0,4.472656 -6.113282,0 0,10.527344 c -9e-6,0.84636 0.237621,1.47136 0.712891,1.875 0.47525,0.40365 1.103504,0.605473 1.884766,0.605469 z"
         style="font-weight:bold;fill:#ffffff;fill-opacity:1;-inkscape-font-specification:Open Sans Bold"
         id="path5658"
         inkscape:connector-curvature="0" />
      <path
         d="m 54.6875,7.1261787 c 0.807276,2.23e-5 1.477848,0.058616 2.011719,0.1757813 L 56.25,12.887897 c -0.481787,-0.130191 -1.067724,-0.195295 -1.757813,-0.195312 -1.901054,1.7e-5 -3.382173,0.488297 -4.443359,1.464844 -1.061207,0.976576 -1.591806,2.343763 -1.591797,4.101562 l 0,11.113281 -5.957031,0 0,-21.835937 4.511719,0 0.878906,3.671875 0.292969,0 C 48.860668,9.984271 49.77538,8.9979439 50.927734,8.2492256 52.080065,7.5005496 53.333319,7.126201 54.6875,7.1261787 z"
         style="font-weight:bold;fill:#ffffff;fill-opacity:1;-inkscape-font-specification:Open Sans Bold"
         id="path5660"
         inkscape:connector-curvature="0" />
      <path
         d="m 69.746094,11.36446 c -1.263032,1.8e-5 -2.252614,0.400408 -2.96875,1.201172 -0.716155,0.800797 -1.12631,1.936864 -1.230469,3.408203 l 8.359375,0 C 73.88019,14.502496 73.496078,13.366429 72.753906,12.565632 72.011704,11.764868 71.009101,11.364478 69.746094,11.36446 z m 0.839843,18.398437 c -3.515634,0 -6.263027,-0.970051 -8.242187,-2.910156 -1.979169,-1.940099 -2.968752,-4.687493 -2.96875,-8.242187 -2e-6,-3.65884 0.914711,-6.487613 2.744141,-8.486328 1.82942,-1.9986771 4.358715,-2.998025 7.58789,-2.9980473 3.085923,2.23e-5 5.488264,0.8789277 7.207031,2.6367188 1.718729,1.7578305 2.578104,4.1862135 2.578125,7.2851565 l 0,2.890625 -14.082031,0 c 0.0651,1.692716 0.566398,3.014329 1.503906,3.964843 0.93749,0.950526 2.252593,1.425786 3.945313,1.425782 1.31509,4e-6 2.558578,-0.136715 3.730469,-0.410157 1.171857,-0.273432 2.395814,-0.70963 3.671875,-1.308593 l 0,4.609375 c -1.041687,0.520834 -2.154967,0.908203 -3.339844,1.162109 -1.184912,0.253906 -2.630223,0.380859 -4.335938,0.380859 z"
         style="font-weight:bold;fill:#ffffff;fill-opacity:1;-inkscape-font-specification:Open Sans Bold"
         id="path5662"
         inkscape:connector-curvature="0" />
      <path
         d="m 93.417969,11.36446 c -1.263032,1.8e-5 -2.252614,0.400408 -2.96875,1.201172 -0.716155,0.800797 -1.12631,1.936864 -1.230469,3.408203 l 8.359375,0 c -0.02606,-1.471339 -0.410172,-2.607406 -1.152344,-3.408203 -0.742202,-0.800764 -1.744805,-1.201154 -3.007812,-1.201172 z m 0.839843,18.398437 c -3.515634,0 -6.263027,-0.970051 -8.242187,-2.910156 -1.979169,-1.940099 -2.968752,-4.687493 -2.96875,-8.242187 -2e-6,-3.65884 0.914711,-6.487613 2.744141,-8.486328 1.82942,-1.9986771 4.358715,-2.998025 7.58789,-2.9980473 3.085923,2.23e-5 5.488264,0.8789277 7.207034,2.6367188 1.71873,1.7578305 2.5781,4.1862135 2.57812,7.2851565 l 0,2.890625 -14.082029,0 c 0.0651,1.692716 0.566398,3.014329 1.503906,3.964843 0.93749,0.950526 2.252593,1.425786 3.945313,1.425782 1.31509,4e-6 2.558578,-0.136715 3.730469,-0.410157 1.171857,-0.273432 2.395811,-0.70963 3.671871,-1.308593 l 0,4.609375 c -1.04168,0.520834 -2.154963,0.908203 -3.33984,1.162109 -1.184912,0.253906 -2.630223,0.380859 -4.335938,0.380859 z"
         style="font-weight:bold;fill:#ffffff;fill-opacity:1;-inkscape-font-specification:Open Sans Bold"
         id="path5664"
         inkscape:connector-curvature="0" />
      <path
         d="m 117.24609,25.016804 c 1.04166,4e-6 2.29166,-0.22786 3.75,-0.683594 l 0,4.433594 c -1.48439,0.664062 -3.3073,0.996093 -5.46875,0.996093 -2.38282,0 -4.11784,-0.602213 -5.20507,-1.80664 -1.08725,-1.204425 -1.63087,-3.011063 -1.63086,-5.419922 l 0,-10.527344 -2.85157,0 0,-2.519531 3.28125,-1.9921875 1.71875,-4.609375 3.8086,0 0,4.6484375 6.11328,0 0,4.472656 -6.11328,0 0,10.527344 c -10e-6,0.84636 0.23762,1.47136 0.71289,1.875 0.47525,0.40365 1.1035,0.605473 1.88476,0.605469 z"
         style="font-weight:bold;fill:#ffffff;fill-opacity:1;-inkscape-font-specification:Open Sans Bold"
         id="path5666"
         inkscape:connector-curvature="0" />
    </g>
    <g
       style="font-size:33.30081177px;font-style:normal;font-variant:normal;font-weight:normal;font-stretch:normal;line-height:125%;letter-spacing:0px;word-spacing:0px;fill:#ffffff;fill-opacity:1;stroke:none;font-family:Open Sans;-inkscape-font-specification:Open Sans"
       id="text5630-3"
       transform="matrix(1.4374145,0,0,1.4374145,0,-117.74586)">
      <path
         d="m 22.634145,236.0813 c -2.4e-5,3.93497 -0.975633,6.95936 -2.926829,9.07317 -1.951239,2.11382 -4.747984,3.17073 -8.390243,3.17073 -3.6422862,0 -6.4390312,-1.05691 -8.3902439,-3.17073 C 0.97560679,243.04066 -1.9498604e-6,240.00543 -1.4901161e-8,236.04878 -1.9498604e-6,232.09216 0.97831682,229.07048 2.9349592,226.98374 c 1.9566327,-2.0867 4.7615078,-3.13006 8.4146338,-3.13008 3.6531,2e-5 6.447135,1.05151 8.382114,3.15447 1.934935,2.103 2.902414,5.12739 2.902438,9.07317 z m -17.3495924,0 c -7.2e-6,2.65584 0.5040573,4.65583 1.5121951,6 1.0081203,1.34418 2.5148938,2.01627 4.5203253,2.01626 4.021663,1e-5 6.032501,-2.67208 6.03252,-8.01626 -1.9e-5,-5.35499 -2.000017,-8.0325 -6,-8.03252 -2.0054312,2e-5 -3.5176248,0.67482 -4.5365851,2.02439 -1.0189779,1.34961 -1.5284625,3.35232 -1.5284553,6.00813 z"
         style="font-weight:bold;fill:#ffffff;fill-opacity:1;-inkscape-font-specification:Open Sans Bold"
         id="path5669"
         inkscape:connector-curvature="0" />
      <path
         d="m 42.14634,248 -1.398374,-6.35772 -1.886178,-8.03252 -0.113822,0 L 35.430893,248 l -5.333333,0 -5.170731,-18.17886 4.943089,0 2.097561,8.04878 c 0.336036,1.44174 0.677499,3.4309 1.02439,5.96748 l 0.09756,0 c 0.04335,-0.82384 0.233054,-2.13008 0.569106,-3.9187 l 0.260162,-1.38211 2.243903,-8.71545 5.463414,0 2.130081,8.71545 c 0.04334,0.23849 0.111092,0.59079 0.203252,1.05691 0.09212,0.46613 0.181553,0.96206 0.268293,1.4878 0.0867,0.52575 0.165292,1.04066 0.235772,1.54472 0.07044,0.50407 0.111092,0.90786 0.121952,1.21138 l 0.09756,0 c 0.09754,-0.78048 0.270982,-1.85094 0.520325,-3.21138 0.249301,-1.36043 0.428163,-2.27913 0.536585,-2.7561 l 2.178862,-8.04878 4.861788,0 L 47.544714,248 z"
         style="font-weight:bold;fill:#ffffff;fill-opacity:1;-inkscape-font-specification:Open Sans Bold"
         id="path5671"
         inkscape:connector-curvature="0" />
      <path
         d="m 72.471545,248 -4.959349,0 0,-10.61789 c -1.5e-5,-1.31164 -0.233077,-2.29538 -0.699187,-2.95122 -0.466138,-0.65581 -1.208685,-0.98372 -2.227643,-0.98373 -1.387544,1e-5 -2.390253,0.46342 -3.00813,1.39024 -0.617894,0.92684 -0.926836,2.46342 -0.926829,4.60975 l 0,8.55285 -4.959349,0 0,-18.17886 3.788618,0 0.666666,2.3252 0.276423,0 c 0.552838,-0.87803 1.314354,-1.54199 2.284553,-1.99187 0.970179,-0.44984 2.073159,-0.67478 3.308943,-0.67479 2.113806,1e-5 3.71814,0.57183 4.813008,1.71544 1.094832,1.14365 1.642257,2.79405 1.642276,4.95122 z"
         style="font-weight:bold;fill:#ffffff;fill-opacity:1;-inkscape-font-specification:Open Sans Bold"
         id="path5673"
         inkscape:connector-curvature="0" />
      <path
         d="m 85.138206,233.00813 c -1.051499,2e-5 -1.875347,0.33335 -2.471544,1 -0.596213,0.66668 -0.937676,1.61248 -1.02439,2.8374 l 6.959349,0 c -0.02169,-1.22492 -0.341477,-2.17072 -0.95935,-2.8374 -0.617898,-0.66665 -1.452585,-0.99998 -2.504065,-1 z m 0.699187,15.31707 c -2.926837,0 -5.214097,-0.80758 -6.861788,-2.42276 -1.647699,-1.61517 -2.471546,-3.90243 -2.471545,-6.86179 -10e-7,-3.04606 0.761516,-5.40107 2.284553,-7.06504 1.52303,-1.66394 3.628719,-2.49592 6.317073,-2.49593 2.569093,1e-5 4.569091,0.73172 6,2.19512 1.430877,1.46343 2.146323,3.4851 2.146341,6.06504 l 0,2.4065 -11.723577,0 c 0.05419,1.40922 0.471538,2.50949 1.252033,3.30081 0.780479,0.79134 1.875329,1.187 3.284553,1.187 1.094838,0 2.130068,-0.11382 3.105691,-0.34147 0.975594,-0.22764 1.994563,-0.59078 3.05691,-1.08943 l 0,3.8374 c -0.867225,0.43361 -1.794053,0.7561 -2.780488,0.96748 -0.986463,0.21138 -2.189714,0.31707 -3.609756,0.31707 z"
         style="font-weight:bold;fill:#ffffff;fill-opacity:1;-inkscape-font-specification:Open Sans Bold"
         id="path5675"
         inkscape:connector-curvature="0" />
      <path
         d="m 107.46341,229.47968 c 0.67208,1e-5 1.23034,0.0488 1.6748,0.14634 l -0.37398,4.6504 c -0.4011,-0.10838 -0.88891,-0.16258 -1.46342,-0.1626 -1.58266,2e-5 -2.81573,0.40652 -3.69918,1.21951 -0.88348,0.81302 -1.32522,1.95123 -1.32521,3.41464 l 0,9.25203 -4.959347,0 0,-18.17886 3.756097,0 0.73171,3.05691 0.2439,0 c 0.56368,-1.01895 1.32519,-1.84009 2.28455,-2.46342 0.95934,-0.62328 2.0027,-0.93494 3.13008,-0.93495 z"
         style="font-weight:bold;fill:#ffffff;fill-opacity:1;-inkscape-font-specification:Open Sans Bold"
         id="path5677"
         inkscape:connector-curvature="0" />
      <path
         d="m 125.15447,242.60163 c -1e-5,1.8645 -0.64771,3.28455 -1.94309,4.26016 -1.2954,0.97561 -3.23307,1.46341 -5.81301,1.46341 -1.3225,0 -2.44987,-0.0894 -3.38211,-0.26829 -0.93225,-0.17886 -1.80488,-0.44173 -2.61789,-0.78862 l 0,-4.09756 c 0.92141,0.43361 1.95935,0.79675 3.11383,1.08943 1.15446,0.29269 2.17072,0.43903 3.04878,0.43903 1.79944,0 2.69917,-0.52032 2.69918,-1.56098 -1e-5,-0.39024 -0.11925,-0.70731 -0.35772,-0.95122 -0.23849,-0.24389 -0.65042,-0.52032 -1.23577,-0.82927 -0.58538,-0.30893 -1.36586,-0.66937 -2.34147,-1.0813 -1.39838,-0.58535 -2.42547,-1.12736 -3.0813,-1.62601 -0.65583,-0.49864 -1.13279,-1.07045 -1.43089,-1.71545 -0.29811,-0.64497 -0.44716,-1.43901 -0.44716,-2.38211 0,-1.61516 0.62602,-2.86449 1.87805,-3.74797 1.25203,-0.88345 3.0271,-1.32519 5.32521,-1.3252 2.18969,1e-5 4.31977,0.47698 6.39024,1.43089 l -1.49594,3.57724 c -0.91058,-0.39023 -1.76153,-0.71002 -2.55284,-0.95935 -0.79134,-0.24931 -1.59893,-0.37397 -2.42277,-0.37399 -1.46342,2e-5 -2.19512,0.39568 -2.19512,1.18699 0,0.44446 0.23577,0.82929 0.70732,1.15448 0.47154,0.32521 1.50406,0.8076 3.09756,1.44715 1.42004,0.57454 2.46069,1.11112 3.12195,1.60976 0.66123,0.49865 1.14904,1.07317 1.46342,1.72357 0.31434,0.65042 0.47153,1.42548 0.47154,2.32521 z"
         style="font-weight:bold;fill:#ffffff;fill-opacity:1;-inkscape-font-specification:Open Sans Bold"
         id="path5679"
         inkscape:connector-curvature="0" />
      <path
         d="m 145.8374,248 -4.95935,0 0,-10.61789 c -2e-5,-2.62329 -0.97563,-3.93494 -2.92683,-3.93495 -1.38755,1e-5 -2.39025,0.47155 -3.00813,1.41463 -0.6179,0.9431 -0.92684,2.47155 -0.92683,4.58536 l 0,8.55285 -4.95935,0 0,-25.30081 4.95935,0 0,5.15447 c -10e-6,0.4011 -0.0379,1.34419 -0.11382,2.82927 l -0.11382,1.46341 0.26016,0 c 1.10568,-1.77776 2.86178,-2.66665 5.26829,-2.66666 2.13549,1e-5 3.75608,0.57454 4.86179,1.72357 1.10567,1.14907 1.65852,2.79676 1.65854,4.94309 z"
         style="font-weight:bold;fill:#ffffff;fill-opacity:1;-inkscape-font-specification:Open Sans Bold"
         id="path5681"
         inkscape:connector-curvature="0" />
      <path
         d="m 150.76423,225.12195 c 0,-1.61515 0.89972,-2.42274 2.69919,-2.42276 1.79945,2e-5 2.69918,0.80761 2.69918,2.42276 0,0.76967 -0.22494,1.36859 -0.67479,1.79675 -0.44987,0.4282 -1.12467,0.6423 -2.02439,0.64228 -1.79947,2e-5 -2.69919,-0.81299 -2.69919,-2.43903 z M 155.93496,248 l -4.95935,0 0,-18.17886 4.95935,0 z"
         style="font-weight:bold;fill:#ffffff;fill-opacity:1;-inkscape-font-specification:Open Sans Bold"
         id="path5683"
         inkscape:connector-curvature="0" />
      <path
         d="m 171.10568,248.3252 c -2.13551,0 -3.8103,-0.77506 -5.02439,-2.3252 l -0.26016,0 c 0.17343,1.51762 0.26015,2.39566 0.26016,2.63415 l 0,7.36585 -4.95935,0 0,-26.17886 4.03252,0 0.69919,2.35772 0.22764,0 c 1.15989,-1.79944 2.87804,-2.69917 5.15447,-2.69918 2.14633,1e-5 3.82655,0.82928 5.04065,2.4878 1.21408,1.65855 1.82112,3.96207 1.82114,6.91057 -2e-5,1.94039 -0.28457,3.62602 -0.85366,5.05691 -0.56912,1.4309 -1.37942,2.52033 -2.43089,3.26829 -1.05151,0.74797 -2.28728,1.12195 -3.70732,1.12195 z m -1.46341,-14.87804 c -1.22494,1e-5 -2.11925,0.3767 -2.68293,1.13008 -0.56369,0.7534 -0.85637,1.9973 -0.87805,3.7317 l 0,0.53659 c -1e-5,1.95123 0.28997,3.3496 0.86992,4.19512 0.57994,0.84553 1.49864,1.2683 2.7561,1.26829 2.22221,1e-5 3.33332,-1.83197 3.33333,-5.49593 -1e-5,-1.78861 -0.27373,-3.13007 -0.82114,-4.02439 -0.54743,-0.8943 -1.40651,-1.34145 -2.57723,-1.34146 z"
         style="font-weight:bold;fill:#ffffff;fill-opacity:1;-inkscape-font-specification:Open Sans Bold"
         id="path5685"
         inkscape:connector-curvature="0" />
    </g>
  </g>
</svg>
