<?xml version="1.0" encoding="UTF-8" standalone="no"?>
<!-- Created with Inkscape (http://www.inkscape.org/) -->

<svg
   xmlns:dc="http://purl.org/dc/elements/1.1/"
   xmlns:cc="http://creativecommons.org/ns#"
   xmlns:rdf="http://www.w3.org/1999/02/22-rdf-syntax-ns#"
   xmlns:svg="http://www.w3.org/2000/svg"
   xmlns="http://www.w3.org/2000/svg"
   xmlns:sodipodi="http://sodipodi.sourceforge.net/DTD/sodipodi-0.dtd"
   xmlns:inkscape="http://www.inkscape.org/namespaces/inkscape"
   width="256"
   height="256"
   id="svg2"
   version="1.1"
   inkscape:version="0.48.4 r9939"
   sodipodi:docname="US25-SAP_button.svg"
   inkscape:export-filename="C:\Users\Ryan Cooper\Documents\GitHub\GSCPC-Website-Stuff\img\US25-SAP_button.png"
   inkscape:export-xdpi="90"
   inkscape:export-ydpi="90">
  <defs
     id="defs4" />
  <sodipodi:namedview
     id="base"
     pagecolor="#ffffff"
     bordercolor="#666666"
     borderopacity="1.0"
     inkscape:pageopacity="0.0"
     inkscape:pageshadow="2"
     inkscape:zoom="0.99999999"
     inkscape:cx="-163.37642"
     inkscape:cy="261.01015"
     inkscape:document-units="px"
     inkscape:current-layer="layer3"
     showgrid="false"
     showguides="true"
     inkscape:guide-bbox="true"
     inkscape:window-width="1920"
     inkscape:window-height="1018"
     inkscape:window-x="-8"
     inkscape:window-y="-8"
     inkscape:window-maximized="1">
    <sodipodi:guide
       orientation="1,0"
       position="8,128"
       id="guide2985" />
    <sodipodi:guide
       orientation="0,1"
       position="128,248"
       id="guide2987" />
    <sodipodi:guide
       orientation="1,0"
       position="248,128"
       id="guide2989" />
    <sodipodi:guide
       orientation="0,1"
       position="128,8"
       id="guide2993" />
    <sodipodi:guide
       orientation="0,1"
       position="128,128"
       id="guide2995" />
    <sodipodi:guide
       orientation="1,0"
       position="128,128"
       id="guide2997" />
    <sodipodi:guide
       orientation="1,0"
       position="0,128"
       id="guide3788" />
    <sodipodi:guide
       orientation="1,0"
       position="256,128"
       id="guide3790" />
    <sodipodi:guide
       orientation="0,1"
       position="128,256"
       id="guide3792" />
    <sodipodi:guide
       orientation="0,1"
       position="128,0"
       id="guide3794" />
  </sodipodi:namedview>
  <metadata
     id="metadata7">
    <rdf:RDF>
      <cc:Work
         rdf:about="">
        <dc:format>image/svg+xml</dc:format>
        <dc:type
           rdf:resource="http://purl.org/dc/dcmitype/StillImage" />
        <dc:title></dc:title>
      </cc:Work>
    </rdf:RDF>
  </metadata>
  <g
     inkscape:groupmode="layer"
     id="layer1"
     inkscape:label="bg"
     sodipodi:insensitive="true">
    <rect
       style="color:#000000;fill:#ffffff;fill-opacity:1;stroke:none;stroke-width:15;marker:none;visibility:visible;display:inline;overflow:visible;enable-background:accumulate"
       id="rect3006"
       width="256"
       height="256"
       x="0"
       y="1.204592e-014" />
  </g>
  <g
     inkscape:groupmode="layer"
     id="layer2"
     inkscape:label="shield"
     sodipodi:insensitive="true">
    <g
       id="g1876"
       transform="matrix(0.39895925,0,0,0.39895925,8.2985485,10.945382)">
      <path
         id="path1907"
         style="fill:#ffffff;stroke:none"
         d="m 300.17163,16.631226 -3.79469,2.556023 c -8.92936,6.065644 -31.21802,17.390726 -41.16763,20.938375 -37.0309,13.203765 -79.09632,13.644656 -114.12772,1.155463 -9.66236,-3.444764 -26.45283,-12.062667 -34.503,-17.717088 l -5.77175,-4.061624 -36.129293,35.469187 c -45.19032,44.363334 -40.370315,39.125053 -38.616565,41.736696 0.794901,1.183771 4.040807,5.916802 7.206725,10.504212 10.3068,14.93454 21.366703,36.78436 26.499063,52.38094 l 2.327836,7.03782 238.459684,-0.28012 238.45968,-0.28011 2.83805,-8.50839 c 5.69923,-17.1648 14.77866,-35.10226 26.37151,-52.03081 4.17665,-6.098964 7.19775,-11.455341 6.7284,-11.904776 -2.17051,-2.078367 -70.73267,-69.272065 -72.992,-71.533613 l -2.58294,-2.556022 -5.61232,3.991596 c -3.09636,2.198218 -10.25056,6.397482 -15.88031,9.348741 -39.12848,20.512192 -87.82893,23.174181 -132.49531,7.247898 -9.85813,-3.515023 -31.71641,-14.587128 -41.32706,-20.938375 l -3.89036,-2.556023 z"
         inkscape:connector-curvature="0" />
      <path
         id="path10915"
         style="fill:#ffffff;stroke:none"
         d="m 66.742306,176.153 0.54469,2.81957 c 2.00524,10.12948 2.996886,26.13085 2.467124,39.85848 -0.71777,18.59953 -3.753054,34.22383 -10.413188,53.66798 -4.618571,13.48382 -7.531034,20.35924 -20.570053,48.50943 -13.436406,29.00814 -19.990956,54.67809 -18.583536,72.66804 2.598834,33.2191 14.994511,60.22912 39.506035,86.09304 13.025628,13.74425 28.100403,24.55713 44.055802,31.55997 13.23896,5.81062 24.28812,8.20021 62.28688,13.48909 20.46347,2.84816 43.92787,6.12542 52.13003,7.27321 31.61204,4.42338 58.973,13.98792 76.32066,26.6898 2.99663,2.19407 5.55686,4.01201 5.67118,4.03711 0.1143,0.0252 3.10194,-1.97592 6.66444,-4.45364 13.09712,-9.10931 30.32768,-16.48858 49.69495,-21.27494 7.21375,-1.7827 33.5327,-6.00554 63.37626,-10.18891 28.08219,-3.93663 55.16292,-8.06538 60.17221,-9.1636 12.30406,-2.69759 24.79731,-7.40878 31.49589,-11.85502 19.69585,-13.07338 43.02942,-39.0005 54.0845,-60.14017 10.75273,-20.56155 15.07001,-39.37684 14.25806,-61.83832 -0.78752,-21.78545 -6.33771,-40.07823 -22.30024,-73.50109 -19.35149,-40.51867 -26.94441,-68.31186 -26.91409,-98.36458 0.0124,-12.30304 1.16934,-26.43478 2.75549,-33.57853 l 0.51265,-2.30692 -233.60787,0 -233.607874,0 z"
         inkscape:connector-curvature="0" />
      <path
         id="text1871"
         style="font-size:729.93505859px;font-style:normal;font-variant:normal;font-weight:bold;font-stretch:normal;text-align:start;line-height:125%;writing-mode:lr-tb;text-anchor:start;fill:#000000;fill-opacity:1;stroke:none;font-family:USHighwaysOldStyleBCBA"
         d="m 544.53316,216.05434 c -5.5e-4,-47.68476 15.81529,-85.8878 47.44756,-114.60925 l 8.0193,-7.284205 -8.0193,-7.306479 -96.36533,-85.4056098 -6.5491,5.8362727 C 468.14137,25.774583 439.1828,35.019051 402.19047,35.018502 369.10304,35.019051 337.23376,24.801872 306.58253,4.3669325 L 300.01115,8.6590648e-4 294.17488,4.3669325 C 266.90897,24.801872 235.03226,35.019051 198.54465,35.018502 163.512,35.019051 134.56085,25.774583 111.69111,7.2850689 L 104.38463,1.4487962 0,94.160885 8.0193061,101.44509 C 40.141042,130.64176 56.201914,168.8448 56.20197,216.05434 c -5.6e-5,20.43472 -8.149297,48.78072 -24.447746,85.03805 -16.298512,36.25791 -24.4477524,64.35887 -24.4477451,84.30296 -7.3e-6,35.52272 12.0437901,67.51823 36.1314291,95.98664 24.087552,28.46861 53.892609,46.59371 89.415262,54.37535 52.0659,6.32638 80.28938,9.97962 84.67051,10.95972 34.06695,6.32637 59.37229,16.78858 75.91609,31.38667 l 6.57138,5.83627 6.57138,-5.83627 c 16.5432,-14.59809 41.84112,-25.0603 75.89382,-31.38667 4.38053,-0.9801 32.61143,-4.63334 84.69278,-10.95972 35.52205,-7.78164 65.44592,-25.78422 89.77168,-54.0078 24.32464,-28.22337 36.48725,-60.3414 36.48784,-96.35419 -5.9e-4,-19.94409 -8.14984,-48.04505 -24.44775,-84.30296 -16.29905,-36.25733 -24.44829,-64.60333 -24.44774,-85.03805 l 0,0 z M 29.916467,94.873712 105.11974,27.734299 c 26.76059,18.489494 57.90219,27.733962 93.42491,27.733434 36.48761,5.28e-4 70.30974,-10.216651 101.4665,-30.65157 31.63138,20.434919 65.69112,30.652098 102.17932,30.65157 35.03205,5.28e-4 65.93605,-9.24394 92.71209,-27.733434 l 75.181,67.139413 C 553.53947,113.85321 541.36945,135.2677 533.57344,159.11726 l -466.411752,0 C 58.889864,135.2677 46.474802,113.85321 29.916467,94.873712 l 0,0 z M 541.61502,467.88282 c -15.0887,17.52377 -28.23144,29.44876 -39.42825,35.77502 -8.74748,4.85621 -21.88279,8.74705 -39.40598,11.67254 -3.40124,0.49014 -31.37968,4.38099 -83.93541,11.67255 -32.61219,4.38097 -58.89024,14.36054 -78.83423,29.93874 -19.95944,-15.5782 -45.99988,-25.55777 -78.12141,-29.93874 -18.96437,-2.43543 -47.18785,-6.32628 -84.6705,-11.67255 -30.16161,-5.36098 -56.072112,-20.69417 -77.731582,-45.99963 -21.65959,-25.30522 -32.489355,-53.28366 -32.489328,-83.9354 -2.7e-5,-18.97881 7.544054,-43.54905 22.632264,-73.71079 17.523602,-35.5371 26.285427,-67.41381 26.285503,-95.63022 -7.6e-5,-12.16224 -1.217821,-24.32484 -3.653239,-36.48785 l 455.474312,0 c -2.43602,12.16301 -3.65377,24.32561 -3.65324,36.48785 -5.3e-4,27.25113 9.00633,59.12784 27.0206,95.63022 14.59754,29.19646 21.89659,53.7667 21.89716,73.71079 -5.7e-4,30.17652 -10.46278,57.67232 -31.38667,82.48747 l 0,0 z"
         inkscape:connector-curvature="0" />
    </g>
  </g>
  <g
     inkscape:groupmode="layer"
     id="layer3"
     inkscape:label="text">
    <g
       style="font-size:40px;font-style:normal;font-variant:normal;font-weight:normal;font-stretch:normal;text-align:start;line-height:125%;letter-spacing:0px;word-spacing:0px;writing-mode:lr-tb;text-anchor:start;fill:#000000;fill-opacity:1;stroke:none;font-family:Interstate;-inkscape-font-specification:Interstate"
       id="text3861"
       transform="translate(0,-2)">
      <path
         d="m 124.77608,56.937012 c -3e-5,3.946134 -0.92003,6.952519 -2.76001,9.019165 -1.84003,2.066651 -4.50686,3.099975 -8.00049,3.099975 -3.46681,0 -6.08684,-1.066487 -7.86011,-3.199463 -1.77328,-2.13297 -2.65991,-5.133048 -2.65991,-9.000244 l 0,-16.240234 4.20044,0 0,16.120605 c -1e-5,2.666839 0.53995,4.686897 1.61987,6.060181 1.07991,1.373296 2.67333,2.05994 4.78028,2.059937 2.21271,3e-6 3.8458,-0.659989 4.89929,-1.979981 1.05344,-1.31998 1.58018,-3.27351 1.5802,-5.860596 l 0,-16.400146 4.20044,0 0,16.320801 z"
         id="path3073"
         inkscape:connector-curvature="0" />
      <path
         d="m 150.58052,60.577148 c -2e-5,1.253262 -0.20673,2.399908 -0.62012,3.439942 -0.41343,1.040042 -1.04006,1.933393 -1.87988,2.680054 -0.83986,0.746664 -1.91306,1.326498 -3.2196,1.739502 -1.30658,0.413004 -2.85341,0.619506 -4.64051,0.619506 -2.05323,0 -3.9266,-0.406494 -5.62011,-1.219482 -1.69353,-0.812987 -3.14006,-1.912839 -4.3396,-3.299561 l 3.00048,-2.919922 c 0.93262,1.01319 2.04569,1.819667 3.33924,2.419434 1.29353,0.599776 2.6068,0.899662 3.93982,0.899658 3.86717,4e-6 5.80076,-1.359858 5.80078,-4.07959 -2e-5,-0.533032 -0.10683,-1.012971 -0.32044,-1.439819 -0.21364,-0.426829 -0.57374,-0.820302 -1.08032,-1.18042 -0.50661,-0.360096 -1.15989,-0.700062 -1.95984,-1.019897 -0.79998,-0.319813 -1.78671,-0.653064 -2.9602,-0.999756 -1.49334,-0.42642 -2.78667,-0.866279 -3.88001,-1.31958 -1.09335,-0.453274 -1.99992,-0.980007 -2.71972,-1.5802 -0.71982,-0.600164 -1.25977,-1.326888 -1.61988,-2.180176 -0.36011,-0.853253 -0.54016,-1.906516 -0.54016,-3.15979 0,-1.200336 0.24007,-2.287168 0.72022,-3.260498 0.48014,-0.973283 1.13342,-1.793187 1.95984,-2.459717 0.82641,-0.666477 1.80643,-1.179782 2.94006,-1.539917 1.13362,-0.360079 2.34048,-0.540133 3.6206,-0.540161 1.91975,2.8e-5 3.61286,0.33328 5.07935,0.999756 1.46645,0.66653 2.82632,1.59996 4.07959,2.800293 l -2.95898,3.000488 c -0.88056,-0.907367 -1.84084,-1.580991 -2.88086,-2.020874 -1.04006,-0.439836 -2.25343,-0.659766 -3.64014,-0.65979 -1.65284,2.4e-5 -2.84588,0.346704 -3.5791,1.040039 -0.73324,0.693382 -1.09986,1.506776 -1.09986,2.440185 0,0.480164 0.0932,0.913513 0.27955,1.300049 0.18635,0.386575 0.50617,0.746479 0.95947,1.079712 0.45328,0.33327 1.0799,0.660012 1.87988,0.980225 0.79996,0.320248 1.80012,0.653703 3.00049,1.000366 1.3867,0.426448 2.63345,0.866308 3.74023,1.31958 1.10676,0.453303 2.0467,0.999974 2.81983,1.640015 0.77309,0.640068 1.36635,1.400158 1.77978,2.280273 0.41339,0.880138 0.6201,1.946828 0.62012,3.200073 z"
         id="path3075"
         inkscape:connector-curvature="0" />
    </g>
    <g
       style="font-size:40px;font-style:normal;font-variant:normal;font-weight:normal;font-stretch:normal;text-align:start;line-height:125%;letter-spacing:0px;word-spacing:0px;writing-mode:lr-tb;text-anchor:start;fill:#000000;fill-opacity:1;stroke:none;font-family:Interstate;-inkscape-font-specification:Interstate"
       id="text3861-1"
       transform="matrix(1.6788463,0,0,1.6788463,-85.91892,-67.585981)">
      <path
         d="m 104.69185,128 c 0.0798,-2.05322 0.42623,-3.83992 1.03943,-5.36011 0.61319,-1.52017 1.40665,-2.86681 2.38037,-4.03991 0.97371,-1.17309 2.0939,-2.21292 3.36059,-3.11951 1.26668,-0.90656 2.59297,-1.77326 3.97889,-2.6001 0.96027,-0.55988 1.74701,-1.06667 2.36023,-1.52038 0.61318,-0.45368 1.09983,-0.88703 1.45996,-1.30005 0.36009,-0.41299 0.60687,-0.83291 0.74035,-1.25977 0.13345,-0.42682 0.20018,-0.88031 0.2002,-1.36047 -2e-5,-1.11977 -0.41343,-2.01292 -1.24024,-2.67945 -0.82683,-0.66648 -2.20012,-0.99973 -4.11987,-0.99975 -1.20037,2e-5 -2.40052,0.25332 -3.60046,0.75989 -1.19996,0.50661 -2.25322,1.18634 -3.15979,2.03918 l -2.67945,-3.19946 c 1.28011,-1.20033 2.7535,-2.13376 4.42017,-2.8003 1.66666,-0.666471 3.37971,-0.999723 5.13916,-0.999751 2.90689,2.8e-5 5.22032,0.626651 6.94031,1.879881 1.71995,1.25328 2.57993,3.17345 2.57995,5.7605 -2e-5,1.09296 -0.13328,2.03941 -0.39978,2.83935 -0.26654,0.79999 -0.68646,1.53994 -1.25976,2.21985 -0.57335,0.67995 -1.30678,1.33994 -2.20032,1.97998 -0.89357,0.64007 -1.95355,1.32021 -3.17993,2.04041 -1.33384,0.79998 -2.44732,1.51999 -3.34046,2.16003 -0.89315,0.64007 -1.61967,1.25347 -2.17956,1.84021 -0.55991,0.58676 -0.99325,1.17331 -1.30005,1.75965 -0.30681,0.58635 -0.54037,1.21318 -0.70068,1.88049 l 14.84008,0 0,4.07959 z"
         id="path3031"
         inkscape:connector-curvature="0" />
      <path
         d="m 151.04439,118.47974 c -3e-5,1.70655 -0.27346,3.18665 -0.82031,4.4403 -0.5469,1.25367 -1.30699,2.28699 -2.28028,3.09998 -0.97332,0.81299 -2.13319,1.41947 -3.47961,1.81946 -1.34645,0.39998 -2.83306,0.59997 -4.45984,0.59997 -1.78712,0 -3.48064,-0.21993 -5.08057,-0.65979 -1.59994,-0.43986 -3.15999,-1.13993 -4.68017,-2.10022 l 2.04101,-3.479 c 1.19954,0.66651 2.48596,1.19304 3.85926,1.57959 1.37328,0.38656 2.69998,0.57984 3.9801,0.57983 2.18667,1e-5 3.84011,-0.49987 4.96032,-1.49963 1.12019,-0.99975 1.68028,-2.39318 1.6803,-4.1803 -2e-5,-1.67967 -0.50681,-2.93293 -1.52038,-3.75976 -1.01361,-0.82681 -2.40012,-1.24022 -4.15955,-1.24024 -1.20037,2e-5 -2.22047,0.15993 -3.0603,0.47974 -0.83985,0.31984 -1.61988,0.74667 -2.34009,1.28052 l -4.47998,-1.76026 0.95947,-13.680418 17.20093,0 0,4.000248 -13.43994,0 -0.5603,7.08007 c 0.7731,-0.45327 1.65302,-0.80666 2.63977,-1.06018 0.98672,-0.25348 2.12014,-0.38023 3.40027,-0.38025 1.59992,2e-5 2.99986,0.22016 4.19982,0.6604 1.19994,0.44029 2.20661,1.05369 3.02002,1.84021 0.81338,0.78656 1.42007,1.71979 1.82007,2.79969 0.39996,1.07992 0.59995,2.25994 0.59998,3.54004 z"
         id="path3033"
         inkscape:connector-curvature="0" />
    </g>
    <g
       style="font-size:40px;font-style:normal;font-variant:normal;font-weight:normal;font-stretch:normal;line-height:100%;letter-spacing:0px;word-spacing:0px;fill:#000000;fill-opacity:1;stroke:none;font-family:Open Sans;-inkscape-font-specification:Open Sans"
       id="text3077"
       transform="matrix(0.73876718,0,0,0.73876718,34.198507,49.620618)">
      <path
         d="m 48.876465,168.96045 c -2.3e-5,1.25326 -0.206728,2.39991 -0.620117,3.43994 -0.413433,1.04004 -1.04006,1.93339 -1.879883,2.68005 -0.839863,0.74667 -1.913063,1.3265 -3.219605,1.73951 -1.306574,0.413 -2.853407,0.6195 -4.640503,0.6195 -2.053232,0 -3.926603,-0.40649 -5.620117,-1.21948 -1.693527,-0.81299 -3.140058,-1.91284 -4.339599,-3.29956 l 3.000488,-2.91992 c 0.932611,1.01319 2.045688,1.81966 3.339233,2.41943 1.293529,0.59978 2.606801,0.89966 3.93982,0.89966 3.867171,0 5.800763,-1.35986 5.800781,-4.07959 -1.8e-5,-0.53303 -0.10683,-1.01297 -0.320435,-1.43982 -0.21364,-0.42683 -0.573747,-0.8203 -1.080322,-1.18042 -0.506608,-0.3601 -1.159887,-0.70006 -1.959839,-1.0199 -0.799981,-0.31981 -1.786715,-0.65306 -2.960205,-0.99975 -1.493337,-0.42642 -2.786671,-0.86628 -3.880005,-1.31958 -1.09335,-0.45328 -1.999924,-0.98001 -2.719726,-1.5802 -0.719813,-0.60017 -1.25977,-1.32689 -1.619873,-2.18018 -0.360111,-0.85325 -0.540165,-1.90651 -0.540162,-3.15979 -3e-6,-1.20033 0.240069,-2.28717 0.720215,-3.2605 0.480139,-0.97328 1.133418,-1.79318 1.959839,-2.45971 0.82641,-0.66648 1.80643,-1.17979 2.940064,-1.53992 1.133616,-0.36008 2.340483,-0.54013 3.620605,-0.54016 1.919745,3e-5 3.612859,0.33328 5.079346,0.99975 1.466452,0.66654 2.826314,1.59997 4.07959,2.8003 l -2.958985,3.00049 c -0.880551,-0.90737 -1.840837,-1.581 -2.880859,-2.02088 -1.040054,-0.43983 -2.253431,-0.65976 -3.640137,-0.65979 -1.652842,3e-5 -2.845875,0.34671 -3.579101,1.04004 -0.733244,0.69338 -1.099861,1.50678 -1.099854,2.44019 -7e-6,0.48016 0.09317,0.91351 0.279541,1.30005 0.186353,0.38657 0.506177,0.74647 0.959473,1.07971 0.453279,0.33327 1.079906,0.66001 1.879883,0.98022 0.799956,0.32025 1.800118,0.6537 3.000488,1.00037 1.386704,0.42645 2.633447,0.86631 3.740234,1.31958 1.106753,0.4533 2.046693,0.99997 2.819824,1.64001 0.773092,0.64007 1.366353,1.40016 1.779786,2.28028 0.413389,0.88013 0.620094,1.94682 0.620117,3.20007 z"
         style="text-align:center;text-anchor:middle;font-family:Interstate;-inkscape-font-specification:Interstate"
         id="path3084"
         inkscape:connector-curvature="0" />
      <path
         d="m 78.994873,177 0,-11.87988 c -2.7e-5,-2.13378 -0.333482,-3.62731 -1.000366,-4.48059 -0.666937,-0.85326 -1.680323,-1.27989 -3.040161,-1.27991 -1.386741,2e-5 -2.406638,0.46673 -3.059693,1.40015 -0.653096,0.93344 -0.979633,2.25343 -0.979614,3.95996 l 0,12.28027 -4.119873,0 0,-11.87988 c -1.5e-5,-2.13378 -0.33347,-3.62731 -1.000366,-4.48059 -0.666925,-0.85326 -1.680311,-1.27989 -3.040161,-1.27991 -1.386729,2e-5 -2.406829,0.46673 -3.060303,1.40015 -0.653491,0.93344 -0.980232,2.25343 -0.980225,3.95996 l 0,12.28027 -4.119873,0 0,-20.99976 4.119873,0 0,1.99952 c 0.533847,-0.7731 1.227409,-1.37307 2.080689,-1.79993 0.853261,-0.42682 1.826364,-0.64024 2.919311,-0.64026 1.440416,2e-5 2.620632,0.26003 3.54065,0.78003 0.919986,0.52004 1.659935,1.28664 2.219848,2.2998 0.373517,-0.47931 0.76699,-0.90574 1.18042,-1.27929 0.413392,-0.37352 0.873393,-0.69355 1.380005,-0.96009 0.506571,-0.26649 1.07318,-0.4732 1.699829,-0.62011 0.626605,-0.14687 1.35333,-0.22032 2.180176,-0.22034 2.452773,2e-5 4.265922,0.78676 5.439453,2.36023 1.173472,1.5735 1.760223,3.9203 1.760254,7.04041 l 0,12.03979 z"
         style="text-align:center;text-anchor:middle;font-family:Interstate;-inkscape-font-specification:Interstate"
         id="path3086"
         inkscape:connector-curvature="0" />
      <path
         d="m 101.08838,177 0,-2.08008 c -0.72023,0.72022 -1.573704,1.32019 -2.560426,1.79993 -0.986746,0.47973 -2.053436,0.7196 -3.200073,0.7196 -0.853687,0 -1.713875,-0.12654 -2.580567,-0.37964 -0.866705,-0.25309 -1.64653,-0.65958 -2.339477,-1.21948 -0.692956,-0.55989 -1.259565,-1.29333 -1.699829,-2.20032 -0.440269,-0.90697 -0.660403,-2.00011 -0.660401,-3.27941 -2e-6,-1.1735 0.213418,-2.18689 0.640259,-3.04017 0.426836,-0.85326 1.013587,-1.56004 1.760254,-2.12036 0.746658,-0.56029 1.626581,-0.9737 2.639771,-1.24023 1.013175,-0.26651 2.119945,-0.39977 3.320312,-0.39978 1.919747,1e-5 3.479804,0.26653 4.680177,0.79956 l 0,-1.56006 c -2e-5,-1.14663 -0.34019,-2.02655 -1.02051,-2.63977 -0.680351,-0.61318 -1.660168,-0.91978 -2.939452,-0.9198 -1.09376,2e-5 -2.073984,0.10663 -2.940674,0.31982 -0.866706,0.21324 -1.713467,0.54649 -2.540283,0.99976 l -1.599121,-3.12012 c 1.013178,-0.61277 2.093093,-1.07928 3.239746,-1.39953 1.146639,-0.32021 2.466624,-0.48033 3.959961,-0.48035 2.346178,2e-5 4.245993,0.58006 5.699463,1.74011 1.45343,1.1601 2.18016,2.92706 2.18018,5.30091 l 0,14.39941 z m 0,-8.95996 c -0.56073,-0.29296 -1.220922,-0.5196 -1.980592,-0.67993 -0.759696,-0.16031 -1.69984,-0.24047 -2.820434,-0.24048 -1.333017,1e-5 -2.38628,0.28016 -3.159791,0.84045 -0.773525,0.56031 -1.160284,1.3202 -1.160278,2.27967 -6e-6,1.04004 0.333449,1.88009 1.000366,2.52014 0.666904,0.64006 1.68029,0.96008 3.040161,0.96008 1.119781,0 2.126453,-0.27994 3.02002,-0.83984 0.893541,-0.55989 1.580388,-1.17309 2.060548,-1.8396 z"
         style="text-align:center;text-anchor:middle;font-family:Interstate;-inkscape-font-specification:Interstate"
         id="path3088"
         inkscape:connector-curvature="0" />
      <path
         d="m 111.27881,177 0,-26.99951 4.11987,-2.16065 0,29.16016 z"
         style="text-align:center;text-anchor:middle;font-family:Interstate;-inkscape-font-specification:Interstate"
         id="path3090"
         inkscape:connector-curvature="0" />
      <path
         d="m 121.90381,177 0,-26.99951 4.11987,-2.16065 0,29.16016 z"
         style="text-align:center;text-anchor:middle;font-family:Interstate;-inkscape-font-specification:Interstate"
         id="path3092"
         inkscape:connector-curvature="0" />
      <path
         d="m 162.19067,177 -2.36084,-6.6394 -11.19995,0 -2.31933,6.6394 -4.36035,0 10.08056,-28.00049 4.4397,0 L 166.67065,177 z m -5.88012,-16.8396 c -0.16034,-0.50698 -0.34711,-1.06708 -0.56031,-1.6803 -0.21323,-0.61318 -0.41993,-1.22658 -0.62011,-1.84021 -0.20021,-0.61358 -0.38698,-1.1804 -0.56031,-1.70044 -0.17335,-0.51999 -0.2999,-0.92649 -0.37963,-1.21948 -0.0798,0.29299 -0.1996,0.69949 -0.3595,1.21948 -0.15993,0.52004 -0.33327,1.08014 -0.52002,1.6803 -0.18678,0.6002 -0.38026,1.22032 -0.58045,1.86035 -0.2002,0.64008 -0.39348,1.2132 -0.57983,1.71936 l -2.23999,6.40015 8.64014,0 z"
         style="text-align:center;text-anchor:middle;font-family:Interstate;-inkscape-font-specification:Interstate"
         id="path3094"
         inkscape:connector-curvature="0" />
      <path
         d="m 183.02563,160.3606 c -0.4533,-0.24006 -0.91981,-0.42683 -1.39953,-0.56031 -0.47975,-0.13344 -1.0663,-0.20017 -1.75964,-0.20019 -1.30698,2e-5 -2.32057,0.4533 -3.04078,1.35986 -0.72022,0.90659 -1.08033,2.25343 -1.08032,4.04053 l 0,11.99951 -4.11987,0 0,-20.99976 4.11987,0 0,1.99952 c 0.48014,-0.69334 1.14033,-1.27338 1.98059,-1.74012 0.84024,-0.46669 1.78039,-0.70005 2.82044,-0.70007 0.85285,2e-5 1.55272,0.0735 2.09961,0.22034 0.54686,0.14691 1.03351,0.36684 1.45996,0.65979 z"
         style="text-align:center;text-anchor:middle;font-family:Interstate;-inkscape-font-specification:Interstate"
         id="path3096"
         inkscape:connector-curvature="0" />
      <path
         d="m 205.38525,166.07959 c -2e-5,0.37355 -0.0134,0.72694 -0.0403,1.06018 -0.0269,0.33326 -0.0537,0.6065 -0.0806,0.8197 l -13.87939,0 c 0.1066,1.01401 0.31982,1.88091 0.63965,2.60071 0.31982,0.71981 0.7198,1.31308 1.19995,1.77979 0.48013,0.46672 1.01358,0.81339 1.60034,1.04003 0.58674,0.22665 1.19994,0.33997 1.8396,0.33997 0.87971,0 1.68639,-0.14668 2.42004,-0.44006 0.73363,-0.29337 1.44713,-0.70658 2.14051,-1.23963 l 2.44018,2.63916 c -0.93345,0.88054 -1.97348,1.56067 -3.12011,2.04041 -1.14667,0.47973 -2.51995,0.7196 -4.11988,0.7196 -1.22722,0 -2.39421,-0.23987 -3.50097,-0.7196 -1.10678,-0.47974 -2.07337,-1.18632 -2.89978,-2.11975 -0.82642,-0.93343 -1.4797,-2.08008 -1.95984,-3.43994 -0.48015,-1.35986 -0.72022,-2.90649 -0.72022,-4.6399 0,-1.78709 0.22664,-3.36058 0.67993,-4.72046 0.45329,-1.35984 1.07992,-2.49977 1.87989,-3.4198 0.79996,-0.91998 1.76675,-1.62005 2.90039,-2.10021 1.13362,-0.48013 2.38036,-0.7202 3.74023,-0.72022 1.49332,2e-5 2.79336,0.28017 3.90015,0.84045 1.10675,0.56033 2.02676,1.32042 2.76001,2.28028 0.73322,0.95989 1.27989,2.07989 1.64001,3.35998 0.36009,1.28013 0.54014,2.62656 0.54016,4.03931 z m -4.16015,-1.51978 c -0.0537,-0.7202 -0.18048,-1.40013 -0.38025,-2.03979 -0.19981,-0.63963 -0.49969,-1.19953 -0.89966,-1.67969 -0.4,-0.48012 -0.90008,-0.86017 -1.50024,-1.14013 -0.6002,-0.27994 -1.32712,-0.41991 -2.18079,-0.41993 -1.38673,2e-5 -2.48658,0.46002 -3.29956,1.38001 -0.813,0.92002 -1.31308,2.21986 -1.50024,3.89953 l 9.76074,0 z"
         style="text-align:center;text-anchor:middle;font-family:Interstate;-inkscape-font-specification:Interstate"
         id="path3098"
         inkscape:connector-curvature="0" />
      <path
         d="m 222.57275,177 0,-2.08008 c -0.72023,0.72022 -1.5737,1.32019 -2.56042,1.79993 -0.98675,0.47973 -2.05344,0.7196 -3.20007,0.7196 -0.85369,0 -1.71388,-0.12654 -2.58057,-0.37964 -0.86671,-0.25309 -1.64653,-0.65958 -2.33948,-1.21948 -0.69295,-0.55989 -1.25956,-1.29333 -1.69983,-2.20032 -0.44027,-0.90697 -0.6604,-2.00011 -0.6604,-3.27941 0,-1.1735 0.21342,-2.18689 0.64026,-3.04017 0.42684,-0.85326 1.01359,-1.56004 1.76026,-2.12036 0.74665,-0.56029 1.62658,-0.9737 2.63977,-1.24023 1.01317,-0.26651 2.11994,-0.39977 3.32031,-0.39978 1.91974,1e-5 3.4798,0.26653 4.68017,0.79956 l 0,-1.56006 c -1e-5,-1.14663 -0.34018,-2.02655 -1.0205,-2.63977 -0.68036,-0.61318 -1.66017,-0.91978 -2.93946,-0.9198 -1.09376,2e-5 -2.07398,0.10663 -2.94067,0.31982 -0.86671,0.21324 -1.71347,0.54649 -2.54028,0.99976 l -1.59913,-3.12012 c 1.01318,-0.61277 2.0931,-1.07928 3.23975,-1.39953 1.14664,-0.32021 2.46663,-0.48033 3.95996,-0.48035 2.34618,2e-5 4.246,0.58006 5.69946,1.74011 1.45344,1.1601 2.18016,2.92706 2.18018,5.30091 l 0,14.39941 z m 0,-8.95996 c -0.56072,-0.29296 -1.22092,-0.5196 -1.98059,-0.67993 -0.75969,-0.16031 -1.69984,-0.24047 -2.82043,-0.24048 -1.33302,1e-5 -2.38628,0.28016 -3.15979,0.84045 -0.77353,0.56031 -1.16029,1.3202 -1.16028,2.27967 -1e-5,1.04004 0.33345,1.88009 1.00037,2.52014 0.6669,0.64006 1.68029,0.96008 3.04016,0.96008 1.11978,0 2.12645,-0.27994 3.02002,-0.83984 0.89354,-0.55989 1.58039,-1.17309 2.06054,-1.8396 z"
         style="text-align:center;text-anchor:middle;font-family:Interstate;-inkscape-font-specification:Interstate"
         id="path3100"
         inkscape:connector-curvature="0" />
      <path
         d="m 95.868652,208.96045 c -2.2e-5,1.25326 -0.206728,2.39991 -0.620117,3.43994 -0.413433,1.04004 -1.04006,1.93339 -1.879883,2.68005 -0.839862,0.74667 -1.913063,1.3265 -3.219604,1.73951 -1.306575,0.413 -2.853408,0.6195 -4.640503,0.6195 -2.053233,0 -3.926603,-0.40649 -5.620117,-1.21948 -1.693527,-0.81299 -3.140059,-1.91284 -4.3396,-3.29956 l 3.000488,-2.91992 c 0.932612,1.01319 2.045688,1.81966 3.339234,2.41943 1.293529,0.59978 2.6068,0.89966 3.939819,0.89966 3.867171,0 5.800763,-1.35986 5.800781,-4.07959 -1.8e-5,-0.53303 -0.106829,-1.01297 -0.320434,-1.43982 -0.213641,-0.42683 -0.573748,-0.8203 -1.080322,-1.18042 -0.506608,-0.3601 -1.159887,-0.70006 -1.959839,-1.0199 -0.799982,-0.31981 -1.786716,-0.65306 -2.960205,-0.99975 -1.493338,-0.42642 -2.786671,-0.86628 -3.880005,-1.31958 -1.09335,-0.45328 -1.999925,-0.98001 -2.719727,-1.5802 -0.719812,-0.60017 -1.259769,-1.32689 -1.619873,-2.18018 -0.360111,-0.85325 -0.540164,-1.90651 -0.540161,-3.15979 -3e-6,-1.20033 0.240068,-2.28717 0.720215,-3.2605 0.480139,-0.97328 1.133418,-1.79318 1.959839,-2.45971 0.826409,-0.66648 1.806429,-1.17979 2.940063,-1.53992 1.133617,-0.36008 2.340484,-0.54013 3.620606,-0.54016 1.919745,3e-5 3.612858,0.33328 5.079345,0.99975 1.466453,0.66654 2.826315,1.59997 4.07959,2.8003 l -2.958984,3.00049 c -0.880552,-0.90737 -1.840837,-1.581 -2.88086,-2.02088 -1.040053,-0.43983 -2.253431,-0.65976 -3.640136,-0.65979 -1.652843,3e-5 -2.845875,0.34671 -3.579102,1.04004 -0.733243,0.69338 -1.099861,1.50678 -1.099853,2.44019 -8e-6,0.48016 0.09317,0.91351 0.279541,1.30005 0.186353,0.38657 0.506176,0.74647 0.959472,1.07971 0.453279,0.33327 1.079906,0.66001 1.879883,0.98022 0.799956,0.32025 1.800118,0.6537 3.000488,1.00037 1.386704,0.42645 2.633448,0.86631 3.740235,1.31958 1.106752,0.4533 2.046693,0.99997 2.819824,1.64001 0.773091,0.64007 1.366352,1.40016 1.779785,2.28028 0.413389,0.88013 0.620095,1.94682 0.620117,3.20007 z"
         style="text-align:center;text-anchor:middle;font-family:Interstate;-inkscape-font-specification:Interstate"
         id="path3102"
         inkscape:connector-curvature="0" />
      <path
         d="m 111.62671,216.47998 c -0.5062,0.29297 -1.09946,0.52612 -1.77979,0.69946 -0.68035,0.17334 -1.43352,0.26001 -2.25952,0.26001 -1.46729,0 -2.62085,-0.45328 -3.46069,-1.35986 -0.83985,-0.90657 -1.25977,-2.30631 -1.25977,-4.19922 l 0,-12.12036 -3.000485,0 0,-3.75977 3.000485,0 0,-5.99975 4.04053,-2.16065 0,8.1604 5.19898,0 0,3.75977 -5.19898,0 0,11.40015 c -1e-5,0.98633 0.16662,1.65283 0.49988,1.99951 0.33324,0.34668 0.88642,0.52002 1.65954,0.52002 0.53303,0 1.0797,-0.0867 1.64002,-0.26001 0.56029,-0.17334 1.0268,-0.36662 1.39954,-0.57984 z"
         style="text-align:center;text-anchor:middle;font-family:Interstate;-inkscape-font-specification:Interstate"
         id="path3104"
         inkscape:connector-curvature="0" />
      <path
         d="m 130.28027,217 0,-1.99951 c -0.53305,0.77311 -1.273,1.37288 -2.21985,1.79931 -0.94687,0.42644 -1.96676,0.63965 -3.05969,0.63965 -2.45362,0 -4.31377,-0.78654 -5.58044,-2.35962 -1.26669,-1.57307 -1.90003,-3.91967 -1.90003,-7.03979 l 0,-12.0398 4.11988,0 0,11.87989 c -1e-5,2.13298 0.38003,3.6261 1.14013,4.47937 0.76009,0.85327 1.82006,1.27991 3.17994,1.2799 1.3867,1e-5 2.45339,-0.4665 3.20007,-1.39953 0.74665,-0.93302 1.11998,-2.2528 1.11999,-3.95935 l 0,-12.28028 4.11988,0 0,20.99976 z"
         style="text-align:center;text-anchor:middle;font-family:Interstate;-inkscape-font-specification:Interstate"
         id="path3106"
         inkscape:connector-curvature="0" />
      <path
         d="m 153.13306,217 0,-1.99951 c -0.77313,0.69336 -1.59975,1.27319 -2.47986,1.7395 -0.88014,0.46631 -1.8801,0.69946 -2.99988,0.69946 -1.1198,0 -2.17306,-0.21321 -3.15979,-0.63965 -0.98674,-0.42643 -1.84673,-1.09293 -2.57996,-1.99951 -0.73324,-0.90657 -1.30656,-2.07336 -1.71997,-3.50036 -0.41341,-1.427 -0.62012,-3.14025 -0.62011,-5.13977 -1e-5,-1.7871 0.22664,-3.34716 0.67993,-4.68018 0.45328,-1.33299 1.05997,-2.43956 1.82007,-3.3197 0.76008,-0.88011 1.64,-1.53359 2.63977,-1.96045 0.99974,-0.42682 2.0465,-0.64024 3.14026,-0.64026 1.06606,2e-5 2.06582,0.24009 2.99926,0.72022 0.93342,0.48016 1.69351,1.04005 2.28028,1.67968 l 0,-7.99926 4.07959,-2.12037 0,29.16016 z m 0.0403,-14.88037 c -0.24009,-0.31981 -0.53346,-0.63963 -0.88013,-0.95947 -0.34669,-0.31981 -0.73345,-0.61319 -1.16028,-0.88013 -0.42685,-0.26691 -0.88685,-0.48704 -1.38,-0.6604 -0.49318,-0.17332 -0.99326,-0.25999 -1.50024,-0.26001 -1.49334,2e-5 -2.62656,0.5534 -3.39966,1.66016 -0.77312,1.10678 -1.15968,2.78036 -1.15967,5.02075 -1e-5,2.66602 0.40669,4.599 1.22009,5.79895 0.81339,1.19995 1.97977,1.79993 3.49915,1.79992 0.98713,1e-5 1.89391,-0.27323 2.72033,-0.8197 0.82641,-0.54646 1.50654,-1.16637 2.04041,-1.85974 z"
         style="text-align:center;text-anchor:middle;font-family:Interstate;-inkscape-font-specification:Interstate"
         id="path3108"
         inkscape:connector-curvature="0" />
      <path
         d="m 170.62573,224.3999 -4.36035,0 3.04077,-7.80029 -7.72094,-20.59937 4.52026,0 3.43994,10.27955 c 0.16031,0.45329 0.33385,0.97331 0.52063,1.56005 0.18676,0.58676 0.36681,1.17351 0.54016,1.76026 0.17333,0.58676 0.33324,1.12671 0.47974,1.61987 0.14647,0.49317 0.24657,0.88664 0.30029,1.18042 0.0797,-0.32063 0.19286,-0.72753 0.33936,-1.2207 0.14647,-0.49316 0.30638,-1.01969 0.47973,-1.57959 0.17333,-0.55989 0.35338,-1.1265 0.54016,-1.69983 0.18676,-0.57332 0.3603,-1.08662 0.52063,-1.53992 l 3.55957,-10.36011 4.36036,0 z"
         style="text-align:center;text-anchor:middle;font-family:Interstate;-inkscape-font-specification:Interstate"
         id="path3110"
         inkscape:connector-curvature="0" />
    </g>
  </g>
</svg>
