<?xml version="1.0" encoding="UTF-8" standalone="no"?>
<!-- Created with Inkscape (http://www.inkscape.org/) -->

<svg
   xmlns:dc="http://purl.org/dc/elements/1.1/"
   xmlns:cc="http://creativecommons.org/ns#"
   xmlns:rdf="http://www.w3.org/1999/02/22-rdf-syntax-ns#"
   xmlns:svg="http://www.w3.org/2000/svg"
   xmlns="http://www.w3.org/2000/svg"
   xmlns:sodipodi="http://sodipodi.sourceforge.net/DTD/sodipodi-0.dtd"
   xmlns:inkscape="http://www.inkscape.org/namespaces/inkscape"
   width="256"
   height="256"
   id="svg2"
   version="1.1"
   inkscape:version="0.48.4 r9939"
   sodipodi:docname="wardhall_fake_logo.svg"
   inkscape:export-filename="C:\Users\Ryan Cooper\Documents\GitHub\GSCPC-Website-Stuff\img\FEMA_256.png"
   inkscape:export-xdpi="90"
   inkscape:export-ydpi="90">
  <defs
     id="defs4" />
  <sodipodi:namedview
     id="base"
     pagecolor="#ffffff"
     bordercolor="#666666"
     borderopacity="1.0"
     inkscape:pageopacity="0.0"
     inkscape:pageshadow="2"
     inkscape:zoom="2"
     inkscape:cx="-22.243629"
     inkscape:cy="183.44244"
     inkscape:document-units="px"
     inkscape:current-layer="layer1"
     showgrid="false"
     showguides="true"
     inkscape:guide-bbox="true"
     inkscape:window-width="1920"
     inkscape:window-height="1018"
     inkscape:window-x="-8"
     inkscape:window-y="-8"
     inkscape:window-maximized="1">
    <sodipodi:guide
       orientation="1,0"
       position="8,128"
       id="guide2985" />
    <sodipodi:guide
       orientation="0,1"
       position="128,248"
       id="guide2987" />
    <sodipodi:guide
       orientation="1,0"
       position="248,128"
       id="guide2989" />
    <sodipodi:guide
       orientation="0,1"
       position="128,8"
       id="guide2993" />
    <sodipodi:guide
       orientation="0,1"
       position="128,128"
       id="guide2995" />
    <sodipodi:guide
       orientation="1,0"
       position="128,128"
       id="guide2997" />
    <sodipodi:guide
       orientation="1,0"
       position="0,128"
       id="guide3788" />
    <sodipodi:guide
       orientation="1,0"
       position="256,128"
       id="guide3790" />
    <sodipodi:guide
       orientation="0,1"
       position="128,256"
       id="guide3792" />
    <sodipodi:guide
       orientation="0,1"
       position="128,0"
       id="guide3794" />
  </sodipodi:namedview>
  <metadata
     id="metadata7">
    <rdf:RDF>
      <cc:Work
         rdf:about="">
        <dc:format>image/svg+xml</dc:format>
        <dc:type
           rdf:resource="http://purl.org/dc/dcmitype/StillImage" />
        <dc:title />
      </cc:Work>
    </rdf:RDF>
  </metadata>
  <g
     inkscape:groupmode="layer"
     id="layer1"
     inkscape:label="bg">
    <rect
       style="color:#000000;fill:#000000;fill-opacity:1;stroke:none;stroke-width:15;marker:none;visibility:visible;display:inline;overflow:visible;enable-background:accumulate"
       id="rect3006"
       width="256"
       height="256"
       x="0"
       y="1.204592e-014" />
    <g
       id="g3798"
       transform="matrix(2.0127791,0,0,2.0127791,-128.60321,-96.933516)">
      <path
         d="m 89.663582,86.373146 7.8125,18.964844 7.597658,-18.613281 c 0.29944,-0.768205 0.52079,-1.419246 0.66406,-1.953125 0.14319,-0.533828 0.21481,-0.989557 0.21484,-1.367188 -3e-5,-0.11716 -0.007,-0.237603 -0.0195,-0.361328 -0.0131,-0.12367 -0.0326,-0.218071 -0.0586,-0.283203 l 0,-0.07813 3.86719,0 0,0.07813 c -0.26046,0.286486 -0.54366,0.742214 -0.84961,1.367187 -0.30603,0.625026 -0.66085,1.399765 -1.06446,2.324219 l -10.429683,24.843749 -1.484375,0 -7.597656,-18.437499 -6.933594,18.437499 -1.464844,0 -9.570312,-23.886718 c -0.234377,-0.559872 -0.472007,-1.100236 -0.712891,-1.621093 -0.240886,-0.520808 -0.468751,-0.989558 -0.683594,-1.40625 -0.214844,-0.41664 -0.410156,-0.768203 -0.585937,-1.054688 -0.175781,-0.286431 -0.302734,-0.475233 -0.38086,-0.566406 l 0,-0.07813 5.410157,0 0,0.07813 c -0.02605,0.143257 -0.03907,0.253934 -0.03906,0.332031 -5e-6,0.07815 -5e-6,0.169298 0,0.273438 -5e-6,0.442735 0.04882,0.911484 0.146484,1.40625 0.09765,0.494817 0.289709,1.093774 0.576172,1.796875 l 7.34375,18.554691 7.011719,-18.671879 z"
         style="font-size:40px;font-style:normal;font-variant:normal;font-weight:normal;font-stretch:normal;line-height:125%;letter-spacing:0px;word-spacing:0px;fill:#f9cd64;fill-opacity:1;stroke:none;font-family:Marcellus SC;-inkscape-font-specification:Marcellus SC"
         id="path3774"
         inkscape:connector-curvature="0" />
      <path
         d="m 131.30421,110.68955 0,-0.0781 c 0.026,-0.0651 0.0455,-0.16276 0.0586,-0.29297 0.013,-0.13021 0.0195,-0.2474 0.0195,-0.35156 -2e-5,-0.40365 -0.0554,-0.84961 -0.16601,-1.33789 -0.1107,-0.48828 -0.32229,-1.09701 -0.63477,-1.82618 l -2.36328,-5.3125 c -0.72919,-0.026 -1.69924,-0.0391 -2.91016,-0.0391 -1.21095,1e-5 -2.51954,1e-5 -3.92578,0 -1.02866,1e-5 -2.02149,1e-5 -2.97851,0 -0.95704,1e-5 -1.81967,0.013 -2.58789,0.0391 l -2.2461,5.15625 c -0.19531,0.48178 -0.40365,1.00912 -0.625,1.58203 -0.22136,0.57292 -0.33203,1.15235 -0.33203,1.73829 0,0.16927 0.013,0.30924 0.0391,0.41992 0.026,0.11068 0.0521,0.18554 0.0781,0.22461 l 0,0.0781 -3.98438,0 0,-0.0781 c 0.23438,-0.2474 0.52735,-0.68685 0.87891,-1.31836 0.35156,-0.63151 0.73568,-1.42253 1.15234,-2.37305 l 11.19141,-24.824218 1.5625,0 10.60547,23.867188 c 0.24737,0.5599 0.50453,1.10352 0.77148,1.63086 0.2669,0.52735 0.51755,0.99935 0.75196,1.41601 0.23434,0.41667 0.44268,0.76823 0.625,1.05469 0.18226,0.28646 0.30596,0.46875 0.37109,0.54688 l 0,0.0781 z M 118.64796,99.771584 c 0.75519,10e-6 1.52993,-0.0032 2.32422,-0.0098 0.79425,-0.0065 1.57225,-0.01301 2.33398,-0.01953 0.7617,-0.0065 1.49412,-0.01301 2.19727,-0.01953 0.7031,-0.0065 1.34112,-0.01627 1.91406,-0.0293 l -5.48828,-12.402344 -5.39063,12.480469 z"
         style="font-size:40px;font-style:normal;font-variant:normal;font-weight:normal;font-stretch:normal;line-height:125%;letter-spacing:0px;word-spacing:0px;fill:#f9cd64;fill-opacity:1;stroke:none;font-family:Marcellus SC;-inkscape-font-specification:Marcellus SC"
         id="path3776"
         inkscape:connector-curvature="0" />
      <path
         d="m 143.15968,103.05283 c -1e-5,1.10678 0.0163,2.07358 0.0488,2.90039 0.0326,0.82683 0.0716,1.53972 0.11719,2.13868 0.0456,0.59896 0.10416,1.10026 0.17578,1.5039 0.0716,0.40365 0.14648,0.74219 0.22461,1.01563 l 0,0.0781 -4.6875,0 0,-0.0781 c 0.0781,-0.27344 0.15299,-0.61198 0.22461,-1.01563 0.0716,-0.40364 0.13346,-0.90494 0.18555,-1.5039 0.0521,-0.59896 0.0911,-1.31185 0.11719,-2.13868 0.026,-0.82681 0.0391,-1.79361 0.0391,-2.90039 l 0,-12.71484 c -1e-5,-1.10675 -0.013,-2.073545 -0.0391,-2.900391 -0.026,-0.826799 -0.0651,-1.542944 -0.11719,-2.148437 -0.0521,-0.605443 -0.11394,-1.11 -0.18555,-1.513672 -0.0716,-0.403619 -0.14649,-0.74216 -0.22461,-1.015625 l 0,-0.07813 c 0.26042,0.02607 0.53385,0.05211 0.82031,0.07813 0.2474,0.02607 0.52409,0.04234 0.83008,0.04883 0.30599,0.0065 0.62174,0.0098 0.94727,0.0098 0.5078,2.7e-5 1.19465,-0.06182 2.06054,-0.185547 0.86588,-0.12367 1.9694,-0.185519 3.31055,-0.185547 1.24999,2.8e-5 2.40559,0.169299 3.4668,0.507812 1.06118,0.338569 1.9824,0.833361 2.76367,1.484375 0.78123,0.651068 1.38996,1.448593 1.82617,2.392578 0.43618,0.944034 0.65428,2.014996 0.6543,3.212891 -2e-5,0.93752 -0.12046,1.80666 -0.36133,2.607422 -0.2409,0.800798 -0.57944,1.526709 -1.01562,2.177734 -0.43622,0.651057 -0.96031,1.227228 -1.57227,1.728516 -0.61199,0.501316 -1.29559,0.921237 -2.05078,1.259766 l 8.84277,12.609855 c 0.74371,0.82157 1.89594,1.25849 3.24745,2.08257 0.93651,0.56254 2.10196,0.87509 3.05381,1.0815 l 0,0.2318 c 0,0 -6.53937,0.10978 -6.71503,-0.1537 -2.16587,-0.89664 -2.3167,-1.35177 -3.04326,-2.20703 l -8.90137,-12.727047 c -0.63803,0.06512 -1.29558,0.09767 -1.97265,0.09766 -0.67709,1.1e-5 -1.3672,-0.05858 -2.07031,-0.175782 z m 0,-5.917965 c 1.27603,0.234388 2.44465,0.26694 3.50585,0.09766 1.06119,-0.169257 1.97265,-0.540351 2.73438,-1.113281 0.7617,-0.572902 1.35415,-1.350896 1.77734,-2.333985 0.42317,-0.983055 0.63475,-2.177715 0.63477,-3.583984 -2e-5,-0.976541 -0.11069,-1.861957 -0.33203,-2.65625 -0.22137,-0.794247 -0.55015,-1.468074 -0.98633,-2.021484 -0.43621,-0.55336 -0.98634,-0.983047 -1.65039,-1.289063 -0.66408,-0.305963 -1.43881,-0.458957 -2.32422,-0.458984 -0.5599,2.7e-5 -1.04819,0.02281 -1.46484,0.06836 -0.41668,0.0456 -0.76824,0.09443 -1.05469,0.146485 -0.33855,0.06513 -0.6185,0.136745 -0.83984,0.214843 z"
         style="font-size:40px;font-style:normal;font-variant:normal;font-weight:normal;font-stretch:normal;line-height:125%;letter-spacing:0px;word-spacing:0px;fill:#f9cd64;fill-opacity:1;stroke:none;font-family:Marcellus SC;-inkscape-font-specification:Marcellus SC"
         id="path3778"
         inkscape:connector-curvature="0"
         sodipodi:nodetypes="cccccccccccssccscccccccccccccscccccccccccccssccccccccc" />
      <path
         d="m 166.9878,84.361427 c -0.026,1.458359 -0.0521,2.871118 -0.0781,4.238282 -0.013,0.585959 -0.0228,1.184916 -0.0293,1.796875 -0.007,0.611998 -0.013,1.214211 -0.0195,1.80664 -0.007,0.592466 -0.013,1.158872 -0.0195,1.699219 -0.007,0.540381 -0.01,1.018896 -0.01,1.435547 -1e-5,0.87241 0.007,1.927097 0.0195,3.164062 0.013,1.23699 0.0293,2.506518 0.0488,3.808598 0.0195,1.30209 0.0488,2.55209 0.0879,3.75 0.0391,1.19792 0.0846,2.19401 0.13672,2.98828 0.18228,0.026 0.42642,0.0553 0.73242,0.0879 0.30598,0.0326 0.62825,0.0586 0.9668,0.0781 0.33853,0.0195 0.67056,0.0358 0.99609,0.0488 0.32551,0.013 0.59895,0.0195 0.82031,0.0195 0.91145,0 1.84569,-0.0618 2.80274,-0.18554 0.95702,-0.1237 1.88149,-0.35482 2.77344,-0.69336 0.89191,-0.33854 1.73175,-0.80404 2.51953,-1.39649 0.78774,-0.59244 1.47784,-1.35742 2.07031,-2.29492 0.59243,-0.93749 1.05792,-2.06705 1.39648,-3.38867 0.33852,-1.32161 0.50779,-2.880849 0.50782,-4.677736 -3e-5,-1.992172 -0.24091,-3.766259 -0.72266,-5.322266 -0.48179,-1.555969 -1.18817,-2.867816 -2.11914,-3.935547 -0.93101,-1.067684 -2.08335,-1.87823 -3.45703,-2.431641 -1.37371,-0.553359 -2.95249,-0.830051 -4.73633,-0.830078 -0.35157,2.7e-5 -0.74871,0.0098 -1.19141,0.0293 -0.44271,0.01956 -0.88217,0.03909 -1.31836,0.05859 -0.4362,0.01956 -0.84636,0.0456 -1.23046,0.07813 -0.38413,0.03258 -0.69988,0.05536 -0.94727,0.06836 z m -4.27734,-1.757812 c 0.29947,0.01305 0.57942,0.02607 0.83984,0.03906 0.22135,0.01305 0.44922,0.02281 0.68359,0.0293 0.23437,0.0065 0.42318,0.0098 0.56641,0.0098 0.24739,2.8e-5 0.6608,-0.01299 1.24023,-0.03906 0.57943,-0.02601 1.24023,-0.05206 1.98243,-0.07813 0.74218,-0.02601 1.51366,-0.05206 2.31445,-0.07813 0.80077,-0.02601 1.55272,-0.03903 2.25586,-0.03906 1.88801,2.8e-5 3.68488,0.234403 5.39062,0.703125 1.70571,0.468777 3.20311,1.237005 4.49219,2.304687 1.28904,1.067733 2.31117,2.467471 3.06641,4.199219 0.75518,1.73179 1.13278,3.860694 1.13281,6.386719 -3e-5,1.809908 -0.19859,3.437511 -0.5957,4.882815 -0.39716,1.44532 -0.9538,2.72136 -1.66992,3.82812 -0.71617,1.10678 -1.57229,2.05404 -2.56836,2.8418 -0.99612,0.78776 -2.09638,1.43555 -3.30079,1.94336 -1.20444,0.50781 -2.49025,0.87891 -3.85742,1.11328 -1.3672,0.23437 -2.77996,0.35156 -4.23828,0.35156 -0.52084,0 -1.1491,-0.0163 -1.88476,-0.0488 -0.73569,-0.0326 -1.47462,-0.0684 -2.2168,-0.10742 -0.74219,-0.0391 -1.44206,-0.0749 -2.09961,-0.10742 -0.65756,-0.0326 -1.16862,-0.0488 -1.5332,-0.0488 l 0,-0.0781 c 0.0781,-0.27344 0.15299,-0.61198 0.22461,-1.01563 0.0716,-0.40364 0.13346,-0.90494 0.18554,-1.5039 0.0521,-0.59896 0.0911,-1.31185 0.11719,-2.13868 0.026,-0.82681 0.0391,-1.79361 0.0391,-2.90039 l 0,-12.71484 c 0,-1.10675 -0.013,-2.080056 -0.0391,-2.919922 -0.026,-0.83982 -0.0651,-1.562475 -0.11719,-2.167969 -0.0521,-0.605443 -0.11393,-1.11651 -0.18554,-1.533203 -0.0716,-0.416639 -0.14649,-0.761691 -0.22461,-1.035156 z"
         style="font-size:40px;font-style:normal;font-variant:normal;font-weight:normal;font-stretch:normal;line-height:125%;letter-spacing:0px;word-spacing:0px;fill:#f9cd64;fill-opacity:1;stroke:none;font-family:Marcellus SC;-inkscape-font-specification:Marcellus SC"
         id="path3780"
         inkscape:connector-curvature="0" />
    </g>
    <g
       id="g3804"
       transform="matrix(2.6646821,0,0,2.6646821,-181.40784,-223.20939)">
      <path
         d="m 90.757332,147.29111 c -0.520855,-0.013 -1.171896,-0.0228 -1.953125,-0.0293 -0.78127,-0.006 -1.630878,-0.0163 -2.548828,-0.0293 -0.917986,-0.013 -1.875016,-0.0228 -2.871094,-0.0293 -0.996108,-0.006 -1.969414,-0.013 -2.919922,-0.0195 -0.950532,-0.006 -1.855479,-0.003 -2.714844,0.01 -0.859383,0.013 -1.60808,0.0326 -2.246093,0.0586 l 0,5.80078 c -7e-6,1.10678 0.01627,2.07358 0.04883,2.90039 0.03254,0.82683 0.07161,1.53972 0.117187,2.13868 0.04557,0.59896 0.10416,1.10026 0.175781,1.5039 0.07161,0.40365 0.146477,0.74219 0.22461,1.01563 l 0,0.0781 -4.6875,0 0,-0.0781 c 0.07812,-0.27344 0.152992,-0.61198 0.224609,-1.01563 0.07161,-0.40364 0.133461,-0.90494 0.185547,-1.5039 0.05208,-0.59896 0.09114,-1.31185 0.117188,-2.13868 0.02604,-0.82681 0.03906,-1.79361 0.03906,-2.90039 l 0,-12.71484 c -3e-6,-1.10675 -0.01302,-2.07355 -0.03906,-2.90039 -0.02605,-0.8268 -0.06511,-1.54294 -0.117188,-2.14844 -0.05209,-0.60544 -0.113935,-1.11 -0.185547,-1.51367 -0.07162,-0.40362 -0.146487,-0.74216 -0.224609,-1.01563 l 0,-0.0781 4.6875,0 0,0.0781 c -0.07813,0.27347 -0.153002,0.61201 -0.22461,1.01563 -0.07162,0.40367 -0.130215,0.90823 -0.175781,1.51367 -0.04558,0.6055 -0.08464,1.32164 -0.117187,2.14844 -0.03256,0.82684 -0.04884,1.79364 -0.04883,2.90039 l 0,5 c 0.677075,0.0261 1.445304,0.0423 2.304687,0.0488 0.859365,0.007 1.757802,0.007 2.695313,0 0.937487,-0.006 1.891262,-0.0163 2.861328,-0.0293 0.970036,-0.013 1.907535,-0.0293 2.8125,-0.0488 0.904929,-0.0195 1.751282,-0.0423 2.539062,-0.0684 0.78774,-0.026 1.468078,-0.0521 2.041016,-0.0781 l 0,-4.82422 c -2.2e-5,-1.10675 -0.0163,-2.07355 -0.04883,-2.90039 -0.03257,-0.8268 -0.07164,-1.54294 -0.117188,-2.14844 -0.0456,-0.60544 -0.104188,-1.11 -0.175781,-1.51367 -0.07164,-0.40362 -0.146506,-0.74216 -0.224609,-1.01563 l 0,-0.0781 4.6875,0 0,0.0781 c -0.07815,0.27347 -0.153021,0.61201 -0.22461,1.01563 -0.07164,0.40367 -0.133489,0.90823 -0.185547,1.51367 -0.05211,0.6055 -0.09117,1.32164 -0.117187,2.14844 -0.02607,0.82684 -0.03909,1.79364 -0.03906,2.90039 l 0,12.71484 c -2.5e-5,1.10678 0.01299,2.07358 0.03906,2.90039 0.02602,0.82683 0.06508,1.53972 0.117187,2.13868 0.05206,0.59896 0.113907,1.10026 0.185547,1.5039 0.07159,0.40365 0.146458,0.74219 0.22461,1.01563 l 0,0.0781 -4.6875,0 0,-0.0781 c 0.0781,-0.27344 0.152973,-0.61198 0.224609,-1.01563 0.07159,-0.40364 0.130186,-0.90494 0.175781,-1.5039 0.04555,-0.59896 0.08461,-1.31185 0.117188,-2.13868 0.03253,-0.82681 0.04881,-1.79361 0.04883,-2.90039 z"
         style="font-size:40px;font-style:normal;font-variant:normal;font-weight:normal;font-stretch:normal;line-height:125%;letter-spacing:0px;word-spacing:0px;fill:#f9cd64;fill-opacity:1;stroke:none;font-family:Marcellus SC;-inkscape-font-specification:Marcellus SC"
         id="path3782"
         inkscape:connector-curvature="0" />
      <path
         d="m 119.81983,160.68955 0,-0.0781 c 0.026,-0.0651 0.0456,-0.16276 0.0586,-0.29297 0.013,-0.13021 0.0195,-0.2474 0.0195,-0.35156 -3e-5,-0.40365 -0.0554,-0.84961 -0.16602,-1.33789 -0.1107,-0.48828 -0.32229,-1.09701 -0.63476,-1.82618 l -2.36329,-5.3125 c -0.72918,-0.026 -1.69923,-0.0391 -2.91015,-0.0391 -1.21095,1e-5 -2.51955,1e-5 -3.92578,0 -1.02866,1e-5 -2.0215,1e-5 -2.97852,0 -0.95704,1e-5 -1.81967,0.013 -2.58789,0.0391 l -2.24609,5.15625 c -0.19532,0.48178 -0.40365,1.00912 -0.625,1.58203 -0.22136,0.57292 -0.33204,1.15235 -0.33203,1.73829 -1e-5,0.16927 0.013,0.30924 0.0391,0.41992 0.026,0.11068 0.0521,0.18554 0.0781,0.22461 l 0,0.0781 -3.984372,0 0,-0.0781 c 0.234375,-0.2474 0.527344,-0.68685 0.878906,-1.31836 0.351562,-0.63151 0.735676,-1.42253 1.152344,-2.37305 l 11.191402,-24.82422 1.5625,0 10.60547,23.86719 c 0.24737,0.5599 0.50453,1.10352 0.77149,1.63086 0.2669,0.52735 0.51755,0.99935 0.75195,1.41601 0.23435,0.41667 0.44268,0.76823 0.625,1.05469 0.18226,0.28646 0.30596,0.46875 0.37109,0.54688 l 0,0.0781 z m -12.65625,-10.91797 c 0.7552,1e-5 1.52994,-0.003 2.32422,-0.01 0.79426,-0.006 1.57225,-0.013 2.33398,-0.0195 0.76171,-0.006 1.49413,-0.013 2.19727,-0.0195 0.70311,-0.006 1.34113,-0.0163 1.91406,-0.0293 l -5.48828,-12.40235 -5.39062,12.48047 z"
         style="font-size:40px;font-style:normal;font-variant:normal;font-weight:normal;font-stretch:normal;line-height:125%;letter-spacing:0px;word-spacing:0px;fill:#f9cd64;fill-opacity:1;stroke:none;font-family:Marcellus SC;-inkscape-font-specification:Marcellus SC"
         id="path3784"
         inkscape:connector-curvature="0" />
      <path
         d="m 131.6753,158.9708 c 1.53645,0 2.94921,-0.0651 4.23828,-0.19531 1.28905,-0.13021 2.41535,-0.27995 3.37891,-0.44922 1.11977,-0.18229 2.14191,-0.39713 3.0664,-0.64453 l -0.5664,3.16406 c -0.15627,-0.013 -0.39064,-0.026 -0.70313,-0.0391 -0.31251,-0.013 -0.66082,-0.026 -1.04492,-0.0391 -0.38413,-0.013 -0.78777,-0.0228 -1.21094,-0.0293 -0.42319,-0.007 -0.82358,-0.013 -1.20117,-0.0195 -0.37761,-0.007 -0.7129,-0.013 -1.00586,-0.0195 -0.29298,-0.007 -0.50457,-0.01 -0.63476,-0.01 l -8.4375,0 0,-0.0781 c 0.0781,-0.27344 0.15299,-0.61198 0.22461,-1.01563 0.0716,-0.40364 0.13346,-0.90494 0.18554,-1.5039 0.0521,-0.59896 0.0911,-1.31185 0.11719,-2.13868 0.026,-0.82681 0.0391,-1.79361 0.0391,-2.90039 l 0,-12.71484 c 0,-1.10675 -0.013,-2.07355 -0.0391,-2.90039 -0.026,-0.8268 -0.0651,-1.54294 -0.11719,-2.14844 -0.0521,-0.60544 -0.11393,-1.11 -0.18554,-1.51367 -0.0716,-0.40362 -0.14649,-0.74216 -0.22461,-1.01563 l 0,-0.0781 4.6875,0 0,0.0781 c -0.0781,0.27347 -0.15301,0.61201 -0.22461,1.01563 -0.0716,0.40367 -0.13022,0.90823 -0.17578,1.51367 -0.0456,0.6055 -0.0846,1.32164 -0.11719,2.14844 -0.0326,0.82684 -0.0488,1.79364 -0.0488,2.90039 z"
         style="font-size:40px;font-style:normal;font-variant:normal;font-weight:normal;font-stretch:normal;line-height:125%;letter-spacing:0px;word-spacing:0px;fill:#f9cd64;fill-opacity:1;stroke:none;font-family:Marcellus SC;-inkscape-font-specification:Marcellus SC"
         id="path3786"
         inkscape:connector-curvature="0" />
      <path
         d="m 150.1128,158.9708 c 1.53645,0 2.94921,-0.0651 4.23828,-0.19531 1.28905,-0.13021 2.41535,-0.27995 3.37891,-0.44922 1.11977,-0.18229 2.14191,-0.39713 3.0664,-0.64453 l -0.5664,3.16406 c -0.15627,-0.013 -0.39064,-0.026 -0.70313,-0.0391 -0.31251,-0.013 -0.66082,-0.026 -1.04492,-0.0391 -0.38413,-0.013 -0.78777,-0.0228 -1.21094,-0.0293 -0.42319,-0.007 -0.82358,-0.013 -1.20117,-0.0195 -0.37761,-0.007 -0.7129,-0.013 -1.00586,-0.0195 -0.29298,-0.007 -0.50457,-0.01 -0.63476,-0.01 l -8.4375,0 0,-0.0781 c 0.0781,-0.27344 0.15299,-0.61198 0.22461,-1.01563 0.0716,-0.40364 0.13346,-0.90494 0.18554,-1.5039 0.0521,-0.59896 0.0911,-1.31185 0.11719,-2.13868 0.026,-0.82681 0.0391,-1.79361 0.0391,-2.90039 l 0,-12.71484 c 0,-1.10675 -0.013,-2.07355 -0.0391,-2.90039 -0.026,-0.8268 -0.0651,-1.54294 -0.11719,-2.14844 -0.0521,-0.60544 -0.11393,-1.11 -0.18554,-1.51367 -0.0716,-0.40362 -0.14649,-0.74216 -0.22461,-1.01563 l 0,-0.0781 4.6875,0 0,0.0781 c -0.0781,0.27347 -0.15301,0.61201 -0.22461,1.01563 -0.0716,0.40367 -0.13022,0.90823 -0.17578,1.51367 -0.0456,0.6055 -0.0846,1.32164 -0.11719,2.14844 -0.0326,0.82684 -0.0488,1.79364 -0.0488,2.90039 z"
         style="font-size:40px;font-style:normal;font-variant:normal;font-weight:normal;font-stretch:normal;line-height:125%;letter-spacing:0px;word-spacing:0px;fill:#f9cd64;fill-opacity:1;stroke:none;font-family:Marcellus SC;-inkscape-font-specification:Marcellus SC"
         id="path3788"
         inkscape:connector-curvature="0" />
    </g>
  </g>
  <g
     inkscape:groupmode="layer"
     id="layer4"
     inkscape:label="ward hall" />
</svg>
