<?xml version="1.0" encoding="UTF-8" standalone="no"?>
<!-- Created with Inkscape (http://www.inkscape.org/) -->

<svg
   xmlns:dc="http://purl.org/dc/elements/1.1/"
   xmlns:cc="http://creativecommons.org/ns#"
   xmlns:rdf="http://www.w3.org/1999/02/22-rdf-syntax-ns#"
   xmlns:svg="http://www.w3.org/2000/svg"
   xmlns="http://www.w3.org/2000/svg"
   xmlns:sodipodi="http://sodipodi.sourceforge.net/DTD/sodipodi-0.dtd"
   xmlns:inkscape="http://www.inkscape.org/namespaces/inkscape"
   width="256"
   height="256"
   id="svg2"
   version="1.1"
   inkscape:version="0.48.4 r9939"
   sodipodi:docname="square_template_256.svg"
   inkscape:export-filename="C:\Users\Ryan Cooper\Documents\GitHub\GSCPC-Website-Stuff\img\question_icon.png"
   inkscape:export-xdpi="90"
   inkscape:export-ydpi="90">
  <defs
     id="defs4" />
  <sodipodi:namedview
     id="base"
     pagecolor="#ffffff"
     bordercolor="#666666"
     borderopacity="1.0"
     inkscape:pageopacity="0.0"
     inkscape:pageshadow="2"
     inkscape:zoom="2"
     inkscape:cx="127.49848"
     inkscape:cy="94.157102"
     inkscape:document-units="px"
     inkscape:current-layer="layer3"
     showgrid="false"
     showguides="false"
     inkscape:guide-bbox="true"
     inkscape:window-width="1920"
     inkscape:window-height="976"
     inkscape:window-x="-8"
     inkscape:window-y="-8"
     inkscape:window-maximized="1">
    <sodipodi:guide
       orientation="1,0"
       position="8,128"
       id="guide2985" />
    <sodipodi:guide
       orientation="0,1"
       position="128,248"
       id="guide2987" />
    <sodipodi:guide
       orientation="1,0"
       position="248,128"
       id="guide2989" />
    <sodipodi:guide
       orientation="0,1"
       position="128,8"
       id="guide2993" />
    <sodipodi:guide
       orientation="0,1"
       position="128,128"
       id="guide2995" />
    <sodipodi:guide
       orientation="1,0"
       position="128,128"
       id="guide2997" />
    <sodipodi:guide
       orientation="1,0"
       position="0,128"
       id="guide3788" />
    <sodipodi:guide
       orientation="1,0"
       position="256,128"
       id="guide3790" />
    <sodipodi:guide
       orientation="0,1"
       position="128,256"
       id="guide3792" />
    <sodipodi:guide
       orientation="0,1"
       position="128,0"
       id="guide3794" />
  </sodipodi:namedview>
  <metadata
     id="metadata7">
    <rdf:RDF>
      <cc:Work
         rdf:about="">
        <dc:format>image/svg+xml</dc:format>
        <dc:type
           rdf:resource="http://purl.org/dc/dcmitype/StillImage" />
        <dc:title></dc:title>
      </cc:Work>
    </rdf:RDF>
  </metadata>
  <g
     inkscape:groupmode="layer"
     id="layer1"
     inkscape:label="bg"
     sodipodi:insensitive="true">
    <rect
       style="color:#000000;fill:#ffffff;fill-opacity:1;stroke:none;stroke-width:15;marker:none;visibility:visible;display:inline;overflow:visible;enable-background:accumulate"
       id="rect3006"
       width="256"
       height="256"
       x="0"
       y="1.204592e-014" />
  </g>
  <g
     inkscape:groupmode="layer"
     id="layer2"
     inkscape:label="fema"
     sodipodi:insensitive="true">
    <rect
       style="color:#000000;fill:#e74c3c;fill-opacity:1;fill-rule:nonzero;stroke:#2c3e50;stroke-width:12;stroke-miterlimit:4;stroke-opacity:1;stroke-dasharray:none;marker:none;visibility:visible;display:inline;overflow:visible;enable-background:accumulate"
       id="rect4295"
       width="128"
       height="128"
       x="0"
       y="128" />
    <rect
       style="color:#000000;fill:#7f8c8d;fill-opacity:1;fill-rule:nonzero;stroke:#2c3e50;stroke-width:12;stroke-miterlimit:4;stroke-opacity:1;stroke-dasharray:none;marker:none;visibility:visible;display:inline;overflow:visible;enable-background:accumulate"
       id="rect4295-1"
       width="128"
       height="128"
       x="0"
       y="0" />
    <rect
       style="color:#000000;fill:#e67e22;fill-opacity:1;fill-rule:nonzero;stroke:#2c3e50;stroke-width:12;stroke-miterlimit:4;stroke-opacity:1;stroke-dasharray:none;marker:none;visibility:visible;display:inline;overflow:visible;enable-background:accumulate"
       id="rect4295-1-7"
       width="128"
       height="128"
       x="128"
       y="0" />
    <rect
       style="color:#000000;fill:#2980b9;fill-opacity:1;fill-rule:nonzero;stroke:#2c3e50;stroke-width:12;stroke-miterlimit:4;stroke-opacity:1;stroke-dasharray:none;marker:none;visibility:visible;display:inline;overflow:visible;enable-background:accumulate"
       id="rect4295-1-4"
       width="128"
       height="128"
       x="128"
       y="128" />
  </g>
  <g
     inkscape:groupmode="layer"
     id="layer3"
     inkscape:label="text">
    <g
       style="font-size:40px;font-style:normal;font-variant:normal;font-weight:normal;font-stretch:normal;line-height:125%;letter-spacing:0px;word-spacing:0px;fill:#ffffff;fill-opacity:1;stroke:none;font-family:Open Sans;-inkscape-font-specification:Open Sans"
       id="text4354"
       transform="matrix(1.8214064,0,0,1.8214064,-55.028392,-166.57217)">
      <path
         d="m 54.733944,158.41927 -21.25,0 0,-3.92579 13.691406,-19.6289 -13.320312,0 0,-5 20.507812,0 0,3.90625 -13.671875,19.64844 14.042969,0 z"
         style="font-weight:bold;fill:#ffffff;fill-opacity:1;-inkscape-font-specification:Open Sans Bold"
         id="path4359"
         inkscape:connector-curvature="0" />
      <path
         d="m 63.601131,147.46223 c -7e-6,2.16147 0.35481,3.79558 1.064454,4.90235 0.709625,1.10677 1.865223,1.66016 3.466796,1.66015 1.588528,1e-5 2.731105,-0.55012 3.427735,-1.65039 0.696598,-1.10025 1.044905,-2.73762 1.044922,-4.91211 -1.7e-5,-2.16144 -0.351579,-3.78253 -1.054688,-4.86328 -0.70314,-1.08071 -1.855483,-1.62107 -3.457031,-1.62109 -1.588553,2e-5 -2.734385,0.53713 -3.4375,1.61133 -0.703133,1.07423 -1.054695,2.69858 -1.054688,4.87304 z m 15.097657,0 c -2.3e-5,3.5547 -0.937522,6.33464 -2.8125,8.33985 -1.875019,2.00521 -4.485693,3.00781 -7.832032,3.00781 -2.096364,0 -3.94532,-0.45898 -5.546875,-1.37695 -1.601567,-0.91797 -2.832035,-2.23633 -3.691406,-3.95508 -0.859377,-1.71874 -1.289064,-3.72395 -1.289062,-6.01563 -2e-6,-3.56769 0.930987,-6.34112 2.792968,-8.32031 1.861973,-1.97914 4.479158,-2.96873 7.851563,-2.96875 2.09634,2e-5 3.945296,0.45575 5.546875,1.36719 1.601543,0.91148 2.83201,2.22007 3.691406,3.92578 0.859353,1.70575 1.28904,3.70444 1.289063,5.99609 z"
         style="font-weight:bold;fill:#ffffff;fill-opacity:1;-inkscape-font-specification:Open Sans Bold"
         id="path4361"
         inkscape:connector-curvature="0" />
      <path
         d="m 103.77691,158.41927 -5.957029,0 0,-12.75391 c -1.7e-5,-1.57551 -0.279965,-2.75715 -0.839843,-3.54492 -0.559912,-0.78775 -1.451838,-1.18163 -2.675782,-1.18164 -1.666678,1e-5 -2.871104,0.55665 -3.613281,1.66992 -0.742197,1.11329 -1.11329,2.959 -1.113281,5.53711 l 0,10.27344 -5.957031,0 0,-21.83594 4.550781,0 0.800781,2.79297 0.332031,0 c 0.664053,-1.05467 1.578766,-1.8522 2.744141,-2.39258 1.165352,-0.54034 2.49022,-0.81053 3.974609,-0.81055 2.539045,2e-5 4.466124,0.68687 5.781254,2.06055 1.31508,1.37372 1.97263,3.35614 1.97265,5.94726 z"
         style="font-weight:bold;fill:#ffffff;fill-opacity:1;-inkscape-font-specification:Open Sans Bold"
         id="path4363"
         inkscape:connector-curvature="0" />
      <path
         d="m 109.69488,130.9388 c 0,-1.94008 1.08073,-2.91013 3.24219,-2.91016 2.16145,3e-5 3.24218,0.97008 3.24219,2.91016 -1e-5,0.9245 -0.27019,1.6439 -0.81055,2.1582 -0.54037,0.51435 -1.35092,0.77151 -2.43164,0.77148 -2.16146,3e-5 -3.24219,-0.97653 -3.24219,-2.92968 z m 6.21094,27.48047 -5.95703,0 0,-21.83594 5.95703,0 z"
         style="font-weight:bold;fill:#ffffff;fill-opacity:1;-inkscape-font-specification:Open Sans Bold"
         id="path4365"
         inkscape:connector-curvature="0" />
      <path
         d="m 142.29254,158.41927 -5.95703,0 0,-12.75391 c -2e-5,-1.57551 -0.27997,-2.75715 -0.83985,-3.54492 -0.55991,-0.78775 -1.45184,-1.18163 -2.67578,-1.18164 -1.66668,1e-5 -2.8711,0.55665 -3.61328,1.66992 -0.7422,1.11329 -1.11329,2.959 -1.11328,5.53711 l 0,10.27344 -5.95703,0 0,-21.83594 4.55078,0 0.80078,2.79297 0.33203,0 c 0.66405,-1.05467 1.57877,-1.8522 2.74414,-2.39258 1.16535,-0.54034 2.49022,-0.81053 3.97461,-0.81055 2.53905,2e-5 4.46613,0.68687 5.78125,2.06055 1.31508,1.37372 1.97263,3.35614 1.97266,5.94726 z"
         style="font-weight:bold;fill:#ffffff;fill-opacity:1;-inkscape-font-specification:Open Sans Bold"
         id="path4367"
         inkscape:connector-curvature="0" />
      <path
         d="m 167.46832,136.58333 0,3.02734 -3.41797,0.87891 c 0.62498,0.97658 0.93748,2.07033 0.9375,3.28125 -2e-5,2.34376 -0.81708,4.16993 -2.45117,5.47851 -1.63413,1.30861 -3.90301,1.9629 -6.80664,1.96289 l -1.07422,-0.0586 -0.87891,-0.0977 c -0.61198,0.46876 -0.91797,0.98959 -0.91797,1.5625 0,0.85938 1.09375,1.28907 3.28125,1.28907 l 3.71094,0 c 2.39582,0 4.22199,0.51432 5.47852,1.54297 1.25649,1.02864 1.88474,2.53906 1.88476,4.53125 -2e-5,2.55207 -1.06447,4.53124 -3.19336,5.9375 -2.12892,1.40624 -5.18556,2.10936 -9.16992,2.10937 -3.04688,-1e-5 -5.37435,-0.53061 -6.98242,-1.5918 -1.60807,-1.0612 -2.41211,-2.54883 -2.41211,-4.46289 0,-1.3151 0.41016,-2.41536 1.23047,-3.30078 0.82031,-0.88541 2.02474,-1.51692 3.61328,-1.89453 -0.61198,-0.26041 -1.14584,-0.68685 -1.60156,-1.2793 -0.45573,-0.59244 -0.6836,-1.2207 -0.6836,-1.88476 0,-0.83333 0.24089,-1.52669 0.72266,-2.08008 0.48177,-0.55338 1.17838,-1.097 2.08984,-1.63086 -1.14583,-0.49478 -2.05404,-1.28905 -2.72461,-2.38281 -0.67057,-1.09374 -1.00586,-2.3828 -1.00585,-3.86719 -1e-5,-2.38279 0.77473,-4.22524 2.32421,-5.52734 1.54948,-1.30206 3.76302,-1.95311 6.64063,-1.95313 0.61197,2e-5 1.33788,0.0554 2.17773,0.16602 0.83983,0.1107 1.37694,0.19208 1.61133,0.24414 z m -16.85547,24.92187 c -1e-5,0.82031 0.39387,1.46484 1.18164,1.9336 0.78775,0.46874 1.89127,0.70312 3.31055,0.70312 2.1354,0 3.80858,-0.29297 5.01953,-0.8789 1.21092,-0.58595 1.81639,-1.38673 1.81641,-2.40235 -2e-5,-0.82031 -0.35809,-1.38672 -1.07422,-1.69922 -0.71616,-0.3125 -1.82293,-0.46875 -3.32032,-0.46875 l -3.08593,0 c -1.09376,0 -2.00847,0.25716 -2.74414,0.77149 -0.73569,0.51432 -1.10353,1.19466 -1.10352,2.04101 z m 2.16797,-17.77343 c -1e-5,1.18491 0.27017,2.1224 0.81055,2.8125 0.54035,0.69011 1.36392,1.03516 2.4707,1.03515 1.11978,1e-5 1.94009,-0.34504 2.46094,-1.03515 0.52082,-0.6901 0.78123,-1.62759 0.78125,-2.8125 -2e-5,-2.6302 -1.08075,-3.9453 -3.24219,-3.94532 -2.18751,2e-5 -3.28126,1.31512 -3.28125,3.94532 z"
         style="font-weight:bold;fill:#ffffff;fill-opacity:1;-inkscape-font-specification:Open Sans Bold"
         id="path4369"
         inkscape:connector-curvature="0" />
    </g>
  </g>
</svg>
